<svg width="121" height="149" viewBox="0 0 121 149" fill="none" xmlns="http://www.w3.org/2000/svg">
<g filter="url(#filter0_d_2103_8358)">
<path d="M47.1453 13.9C47.6103 13.9 48.0562 14.0853 48.3845 14.4146C48.7125 14.7439 48.8966 15.1902 48.8953 15.6549C48.8953 15.6566 48.8952 15.6589 48.8953 15.6617C48.8954 15.6745 48.8962 15.6985 48.8972 15.732C48.8993 15.7994 48.9037 15.907 48.9138 16.0484C48.9342 16.3324 48.9767 16.7506 49.0642 17.2584C49.2407 18.2824 49.5936 19.6293 50.2888 20.9664C50.9798 22.2952 51.9983 23.597 53.5125 24.5885C55.0202 25.5758 57.1139 26.3171 60.0564 26.3912C60.0579 26.3912 60.0598 26.3912 60.0613 26.3912C63.0037 26.3171 65.0974 25.5757 66.6052 24.5885C68.1195 23.597 69.1389 22.2952 69.8298 20.9664C70.5251 19.6293 70.877 18.2823 71.0535 17.2584C71.141 16.7506 71.1834 16.3324 71.2039 16.0484C71.214 15.907 71.2193 15.7994 71.2214 15.732C71.2225 15.6985 71.2232 15.6745 71.2234 15.6617V15.6549C71.2221 15.1903 71.4052 14.7438 71.7332 14.4146C72.0615 14.0851 72.5082 13.9 72.9734 13.9H79.4763C79.5358 13.9 79.5958 13.9027 79.655 13.9088C83.8584 14.3392 86.9301 15.8774 88.9617 17.3326C89.9744 18.058 90.7272 18.762 91.2351 19.2955C91.4891 19.5623 91.6831 19.7873 91.8181 19.9527C91.8857 20.0355 91.9386 20.104 91.9773 20.1549C91.9965 20.1802 92.013 20.2008 92.0251 20.2174C92.0312 20.2256 92.0364 20.2329 92.0408 20.2389L92.0486 20.2506L92.0496 20.2525C92.046 20.2559 91.9834 20.3009 90.9841 21.0123L92.0505 20.2535C92.0826 20.2985 92.1127 20.3453 92.1404 20.3932L105.983 44.3541C106.215 44.7562 106.278 45.2337 106.158 45.6822C106.038 46.1307 105.745 46.5137 105.343 46.7457L90.198 55.4752C89.7959 55.7068 89.318 55.7695 88.8699 55.649C88.4218 55.5285 88.04 55.2347 87.8083 54.8326L86.6619 52.8414V78.7086C86.6619 81.951 84.0192 84.5914 80.7771 84.5914H39.3416C36.0995 84.5913 33.4568 81.951 33.4568 78.7086V52.8414L32.3103 54.8326C32.0786 55.2348 31.6961 55.5285 31.2478 55.649C30.7996 55.7694 30.3218 55.707 29.9197 55.4752L14.7761 46.7457C14.3738 46.5138 14.08 46.1308 13.9597 45.6822C13.8396 45.2339 13.9025 44.7561 14.1345 44.3541L27.9783 20.3932L28.0671 20.2535L29.4929 21.2682C28.1037 20.2793 28.0685 20.2539 28.0681 20.2525L28.0691 20.2506C28.0698 20.2496 28.0712 20.2488 28.072 20.2477C28.0738 20.2452 28.0757 20.2419 28.0779 20.2389C28.0822 20.2329 28.0875 20.2255 28.0935 20.2174C28.1057 20.2008 28.1221 20.1802 28.1414 20.1549C28.18 20.104 28.233 20.0355 28.3005 19.9527C28.4356 19.7873 28.6295 19.5623 28.8835 19.2955C29.3914 18.762 30.1442 18.0581 31.157 17.3326C33.1886 15.8774 36.2602 14.3391 40.4636 13.9088L40.6414 13.9H47.1453ZM40.7468 17.4C37.2778 17.7692 34.7987 19.0297 33.1951 20.1783C32.3847 20.7588 31.7953 21.312 31.4177 21.7086C31.2293 21.9065 31.0944 22.065 31.0115 22.1666C30.9872 22.1964 30.9672 22.2212 30.9519 22.2408L18.0417 44.5875L30.1501 51.568L33.6902 45.4234C34.0857 44.7369 34.8935 44.4024 35.6589 44.607C36.4243 44.8118 36.9568 45.5051 36.9568 46.2975V78.7086C36.9568 80.0167 38.0313 81.0913 39.3416 81.0914H80.7771C82.0874 81.0914 83.1619 80.0168 83.1619 78.7086V46.2975C83.1619 45.5051 83.6943 44.8117 84.4597 44.607C85.225 44.4025 86.032 44.7371 86.4275 45.4234L89.9666 51.5689L102.076 44.5875L89.1658 22.2408C89.1505 22.2213 89.1313 22.1962 89.1072 22.1666C89.0242 22.0649 88.8885 21.9066 88.7 21.7086C88.3224 21.312 87.7339 20.7587 86.9236 20.1783C85.32 19.0297 82.8407 17.7692 79.3718 17.4H74.575C74.5541 17.5443 74.5298 17.6955 74.5027 17.8531C74.2843 19.1204 73.8416 20.8357 72.9343 22.5807C72.0227 24.3339 70.6321 26.1352 68.5232 27.5162C66.4077 28.9014 63.6634 29.8018 60.1492 29.8902C60.1187 29.891 60.0884 29.8881 60.0583 29.8873C60.0286 29.8881 59.9986 29.891 59.9685 29.8902C56.4543 29.8017 53.7109 28.9014 51.5955 27.5162C49.4864 26.1352 48.095 24.334 47.1833 22.5807C46.2761 20.8358 45.8334 19.1203 45.615 17.8531C45.5878 17.6956 45.5646 17.5442 45.5437 17.4H40.7468ZM30.9128 22.2916L30.9138 22.2906C30.9143 22.29 30.9151 22.2887 30.9158 22.2877H30.9148C30.9136 22.2893 30.9133 22.291 30.9128 22.2916ZM89.2 22.2848L89.2029 22.2877C89.2037 22.2888 89.2044 22.2899 89.2048 22.2906L89.2058 22.2916C89.205 22.2905 89.203 22.2878 89.2 22.2838V22.2848Z" fill="white"/>
</g>
<g filter="url(#filter1_d_2103_8358)">
<path d="M32.7987 142.904H30.1987V118.776H32.7987V142.904ZM20.0327 133.206C16.4447 133.206 13.5327 131.152 13.5327 126.81V126.342C13.5327 121.974 16.4447 119.92 20.0327 119.92C23.6207 119.92 26.5067 121.974 26.5067 126.342V126.81C26.5067 131.152 23.6207 133.206 20.0327 133.206ZM20.0327 130.84C22.2167 130.84 23.9327 129.514 23.9327 126.784V126.342C23.9327 123.612 22.2167 122.286 20.0327 122.286C17.8227 122.286 16.1327 123.612 16.1327 126.342V126.784C16.1327 129.514 17.8227 130.84 20.0327 130.84ZM16.4967 139.16H12.4927L12.3627 136.794H16.7307C19.6947 136.794 24.4007 136.482 28.1707 136.04L28.4567 138.328C24.7647 138.874 20.0327 139.16 16.4967 139.16ZM39.305 124.73H53.839V122.13H39.175V119.92H56.439V126.888H41.905V129.54H56.933V131.698H39.305V124.73ZM36.523 134.324H59.195V136.612H53.449V143.19H50.849V136.612H44.895V143.19H42.295V136.612H36.523V134.324ZM80.2353 123.56H83.9533V125.926H80.2353V131.308H77.6353V118.776H80.2353V123.56ZM73.9693 131.308L67.4953 127.226C66.2733 128.942 64.3493 130.424 61.6453 131.802L60.4493 129.696C64.5573 127.486 66.5333 125.224 66.5593 122.208H61.3853V119.92H74.2813V122.208H69.0813C69.0813 123.248 68.9253 124.21 68.5873 125.12L75.2173 129.15L73.9693 131.308ZM67.3653 135.364H77.6353V132.582H80.2353V142.904H64.7653V132.582H67.3653V135.364ZM67.3653 137.652V140.59H77.6353V137.652H67.3653ZM104.864 128.084H108.374V130.45H104.864V142.904H102.264V118.776H104.864V128.084ZM93.6836 121.532H99.3516V123.69H85.3636V121.532H91.0576V118.802H93.6836V121.532ZM93.8136 134.61V137.418C95.9456 137.288 98.2336 137.08 100.262 136.846L100.548 139.108C96.9336 139.602 92.3316 139.888 88.8996 139.888H85.0776L84.9476 137.574H89.1076C89.7316 137.574 90.4336 137.548 91.2136 137.522V134.636C88.4576 134.298 86.4556 132.738 86.4556 130.112V129.722C86.4556 126.758 89.0556 125.146 92.4096 125.146C95.6856 125.146 98.2856 126.758 98.2856 129.722V130.112C98.2856 132.66 96.3876 134.194 93.8136 134.61ZM89.0036 129.748V130.086C89.0036 131.698 90.4596 132.634 92.4096 132.634C94.2816 132.634 95.7636 131.698 95.7636 130.086V129.748C95.7636 128.162 94.2816 127.226 92.4096 127.226C90.4596 127.226 89.0036 128.162 89.0036 129.748Z" fill="white"/>
</g>
<defs>
<filter id="filter0_d_2103_8358" x="0.000146866" y="-5.72205e-06" width="120.118" height="98.4914" filterUnits="userSpaceOnUse" color-interpolation-filters="sRGB">
<feFlood flood-opacity="0" result="BackgroundImageFix"/>
<feColorMatrix in="SourceAlpha" type="matrix" values="0 0 0 0 0 0 0 0 0 0 0 0 0 0 0 0 0 0 127 0" result="hardAlpha"/>
<feOffset/>
<feGaussianBlur stdDeviation="6.95"/>
<feComposite in2="hardAlpha" operator="out"/>
<feColorMatrix type="matrix" values="0 0 0 0 0.00392157 0 0 0 0 0.917647 0 0 0 0 0.839216 0 0 0 1 0"/>
<feBlend mode="normal" in2="BackgroundImageFix" result="effect1_dropShadow_2103_8358"/>
<feBlend mode="normal" in="SourceGraphic" in2="effect1_dropShadow_2103_8358" result="shape"/>
</filter>
<filter id="filter1_d_2103_8358" x="8.36279" y="114.776" width="104.011" height="32.414" filterUnits="userSpaceOnUse" color-interpolation-filters="sRGB">
<feFlood flood-opacity="0" result="BackgroundImageFix"/>
<feColorMatrix in="SourceAlpha" type="matrix" values="0 0 0 0 0 0 0 0 0 0 0 0 0 0 0 0 0 0 127 0" result="hardAlpha"/>
<feOffset/>
<feGaussianBlur stdDeviation="2"/>
<feComposite in2="hardAlpha" operator="out"/>
<feColorMatrix type="matrix" values="0 0 0 0 0.00392157 0 0 0 0 0.917647 0 0 0 0 0.839216 0 0 0 1 0"/>
<feBlend mode="normal" in2="BackgroundImageFix" result="effect1_dropShadow_2103_8358"/>
<feBlend mode="normal" in="SourceGraphic" in2="effect1_dropShadow_2103_8358" result="shape"/>
</filter>
</defs>
</svg>
