<svg width="105" height="139" viewBox="0 0 105 139" fill="none" xmlns="http://www.w3.org/2000/svg">
<g filter="url(#filter0_d_2103_8220)">
<path d="M38.864 4C39.3291 4.00002 39.7749 4.18529 40.1033 4.51465C40.4312 4.84386 40.6153 5.29025 40.614 5.75488C40.614 5.75662 40.614 5.75895 40.614 5.76172C40.6142 5.77447 40.6149 5.79847 40.616 5.83203C40.6181 5.89937 40.6224 6.00705 40.6326 6.14844C40.653 6.4324 40.6955 6.85059 40.783 7.3584C40.9594 8.38236 41.3123 9.72931 42.0076 11.0664C42.6985 12.3952 43.717 13.697 45.2312 14.6885C46.739 15.6758 48.8327 16.4171 51.7751 16.4912C51.7766 16.4912 51.7785 16.4912 51.78 16.4912C54.7224 16.4171 56.8161 15.6757 58.324 14.6885C59.8382 13.697 60.8576 12.3952 61.5486 11.0664C62.2438 9.72934 62.5958 8.38234 62.7722 7.3584C62.8597 6.85057 62.9022 6.43242 62.9226 6.14844C62.9328 6.00704 62.9381 5.89937 62.9402 5.83203C62.9412 5.79846 62.942 5.77447 62.9421 5.76172V5.75488C62.9408 5.29027 63.124 4.84385 63.4519 4.51465C63.7803 4.18511 64.2269 4.00002 64.6921 4H71.1951C71.2546 4 71.3146 4.00273 71.3738 4.00879C75.5772 4.43916 78.6488 5.97744 80.6804 7.43262C81.6932 8.15805 82.446 8.86202 82.9539 9.39551C83.2079 9.66233 83.4018 9.88729 83.5369 10.0527C83.6044 10.1355 83.6573 10.204 83.696 10.2549C83.7153 10.2802 83.7317 10.3008 83.7439 10.3174C83.75 10.3256 83.7552 10.3329 83.7595 10.3389L83.7673 10.3506L83.7683 10.3525C83.7648 10.356 83.7021 10.4009 82.7029 11.1123L83.7693 10.3535C83.8013 10.3985 83.8315 10.4453 83.8591 10.4932L97.7019 34.4541C97.9341 34.8562 97.9969 35.3338 97.8767 35.7822C97.7564 36.2307 97.4635 36.6138 97.0613 36.8457L81.9167 45.5752C81.5146 45.8068 81.0368 45.8695 80.5886 45.749C80.1405 45.6285 79.7588 45.3347 79.5271 44.9326L78.3806 42.9414V68.8086C78.3806 72.051 75.7379 74.6914 72.4958 74.6914H31.0603C27.8183 74.6914 25.1755 72.051 25.1755 68.8086V42.9414L24.0291 44.9326C23.7973 45.3348 23.4148 45.6285 22.9666 45.749C22.5184 45.8694 22.0405 45.807 21.6384 45.5752L6.49487 36.8457C6.09256 36.6138 5.79874 36.2308 5.67847 35.7822C5.55831 35.3339 5.62121 34.8561 5.85327 34.4541L19.697 10.4932L19.7859 10.3535L21.2117 11.3682C19.8224 10.3793 19.7873 10.3539 19.7869 10.3525L19.7878 10.3506C19.7886 10.3496 19.7899 10.3488 19.7908 10.3477C19.7925 10.3452 19.7945 10.3419 19.7966 10.3389C19.8009 10.3329 19.8063 10.3255 19.8123 10.3174C19.8245 10.3008 19.8409 10.2802 19.8601 10.2549C19.8988 10.204 19.9517 10.1355 20.0193 10.0527C20.1544 9.88727 20.3483 9.66231 20.6023 9.39551C21.1102 8.86201 21.8629 8.15808 22.8757 7.43262C24.9074 5.97744 27.9789 4.43912 32.1824 4.00879L32.3601 4H38.864ZM32.4656 7.5C28.9965 7.86917 26.5174 9.12968 24.9138 10.2783C24.1034 10.8588 23.5141 11.412 23.1365 11.8086C22.9481 12.0065 22.8132 12.165 22.7302 12.2666C22.7059 12.2964 22.686 12.3213 22.6707 12.3408L9.7605 34.6875L21.8689 41.668L25.4089 35.5234C25.8044 34.8369 26.6123 34.5024 27.3777 34.707C28.1431 34.9118 28.6755 35.6051 28.6755 36.3975V68.8086C28.6755 70.1167 29.75 71.1914 31.0603 71.1914H72.4958C73.8062 71.1914 74.8806 70.1168 74.8806 68.8086V36.3975C74.8806 35.6051 75.413 34.9118 76.1785 34.707C76.9437 34.5025 77.7507 34.8371 78.1462 35.5234L81.6853 41.6689L93.7947 34.6875L80.8845 12.3408C80.8693 12.3213 80.8501 12.2962 80.8259 12.2666C80.7429 12.1649 80.6072 12.0066 80.4187 11.8086C80.0411 11.412 79.4526 10.8587 78.6423 10.2783C77.0388 9.12972 74.5594 7.86922 71.0906 7.5H66.2937C66.2728 7.64428 66.2486 7.79552 66.2214 7.95312C66.003 9.22041 65.5604 10.9357 64.6531 12.6807C63.7414 14.4339 62.3509 16.2352 60.2419 17.6162C58.1265 19.0014 55.3822 19.9018 51.8679 19.9902C51.8375 19.991 51.8072 19.9881 51.7771 19.9873C51.7474 19.9881 51.7173 19.991 51.6873 19.9902C48.1731 19.9018 45.4296 19.0014 43.3142 17.6162C41.2052 16.2352 39.8138 14.434 38.9021 12.6807C37.9949 10.9358 37.5521 9.22035 37.3337 7.95312C37.3066 7.79558 37.2833 7.64423 37.2625 7.5H32.4656ZM22.6316 12.3916L22.6326 12.3906C22.633 12.39 22.6338 12.3887 22.6345 12.3877H22.6335C22.6323 12.3893 22.6321 12.391 22.6316 12.3916ZM80.9187 12.3848L80.9216 12.3877C80.9224 12.3888 80.9231 12.39 80.9236 12.3906L80.9246 12.3916C80.9238 12.3906 80.9217 12.3878 80.9187 12.3838V12.3848Z" fill="white"/>
</g>
<g filter="url(#filter1_d_2103_8220)">
<path d="M24.4361 133.004H21.8361V108.876H24.4361V133.004ZM11.6701 123.306C8.08208 123.306 5.17008 121.252 5.17008 116.91V116.442C5.17008 112.074 8.08208 110.02 11.6701 110.02C15.2581 110.02 18.1441 112.074 18.1441 116.442V116.91C18.1441 121.252 15.2581 123.306 11.6701 123.306ZM11.6701 120.94C13.8541 120.94 15.5701 119.614 15.5701 116.884V116.442C15.5701 113.712 13.8541 112.386 11.6701 112.386C9.46008 112.386 7.77008 113.712 7.77008 116.442V116.884C7.77008 119.614 9.46008 120.94 11.6701 120.94ZM8.13408 129.26H4.13008L4.00008 126.894H8.36808C11.3321 126.894 16.0381 126.582 19.8081 126.14L20.0941 128.428C16.4021 128.974 11.6701 129.26 8.13408 129.26ZM30.9424 114.83H45.4764V112.23H30.8124V110.02H48.0764V116.988H33.5424V119.64H48.5704V121.798H30.9424V114.83ZM28.1604 124.424H50.8324V126.712H45.0864V133.29H42.4864V126.712H36.5324V133.29H33.9324V126.712H28.1604V124.424ZM71.8727 113.66H75.5907V116.026H71.8727V121.408H69.2727V108.876H71.8727V113.66ZM65.6067 121.408L59.1327 117.326C57.9107 119.042 55.9867 120.524 53.2827 121.902L52.0867 119.796C56.1947 117.586 58.1707 115.324 58.1967 112.308H53.0227V110.02H65.9187V112.308H60.7187C60.7187 113.348 60.5627 114.31 60.2247 115.22L66.8547 119.25L65.6067 121.408ZM59.0027 125.464H69.2727V122.682H71.8727V133.004H56.4027V122.682H59.0027V125.464ZM59.0027 127.752V130.69H69.2727V127.752H59.0027ZM96.501 118.184H100.011V120.55H96.501V133.004H93.901V108.876H96.501V118.184ZM85.321 111.632H90.989V113.79H77.001V111.632H82.695V108.902H85.321V111.632ZM85.451 124.71V127.518C87.583 127.388 89.871 127.18 91.899 126.946L92.185 129.208C88.571 129.702 83.969 129.988 80.537 129.988H76.715L76.585 127.674H80.745C81.369 127.674 82.071 127.648 82.851 127.622V124.736C80.095 124.398 78.093 122.838 78.093 120.212V119.822C78.093 116.858 80.693 115.246 84.047 115.246C87.323 115.246 89.923 116.858 89.923 119.822V120.212C89.923 122.76 88.025 124.294 85.451 124.71ZM80.641 119.848V120.186C80.641 121.798 82.097 122.734 84.047 122.734C85.919 122.734 87.401 121.798 87.401 120.186V119.848C87.401 118.262 85.919 117.326 84.047 117.326C82.097 117.326 80.641 118.262 80.641 119.848Z" fill="white"/>
</g>
<defs>
<filter id="filter0_d_2103_8220" x="1.6189" y="0" width="100.318" height="78.6914" filterUnits="userSpaceOnUse" color-interpolation-filters="sRGB">
<feFlood flood-opacity="0" result="BackgroundImageFix"/>
<feColorMatrix in="SourceAlpha" type="matrix" values="0 0 0 0 0 0 0 0 0 0 0 0 0 0 0 0 0 0 127 0" result="hardAlpha"/>
<feOffset/>
<feGaussianBlur stdDeviation="2"/>
<feComposite in2="hardAlpha" operator="out"/>
<feColorMatrix type="matrix" values="0 0 0 0 0.00392157 0 0 0 0 0.917647 0 0 0 0 0.839216 0 0 0 1 0"/>
<feBlend mode="normal" in2="BackgroundImageFix" result="effect1_dropShadow_2103_8220"/>
<feBlend mode="normal" in="SourceGraphic" in2="effect1_dropShadow_2103_8220" result="shape"/>
</filter>
<filter id="filter1_d_2103_8220" x="0" y="104.876" width="104.011" height="32.414" filterUnits="userSpaceOnUse" color-interpolation-filters="sRGB">
<feFlood flood-opacity="0" result="BackgroundImageFix"/>
<feColorMatrix in="SourceAlpha" type="matrix" values="0 0 0 0 0 0 0 0 0 0 0 0 0 0 0 0 0 0 127 0" result="hardAlpha"/>
<feOffset/>
<feGaussianBlur stdDeviation="2"/>
<feComposite in2="hardAlpha" operator="out"/>
<feColorMatrix type="matrix" values="0 0 0 0 0.00392157 0 0 0 0 0.917647 0 0 0 0 0.839216 0 0 0 1 0"/>
<feBlend mode="normal" in2="BackgroundImageFix" result="effect1_dropShadow_2103_8220"/>
<feBlend mode="normal" in="SourceGraphic" in2="effect1_dropShadow_2103_8220" result="shape"/>
</filter>
</defs>
</svg>
