<svg width="104" height="139" viewBox="0 0 104 139" fill="none" xmlns="http://www.w3.org/2000/svg">
<g filter="url(#filter0_d_2103_8362)">
<path d="M38.7046 4C39.1697 4.00002 39.6155 4.18529 39.9438 4.51465C40.2718 4.84386 40.4559 5.29025 40.4546 5.75488C40.4546 5.75662 40.4546 5.75895 40.4546 5.76172C40.4548 5.77447 40.4555 5.79847 40.4565 5.83203C40.4587 5.89937 40.463 6.00705 40.4731 6.14844C40.4936 6.4324 40.536 6.85059 40.6235 7.3584C40.8 8.38236 41.1529 9.72931 41.8481 11.0664C42.5391 12.3952 43.5576 13.697 45.0718 14.6885C46.5796 15.6758 48.6732 16.4171 51.6157 16.4912C51.6172 16.4912 51.6191 16.4912 51.6206 16.4912C54.563 16.4171 56.6567 15.6757 58.1646 14.6885C59.6788 13.697 60.6982 12.3952 61.3892 11.0664C62.0844 9.72934 62.4363 8.38234 62.6128 7.3584C62.7003 6.85057 62.7428 6.43242 62.7632 6.14844C62.7733 6.00704 62.7786 5.89937 62.7808 5.83203C62.7818 5.79846 62.7825 5.77447 62.7827 5.76172V5.75488C62.7814 5.29027 62.9646 4.84385 63.2925 4.51465C63.6208 4.18511 64.0675 4.00002 64.5327 4H71.0356C71.0951 4 71.1552 4.00273 71.2144 4.00879C75.4178 4.43916 78.4894 5.97744 80.521 7.43262C81.5338 8.15805 82.2865 8.86202 82.7944 9.39551C83.0484 9.66233 83.2424 9.88729 83.3774 10.0527C83.445 10.1355 83.4979 10.204 83.5366 10.2549C83.5559 10.2802 83.5723 10.3008 83.5845 10.3174C83.5905 10.3256 83.5958 10.3329 83.6001 10.3389L83.6079 10.3506L83.6089 10.3525C83.6054 10.356 83.5427 10.4009 82.5435 11.1123L83.6099 10.3535C83.6419 10.3985 83.6721 10.4453 83.6997 10.4932L97.5425 34.4541C97.7747 34.8562 97.8375 35.3338 97.7173 35.7822C97.597 36.2307 97.3041 36.6138 96.9019 36.8457L81.7573 45.5752C81.3552 45.8068 80.8774 45.8695 80.4292 45.749C79.9811 45.6285 79.5994 45.3347 79.3677 44.9326L78.2212 42.9414V68.8086C78.2212 72.051 75.5785 74.6914 72.3364 74.6914H30.9009C27.6589 74.6914 25.0161 72.051 25.0161 68.8086V42.9414L23.8696 44.9326C23.6379 45.3348 23.2554 45.6285 22.8071 45.749C22.3589 45.8694 21.8811 45.807 21.479 45.5752L6.33545 36.8457C5.93313 36.6138 5.63932 36.2308 5.51904 35.7822C5.39889 35.3339 5.46179 34.8561 5.69385 34.4541L19.5376 10.4932L19.6265 10.3535L21.0522 11.3682C19.663 10.3793 19.6278 10.3539 19.6274 10.3525L19.6284 10.3506C19.6291 10.3496 19.6305 10.3488 19.6313 10.3477C19.6331 10.3452 19.635 10.3419 19.6372 10.3389C19.6415 10.3329 19.6468 10.3255 19.6528 10.3174C19.665 10.3008 19.6814 10.2802 19.7007 10.2549C19.7394 10.204 19.7923 10.1355 19.8599 10.0527C19.995 9.88727 20.1889 9.66231 20.4429 9.39551C20.9508 8.86201 21.7035 8.15808 22.7163 7.43262C24.7479 5.97744 27.8195 4.43912 32.0229 4.00879L32.2007 4H38.7046ZM32.3062 7.5C28.8371 7.86917 26.358 9.12968 24.7544 10.2783C23.944 10.8588 23.3546 11.412 22.9771 11.8086C22.7887 12.0065 22.6537 12.165 22.5708 12.2666C22.5465 12.2964 22.5265 12.3213 22.5112 12.3408L9.60107 34.6875L21.7095 41.668L25.2495 35.5234C25.645 34.8369 26.4528 34.5024 27.2183 34.707C27.9837 34.9118 28.5161 35.6051 28.5161 36.3975V68.8086C28.5161 70.1167 29.5906 71.1914 30.9009 71.1914H72.3364C73.6468 71.1914 74.7212 70.1168 74.7212 68.8086V36.3975C74.7212 35.6051 75.2536 34.9118 76.019 34.707C76.7843 34.5025 77.5913 34.8371 77.9868 35.5234L81.5259 41.6689L93.6353 34.6875L80.7251 12.3408C80.7098 12.3213 80.6906 12.2962 80.6665 12.2666C80.5835 12.1649 80.4478 12.0066 80.2593 11.8086C79.8817 11.412 79.2932 10.8587 78.4829 10.2783C76.8793 9.12972 74.4 7.86922 70.9312 7.5H66.1343C66.1134 7.64428 66.0892 7.79552 66.062 7.95312C65.8436 9.22041 65.401 10.9357 64.4937 12.6807C63.582 14.4339 62.1914 16.2352 60.0825 17.6162C57.9671 19.0014 55.2227 19.9018 51.7085 19.9902C51.6781 19.991 51.6478 19.9881 51.6177 19.9873C51.5879 19.9881 51.5579 19.991 51.5278 19.9902C48.0137 19.9018 45.2702 19.0014 43.1548 17.6162C41.0457 16.2352 39.6543 14.434 38.7427 12.6807C37.8354 10.9358 37.3927 9.22035 37.1743 7.95312C37.1472 7.79558 37.1239 7.64423 37.103 7.5H32.3062ZM22.4722 12.3916L22.4731 12.3906C22.4736 12.39 22.4744 12.3887 22.4751 12.3877H22.4741C22.4729 12.3893 22.4726 12.391 22.4722 12.3916ZM80.7593 12.3848L80.7622 12.3877C80.763 12.3888 80.7637 12.39 80.7642 12.3906L80.7651 12.3916C80.7644 12.3906 80.7623 12.3878 80.7593 12.3838V12.3848Z" fill="#BFBFBF"/>
</g>
<g filter="url(#filter1_d_2103_8362)">
<path d="M24.0461 132.9H22.2001V108.902H24.0461V132.9ZM11.6701 123.176C8.18606 123.176 5.37806 121.174 5.37806 116.962V116.416C5.37806 112.204 8.18606 110.202 11.6701 110.202C15.1021 110.202 17.9361 112.204 17.9361 116.416V116.962C17.9361 121.174 15.1021 123.176 11.6701 123.176ZM11.6701 121.46C14.1921 121.46 16.0641 119.926 16.0641 116.936V116.442C16.0641 113.426 14.1921 111.892 11.6701 111.892C9.12206 111.892 7.25006 113.426 7.25006 116.442V116.936C7.25006 119.926 9.12206 121.46 11.6701 121.46ZM8.26406 128.948H4.10406L4.00006 127.232H8.36806C11.3321 127.232 16.1421 126.946 19.9121 126.478L20.1201 128.116C16.5061 128.636 11.8001 128.948 8.26406 128.948ZM31.0984 115.09H45.8924V111.814H30.9684V110.176H47.7644V116.676H32.9444V120.03H48.2844V121.616H31.0984V115.09ZM28.1864 124.632H50.6504V126.296H44.6444V133.186H42.7724V126.296H36.0904V133.186H34.2184V126.296H28.1864V124.632ZM71.5087 114.024H75.4867V115.714H71.5087V121.408H69.6627V108.902H71.5087V114.024ZM65.7627 121.278L59.0287 116.754C57.8587 118.6 55.8827 120.238 53.0747 121.798L52.2167 120.264C56.2467 117.924 58.5087 115.506 58.5087 112.152V111.866H53.1267V110.202H65.7627V111.866H60.3287V112.152C60.3287 113.244 60.1467 114.232 59.8087 115.194L66.7247 119.77L65.7627 121.278ZM58.4307 126.062H69.6627V122.864H71.5087V132.9H56.5587V122.864H58.4307V126.062ZM58.4307 127.726V131.21H69.6627V127.726H58.4307ZM96.137 118.548H99.881V120.238H96.137V132.9H94.2909V108.902H96.137V118.548ZM84.879 111.97H90.833V113.556H77.0269V111.97H83.007V108.928H84.879V111.97ZM85.009 124.606V127.882C87.323 127.752 89.8449 127.544 92.0029 127.258L92.211 128.896C88.701 129.364 84.073 129.702 80.641 129.702H76.6889L76.6109 128.012H80.7449C81.447 128.012 82.2529 127.986 83.137 127.96V124.632C80.277 124.372 78.1969 122.786 78.1969 120.186V119.744C78.1969 116.858 80.6929 115.272 83.969 115.272C87.193 115.272 89.689 116.858 89.689 119.744V120.186C89.689 122.734 87.713 124.294 85.009 124.606ZM80.017 119.796V120.16C80.017 121.98 81.733 123.098 83.969 123.098C86.179 123.098 87.869 121.98 87.869 120.16V119.796C87.869 117.976 86.179 116.832 83.969 116.832C81.733 116.832 80.017 117.976 80.017 119.796Z" fill="#BFBFBF"/>
</g>
<defs>
<filter id="filter0_d_2103_8362" x="1.45947" y="0" width="100.318" height="78.6914" filterUnits="userSpaceOnUse" color-interpolation-filters="sRGB">
<feFlood flood-opacity="0" result="BackgroundImageFix"/>
<feColorMatrix in="SourceAlpha" type="matrix" values="0 0 0 0 0 0 0 0 0 0 0 0 0 0 0 0 0 0 127 0" result="hardAlpha"/>
<feOffset/>
<feGaussianBlur stdDeviation="2"/>
<feComposite in2="hardAlpha" operator="out"/>
<feColorMatrix type="matrix" values="0 0 0 0 0.00392157 0 0 0 0 0.917647 0 0 0 0 0.839216 0 0 0 1 0"/>
<feBlend mode="normal" in2="BackgroundImageFix" result="effect1_dropShadow_2103_8362"/>
<feBlend mode="normal" in="SourceGraphic" in2="effect1_dropShadow_2103_8362" result="shape"/>
</filter>
<filter id="filter1_d_2103_8362" x="0" y="104.902" width="103.881" height="32.284" filterUnits="userSpaceOnUse" color-interpolation-filters="sRGB">
<feFlood flood-opacity="0" result="BackgroundImageFix"/>
<feColorMatrix in="SourceAlpha" type="matrix" values="0 0 0 0 0 0 0 0 0 0 0 0 0 0 0 0 0 0 127 0" result="hardAlpha"/>
<feOffset/>
<feGaussianBlur stdDeviation="2"/>
<feComposite in2="hardAlpha" operator="out"/>
<feColorMatrix type="matrix" values="0 0 0 0 0.00392157 0 0 0 0 0.917647 0 0 0 0 0.839216 0 0 0 1 0"/>
<feBlend mode="normal" in2="BackgroundImageFix" result="effect1_dropShadow_2103_8362"/>
<feBlend mode="normal" in="SourceGraphic" in2="effect1_dropShadow_2103_8362" result="shape"/>
</filter>
</defs>
</svg>
