<svg width="147" height="168" viewBox="0 0 147 168" fill="none" xmlns="http://www.w3.org/2000/svg">
<g filter="url(#filter0_d_2103_8463)">
<path d="M33.2183 11.8H11.8V33.2182" stroke="#FFE674" stroke-width="5"/>
</g>
<g filter="url(#filter1_d_2103_8463)">
<path d="M113.255 124.218L134.673 124.218L134.673 102.8" stroke="#FFE674" stroke-width="5"/>
</g>
<g filter="url(#filter2_d_2103_8463)">
<path d="M134.673 33.2182L134.673 11.8L113.255 11.8" stroke="#FFE674" stroke-width="5"/>
</g>
<g filter="url(#filter3_d_2103_8463)">
<path d="M11.8 102.8L11.8 124.218L33.2183 124.218" stroke="#FFE674" stroke-width="5"/>
</g>
<g filter="url(#filter4_d_2103_8463)">
<path d="M59.886 32.8C60.3511 32.8 60.7969 32.9853 61.1252 33.3146C61.4532 33.6438 61.6373 34.0902 61.636 34.5549C61.636 34.5566 61.6359 34.5589 61.636 34.5617C61.6362 34.5745 61.6369 34.5985 61.6379 34.632C61.6401 34.6994 61.6444 34.807 61.6545 34.9484C61.675 35.2324 61.7174 35.6506 61.8049 36.1584C61.9814 37.1823 62.3343 38.5293 63.0295 39.8664C63.7205 41.1952 64.739 42.497 66.2532 43.4885C67.761 44.4758 69.8546 45.2171 72.7971 45.2912C72.7986 45.2912 72.8005 45.2912 72.802 45.2912C75.7444 45.2171 77.8381 44.4757 79.3459 43.4885C80.8602 42.497 81.8796 41.1952 82.5706 39.8664C83.2658 38.5293 83.6177 37.1823 83.7942 36.1584C83.8817 35.6506 83.9242 35.2324 83.9446 34.9484C83.9547 34.807 83.96 34.6994 83.9622 34.632C83.9632 34.5985 83.9639 34.5745 83.9641 34.5617V34.5549C83.9628 34.0903 84.146 33.6438 84.4739 33.3146C84.8022 32.9851 85.2489 32.8 85.7141 32.8H92.217C92.2765 32.8 92.3366 32.8027 92.3958 32.8088C96.5992 33.2392 99.6708 34.7774 101.702 36.2326C102.715 36.958 103.468 37.662 103.976 38.1955C104.23 38.4623 104.424 38.6873 104.559 38.8527C104.626 38.9355 104.679 39.004 104.718 39.0549C104.737 39.0802 104.754 39.1008 104.766 39.1174C104.772 39.1256 104.777 39.1329 104.781 39.1389L104.789 39.1506L104.79 39.1525C104.787 39.1559 104.724 39.2009 103.725 39.9123L104.791 39.1535C104.823 39.1985 104.853 39.2453 104.881 39.2932L118.724 63.2541C118.956 63.6562 119.019 64.1337 118.899 64.5822C118.778 65.0307 118.486 65.4137 118.083 65.6457L102.939 74.3752C102.537 74.6068 102.059 74.6695 101.611 74.549C101.163 74.4285 100.781 74.1346 100.549 73.7326L99.4026 71.7414V97.6086C99.4026 100.851 96.7599 103.491 93.5178 103.491H52.0823C48.8403 103.491 46.1975 100.851 46.1975 97.6086V71.7414L45.051 73.7326C44.8193 74.1348 44.4368 74.4285 43.9885 74.549C43.5403 74.6694 43.0625 74.607 42.6604 74.3752L27.5168 65.6457C27.1145 65.4137 26.8207 65.0308 26.7004 64.5822C26.5803 64.1339 26.6432 63.6561 26.8752 63.2541L40.719 39.2932L40.8079 39.1535L42.2336 40.1682C40.8444 39.1793 40.8092 39.1539 40.8088 39.1525L40.8098 39.1506C40.8105 39.1496 40.8119 39.1488 40.8127 39.1476C40.8145 39.1452 40.8164 39.1419 40.8186 39.1389C40.8229 39.1329 40.8282 39.1255 40.8342 39.1174C40.8464 39.1008 40.8628 39.0802 40.8821 39.0549C40.9208 39.004 40.9737 38.9355 41.0413 38.8527C41.1763 38.6873 41.3703 38.4623 41.6243 38.1955C42.1322 37.662 42.8849 36.9581 43.8977 36.2326C45.9293 34.7774 49.0009 33.2391 53.2043 32.8088L53.3821 32.8H59.886ZM53.4875 36.3C50.0185 36.6692 47.5394 37.9297 45.9358 39.0783C45.1254 39.6588 44.536 40.2119 44.1584 40.6086C43.9701 40.8065 43.8351 40.965 43.7522 41.0666C43.7279 41.0964 43.7079 41.1212 43.6926 41.1408L30.7825 63.4875L42.8909 70.468L46.4309 64.3234C46.8264 63.6369 47.6342 63.3024 48.3997 63.507C49.1651 63.7118 49.6975 64.4051 49.6975 65.1974V97.6086C49.6975 98.9167 50.772 99.9913 52.0823 99.9914H93.5178C94.8281 99.9914 95.9026 98.9168 95.9026 97.6086V65.1974C95.9026 64.4051 96.435 63.7117 97.2004 63.507C97.9657 63.3025 98.7727 63.6371 99.1682 64.3234L102.707 70.4689L114.817 63.4875L101.906 41.1408C101.891 41.1213 101.872 41.0962 101.848 41.0666C101.765 40.9649 101.629 40.8066 101.441 40.6086C101.063 40.212 100.475 39.6587 99.6643 39.0783C98.0607 37.9297 95.5814 36.6692 92.1125 36.3H87.3157C87.2948 36.4443 87.2706 36.5955 87.2434 36.7531C87.025 38.0204 86.5824 39.7357 85.675 41.4807C84.7634 43.2339 83.3728 45.0352 81.2639 46.4162C79.1485 47.8014 76.4041 48.7018 72.8899 48.7902C72.8595 48.791 72.8292 48.7881 72.7991 48.7873C72.7693 48.7881 72.7393 48.791 72.7092 48.7902C69.1951 48.7017 66.4516 47.8014 64.3362 46.4162C62.2271 45.0352 60.8357 43.2339 59.9241 41.4807C59.0168 39.7358 58.5741 38.0203 58.3557 36.7531C58.3286 36.5956 58.3053 36.4442 58.2844 36.3H53.4875ZM43.6536 41.1916L43.6545 41.1906C43.655 41.19 43.6558 41.1887 43.6565 41.1877H43.6555C43.6543 41.1893 43.654 41.191 43.6536 41.1916ZM101.941 41.1848L101.944 41.1877C101.944 41.1888 101.945 41.1899 101.946 41.1906L101.947 41.1916C101.946 41.1905 101.944 41.1878 101.941 41.1838V41.1848Z" fill="#FFE674"/>
</g>
<g filter="url(#filter5_d_2103_8463)">
<path d="M45.4581 161.804H42.858V137.676H45.4581V161.804ZM32.692 152.106C29.104 152.106 26.192 150.052 26.192 145.71V145.242C26.192 140.874 29.104 138.82 32.692 138.82C36.28 138.82 39.166 140.874 39.166 145.242V145.71C39.166 150.052 36.28 152.106 32.692 152.106ZM32.692 149.74C34.876 149.74 36.592 148.414 36.592 145.684V145.242C36.592 142.512 34.876 141.186 32.692 141.186C30.482 141.186 28.792 142.512 28.792 145.242V145.684C28.792 148.414 30.482 149.74 32.692 149.74ZM29.156 158.06H25.152L25.022 155.694H29.39C32.354 155.694 37.0601 155.382 40.83 154.94L41.116 157.228C37.4241 157.774 32.692 158.06 29.156 158.06ZM51.9643 143.63H66.4983V141.03H51.8343V138.82H69.0983V145.788H54.5643V148.44H69.5923V150.598H51.9643V143.63ZM49.1823 153.224H71.8543V155.512H66.1083V162.09H63.5083V155.512H57.5543V162.09H54.9543V155.512H49.1823V153.224ZM92.8946 142.46H96.6126V144.826H92.8946V150.208H90.2946V137.676H92.8946V142.46ZM86.6286 150.208L80.1546 146.126C78.9326 147.842 77.0086 149.324 74.3046 150.702L73.1086 148.596C77.2166 146.386 79.1926 144.124 79.2186 141.108H74.0446V138.82H86.9406V141.108H81.7406C81.7406 142.148 81.5846 143.11 81.2466 144.02L87.8766 148.05L86.6286 150.208ZM80.0246 154.264H90.2946V151.482H92.8946V161.804H77.4246V151.482H80.0246V154.264ZM80.0246 156.552V159.49H90.2946V156.552H80.0246ZM117.523 146.984H121.033V149.35H117.523V161.804H114.923V137.676H117.523V146.984ZM106.343 140.432H112.011V142.59H98.0229V140.432H103.717V137.702H106.343V140.432ZM106.473 153.51V156.318C108.605 156.188 110.893 155.98 112.921 155.746L113.207 158.008C109.593 158.502 104.991 158.788 101.559 158.788H97.7369L97.6069 156.474H101.767C102.391 156.474 103.093 156.448 103.873 156.422V153.536C101.117 153.198 99.1149 151.638 99.1149 149.012V148.622C99.1149 145.658 101.715 144.046 105.069 144.046C108.345 144.046 110.945 145.658 110.945 148.622V149.012C110.945 151.56 109.047 153.094 106.473 153.51ZM101.663 148.648V148.986C101.663 150.598 103.119 151.534 105.069 151.534C106.941 151.534 108.423 150.598 108.423 148.986V148.648C108.423 147.062 106.941 146.126 105.069 146.126C103.119 146.126 101.663 147.062 101.663 148.648Z" fill="#FFE674"/>
</g>
<defs>
<filter id="filter0_d_2103_8463" x="4.86374e-05" y="-1.23978e-05" width="42.5182" height="42.5182" filterUnits="userSpaceOnUse" color-interpolation-filters="sRGB">
<feFlood flood-opacity="0" result="BackgroundImageFix"/>
<feColorMatrix in="SourceAlpha" type="matrix" values="0 0 0 0 0 0 0 0 0 0 0 0 0 0 0 0 0 0 127 0" result="hardAlpha"/>
<feOffset/>
<feGaussianBlur stdDeviation="4.65"/>
<feComposite in2="hardAlpha" operator="out"/>
<feColorMatrix type="matrix" values="0 0 0 0 0.996078 0 0 0 0 0.541176 0 0 0 0 0.00392157 0 0 0 1 0"/>
<feBlend mode="normal" in2="BackgroundImageFix" result="effect1_dropShadow_2103_8463"/>
<feBlend mode="normal" in="SourceGraphic" in2="effect1_dropShadow_2103_8463" result="shape"/>
</filter>
<filter id="filter1_d_2103_8463" x="103.955" y="93.5" width="42.5182" height="42.5182" filterUnits="userSpaceOnUse" color-interpolation-filters="sRGB">
<feFlood flood-opacity="0" result="BackgroundImageFix"/>
<feColorMatrix in="SourceAlpha" type="matrix" values="0 0 0 0 0 0 0 0 0 0 0 0 0 0 0 0 0 0 127 0" result="hardAlpha"/>
<feOffset/>
<feGaussianBlur stdDeviation="4.65"/>
<feComposite in2="hardAlpha" operator="out"/>
<feColorMatrix type="matrix" values="0 0 0 0 0.996078 0 0 0 0 0.541176 0 0 0 0 0.00392157 0 0 0 1 0"/>
<feBlend mode="normal" in2="BackgroundImageFix" result="effect1_dropShadow_2103_8463"/>
<feBlend mode="normal" in="SourceGraphic" in2="effect1_dropShadow_2103_8463" result="shape"/>
</filter>
<filter id="filter2_d_2103_8463" x="103.955" y="-1.23978e-05" width="42.5182" height="42.5182" filterUnits="userSpaceOnUse" color-interpolation-filters="sRGB">
<feFlood flood-opacity="0" result="BackgroundImageFix"/>
<feColorMatrix in="SourceAlpha" type="matrix" values="0 0 0 0 0 0 0 0 0 0 0 0 0 0 0 0 0 0 127 0" result="hardAlpha"/>
<feOffset/>
<feGaussianBlur stdDeviation="4.65"/>
<feComposite in2="hardAlpha" operator="out"/>
<feColorMatrix type="matrix" values="0 0 0 0 0.996078 0 0 0 0 0.541176 0 0 0 0 0.00392157 0 0 0 1 0"/>
<feBlend mode="normal" in2="BackgroundImageFix" result="effect1_dropShadow_2103_8463"/>
<feBlend mode="normal" in="SourceGraphic" in2="effect1_dropShadow_2103_8463" result="shape"/>
</filter>
<filter id="filter3_d_2103_8463" x="4.86374e-05" y="93.5" width="42.5182" height="42.5182" filterUnits="userSpaceOnUse" color-interpolation-filters="sRGB">
<feFlood flood-opacity="0" result="BackgroundImageFix"/>
<feColorMatrix in="SourceAlpha" type="matrix" values="0 0 0 0 0 0 0 0 0 0 0 0 0 0 0 0 0 0 127 0" result="hardAlpha"/>
<feOffset/>
<feGaussianBlur stdDeviation="4.65"/>
<feComposite in2="hardAlpha" operator="out"/>
<feColorMatrix type="matrix" values="0 0 0 0 0.996078 0 0 0 0 0.541176 0 0 0 0 0.00392157 0 0 0 1 0"/>
<feBlend mode="normal" in2="BackgroundImageFix" result="effect1_dropShadow_2103_8463"/>
<feBlend mode="normal" in="SourceGraphic" in2="effect1_dropShadow_2103_8463" result="shape"/>
</filter>
<filter id="filter4_d_2103_8463" x="22.6409" y="28.8" width="100.318" height="78.6914" filterUnits="userSpaceOnUse" color-interpolation-filters="sRGB">
<feFlood flood-opacity="0" result="BackgroundImageFix"/>
<feColorMatrix in="SourceAlpha" type="matrix" values="0 0 0 0 0 0 0 0 0 0 0 0 0 0 0 0 0 0 127 0" result="hardAlpha"/>
<feOffset/>
<feGaussianBlur stdDeviation="2"/>
<feComposite in2="hardAlpha" operator="out"/>
<feColorMatrix type="matrix" values="0 0 0 0 0.996078 0 0 0 0 0.541176 0 0 0 0 0.00392157 0 0 0 1 0"/>
<feBlend mode="normal" in2="BackgroundImageFix" result="effect1_dropShadow_2103_8463"/>
<feBlend mode="normal" in="SourceGraphic" in2="effect1_dropShadow_2103_8463" result="shape"/>
</filter>
<filter id="filter5_d_2103_8463" x="21.022" y="133.676" width="104.011" height="32.4141" filterUnits="userSpaceOnUse" color-interpolation-filters="sRGB">
<feFlood flood-opacity="0" result="BackgroundImageFix"/>
<feColorMatrix in="SourceAlpha" type="matrix" values="0 0 0 0 0 0 0 0 0 0 0 0 0 0 0 0 0 0 127 0" result="hardAlpha"/>
<feOffset/>
<feGaussianBlur stdDeviation="2"/>
<feComposite in2="hardAlpha" operator="out"/>
<feColorMatrix type="matrix" values="0 0 0 0 0.996078 0 0 0 0 0.541176 0 0 0 0 0.00392157 0 0 0 1 0"/>
<feBlend mode="normal" in2="BackgroundImageFix" result="effect1_dropShadow_2103_8463"/>
<feBlend mode="normal" in="SourceGraphic" in2="effect1_dropShadow_2103_8463" result="shape"/>
</filter>
</defs>
</svg>
