<svg width="105" height="159" viewBox="0 0 105 159" fill="none" xmlns="http://www.w3.org/2000/svg">
<g filter="url(#filter0_d_2103_8264)">
<path d="M22.772 136.134H19.782V141.698H17.364V129.036H19.782V133.846H22.772V128.776H25.242V141.932H22.772V136.134ZM16.298 139.488L14.79 141.36L9.95396 137.148C8.93996 138.916 7.45796 140.45 5.48196 141.88L3.99996 139.93C7.40596 137.434 8.96596 134.496 8.96596 131.194V129.556H11.462V131.194C11.462 132.494 11.28 133.716 10.942 134.86L16.298 139.488ZM14.322 143.206H19.782C23.318 143.206 25.554 145.286 25.554 148.172C25.554 151.084 23.318 153.164 19.782 153.164H14.322C10.786 153.164 8.54996 151.084 8.54996 148.172C8.54996 145.286 10.786 143.206 14.322 143.206ZM14.738 150.824H19.366C21.784 150.824 22.98 149.706 22.98 148.172C22.98 146.638 21.784 145.52 19.366 145.52H14.738C12.32 145.52 11.124 146.638 11.124 148.172C11.124 149.706 12.32 150.824 14.738 150.824ZM36.9743 130.44H42.6423V132.364H28.6543V130.44H34.3483V128.49H36.9743V130.44ZM48.1543 128.776V135.328H51.6643V137.668H48.1543V142.322H45.5543V128.776H48.1543ZM43.6043 139.826L43.8383 141.776C40.2243 142.244 35.6223 142.53 32.1903 142.53H28.3423L28.2383 140.554H32.3983C33.0223 140.554 33.7243 140.554 34.5043 140.528V139.176C31.7483 138.994 29.7463 138.084 29.7463 136.29V136.108C29.7463 134.054 32.3463 133.144 35.7003 133.144C38.9763 133.144 41.5763 134.054 41.5763 136.108V136.29C41.5763 138.032 39.6783 138.942 37.1043 139.176V140.398C39.2363 140.268 41.5503 140.086 43.6043 139.826ZM32.2943 136.16V136.264C32.2943 136.992 33.7503 137.434 35.7003 137.434C37.5723 137.434 39.0543 136.992 39.0543 136.264V136.16C39.0543 135.432 37.5723 134.99 35.7003 134.99C33.7503 134.99 32.2943 135.432 32.2943 136.16ZM48.1543 149.342H34.9723V150.98H49.0383V153.034H32.4503V147.366H45.6323V145.832H32.3203V143.83H48.1543V149.342ZM69.4806 137.46V140.112H75.6685V142.348H52.9965V140.112H59.2105V137.46C57.0005 136.862 55.6485 135.51 55.6485 133.43C55.6485 130.466 58.3785 129.036 62.4345 129.036H66.2306C70.3126 129.036 73.0165 130.466 73.0165 133.43C73.0165 135.51 71.6905 136.836 69.4806 137.46ZM58.2485 133.456C58.2485 134.912 59.9125 135.692 62.9025 135.692H65.7885C68.7785 135.692 70.4426 134.886 70.4426 133.456C70.4426 131.974 68.7785 131.22 65.7885 131.22H62.9025C59.9125 131.22 58.2485 131.974 58.2485 133.456ZM61.6805 137.824V140.112H67.0105V137.824C65.2425 137.85 63.4485 137.85 61.6805 137.824ZM61.5765 144.402H67.0885C70.9885 144.402 73.1465 146.248 73.1465 148.77C73.1465 151.318 70.9885 153.164 67.0885 153.164H61.5765C57.6765 153.164 55.5185 151.318 55.5185 148.77C55.5185 146.248 57.6765 144.402 61.5765 144.402ZM62.0965 150.902H66.5946C69.3245 150.902 70.5725 150.07 70.5725 148.744C70.5725 147.47 69.3245 146.638 66.5946 146.638H62.0965C59.3665 146.638 58.1185 147.47 58.1185 148.744C58.1185 150.07 59.3665 150.902 62.0965 150.902ZM93.8228 136.108H97.4108V138.292H80.0428V136.108H83.6568V131.454H80.0428V129.296H97.4108V131.454H93.8228V136.108ZM91.3008 131.454H86.1788V136.108H91.3008V131.454ZM100.063 140.346V142.608H90.0268V145.026H97.3068V152.904H80.1728V145.026H87.4268V142.608H77.3908V140.346H100.063ZM82.7728 150.746H94.7068V147.158H82.7728V150.746Z" fill="white"/>
</g>
<g filter="url(#filter1_d_2103_8264)">
<g filter="url(#filter2_d_2103_8264)">
<path d="M59.41 13.9C61.8278 13.9001 63.8725 15.3709 64.7684 17.4234L66.6356 17.6021C66.991 15.5257 68.7998 13.946 70.9764 13.9459H74.8788C77.3103 13.9461 79.2831 15.9172 79.2831 18.3502V33.3951C79.2829 35.8279 77.3101 37.7982 74.8788 37.7984H70.9764C68.5747 37.7983 66.6217 35.8757 66.5741 33.484L64.9022 33.9518C64.0766 36.2104 61.8953 37.7993 59.41 37.7994H56.9393V59.1744H58.704V99.3795C58.704 102.154 56.4227 104.433 53.6493 104.433H48.5858C45.8126 104.433 43.5311 102.154 43.5311 99.3795V59.1744H45.2499V37.7994H43.5233C40.9945 37.7994 38.8727 36.1906 38.0477 33.9898L35.8495 33.4254V33.441C35.8495 35.8483 33.8978 37.7982 31.4921 37.7984H27.4969C25.091 37.7984 23.1385 35.8485 23.1385 33.441V18.3033C23.1385 15.8959 25.091 13.9459 27.4969 13.9459H31.4921C33.6647 13.9461 35.4669 15.5365 35.7958 17.6178L38.1659 17.4098C39.0775 15.3319 41.1636 13.9 43.5233 13.9H59.41ZM48.5311 64.1754V99.3785C48.5313 99.379 48.5315 99.3801 48.5321 99.3814C48.5347 99.3875 48.5415 99.3986 48.5536 99.4107C48.5657 99.4228 48.5775 99.4295 48.5839 99.4322L48.5858 99.4332H53.6493C53.6499 99.433 53.6511 99.4327 53.6522 99.4322C53.6585 99.4295 53.6705 99.4227 53.6825 99.4107C53.6943 99.3988 53.7004 99.3875 53.703 99.3814L53.704 99.3795V64.1754H48.5311ZM50.2499 59.1744H51.9393V37.8004H50.2499V59.1744ZM43.5233 18.9C43.0689 18.9 42.6786 19.2904 42.6786 19.7437V22.0338L40.3973 22.234L35.8495 22.6314V28.2633L40.7997 29.5338L42.6786 30.0162V31.9557C42.6786 32.4076 43.0675 32.7994 43.5233 32.7994H59.41C59.8644 32.7993 60.2548 32.4089 60.2548 31.9557V30.0582L62.0819 29.5475L66.5721 28.2935V22.6187L62.5165 22.232L60.2548 22.0162V19.7437C60.2548 19.2919 59.8657 18.9001 59.41 18.9H43.5233ZM28.1385 32.7984H30.8495V32.1422L30.8036 32.1305V18.9459H28.1385V32.7984ZM71.5721 32.7984H74.2831V18.9459H71.5721V32.7984Z" fill="white"/>
</g>
</g>
<defs>
<filter id="filter0_d_2103_8264" x="0" y="124.49" width="104.063" height="32.674" filterUnits="userSpaceOnUse" color-interpolation-filters="sRGB">
<feFlood flood-opacity="0" result="BackgroundImageFix"/>
<feColorMatrix in="SourceAlpha" type="matrix" values="0 0 0 0 0 0 0 0 0 0 0 0 0 0 0 0 0 0 127 0" result="hardAlpha"/>
<feOffset/>
<feGaussianBlur stdDeviation="2"/>
<feComposite in2="hardAlpha" operator="out"/>
<feColorMatrix type="matrix" values="0 0 0 0 0.00392157 0 0 0 0 0.917647 0 0 0 0 0.839216 0 0 0 1 0"/>
<feBlend mode="normal" in2="BackgroundImageFix" result="effect1_dropShadow_2103_8264"/>
<feBlend mode="normal" in="SourceGraphic" in2="effect1_dropShadow_2103_8264" result="shape"/>
</filter>
<filter id="filter1_d_2103_8264" x="9.23855" y="-5.72205e-06" width="83.9445" height="118.333" filterUnits="userSpaceOnUse" color-interpolation-filters="sRGB">
<feFlood flood-opacity="0" result="BackgroundImageFix"/>
<feColorMatrix in="SourceAlpha" type="matrix" values="0 0 0 0 0 0 0 0 0 0 0 0 0 0 0 0 0 0 127 0" result="hardAlpha"/>
<feOffset/>
<feGaussianBlur stdDeviation="6.95"/>
<feComposite in2="hardAlpha" operator="out"/>
<feColorMatrix type="matrix" values="0 0 0 0 0.00392157 0 0 0 0 0.917647 0 0 0 0 0.839216 0 0 0 1 0"/>
<feBlend mode="normal" in2="BackgroundImageFix" result="effect1_dropShadow_2103_8264"/>
<feBlend mode="normal" in="SourceGraphic" in2="effect1_dropShadow_2103_8264" result="shape"/>
</filter>
<filter id="filter2_d_2103_8264" x="19.1385" y="9.89999" width="64.1445" height="98.5332" filterUnits="userSpaceOnUse" color-interpolation-filters="sRGB">
<feFlood flood-opacity="0" result="BackgroundImageFix"/>
<feColorMatrix in="SourceAlpha" type="matrix" values="0 0 0 0 0 0 0 0 0 0 0 0 0 0 0 0 0 0 127 0" result="hardAlpha"/>
<feOffset/>
<feGaussianBlur stdDeviation="2"/>
<feComposite in2="hardAlpha" operator="out"/>
<feColorMatrix type="matrix" values="0 0 0 0 0.00392157 0 0 0 0 0.917647 0 0 0 0 0.839216 0 0 0 1 0"/>
<feBlend mode="normal" in2="BackgroundImageFix" result="effect1_dropShadow_2103_8264"/>
<feBlend mode="normal" in="SourceGraphic" in2="effect1_dropShadow_2103_8264" result="shape"/>
</filter>
</defs>
</svg>
