<svg width="104" height="149" viewBox="0 0 104 149" fill="none" xmlns="http://www.w3.org/2000/svg">
<g filter="url(#filter0_d_2103_8278)">
<path d="M23.006 125.974H19.392V131.798H17.624V119.162H19.392V124.31H23.006V118.928H24.826V132.032H23.006V125.974ZM16.168 129.926L15.076 131.304L9.79795 126.702C8.80995 128.6 7.19795 130.29 5.03995 131.824L3.99995 130.394C7.37995 127.924 9.22595 125.064 9.22595 121.424V119.76H11.072V121.424C11.072 122.698 10.89 123.894 10.526 125.012L16.168 129.926ZM14.296 133.488H19.522C23.084 133.488 25.164 135.62 25.164 138.324C25.164 141.054 23.084 143.134 19.522 143.134H14.296C10.708 143.134 8.62795 141.054 8.62795 138.324C8.62795 135.62 10.708 133.488 14.296 133.488ZM14.66 141.47H19.132C21.966 141.47 23.292 140.118 23.292 138.298C23.292 136.556 21.966 135.152 19.132 135.152H14.66C11.852 135.152 10.5 136.556 10.5 138.298C10.5 140.118 11.852 141.47 14.66 141.47ZM36.5322 120.878H42.4863V122.36H28.6802V120.878H34.6602V118.59H36.5322V120.878ZM47.7903 118.902V125.766H51.5343V127.482H47.7903V132.396H45.9442V118.902H47.7903ZM43.6823 130.186L43.8642 131.668C40.3542 132.136 35.7262 132.448 32.2942 132.448H28.3422L28.2642 130.914H32.3982C33.1002 130.914 33.9062 130.888 34.7902 130.862V129.276C31.9302 129.12 29.8502 128.21 29.8502 126.442V126.234C29.8502 124.284 32.3462 123.348 35.6222 123.348C38.8462 123.348 41.3422 124.284 41.3422 126.234V126.442C41.3422 128.158 39.3662 129.094 36.6622 129.276V130.784C38.9762 130.68 41.4982 130.472 43.6823 130.186ZM31.6702 126.286V126.416C31.6702 127.3 33.3862 127.872 35.6222 127.872C37.8322 127.872 39.5222 127.3 39.5222 126.416V126.286C39.5222 125.402 37.8322 124.778 35.6222 124.778C33.3862 124.778 31.6702 125.402 31.6702 126.286ZM47.7903 139.26H34.4522V141.47H48.8042V143.004H32.6322V137.752H45.9703V135.62H32.5022V134.112H47.7903V139.26ZM68.9865 127.56V130.524H75.4865V132.162H53.0225V130.524H59.5485V127.56C57.1825 126.962 55.8045 125.636 55.8045 123.556C55.8045 120.67 58.4305 119.24 62.5905 119.24H65.9445C70.1045 119.24 72.7305 120.67 72.7305 123.556C72.7305 125.636 71.3525 126.962 68.9865 127.56ZM57.6505 123.556C57.6505 125.324 59.4965 126.286 62.9025 126.286H65.6325C69.0125 126.286 70.8585 125.272 70.8585 123.556C70.8585 121.814 69.0125 120.878 65.6325 120.878H62.9025C59.4965 120.878 57.6505 121.814 57.6505 123.556ZM61.3425 127.82V130.524H67.1925V127.82C66.8025 127.898 61.7325 127.898 61.3425 127.82ZM61.6285 134.606H66.8805C70.8065 134.606 72.8605 136.426 72.8605 138.87C72.8605 141.34 70.8065 143.16 66.8805 143.16H61.6285C57.7285 143.16 55.6745 141.34 55.6745 138.87C55.6745 136.426 57.7285 134.606 61.6285 134.606ZM62.0445 141.496H66.4645C69.5325 141.496 70.9885 140.456 70.9885 138.87C70.9885 137.284 69.5325 136.27 66.4645 136.27H62.0445C58.9765 136.27 57.5205 137.284 57.5205 138.87C57.5205 140.456 58.9765 141.496 62.0445 141.496ZM93.3808 126.728H97.1248V128.34H80.1988V126.728H83.9168V121.112H80.1988V119.5H97.1248V121.112H93.3808V126.728ZM91.5608 121.112H85.7368V126.728H91.5608V121.112ZM99.8808 130.758V132.422H89.5588V135.23H96.9948V142.9H80.3288V135.23H87.7128V132.422H77.4168V130.758H99.8808ZM82.1748 141.314H95.1228V136.816H82.1748V141.314Z" fill="#BFBFBF"/>
</g>
<g filter="url(#filter1_d_2103_8278)">
<g filter="url(#filter2_d_2103_8278)">
<path d="M59.332 4C61.7498 4.0001 63.7945 5.47088 64.6904 7.52344L66.5576 7.70215C66.913 5.62571 68.7218 4.04603 70.8984 4.0459H74.8008C77.2323 4.04611 79.2051 6.01725 79.2051 8.4502V23.4951C79.2049 25.9279 77.2321 27.8982 74.8008 27.8984H70.8984C68.4967 27.8983 66.5437 25.9757 66.4961 23.584L64.8242 24.0518C63.9986 26.3104 61.8173 27.8993 59.332 27.8994H56.8613V49.2744H58.626V89.4795C58.626 92.2542 56.3447 94.5332 53.5713 94.5332H48.5078C45.7346 94.5329 43.4531 92.254 43.4531 89.4795V49.2744H45.1719V27.8994H43.4453C40.9165 27.8994 38.7947 26.2907 37.9697 24.0898L35.7715 23.5254V23.541C35.7715 25.9483 33.8198 27.8982 31.4141 27.8984H27.4189C25.013 27.8984 23.0605 25.9485 23.0605 23.541V8.40332C23.0605 5.99586 25.013 4.0459 27.4189 4.0459H31.4141C33.5867 4.04615 35.3889 5.63646 35.7178 7.71777L38.0879 7.50977C38.9995 5.43188 41.0856 4 43.4453 4H59.332ZM48.4531 54.2754V89.4785C48.4533 89.479 48.4535 89.4801 48.4541 89.4814C48.4567 89.4875 48.4635 89.4986 48.4756 89.5107C48.4877 89.5228 48.4995 89.5295 48.5059 89.5322L48.5078 89.5332H53.5713C53.5718 89.533 53.5731 89.5327 53.5742 89.5322C53.5805 89.5295 53.5925 89.5227 53.6045 89.5107C53.6163 89.4988 53.6224 89.4875 53.625 89.4814L53.626 89.4795V54.2754H48.4531ZM50.1719 49.2744H51.8613V27.9004H50.1719V49.2744ZM43.4453 9C42.9909 9 42.6006 9.39044 42.6006 9.84375V12.1338L40.3193 12.334L35.7715 12.7314V18.3633L40.7217 19.6338L42.6006 20.1162V22.0557C42.6006 22.5076 42.9895 22.8994 43.4453 22.8994H59.332C59.7864 22.8993 60.1768 22.5089 60.1768 22.0557V20.1582L62.0039 19.6475L66.4941 18.3936V12.7188L62.4385 12.332L60.1768 12.1162V9.84375C60.1768 9.39187 59.7877 9.00014 59.332 9H43.4453ZM28.0605 22.8984H30.7715V22.2422L30.7256 22.2305V9.0459H28.0605V22.8984ZM71.4941 22.8984H74.2051V9.0459H71.4941V22.8984Z" fill="#BFBFBF"/>
</g>
</g>
<defs>
<filter id="filter0_d_2103_8278" x="0" y="114.59" width="103.881" height="32.5699" filterUnits="userSpaceOnUse" color-interpolation-filters="sRGB">
<feFlood flood-opacity="0" result="BackgroundImageFix"/>
<feColorMatrix in="SourceAlpha" type="matrix" values="0 0 0 0 0 0 0 0 0 0 0 0 0 0 0 0 0 0 127 0" result="hardAlpha"/>
<feOffset/>
<feGaussianBlur stdDeviation="2"/>
<feComposite in2="hardAlpha" operator="out"/>
<feColorMatrix type="matrix" values="0 0 0 0 0.00392157 0 0 0 0 0.917647 0 0 0 0 0.839216 0 0 0 1 0"/>
<feBlend mode="normal" in2="BackgroundImageFix" result="effect1_dropShadow_2103_8278"/>
<feBlend mode="normal" in="SourceGraphic" in2="effect1_dropShadow_2103_8278" result="shape"/>
</filter>
<filter id="filter1_d_2103_8278" x="19.0605" y="0" width="64.1445" height="98.5332" filterUnits="userSpaceOnUse" color-interpolation-filters="sRGB">
<feFlood flood-opacity="0" result="BackgroundImageFix"/>
<feColorMatrix in="SourceAlpha" type="matrix" values="0 0 0 0 0 0 0 0 0 0 0 0 0 0 0 0 0 0 127 0" result="hardAlpha"/>
<feOffset/>
<feGaussianBlur stdDeviation="2"/>
<feComposite in2="hardAlpha" operator="out"/>
<feColorMatrix type="matrix" values="0 0 0 0 0.00392157 0 0 0 0 0.917647 0 0 0 0 0.839216 0 0 0 1 0"/>
<feBlend mode="normal" in2="BackgroundImageFix" result="effect1_dropShadow_2103_8278"/>
<feBlend mode="normal" in="SourceGraphic" in2="effect1_dropShadow_2103_8278" result="shape"/>
</filter>
<filter id="filter2_d_2103_8278" x="19.0605" y="0" width="64.1445" height="98.5332" filterUnits="userSpaceOnUse" color-interpolation-filters="sRGB">
<feFlood flood-opacity="0" result="BackgroundImageFix"/>
<feColorMatrix in="SourceAlpha" type="matrix" values="0 0 0 0 0 0 0 0 0 0 0 0 0 0 0 0 0 0 127 0" result="hardAlpha"/>
<feOffset/>
<feGaussianBlur stdDeviation="2"/>
<feComposite in2="hardAlpha" operator="out"/>
<feColorMatrix type="matrix" values="0 0 0 0 0.00392157 0 0 0 0 0.917647 0 0 0 0 0.839216 0 0 0 1 0"/>
<feBlend mode="normal" in2="BackgroundImageFix" result="effect1_dropShadow_2103_8278"/>
<feBlend mode="normal" in="SourceGraphic" in2="effect1_dropShadow_2103_8278" result="shape"/>
</filter>
</defs>
</svg>
