<svg width="147" height="172" viewBox="0 0 147 172" fill="none" xmlns="http://www.w3.org/2000/svg">
<g filter="url(#filter0_d_2103_8401)">
<path d="M44.7417 149.034H41.7517V154.598H39.3337V141.936H41.7517V146.746H44.7417V141.676H47.2117V154.832H44.7417V149.034ZM38.2677 152.388L36.7597 154.26L31.9237 150.048C30.9097 151.816 29.4277 153.35 27.4517 154.78L25.9697 152.83C29.3757 150.334 30.9357 147.396 30.9357 144.094V142.456H33.4317V144.094C33.4317 145.394 33.2497 146.616 32.9117 147.76L38.2677 152.388ZM36.2917 156.106H41.7517C45.2877 156.106 47.5237 158.186 47.5237 161.072C47.5237 163.984 45.2877 166.064 41.7517 166.064H36.2917C32.7557 166.064 30.5197 163.984 30.5197 161.072C30.5197 158.186 32.7557 156.106 36.2917 156.106ZM36.7077 163.724H41.3357C43.7537 163.724 44.9497 162.606 44.9497 161.072C44.9497 159.538 43.7537 158.42 41.3357 158.42H36.7077C34.2897 158.42 33.0937 159.538 33.0937 161.072C33.0937 162.606 34.2897 163.724 36.7077 163.724ZM58.944 143.34H64.612V145.264H50.624V143.34H56.318V141.39H58.944V143.34ZM70.124 141.676V148.228H73.634V150.568H70.124V155.222H67.524V141.676H70.124ZM65.574 152.726L65.808 154.676C62.194 155.144 57.592 155.43 54.16 155.43H50.312L50.208 153.454H54.368C54.992 153.454 55.694 153.454 56.474 153.428V152.076C53.718 151.894 51.716 150.984 51.716 149.19V149.008C51.716 146.954 54.316 146.044 57.67 146.044C60.946 146.044 63.546 146.954 63.546 149.008V149.19C63.546 150.932 61.648 151.842 59.074 152.076V153.298C61.206 153.168 63.52 152.986 65.574 152.726ZM54.264 149.06V149.164C54.264 149.892 55.72 150.334 57.67 150.334C59.542 150.334 61.024 149.892 61.024 149.164V149.06C61.024 148.332 59.542 147.89 57.67 147.89C55.72 147.89 54.264 148.332 54.264 149.06ZM70.124 162.242H56.942V163.88H71.008V165.934H54.42V160.266H67.602V158.732H54.29V156.73H70.124V162.242ZM91.4503 150.36V153.012H97.6383V155.248H74.9663V153.012H81.1803V150.36C78.9703 149.762 77.6183 148.41 77.6183 146.33C77.6183 143.366 80.3483 141.936 84.4043 141.936H88.2003C92.2823 141.936 94.9863 143.366 94.9863 146.33C94.9863 148.41 93.6603 149.736 91.4503 150.36ZM80.2183 146.356C80.2183 147.812 81.8823 148.592 84.8723 148.592H87.7583C90.7483 148.592 92.4123 147.786 92.4123 146.356C92.4123 144.874 90.7483 144.12 87.7583 144.12H84.8723C81.8823 144.12 80.2183 144.874 80.2183 146.356ZM83.6503 150.724V153.012H88.9803V150.724C87.2123 150.75 85.4183 150.75 83.6503 150.724ZM83.5463 157.302H89.0583C92.9583 157.302 95.1163 159.148 95.1163 161.67C95.1163 164.218 92.9583 166.064 89.0583 166.064H83.5463C79.6463 166.064 77.4883 164.218 77.4883 161.67C77.4883 159.148 79.6463 157.302 83.5463 157.302ZM84.0663 163.802H88.5643C91.2943 163.802 92.5423 162.97 92.5423 161.644C92.5423 160.37 91.2943 159.538 88.5643 159.538H84.0663C81.3363 159.538 80.0883 160.37 80.0883 161.644C80.0883 162.97 81.3363 163.802 84.0663 163.802ZM115.793 149.008H119.381V151.192H102.013V149.008H105.627V144.354H102.013V142.196H119.381V144.354H115.793V149.008ZM113.271 144.354H108.149V149.008H113.271V144.354ZM122.033 153.246V155.508H111.997V157.926H119.277V165.804H102.143V157.926H109.397V155.508H99.3606V153.246H122.033ZM104.743 163.646H116.677V160.058H104.743V163.646Z" fill="#FFE674"/>
</g>
<g filter="url(#filter1_d_2103_8401)">
<path d="M81.4612 26.8C83.8789 26.8001 85.9236 28.2709 86.8196 30.3234L88.6868 30.5021C89.0421 28.4257 90.8509 26.846 93.0276 26.8459H96.9299C99.3614 26.8461 101.334 28.8172 101.334 31.2502V46.2951C101.334 48.7279 99.3613 50.6982 96.9299 50.6984H93.0276C90.6259 50.6983 88.6728 48.7757 88.6252 46.384L86.9534 46.8517C86.1278 49.1104 83.9465 50.6993 81.4612 50.6994H78.9905V72.0744H80.7551V112.279C80.7551 115.054 78.4738 117.333 75.7004 117.333H70.637C67.8638 117.333 65.5823 115.054 65.5823 112.279V72.0744H67.301V50.6994H65.5745C63.0456 50.6994 60.9239 49.0906 60.0989 46.8898L57.9006 46.3254V46.341C57.9006 48.7483 55.949 50.6981 53.5432 50.6984H49.5481C47.1421 50.6984 45.1897 48.7485 45.1897 46.341V31.2033C45.1897 28.7958 47.1421 26.8459 49.5481 26.8459H53.5432C55.7158 26.8461 57.5181 28.4365 57.8469 30.5178L60.217 30.3098C61.1286 28.2319 63.2147 26.8 65.5745 26.8H81.4612ZM70.5823 77.0754V112.279C70.5824 112.279 70.5827 112.28 70.5833 112.281C70.5858 112.287 70.5927 112.299 70.6047 112.311C70.6168 112.323 70.6287 112.329 70.635 112.332L70.637 112.333H75.7004C75.701 112.333 75.7023 112.333 75.7034 112.332C75.7097 112.329 75.7216 112.323 75.7336 112.311C75.7455 112.299 75.7515 112.287 75.7542 112.281L75.7551 112.279V77.0754H70.5823ZM72.301 72.0744H73.9905V50.7004H72.301V72.0744ZM65.5745 31.8C65.12 31.8 64.7297 32.1904 64.7297 32.6437V34.9338L62.4485 35.134L57.9006 35.5314V41.1633L62.8508 42.4338L64.7297 42.9162V44.8557C64.7297 45.3076 65.1187 45.6994 65.5745 45.6994H81.4612C81.9156 45.6993 82.3059 45.3088 82.3059 44.8557V42.9582L84.1331 42.4474L88.6233 41.1935V35.5187L84.5676 35.132L82.3059 34.9162V32.6437C82.3059 32.1919 81.9169 31.8001 81.4612 31.8H65.5745ZM50.1897 45.6984H52.9006V45.0422L52.8547 45.0305V31.8459H50.1897V45.6984ZM93.6233 45.6984H96.3342V31.8459H93.6233V45.6984Z" fill="#FFE674"/>
</g>
<g filter="url(#filter2_d_2103_8401)">
<path d="M33.2183 11.8H11.8V33.2182" stroke="#FFE674" stroke-width="5"/>
</g>
<g filter="url(#filter3_d_2103_8401)">
<path d="M113.255 124.218L134.673 124.218L134.673 102.8" stroke="#FFE674" stroke-width="5"/>
</g>
<g filter="url(#filter4_d_2103_8401)">
<path d="M134.673 33.2182L134.673 11.8L113.255 11.8" stroke="#FFE674" stroke-width="5"/>
</g>
<g filter="url(#filter5_d_2103_8401)">
<path d="M11.8 102.8L11.8 124.218L33.2183 124.218" stroke="#FFE674" stroke-width="5"/>
</g>
<defs>
<filter id="filter0_d_2103_8401" x="21.9697" y="137.39" width="104.063" height="32.6741" filterUnits="userSpaceOnUse" color-interpolation-filters="sRGB">
<feFlood flood-opacity="0" result="BackgroundImageFix"/>
<feColorMatrix in="SourceAlpha" type="matrix" values="0 0 0 0 0 0 0 0 0 0 0 0 0 0 0 0 0 0 127 0" result="hardAlpha"/>
<feOffset/>
<feGaussianBlur stdDeviation="2"/>
<feComposite in2="hardAlpha" operator="out"/>
<feColorMatrix type="matrix" values="0 0 0 0 0.996078 0 0 0 0 0.541176 0 0 0 0 0.00392157 0 0 0 1 0"/>
<feBlend mode="normal" in2="BackgroundImageFix" result="effect1_dropShadow_2103_8401"/>
<feBlend mode="normal" in="SourceGraphic" in2="effect1_dropShadow_2103_8401" result="shape"/>
</filter>
<filter id="filter1_d_2103_8401" x="41.1897" y="22.8" width="64.1445" height="98.5332" filterUnits="userSpaceOnUse" color-interpolation-filters="sRGB">
<feFlood flood-opacity="0" result="BackgroundImageFix"/>
<feColorMatrix in="SourceAlpha" type="matrix" values="0 0 0 0 0 0 0 0 0 0 0 0 0 0 0 0 0 0 127 0" result="hardAlpha"/>
<feOffset/>
<feGaussianBlur stdDeviation="2"/>
<feComposite in2="hardAlpha" operator="out"/>
<feColorMatrix type="matrix" values="0 0 0 0 0.996078 0 0 0 0 0.541176 0 0 0 0 0.00392157 0 0 0 1 0"/>
<feBlend mode="normal" in2="BackgroundImageFix" result="effect1_dropShadow_2103_8401"/>
<feBlend mode="normal" in="SourceGraphic" in2="effect1_dropShadow_2103_8401" result="shape"/>
</filter>
<filter id="filter2_d_2103_8401" x="4.86374e-05" y="-1.23978e-05" width="42.5182" height="42.5182" filterUnits="userSpaceOnUse" color-interpolation-filters="sRGB">
<feFlood flood-opacity="0" result="BackgroundImageFix"/>
<feColorMatrix in="SourceAlpha" type="matrix" values="0 0 0 0 0 0 0 0 0 0 0 0 0 0 0 0 0 0 127 0" result="hardAlpha"/>
<feOffset/>
<feGaussianBlur stdDeviation="4.65"/>
<feComposite in2="hardAlpha" operator="out"/>
<feColorMatrix type="matrix" values="0 0 0 0 0.996078 0 0 0 0 0.541176 0 0 0 0 0.00392157 0 0 0 1 0"/>
<feBlend mode="normal" in2="BackgroundImageFix" result="effect1_dropShadow_2103_8401"/>
<feBlend mode="normal" in="SourceGraphic" in2="effect1_dropShadow_2103_8401" result="shape"/>
</filter>
<filter id="filter3_d_2103_8401" x="103.955" y="93.5" width="42.5182" height="42.5182" filterUnits="userSpaceOnUse" color-interpolation-filters="sRGB">
<feFlood flood-opacity="0" result="BackgroundImageFix"/>
<feColorMatrix in="SourceAlpha" type="matrix" values="0 0 0 0 0 0 0 0 0 0 0 0 0 0 0 0 0 0 127 0" result="hardAlpha"/>
<feOffset/>
<feGaussianBlur stdDeviation="4.65"/>
<feComposite in2="hardAlpha" operator="out"/>
<feColorMatrix type="matrix" values="0 0 0 0 0.996078 0 0 0 0 0.541176 0 0 0 0 0.00392157 0 0 0 1 0"/>
<feBlend mode="normal" in2="BackgroundImageFix" result="effect1_dropShadow_2103_8401"/>
<feBlend mode="normal" in="SourceGraphic" in2="effect1_dropShadow_2103_8401" result="shape"/>
</filter>
<filter id="filter4_d_2103_8401" x="103.955" y="-1.23978e-05" width="42.5182" height="42.5182" filterUnits="userSpaceOnUse" color-interpolation-filters="sRGB">
<feFlood flood-opacity="0" result="BackgroundImageFix"/>
<feColorMatrix in="SourceAlpha" type="matrix" values="0 0 0 0 0 0 0 0 0 0 0 0 0 0 0 0 0 0 127 0" result="hardAlpha"/>
<feOffset/>
<feGaussianBlur stdDeviation="4.65"/>
<feComposite in2="hardAlpha" operator="out"/>
<feColorMatrix type="matrix" values="0 0 0 0 0.996078 0 0 0 0 0.541176 0 0 0 0 0.00392157 0 0 0 1 0"/>
<feBlend mode="normal" in2="BackgroundImageFix" result="effect1_dropShadow_2103_8401"/>
<feBlend mode="normal" in="SourceGraphic" in2="effect1_dropShadow_2103_8401" result="shape"/>
</filter>
<filter id="filter5_d_2103_8401" x="4.86374e-05" y="93.5" width="42.5182" height="42.5182" filterUnits="userSpaceOnUse" color-interpolation-filters="sRGB">
<feFlood flood-opacity="0" result="BackgroundImageFix"/>
<feColorMatrix in="SourceAlpha" type="matrix" values="0 0 0 0 0 0 0 0 0 0 0 0 0 0 0 0 0 0 127 0" result="hardAlpha"/>
<feOffset/>
<feGaussianBlur stdDeviation="4.65"/>
<feComposite in2="hardAlpha" operator="out"/>
<feColorMatrix type="matrix" values="0 0 0 0 0.996078 0 0 0 0 0.541176 0 0 0 0 0.00392157 0 0 0 1 0"/>
<feBlend mode="normal" in2="BackgroundImageFix" result="effect1_dropShadow_2103_8401"/>
<feBlend mode="normal" in="SourceGraphic" in2="effect1_dropShadow_2103_8401" result="shape"/>
</filter>
</defs>
</svg>
