<svg width="105" height="149" viewBox="0 0 105 149" fill="none" xmlns="http://www.w3.org/2000/svg">
<g filter="url(#filter0_d_2103_8173)">
<path d="M22.772 126.234H19.782V131.798H17.364V119.136H19.782V123.946H22.772V118.876H25.242V132.032H22.772V126.234ZM16.298 129.588L14.79 131.46L9.95397 127.248C8.93997 129.016 7.45797 130.55 5.48197 131.98L3.99997 130.03C7.40597 127.534 8.96597 124.596 8.96597 121.294V119.656H11.462V121.294C11.462 122.594 11.28 123.816 10.942 124.96L16.298 129.588ZM14.322 133.306H19.782C23.318 133.306 25.554 135.386 25.554 138.272C25.554 141.184 23.318 143.264 19.782 143.264H14.322C10.786 143.264 8.54997 141.184 8.54997 138.272C8.54997 135.386 10.786 133.306 14.322 133.306ZM14.738 140.924H19.366C21.784 140.924 22.98 139.806 22.98 138.272C22.98 136.738 21.784 135.62 19.366 135.62H14.738C12.32 135.62 11.124 136.738 11.124 138.272C11.124 139.806 12.32 140.924 14.738 140.924ZM36.9743 120.54H42.6423V122.464H28.6543V120.54H34.3483V118.59H36.9743V120.54ZM48.1543 118.876V125.428H51.6643V127.768H48.1543V132.422H45.5543V118.876H48.1543ZM43.6043 129.926L43.8383 131.876C40.2243 132.344 35.6223 132.63 32.1903 132.63H28.3423L28.2383 130.654H32.3983C33.0223 130.654 33.7243 130.654 34.5043 130.628V129.276C31.7483 129.094 29.7463 128.184 29.7463 126.39V126.208C29.7463 124.154 32.3463 123.244 35.7003 123.244C38.9763 123.244 41.5763 124.154 41.5763 126.208V126.39C41.5763 128.132 39.6783 129.042 37.1043 129.276V130.498C39.2363 130.368 41.5503 130.186 43.6043 129.926ZM32.2943 126.26V126.364C32.2943 127.092 33.7503 127.534 35.7003 127.534C37.5723 127.534 39.0543 127.092 39.0543 126.364V126.26C39.0543 125.532 37.5723 125.09 35.7003 125.09C33.7503 125.09 32.2943 125.532 32.2943 126.26ZM48.1543 139.442H34.9723V141.08H49.0383V143.134H32.4503V137.466H45.6323V135.932H32.3203V133.93H48.1543V139.442ZM69.4806 127.56V130.212H75.6686V132.448H52.9966V130.212H59.2106V127.56C57.0006 126.962 55.6486 125.61 55.6486 123.53C55.6486 120.566 58.3786 119.136 62.4346 119.136H66.2306C70.3126 119.136 73.0166 120.566 73.0166 123.53C73.0166 125.61 71.6906 126.936 69.4806 127.56ZM58.2486 123.556C58.2486 125.012 59.9126 125.792 62.9026 125.792H65.7886C68.7786 125.792 70.4426 124.986 70.4426 123.556C70.4426 122.074 68.7786 121.32 65.7886 121.32H62.9026C59.9126 121.32 58.2486 122.074 58.2486 123.556ZM61.6806 127.924V130.212H67.0106V127.924C65.2426 127.95 63.4486 127.95 61.6806 127.924ZM61.5766 134.502H67.0886C70.9886 134.502 73.1466 136.348 73.1466 138.87C73.1466 141.418 70.9886 143.264 67.0886 143.264H61.5766C57.6766 143.264 55.5186 141.418 55.5186 138.87C55.5186 136.348 57.6766 134.502 61.5766 134.502ZM62.0966 141.002H66.5946C69.3246 141.002 70.5726 140.17 70.5726 138.844C70.5726 137.57 69.3246 136.738 66.5946 136.738H62.0966C59.3666 136.738 58.1186 137.57 58.1186 138.844C58.1186 140.17 59.3666 141.002 62.0966 141.002ZM93.8229 126.208H97.4109V128.392H80.0429V126.208H83.6569V121.554H80.0429V119.396H97.4109V121.554H93.8229V126.208ZM91.3009 121.554H86.1789V126.208H91.3009V121.554ZM100.063 130.446V132.708H90.0269V135.126H97.3069V143.004H80.1729V135.126H87.4269V132.708H77.3909V130.446H100.063ZM82.7729 140.846H94.7069V137.258H82.7729V140.846Z" fill="white"/>
</g>
<g filter="url(#filter1_d_2103_8173)">
<g filter="url(#filter2_d_2103_8173)">
<path d="M59.4915 4C61.9092 4.0001 63.9539 5.47088 64.8499 7.52344L66.717 7.70215C67.0724 5.62571 68.8812 4.04603 71.0579 4.0459H74.9602C77.3917 4.04611 79.3645 6.01725 79.3645 8.4502V23.4951C79.3643 25.9279 77.3916 27.8982 74.9602 27.8984H71.0579C68.6561 27.8983 66.7031 25.9757 66.6555 23.584L64.9836 24.0518C64.158 26.3104 61.9768 27.8993 59.4915 27.8994H57.0208V49.2744H58.7854V89.4795C58.7854 92.2542 56.5041 94.5332 53.7307 94.5332H48.6672C45.894 94.5329 43.6125 92.254 43.6125 89.4795V49.2744H45.3313V27.8994H43.6047C41.0759 27.8994 38.9541 26.2907 38.1292 24.0898L35.9309 23.5254V23.541C35.9309 25.9483 33.9792 27.8982 31.5735 27.8984H27.5784C25.1724 27.8984 23.22 25.9485 23.22 23.541V8.40332C23.22 5.99586 25.1724 4.0459 27.5784 4.0459H31.5735C33.7461 4.04615 35.5483 5.63646 35.8772 7.71777L38.2473 7.50977C39.1589 5.43188 41.245 4 43.6047 4H59.4915ZM48.6125 54.2754V89.4785C48.6127 89.479 48.613 89.4801 48.6135 89.4814C48.6161 89.4875 48.6229 89.4986 48.635 89.5107C48.6471 89.5228 48.659 89.5295 48.6653 89.5322L48.6672 89.5332H53.7307C53.7313 89.533 53.7325 89.5327 53.7336 89.5322C53.7399 89.5295 53.7519 89.5227 53.7639 89.5107C53.7757 89.4988 53.7818 89.4875 53.7844 89.4814L53.7854 89.4795V54.2754H48.6125ZM50.3313 49.2744H52.0208V27.9004H50.3313V49.2744ZM43.6047 9C43.1503 9 42.76 9.39044 42.76 9.84375V12.1338L40.4788 12.334L35.9309 12.7314V18.3633L40.8811 19.6338L42.76 20.1162V22.0557C42.76 22.5076 43.1489 22.8994 43.6047 22.8994H59.4915C59.9458 22.8993 60.3362 22.5089 60.3362 22.0557V20.1582L62.1633 19.6475L66.6536 18.3936V12.7188L62.5979 12.332L60.3362 12.1162V9.84375C60.3362 9.39187 59.9472 9.00014 59.4915 9H43.6047ZM28.22 22.8984H30.9309V22.2422L30.885 22.2305V9.0459H28.22V22.8984ZM71.6536 22.8984H74.3645V9.0459H71.6536V22.8984Z" fill="white"/>
</g>
</g>
<defs>
<filter id="filter0_d_2103_8173" x="0" y="114.59" width="104.063" height="32.674" filterUnits="userSpaceOnUse" color-interpolation-filters="sRGB">
<feFlood flood-opacity="0" result="BackgroundImageFix"/>
<feColorMatrix in="SourceAlpha" type="matrix" values="0 0 0 0 0 0 0 0 0 0 0 0 0 0 0 0 0 0 127 0" result="hardAlpha"/>
<feOffset/>
<feGaussianBlur stdDeviation="2"/>
<feComposite in2="hardAlpha" operator="out"/>
<feColorMatrix type="matrix" values="0 0 0 0 0.00392157 0 0 0 0 0.917647 0 0 0 0 0.839216 0 0 0 1 0"/>
<feBlend mode="normal" in2="BackgroundImageFix" result="effect1_dropShadow_2103_8173"/>
<feBlend mode="normal" in="SourceGraphic" in2="effect1_dropShadow_2103_8173" result="shape"/>
</filter>
<filter id="filter1_d_2103_8173" x="19.22" y="0" width="64.1445" height="98.5332" filterUnits="userSpaceOnUse" color-interpolation-filters="sRGB">
<feFlood flood-opacity="0" result="BackgroundImageFix"/>
<feColorMatrix in="SourceAlpha" type="matrix" values="0 0 0 0 0 0 0 0 0 0 0 0 0 0 0 0 0 0 127 0" result="hardAlpha"/>
<feOffset/>
<feGaussianBlur stdDeviation="2"/>
<feComposite in2="hardAlpha" operator="out"/>
<feColorMatrix type="matrix" values="0 0 0 0 0.00392157 0 0 0 0 0.917647 0 0 0 0 0.839216 0 0 0 1 0"/>
<feBlend mode="normal" in2="BackgroundImageFix" result="effect1_dropShadow_2103_8173"/>
<feBlend mode="normal" in="SourceGraphic" in2="effect1_dropShadow_2103_8173" result="shape"/>
</filter>
<filter id="filter2_d_2103_8173" x="19.22" y="0" width="64.1445" height="98.5332" filterUnits="userSpaceOnUse" color-interpolation-filters="sRGB">
<feFlood flood-opacity="0" result="BackgroundImageFix"/>
<feColorMatrix in="SourceAlpha" type="matrix" values="0 0 0 0 0 0 0 0 0 0 0 0 0 0 0 0 0 0 127 0" result="hardAlpha"/>
<feOffset/>
<feGaussianBlur stdDeviation="2"/>
<feComposite in2="hardAlpha" operator="out"/>
<feColorMatrix type="matrix" values="0 0 0 0 0.00392157 0 0 0 0 0.917647 0 0 0 0 0.839216 0 0 0 1 0"/>
<feBlend mode="normal" in2="BackgroundImageFix" result="effect1_dropShadow_2103_8173"/>
<feBlend mode="normal" in="SourceGraphic" in2="effect1_dropShadow_2103_8173" result="shape"/>
</filter>
</defs>
</svg>
