<svg width="147" height="168" viewBox="0 0 147 168" fill="none" xmlns="http://www.w3.org/2000/svg">
<g filter="url(#filter0_d_2103_8449)">
<path d="M33.2183 11.8H11.8V33.2182" stroke="#FFE674" stroke-width="5"/>
</g>
<g filter="url(#filter1_d_2103_8449)">
<path d="M113.255 124.218L134.673 124.218L134.673 102.8" stroke="#FFE674" stroke-width="5"/>
</g>
<g filter="url(#filter2_d_2103_8449)">
<path d="M134.673 33.2182L134.673 11.8L113.255 11.8" stroke="#FFE674" stroke-width="5"/>
</g>
<g filter="url(#filter3_d_2103_8449)">
<path d="M11.8 102.8L11.8 124.218L33.2183 124.218" stroke="#FFE674" stroke-width="5"/>
</g>
<g filter="url(#filter4_d_2103_8449)">
<path d="M35.1521 146.282V144.046H39.884V137.676H42.4581V155.746H39.884V146.282H35.1521ZM35.516 152.47L29.146 147.426C27.924 149.402 26.026 151.17 23.452 152.86L22.048 150.858C26.182 148.024 28.21 145.294 28.21 141.498V141.264H23.01V138.95H36.036V141.264H30.758V141.498C30.758 142.798 30.576 144.02 30.186 145.19L36.972 150.442L35.516 152.47ZM29.094 154.238V159.438H43.472V161.804H26.494V154.238H29.094ZM65.5003 146.75H69.2183V149.116H65.5003V161.804H62.9003V137.676H65.5003V146.75ZM54.3203 141.94V142.98C54.3203 144.8 54.1123 146.516 53.6703 148.18L60.5083 156.578L58.5583 158.268L52.6823 151.014C51.5643 153.64 49.8483 156.084 47.5603 158.528L45.7143 156.812C49.6403 152.574 51.7983 148.544 51.7983 142.98V141.94H46.6503V139.574H59.5463V141.94H54.3203ZM95.2017 161.804V137.676H97.7237V161.804H95.2017ZM86.1277 146.49H89.9757V138.04H92.4457V161.31H89.9757V148.856H86.1277V146.49ZM83.6317 141.94V143.24C83.6317 145.008 83.4497 146.698 83.1117 148.336L88.5717 156.812L86.5177 158.242L82.2017 151.534C81.3437 153.952 80.0437 156.24 78.3797 158.502L76.4037 156.968C79.5757 152.756 81.2397 148.622 81.2397 143.24V141.94H77.2617V139.574H87.7657V141.94H83.6317ZM117.516 145.008H121.104V147.192H103.736V145.008H107.35V140.354H103.736V138.196H121.104V140.354H117.516V145.008ZM114.994 140.354H109.872V145.008H114.994V140.354ZM123.756 149.246V151.508H113.72V153.926H121V161.804H103.866V153.926H111.12V151.508H101.084V149.246H123.756ZM106.466 159.646H118.4V156.058H106.466V159.646Z" fill="#FFE674"/>
</g>
<g filter="url(#filter5_d_2103_8449)">
<g filter="url(#filter6_d_2103_8449)">
<path d="M81.6707 26.5656C82.6285 25.5714 84.2115 25.5414 85.2058 26.4992C86.1999 27.4571 86.2289 29.04 85.2712 30.0344L78.658 36.8996H115.235V96.757H83.1169V98.1848H92.2332V109.656H53.3679V98.1848H62.4841V96.757H30.365V36.8996H67.283L60.6697 30.0344C59.7119 29.0399 59.7417 27.457 60.7361 26.4992C61.7305 25.5416 63.3135 25.5713 64.2712 26.5656L72.9705 35.5969L81.6707 26.5656ZM67.4841 103.185H58.3679V104.656H87.2332V103.185H78.1169V96.757H67.4841V103.185ZM35.365 91.757H62.4841V91.756H83.1169V91.757H110.235V41.8996H35.365V91.757ZM107.695 89.4728H37.8621V43.5871H107.695V89.4728ZM42.8621 84.4728H102.695V48.5871H42.8621V84.4728Z" fill="#FFE674"/>
</g>
</g>
<defs>
<filter id="filter0_d_2103_8449" x="4.86374e-05" y="-1.23978e-05" width="42.5182" height="42.5182" filterUnits="userSpaceOnUse" color-interpolation-filters="sRGB">
<feFlood flood-opacity="0" result="BackgroundImageFix"/>
<feColorMatrix in="SourceAlpha" type="matrix" values="0 0 0 0 0 0 0 0 0 0 0 0 0 0 0 0 0 0 127 0" result="hardAlpha"/>
<feOffset/>
<feGaussianBlur stdDeviation="4.65"/>
<feComposite in2="hardAlpha" operator="out"/>
<feColorMatrix type="matrix" values="0 0 0 0 0.996078 0 0 0 0 0.541176 0 0 0 0 0.00392157 0 0 0 1 0"/>
<feBlend mode="normal" in2="BackgroundImageFix" result="effect1_dropShadow_2103_8449"/>
<feBlend mode="normal" in="SourceGraphic" in2="effect1_dropShadow_2103_8449" result="shape"/>
</filter>
<filter id="filter1_d_2103_8449" x="103.955" y="93.5" width="42.5182" height="42.5182" filterUnits="userSpaceOnUse" color-interpolation-filters="sRGB">
<feFlood flood-opacity="0" result="BackgroundImageFix"/>
<feColorMatrix in="SourceAlpha" type="matrix" values="0 0 0 0 0 0 0 0 0 0 0 0 0 0 0 0 0 0 127 0" result="hardAlpha"/>
<feOffset/>
<feGaussianBlur stdDeviation="4.65"/>
<feComposite in2="hardAlpha" operator="out"/>
<feColorMatrix type="matrix" values="0 0 0 0 0.996078 0 0 0 0 0.541176 0 0 0 0 0.00392157 0 0 0 1 0"/>
<feBlend mode="normal" in2="BackgroundImageFix" result="effect1_dropShadow_2103_8449"/>
<feBlend mode="normal" in="SourceGraphic" in2="effect1_dropShadow_2103_8449" result="shape"/>
</filter>
<filter id="filter2_d_2103_8449" x="103.955" y="-1.23978e-05" width="42.5182" height="42.5182" filterUnits="userSpaceOnUse" color-interpolation-filters="sRGB">
<feFlood flood-opacity="0" result="BackgroundImageFix"/>
<feColorMatrix in="SourceAlpha" type="matrix" values="0 0 0 0 0 0 0 0 0 0 0 0 0 0 0 0 0 0 127 0" result="hardAlpha"/>
<feOffset/>
<feGaussianBlur stdDeviation="4.65"/>
<feComposite in2="hardAlpha" operator="out"/>
<feColorMatrix type="matrix" values="0 0 0 0 0.996078 0 0 0 0 0.541176 0 0 0 0 0.00392157 0 0 0 1 0"/>
<feBlend mode="normal" in2="BackgroundImageFix" result="effect1_dropShadow_2103_8449"/>
<feBlend mode="normal" in="SourceGraphic" in2="effect1_dropShadow_2103_8449" result="shape"/>
</filter>
<filter id="filter3_d_2103_8449" x="4.86374e-05" y="93.5" width="42.5182" height="42.5182" filterUnits="userSpaceOnUse" color-interpolation-filters="sRGB">
<feFlood flood-opacity="0" result="BackgroundImageFix"/>
<feColorMatrix in="SourceAlpha" type="matrix" values="0 0 0 0 0 0 0 0 0 0 0 0 0 0 0 0 0 0 127 0" result="hardAlpha"/>
<feOffset/>
<feGaussianBlur stdDeviation="4.65"/>
<feComposite in2="hardAlpha" operator="out"/>
<feColorMatrix type="matrix" values="0 0 0 0 0.996078 0 0 0 0 0.541176 0 0 0 0 0.00392157 0 0 0 1 0"/>
<feBlend mode="normal" in2="BackgroundImageFix" result="effect1_dropShadow_2103_8449"/>
<feBlend mode="normal" in="SourceGraphic" in2="effect1_dropShadow_2103_8449" result="shape"/>
</filter>
<filter id="filter4_d_2103_8449" x="18.0481" y="133.676" width="109.708" height="32.1281" filterUnits="userSpaceOnUse" color-interpolation-filters="sRGB">
<feFlood flood-opacity="0" result="BackgroundImageFix"/>
<feColorMatrix in="SourceAlpha" type="matrix" values="0 0 0 0 0 0 0 0 0 0 0 0 0 0 0 0 0 0 127 0" result="hardAlpha"/>
<feOffset/>
<feGaussianBlur stdDeviation="2"/>
<feComposite in2="hardAlpha" operator="out"/>
<feColorMatrix type="matrix" values="0 0 0 0 0.996078 0 0 0 0 0.541176 0 0 0 0 0.00392157 0 0 0 1 0"/>
<feBlend mode="normal" in2="BackgroundImageFix" result="effect1_dropShadow_2103_8449"/>
<feBlend mode="normal" in="SourceGraphic" in2="effect1_dropShadow_2103_8449" result="shape"/>
</filter>
<filter id="filter5_d_2103_8449" x="26.365" y="21.8" width="92.8701" height="91.8564" filterUnits="userSpaceOnUse" color-interpolation-filters="sRGB">
<feFlood flood-opacity="0" result="BackgroundImageFix"/>
<feColorMatrix in="SourceAlpha" type="matrix" values="0 0 0 0 0 0 0 0 0 0 0 0 0 0 0 0 0 0 127 0" result="hardAlpha"/>
<feOffset/>
<feGaussianBlur stdDeviation="2"/>
<feComposite in2="hardAlpha" operator="out"/>
<feColorMatrix type="matrix" values="0 0 0 0 0.996078 0 0 0 0 0.541176 0 0 0 0 0.00392157 0 0 0 1 0"/>
<feBlend mode="normal" in2="BackgroundImageFix" result="effect1_dropShadow_2103_8449"/>
<feBlend mode="normal" in="SourceGraphic" in2="effect1_dropShadow_2103_8449" result="shape"/>
</filter>
<filter id="filter6_d_2103_8449" x="26.365" y="21.8" width="92.8701" height="91.8564" filterUnits="userSpaceOnUse" color-interpolation-filters="sRGB">
<feFlood flood-opacity="0" result="BackgroundImageFix"/>
<feColorMatrix in="SourceAlpha" type="matrix" values="0 0 0 0 0 0 0 0 0 0 0 0 0 0 0 0 0 0 127 0" result="hardAlpha"/>
<feOffset/>
<feGaussianBlur stdDeviation="2"/>
<feComposite in2="hardAlpha" operator="out"/>
<feColorMatrix type="matrix" values="0 0 0 0 0.996078 0 0 0 0 0.541176 0 0 0 0 0.00392157 0 0 0 1 0"/>
<feBlend mode="normal" in2="BackgroundImageFix" result="effect1_dropShadow_2103_8449"/>
<feBlend mode="normal" in="SourceGraphic" in2="effect1_dropShadow_2103_8449" result="shape"/>
</filter>
</defs>
</svg>
