<svg width="113" height="156" viewBox="0 0 113 156" fill="none" xmlns="http://www.w3.org/2000/svg">
<g filter="url(#filter0_d_2103_8340)">
<path d="M18.712 134.382V132.146H23.444V125.776H26.018V143.846H23.444V134.382H18.712ZM19.076 140.57L12.706 135.526C11.484 137.502 9.58597 139.27 7.01197 140.96L5.60797 138.958C9.74197 136.124 11.77 133.394 11.77 129.598V129.364H6.56997V127.05H19.596V129.364H14.318V129.598C14.318 130.898 14.136 132.12 13.746 133.29L20.532 138.542L19.076 140.57ZM12.654 142.338V147.538H27.032V149.904H10.054V142.338H12.654ZM49.0603 134.85H52.7783V137.216H49.0603V149.904H46.4603V125.776H49.0603V134.85ZM37.8803 130.04V131.08C37.8803 132.9 37.6723 134.616 37.2303 136.28L44.0683 144.678L42.1183 146.368L36.2423 139.114C35.1243 141.74 33.4083 144.184 31.1203 146.628L29.2743 144.912C33.2003 140.674 35.3583 136.644 35.3583 131.08V130.04H30.2103V127.674H43.1063V130.04H37.8803ZM78.7616 149.904V125.776H81.2836V149.904H78.7616ZM69.6876 134.59H73.5356V126.14H76.0056V149.41H73.5356V136.956H69.6876V134.59ZM67.1916 130.04V131.34C67.1916 133.108 67.0096 134.798 66.6716 136.436L72.1316 144.912L70.0776 146.342L65.7616 139.634C64.9036 142.052 63.6036 144.34 61.9396 146.602L59.9636 145.068C63.1356 140.856 64.7996 136.722 64.7996 131.34V130.04H60.8216V127.674H71.3256V130.04H67.1916ZM101.076 133.108H104.664V135.292H87.2959V133.108H90.9099V128.454H87.2959V126.296H104.664V128.454H101.076V133.108ZM98.5539 128.454H93.4319V133.108H98.5539V128.454ZM107.316 137.346V139.608H97.2799V142.026H104.56V149.904H87.4259V142.026H94.6799V139.608H84.6439V137.346H107.316ZM90.0259 147.746H101.96V144.158H90.0259V147.746Z" fill="white"/>
</g>
<g filter="url(#filter1_d_2103_8340)">
<g filter="url(#filter2_d_2103_8340)">
<path d="M65.2057 14.6656C66.1636 13.6714 67.7465 13.6414 68.7408 14.5992C69.735 15.5571 69.7639 17.14 68.8063 18.1344L62.193 24.9996H98.7701V84.857H66.652V86.2848H75.7682V97.7564H36.903V86.2848H46.0192V84.857H13.9V24.9996H50.818L44.2047 18.1344C43.247 17.1399 43.2767 15.557 44.2711 14.5992C45.2656 13.6416 46.8485 13.6713 47.8063 14.6656L56.5055 23.6969L65.2057 14.6656ZM51.0192 91.2848H41.903V92.7564H70.7682V91.2848H61.652V84.857H51.0192V91.2848ZM18.9 79.857H46.0192V79.856H66.652V79.857H93.7701V29.9996H18.9V79.857ZM91.2301 77.5728H21.3971V31.6871H91.2301V77.5728ZM26.3971 72.5728H86.2301V36.6871H26.3971V72.5728Z" fill="white"/>
</g>
</g>
<defs>
<filter id="filter0_d_2103_8340" x="1.60791" y="121.776" width="109.708" height="32.1281" filterUnits="userSpaceOnUse" color-interpolation-filters="sRGB">
<feFlood flood-opacity="0" result="BackgroundImageFix"/>
<feColorMatrix in="SourceAlpha" type="matrix" values="0 0 0 0 0 0 0 0 0 0 0 0 0 0 0 0 0 0 127 0" result="hardAlpha"/>
<feOffset/>
<feGaussianBlur stdDeviation="2"/>
<feComposite in2="hardAlpha" operator="out"/>
<feColorMatrix type="matrix" values="0 0 0 0 0.00392157 0 0 0 0 0.917647 0 0 0 0 0.839216 0 0 0 1 0"/>
<feBlend mode="normal" in2="BackgroundImageFix" result="effect1_dropShadow_2103_8340"/>
<feBlend mode="normal" in="SourceGraphic" in2="effect1_dropShadow_2103_8340" result="shape"/>
</filter>
<filter id="filter1_d_2103_8340" x="2.47955e-05" y="-5.72205e-06" width="112.67" height="111.656" filterUnits="userSpaceOnUse" color-interpolation-filters="sRGB">
<feFlood flood-opacity="0" result="BackgroundImageFix"/>
<feColorMatrix in="SourceAlpha" type="matrix" values="0 0 0 0 0 0 0 0 0 0 0 0 0 0 0 0 0 0 127 0" result="hardAlpha"/>
<feOffset/>
<feGaussianBlur stdDeviation="6.95"/>
<feComposite in2="hardAlpha" operator="out"/>
<feColorMatrix type="matrix" values="0 0 0 0 0.00392157 0 0 0 0 0.917647 0 0 0 0 0.839216 0 0 0 1 0"/>
<feBlend mode="normal" in2="BackgroundImageFix" result="effect1_dropShadow_2103_8340"/>
<feBlend mode="normal" in="SourceGraphic" in2="effect1_dropShadow_2103_8340" result="shape"/>
</filter>
<filter id="filter2_d_2103_8340" x="9.90002" y="9.89999" width="92.8701" height="91.8564" filterUnits="userSpaceOnUse" color-interpolation-filters="sRGB">
<feFlood flood-opacity="0" result="BackgroundImageFix"/>
<feColorMatrix in="SourceAlpha" type="matrix" values="0 0 0 0 0 0 0 0 0 0 0 0 0 0 0 0 0 0 127 0" result="hardAlpha"/>
<feOffset/>
<feGaussianBlur stdDeviation="2"/>
<feComposite in2="hardAlpha" operator="out"/>
<feColorMatrix type="matrix" values="0 0 0 0 0.00392157 0 0 0 0 0.917647 0 0 0 0 0.839216 0 0 0 1 0"/>
<feBlend mode="normal" in2="BackgroundImageFix" result="effect1_dropShadow_2103_8340"/>
<feBlend mode="normal" in="SourceGraphic" in2="effect1_dropShadow_2103_8340" result="shape"/>
</filter>
</defs>
</svg>
