<svg width="110" height="146" viewBox="0 0 110 146" fill="none" xmlns="http://www.w3.org/2000/svg">
<g filter="url(#filter0_d_2103_8211)">
<path d="M17.104 124.482V122.246H21.836V115.876H24.41V133.946H21.836V124.482H17.104ZM17.468 130.67L11.098 125.626C9.87595 127.602 7.97795 129.37 5.40395 131.06L3.99995 129.058C8.13395 126.224 10.162 123.494 10.162 119.698V119.464H4.96195V117.15H17.988V119.464H12.71V119.698C12.71 120.998 12.528 122.22 12.138 123.39L18.924 128.642L17.468 130.67ZM11.046 132.438V137.638H25.424V140.004H8.44595V132.438H11.046ZM47.4523 124.95H51.1703V127.316H47.4523V140.004H44.8523V115.876H47.4523V124.95ZM36.2723 120.14V121.18C36.2723 123 36.0643 124.716 35.6222 126.38L42.4603 134.778L40.5102 136.468L34.6343 129.214C33.5162 131.84 31.8002 134.284 29.5122 136.728L27.6662 135.012C31.5922 130.774 33.7502 126.744 33.7502 121.18V120.14H28.6022V117.774H41.4983V120.14H36.2723ZM77.1536 140.004V115.876H79.6756V140.004H77.1536ZM68.0796 124.69H71.9276V116.24H74.3976V139.51H71.9276V127.056H68.0796V124.69ZM65.5836 120.14V121.44C65.5836 123.208 65.4016 124.898 65.0636 126.536L70.5236 135.012L68.4696 136.442L64.1536 129.734C63.2956 132.152 61.9956 134.44 60.3316 136.702L58.3556 135.168C61.5276 130.956 63.1916 126.822 63.1916 121.44V120.14H59.2136V117.774H69.7176V120.14H65.5836ZM99.4679 123.208H103.056V125.392H85.6879V123.208H89.3019V118.554H85.6879V116.396H103.056V118.554H99.4679V123.208ZM96.9459 118.554H91.8239V123.208H96.9459V118.554ZM105.708 127.446V129.708H95.6719V132.126H102.952V140.004H85.8179V132.126H93.0719V129.708H83.0359V127.446H105.708ZM88.4179 137.846H100.352V134.258H88.4179V137.846Z" fill="white"/>
</g>
<g filter="url(#filter1_d_2103_8211)">
<path d="M63.6226 4.76562C64.5804 3.77145 66.1634 3.74144 67.1577 4.69922C68.1518 5.65706 68.1808 7.24003 67.2231 8.23438L60.6099 15.0996H97.187V74.957H65.0688V76.3848H74.1851V87.8564H35.3198V76.3848H44.436V74.957H12.3169V15.0996H49.2349L42.6216 8.23438C41.6638 7.23995 41.6936 5.65705 42.688 4.69922C43.6824 3.74159 45.2654 3.77129 46.2231 4.76562L54.9224 13.7969L63.6226 4.76562ZM49.436 81.3848H40.3198V82.8564H69.1851V81.3848H60.0688V74.957H49.436V81.3848ZM17.3169 69.957H44.436V69.9561H65.0688V69.957H92.187V20.0996H17.3169V69.957ZM89.647 67.6729H19.814V21.7871H89.647V67.6729ZM24.814 62.6729H84.647V26.7871H24.814V62.6729Z" fill="white"/>
</g>
<defs>
<filter id="filter0_d_2103_8211" x="0" y="111.876" width="109.708" height="32.128" filterUnits="userSpaceOnUse" color-interpolation-filters="sRGB">
<feFlood flood-opacity="0" result="BackgroundImageFix"/>
<feColorMatrix in="SourceAlpha" type="matrix" values="0 0 0 0 0 0 0 0 0 0 0 0 0 0 0 0 0 0 127 0" result="hardAlpha"/>
<feOffset/>
<feGaussianBlur stdDeviation="2"/>
<feComposite in2="hardAlpha" operator="out"/>
<feColorMatrix type="matrix" values="0 0 0 0 0.00392157 0 0 0 0 0.917647 0 0 0 0 0.839216 0 0 0 1 0"/>
<feBlend mode="normal" in2="BackgroundImageFix" result="effect1_dropShadow_2103_8211"/>
<feBlend mode="normal" in="SourceGraphic" in2="effect1_dropShadow_2103_8211" result="shape"/>
</filter>
<filter id="filter1_d_2103_8211" x="8.31689" y="0" width="92.8701" height="91.8564" filterUnits="userSpaceOnUse" color-interpolation-filters="sRGB">
<feFlood flood-opacity="0" result="BackgroundImageFix"/>
<feColorMatrix in="SourceAlpha" type="matrix" values="0 0 0 0 0 0 0 0 0 0 0 0 0 0 0 0 0 0 127 0" result="hardAlpha"/>
<feOffset/>
<feGaussianBlur stdDeviation="2"/>
<feComposite in2="hardAlpha" operator="out"/>
<feColorMatrix type="matrix" values="0 0 0 0 0.00392157 0 0 0 0 0.917647 0 0 0 0 0.839216 0 0 0 1 0"/>
<feBlend mode="normal" in2="BackgroundImageFix" result="effect1_dropShadow_2103_8211"/>
<feBlend mode="normal" in="SourceGraphic" in2="effect1_dropShadow_2103_8211" result="shape"/>
</filter>
</defs>
</svg>
