<svg width="56" height="151" viewBox="0 0 56 151" fill="none" xmlns="http://www.w3.org/2000/svg">
<g filter="url(#filter0_d_2103_8166)">
<path d="M17.26 129.82H13.438C9.38196 129.82 6.65196 128.39 6.65196 125.452C6.65196 122.54 9.38196 121.136 13.438 121.136H17.26C21.316 121.136 24.02 122.54 24.02 125.452C24.02 128.39 21.316 129.82 17.26 129.82ZM13.906 127.688H16.792C19.782 127.688 21.446 126.882 21.446 125.478C21.446 124.048 19.782 123.294 16.792 123.294H13.906C10.916 123.294 9.25196 124.048 9.25196 125.478C9.25196 126.908 10.916 127.688 13.906 127.688ZM26.672 134.188H3.99996V131.952H26.672V134.188ZM23.916 145.004H6.80796V136.606H23.916V145.004ZM9.38196 138.79V142.82H21.316V138.79H9.38196ZM31.1763 127.974H45.7103V124.828H31.0463V122.488H48.3103V130.262H33.7763V133.512H48.8043V135.8H31.1763V127.974ZM45.0343 137.204V140.818H51.0663V143.21H28.3943V140.818H34.4523V137.204H36.9743V140.818H42.5123V137.204H45.0343Z" fill="white"/>
</g>
<g filter="url(#filter1_d_2103_8166)">
<path d="M34.375 4C36.9626 4 39.0586 6.09371 39.0586 8.68262V13.6973C39.0586 15.4628 38.0834 16.997 36.6426 17.7949V20.2529L42.9902 26.8086C45.4547 29.3294 46.8164 32.7473 46.8164 36.2646V44.3447C46.8163 47.275 45.8383 50.0621 44.1504 52.3682L44.1455 52.374L44.1416 52.3799L43.7031 52.9707V55.9053L45.4756 58.2559L45.4814 58.2627L45.4873 58.2705C46.851 60.1078 47.6447 62.3322 47.6514 64.6992H47.6523V64.7529C47.6528 64.789 47.6535 64.843 47.6543 64.9131C47.6559 65.0533 47.6582 65.26 47.6611 65.5254C47.667 66.0562 47.6755 66.8229 47.6846 67.7676C47.7027 69.6574 47.7247 72.2605 47.7393 75.1123C47.7683 80.8006 47.7689 87.529 47.6514 91.5488L47.6504 91.5557C47.5782 93.824 46.1767 96.7379 43.2568 98.0332C40.6993 99.1676 37.6249 98.8065 34.2441 96.8047C32.9855 97.9077 31.1235 98.642 28.5098 98.6699L27.9434 98.665C25.1041 98.6959 23.1127 97.9462 21.7891 96.7969C18.3987 98.8062 15.3127 99.1675 12.75 98.0342C9.82746 96.7413 8.40673 93.8211 8.37012 91.5156L8.37109 91.5146C8.25452 87.491 8.25428 80.7845 8.2832 75.1123C8.29774 72.2605 8.31874 69.6574 8.33691 67.7676C8.346 66.8229 8.35444 66.0562 8.36035 65.5254C8.36331 65.26 8.36554 65.0533 8.36719 64.9131C8.36801 64.843 8.36871 64.789 8.36914 64.7529C8.36925 64.744 8.37004 64.7362 8.37012 64.7295V64.6992H8.37109C8.37728 62.3824 9.09587 60.1411 10.5469 58.2559H10.5459L12.1914 56.0723C12.2112 55.877 12.2563 55.6892 12.3184 55.5098V52.9697L11.9131 52.4238L11.5859 51.9814C10.0008 49.7392 9.20613 47.0477 9.20605 44.3447V40.6455C9.08745 40.3545 9.02051 40.0368 9.02051 39.7031C9.02051 39.3692 9.08724 39.051 9.20605 38.7598V36.2646C9.20606 32.7315 10.5764 29.3759 13.0107 26.8291L13.0225 26.8174L19.3789 20.2529V17.7402C17.9903 16.9283 17.0566 15.4239 17.0566 13.6973V8.68262C17.0566 6.09375 19.1528 4.00011 21.7402 4H34.375ZM16.3779 58.8271L14.5381 61.2656L14.5283 61.2793L14.5186 61.292C13.7595 62.2722 13.3701 63.4457 13.3701 64.7295V64.7598L10.8701 64.7295L13.3701 64.7607C13.3701 64.7613 13.3692 64.7626 13.3691 64.7637V64.8135C13.3687 64.849 13.368 64.9022 13.3672 64.9717C13.3655 65.1109 13.3633 65.3167 13.3604 65.5811C13.3545 66.1097 13.346 66.8744 13.3369 67.8164C13.3188 69.7009 13.2967 72.2957 13.2822 75.1377C13.2568 80.1252 13.2545 85.8362 13.3311 89.8125L13.3691 91.4033V91.4365C13.3791 92.0562 13.8635 93.0597 14.7725 93.4619C15.5038 93.7853 17.3973 94.0661 20.9092 91.3545L24.3047 88.7324L24.8867 92.8096C24.9059 92.8442 24.9452 92.9071 25.0225 92.9814C25.1854 93.138 25.8806 93.7035 27.9658 93.666L28.0225 93.665L28.0781 93.667C30.1522 93.723 30.8353 93.1578 30.9922 93.0059C31.0723 92.9283 31.1115 92.8615 31.1309 92.8252L31.709 88.7256L35.1133 91.3545C38.6281 94.0685 40.5075 93.783 41.2295 93.4629C42.13 93.0633 42.6325 92.0535 42.6533 91.3965C42.7678 87.475 42.7683 80.8344 42.7393 75.1377C42.7248 72.2956 42.7027 69.7009 42.6846 67.8164C42.6755 66.8744 42.668 66.1097 42.6621 65.5811C42.6592 65.3167 42.6569 65.1109 42.6553 64.9717C42.6545 64.9022 42.6537 64.849 42.6533 64.8135C42.6531 64.7958 42.6525 64.7823 42.6523 64.7734V64.7295C42.6523 63.4918 42.2437 62.2961 41.4834 61.2656L39.6445 58.8271H16.3779ZM24.9102 92.9756H24.9111C24.911 92.9749 24.9103 92.973 24.9102 92.9717C24.9098 92.9691 24.9096 92.9663 24.9092 92.9639C24.9085 92.9593 24.9069 92.9545 24.9062 92.9502L24.9102 92.9756ZM14.2061 44.3447C14.2061 46.0817 14.718 47.7488 15.6689 49.0947L15.8652 49.3604L15.8818 49.3818L15.8975 49.4033L16.8271 50.6572L17.3184 51.3203V53.8271H38.7031V51.3203L39.1953 50.6572L40.1152 49.415C41.2142 47.9137 41.8163 46.1504 41.8164 44.3447V42.2031H14.2061V44.3447ZM24.3789 22.2783L23.6748 23.0059L16.6143 30.2959C15.0612 31.9266 14.2061 34.0455 14.2061 36.2646V37.2031H41.8164V36.2646C41.8164 34.024 40.9465 31.8692 39.416 30.3037L39.4082 30.2959L32.3467 23.0059L31.6426 22.2783V18.3799H24.3789V22.2783ZM22.0566 13.3799H34.0586V9H22.0566V13.3799Z" fill="white"/>
</g>
<defs>
<filter id="filter0_d_2103_8166" x="0" y="117.136" width="55.0663" height="31.868" filterUnits="userSpaceOnUse" color-interpolation-filters="sRGB">
<feFlood flood-opacity="0" result="BackgroundImageFix"/>
<feColorMatrix in="SourceAlpha" type="matrix" values="0 0 0 0 0 0 0 0 0 0 0 0 0 0 0 0 0 0 127 0" result="hardAlpha"/>
<feOffset/>
<feGaussianBlur stdDeviation="2"/>
<feComposite in2="hardAlpha" operator="out"/>
<feColorMatrix type="matrix" values="0 0 0 0 0.00392157 0 0 0 0 0.917647 0 0 0 0 0.839216 0 0 0 1 0"/>
<feBlend mode="normal" in2="BackgroundImageFix" result="effect1_dropShadow_2103_8166"/>
<feBlend mode="normal" in="SourceGraphic" in2="effect1_dropShadow_2103_8166" result="shape"/>
</filter>
<filter id="filter1_d_2103_8166" x="4.26721" y="0" width="47.4883" height="102.671" filterUnits="userSpaceOnUse" color-interpolation-filters="sRGB">
<feFlood flood-opacity="0" result="BackgroundImageFix"/>
<feColorMatrix in="SourceAlpha" type="matrix" values="0 0 0 0 0 0 0 0 0 0 0 0 0 0 0 0 0 0 127 0" result="hardAlpha"/>
<feOffset/>
<feGaussianBlur stdDeviation="2"/>
<feComposite in2="hardAlpha" operator="out"/>
<feColorMatrix type="matrix" values="0 0 0 0 0.00392157 0 0 0 0 0.917647 0 0 0 0 0.839216 0 0 0 1 0"/>
<feBlend mode="normal" in2="BackgroundImageFix" result="effect1_dropShadow_2103_8166"/>
<feBlend mode="normal" in="SourceGraphic" in2="effect1_dropShadow_2103_8166" result="shape"/>
</filter>
</defs>
</svg>
