<svg width="55" height="151" viewBox="0 0 55 151" fill="none" xmlns="http://www.w3.org/2000/svg">
<g filter="url(#filter0_d_2103_8257)">
<path d="M16.922 129.742H13.542C9.40795 129.742 6.78195 128.338 6.78195 125.478C6.78195 122.644 9.40795 121.24 13.542 121.24H16.922C21.082 121.24 23.708 122.644 23.708 125.478C23.708 128.338 21.082 129.742 16.922 129.742ZM13.88 128.156H16.61C19.99 128.156 21.836 127.168 21.836 125.504C21.836 123.762 19.99 122.852 16.61 122.852H13.88C10.474 122.852 8.62795 123.762 8.62795 125.504C8.62795 127.22 10.474 128.156 13.88 128.156ZM26.464 133.902H3.99995V132.264H26.464V133.902ZM23.604 144.9H6.91195V136.736H23.604V144.9ZM8.75795 138.348V143.288H21.732V138.348H8.75795ZM31.3063 128.26H46.1003V124.36H31.1763V122.67H47.9723V129.924H33.1523V133.954H48.4923V135.618H31.3063V128.26ZM44.5663 137.048V141.26H50.8583V142.976H28.3942V141.26H34.7123V137.048H36.5323V141.26H42.7463V137.048H44.5663Z" fill="#BFBFBF"/>
</g>
<g filter="url(#filter1_d_2103_8257)">
<path d="M33.7966 4C36.3841 4.00019 38.4802 6.09383 38.4802 8.68262V13.6973C38.4802 15.4627 37.5048 16.9969 36.0642 17.7949V20.2529L42.4119 26.8086C44.8763 29.3294 46.238 32.7474 46.238 36.2646V44.3447C46.238 47.275 45.2599 50.0621 43.572 52.3682L43.5671 52.374L43.5632 52.3799L43.1248 52.9707V55.9053L44.8972 58.2559L44.9031 58.2627L44.9089 58.2705C46.2726 60.1078 47.0663 62.3322 47.073 64.6992H47.074V64.7529C47.0744 64.789 47.0751 64.843 47.0759 64.9131C47.0776 65.0533 47.0798 65.26 47.0828 65.5254C47.0887 66.0562 47.0971 66.8229 47.1062 67.7676C47.1244 69.6574 47.1463 72.2605 47.1609 75.1123C47.1899 80.8006 47.1906 87.529 47.073 91.5488L47.072 91.5557C46.9999 93.8239 45.5983 96.7378 42.6785 98.0332C40.1209 99.1677 37.0466 98.8065 33.6658 96.8047C32.4072 97.9078 30.5452 98.6419 27.9314 98.6699L27.365 98.665C24.5256 98.6959 22.5344 97.9462 21.2107 96.7969C17.8203 98.8063 14.7344 99.1675 12.1716 98.0342C9.24887 96.7414 7.82836 93.8212 7.79175 91.5156L7.79272 91.5146C7.67615 87.491 7.67591 80.7845 7.70483 75.1123C7.71937 72.2605 7.74037 69.6574 7.75854 67.7676C7.76763 66.8229 7.77607 66.0562 7.78198 65.5254C7.78494 65.26 7.78717 65.0533 7.78882 64.9131C7.78964 64.843 7.79034 64.789 7.79077 64.7529C7.79088 64.744 7.79167 64.7362 7.79175 64.7295V64.6992H7.79272C7.79891 62.3823 8.51741 60.1411 9.96851 58.2559H9.96753L11.6121 56.0732C11.6318 55.8772 11.6776 55.6888 11.74 55.5088V52.9697L11.3347 52.4238L11.0076 51.9814C9.42235 49.7392 8.62776 47.0478 8.62769 44.3447V40.6455C8.50903 40.3545 8.44214 40.0368 8.44214 39.7031C8.44214 39.3691 8.50882 39.051 8.62769 38.7598V36.2646C8.62769 32.7314 9.99794 29.3759 12.4324 26.8291L12.4441 26.8174L18.8005 20.2529V17.7412C17.4114 16.9294 16.4783 15.4243 16.4783 13.6973V8.68262C16.4783 6.09368 18.5743 4 21.1619 4H33.7966ZM15.7996 58.8271L13.9597 61.2656L13.95 61.2793L13.9402 61.292C13.1811 62.2723 12.7917 63.4457 12.7917 64.7295V64.7598L10.2917 64.7295L12.7917 64.7607C12.7917 64.7613 12.7908 64.7626 12.7908 64.7637V64.8135C12.7903 64.849 12.7896 64.9022 12.7888 64.9717C12.7872 65.1109 12.7849 65.3167 12.782 65.5811C12.7761 66.1097 12.7676 66.8744 12.7585 67.8164C12.7404 69.7009 12.7183 72.2956 12.7039 75.1377C12.6784 80.1252 12.6762 85.8362 12.7527 89.8125L12.7908 91.4033V91.4365C12.8007 92.0563 13.2849 93.0598 14.1941 93.4619C14.9255 93.7853 16.819 94.0662 20.3308 91.3545L23.7263 88.7324L24.3083 92.8096C24.3276 92.8442 24.3667 92.9071 24.4441 92.9814C24.6072 93.1381 25.3023 93.7036 27.3875 93.666L27.4441 93.665L27.4998 93.667C29.5746 93.723 30.2573 93.1575 30.4138 93.0059C30.4939 92.9282 30.5332 92.8615 30.5525 92.8252L31.1306 88.7256L34.5349 91.3545C38.0502 94.0688 39.9293 93.7831 40.6511 93.4629C41.5515 93.0633 42.0541 92.0534 42.075 91.3965C42.1894 87.475 42.1899 80.8344 42.1609 75.1377C42.1464 72.2956 42.1243 69.7009 42.1062 67.8164C42.0971 66.8744 42.0896 66.1097 42.0837 65.5811C42.0808 65.3167 42.0785 65.1109 42.0769 64.9717C42.0761 64.9022 42.0754 64.849 42.075 64.8135C42.0747 64.7958 42.0741 64.7823 42.074 64.7734V64.7295C42.074 63.4918 41.6653 62.2961 40.905 61.2656L39.0662 58.8271H15.7996ZM24.3318 92.9756H24.3328C24.3327 92.9749 24.332 92.973 24.3318 92.9717C24.3314 92.9691 24.3312 92.9664 24.3308 92.9639C24.3301 92.9593 24.3286 92.9545 24.3279 92.9502L24.3318 92.9756ZM13.6277 44.3447C13.6278 46.0817 14.1395 47.7488 15.0906 49.0947L15.2869 49.3604L15.3035 49.3818L15.3191 49.4033L16.2488 50.6572L16.74 51.3203V53.8271H38.1248V51.3203L38.6169 50.6572L39.5369 49.415C40.6358 47.9137 41.238 46.1504 41.238 44.3447V42.2031H13.6277V44.3447ZM23.8005 22.2783L23.0964 23.0059L16.0359 30.2959C14.4827 31.9266 13.6277 34.0454 13.6277 36.2646V37.2031H41.238V36.2646C41.238 34.0241 40.3681 31.8692 38.8376 30.3037L38.8298 30.2959L31.7683 23.0059L31.0642 22.2783V18.3799H23.8005V22.2783ZM21.4783 13.3799H33.4802V9H21.4783V13.3799Z" fill="#BFBFBF"/>
</g>
<defs>
<filter id="filter0_d_2103_8257" x="0" y="117.24" width="54.8583" height="31.66" filterUnits="userSpaceOnUse" color-interpolation-filters="sRGB">
<feFlood flood-opacity="0" result="BackgroundImageFix"/>
<feColorMatrix in="SourceAlpha" type="matrix" values="0 0 0 0 0 0 0 0 0 0 0 0 0 0 0 0 0 0 127 0" result="hardAlpha"/>
<feOffset/>
<feGaussianBlur stdDeviation="2"/>
<feComposite in2="hardAlpha" operator="out"/>
<feColorMatrix type="matrix" values="0 0 0 0 0.00392157 0 0 0 0 0.917647 0 0 0 0 0.839216 0 0 0 1 0"/>
<feBlend mode="normal" in2="BackgroundImageFix" result="effect1_dropShadow_2103_8257"/>
<feBlend mode="normal" in="SourceGraphic" in2="effect1_dropShadow_2103_8257" result="shape"/>
</filter>
<filter id="filter1_d_2103_8257" x="3.68884" y="0" width="47.4883" height="102.671" filterUnits="userSpaceOnUse" color-interpolation-filters="sRGB">
<feFlood flood-opacity="0" result="BackgroundImageFix"/>
<feColorMatrix in="SourceAlpha" type="matrix" values="0 0 0 0 0 0 0 0 0 0 0 0 0 0 0 0 0 0 127 0" result="hardAlpha"/>
<feOffset/>
<feGaussianBlur stdDeviation="2"/>
<feComposite in2="hardAlpha" operator="out"/>
<feColorMatrix type="matrix" values="0 0 0 0 0.00392157 0 0 0 0 0.917647 0 0 0 0 0.839216 0 0 0 1 0"/>
<feBlend mode="normal" in2="BackgroundImageFix" result="effect1_dropShadow_2103_8257"/>
<feBlend mode="normal" in="SourceGraphic" in2="effect1_dropShadow_2103_8257" result="shape"/>
</filter>
</defs>
</svg>
