<svg width="147" height="168" viewBox="0 0 147 168" fill="none" xmlns="http://www.w3.org/2000/svg">
<g filter="url(#filter0_d_2103_8389)">
<path d="M62.048 146.62H58.226C54.17 146.62 51.44 145.19 51.44 142.252C51.44 139.34 54.17 137.936 58.226 137.936H62.048C66.1041 137.936 68.808 139.34 68.808 142.252C68.808 145.19 66.1041 146.62 62.048 146.62ZM58.694 144.488H61.58C64.57 144.488 66.2341 143.682 66.2341 142.278C66.2341 140.848 64.57 140.094 61.58 140.094H58.694C55.704 140.094 54.04 140.848 54.04 142.278C54.04 143.708 55.704 144.488 58.694 144.488ZM71.46 150.988H48.788V148.752H71.46V150.988ZM68.704 161.804H51.596V153.406H68.704V161.804ZM54.17 155.59V159.62H66.1041V155.59H54.17ZM75.9643 144.774H90.4983V141.628H75.8343V139.288H93.0983V147.062H78.5643V150.312H93.5923V152.6H75.9643V144.774ZM89.8223 154.004V157.618H95.8543V160.01H73.1823V157.618H79.2403V154.004H81.7623V157.618H87.3003V154.004H89.8223Z" fill="#FFE674"/>
</g>
<g filter="url(#filter1_d_2103_8389)">
<path d="M79.1644 20.8C81.7519 20.8001 83.848 22.8938 83.848 25.4826V30.4973C83.848 32.2627 82.8726 33.7969 81.432 34.5949V37.0529L87.7797 43.6086C90.2441 46.1294 91.6058 49.5473 91.6058 53.0646V61.1447C91.6058 64.075 90.6277 66.8621 88.9398 69.1682L88.9349 69.174L88.931 69.1799L88.4926 69.7707V72.7053L90.265 75.0558L90.2709 75.0627L90.2767 75.0705C91.6404 76.9078 92.4341 79.1322 92.4408 81.4992H92.4418V81.5529C92.4422 81.589 92.4429 81.643 92.4437 81.7131C92.4454 81.8533 92.4476 82.06 92.4506 82.3254C92.4565 82.8562 92.4649 83.6229 92.474 84.5676C92.4922 86.4574 92.5141 89.0605 92.5287 91.9123C92.5577 97.6006 92.5584 104.329 92.4408 108.349L92.4398 108.356C92.3677 110.624 90.9661 113.538 88.0463 114.833C85.4887 115.968 82.4144 115.607 79.0336 113.605C77.775 114.708 75.9131 115.442 73.2992 115.47L72.7328 115.465C69.8934 115.496 67.9022 114.746 66.5785 113.597C63.188 115.606 60.1022 115.968 57.5394 114.834C54.6167 113.541 53.1962 110.621 53.1595 108.316L53.1605 108.315C53.0439 104.291 53.0437 97.5845 53.0726 91.9123C53.0872 89.0605 53.1082 86.4574 53.1263 84.5676C53.1354 83.6229 53.1439 82.8562 53.1498 82.3254C53.1527 82.06 53.155 81.8533 53.1566 81.7131C53.1574 81.643 53.1581 81.589 53.1586 81.5529C53.1587 81.544 53.1595 81.5362 53.1595 81.5295V81.4992H53.1605C53.1667 79.1823 53.8852 76.9411 55.3363 75.0558H55.3353L56.9799 72.8732C56.9996 72.6772 57.0454 72.4888 57.1078 72.3088V69.7697L56.7025 69.2238L56.3754 68.7814C54.7901 66.5391 53.9956 63.8478 53.9955 61.1447V57.4455C53.8768 57.1545 53.8099 56.8368 53.8099 56.5031C53.8099 56.1691 53.8766 55.851 53.9955 55.5598V53.0646C53.9955 49.5314 55.3657 46.1759 57.8002 43.6291L57.8119 43.6174L64.1683 37.0529V34.5412C62.7793 33.7294 61.8461 32.2242 61.8461 30.4973V25.4826C61.8461 22.8937 63.9421 20.8 66.5297 20.8H79.1644ZM61.1674 75.6271L59.3275 78.0656L59.3177 78.0793L59.308 78.092C58.5489 79.0723 58.1595 80.2456 58.1595 81.5295V81.5598L55.6595 81.5295L58.1595 81.5607C58.1595 81.5613 58.1586 81.5625 58.1586 81.5637V81.6135C58.1581 81.649 58.1574 81.7022 58.1566 81.7717C58.155 81.9108 58.1527 82.1167 58.1498 82.381C58.1439 82.9097 58.1354 83.6744 58.1263 84.6164C58.1082 86.5009 58.0861 89.0956 58.0717 91.9377C58.0462 96.9252 58.044 102.636 58.1205 106.612L58.1586 108.203V108.237C58.1685 108.856 58.6527 109.86 59.5619 110.262C60.2933 110.585 62.1867 110.866 65.6986 108.154L69.0941 105.532L69.6761 109.61C69.6954 109.644 69.7345 109.707 69.8119 109.781C69.9749 109.938 70.6699 110.504 72.7552 110.466L72.8119 110.465L72.8676 110.467C74.9424 110.523 75.6251 109.957 75.7816 109.806C75.8618 109.728 75.901 109.661 75.9203 109.625L76.4984 105.526L79.9027 108.154C83.418 110.869 85.2971 110.583 86.0189 110.263C86.9194 109.863 87.4219 108.853 87.4427 108.196C87.5572 104.275 87.5577 97.6344 87.5287 91.9377C87.5142 89.0956 87.4921 86.5009 87.474 84.6164C87.4649 83.6744 87.4574 82.9097 87.4515 82.381C87.4486 82.1167 87.4463 81.9108 87.4447 81.7717C87.4439 81.7022 87.4432 81.649 87.4427 81.6135C87.4425 81.5958 87.4419 81.5823 87.4418 81.5734V81.5295C87.4418 80.2918 87.0331 79.0961 86.2728 78.0656L84.434 75.6271H61.1674ZM69.6996 109.776H69.7006C69.7005 109.775 69.6998 109.773 69.6996 109.772C69.6992 109.769 69.699 109.766 69.6986 109.764C69.6979 109.759 69.6964 109.755 69.6957 109.75L69.6996 109.776ZM58.9955 61.1447C58.9956 62.8817 59.5073 64.5488 60.4584 65.8947L60.6547 66.1603L60.6713 66.1818L60.6869 66.2033L61.6166 67.4572L62.1078 68.1203V70.6271H83.4926V68.1203L83.9847 67.4572L84.9047 66.215C86.0036 64.7137 86.6058 62.9504 86.6058 61.1447V59.0031H58.9955V61.1447ZM69.1683 39.0783L68.4642 39.8058L61.4037 47.0959C59.8505 48.7266 58.9955 50.8454 58.9955 53.0646V54.0031H86.6058V53.0646C86.6058 50.824 85.7359 48.6692 84.2054 47.1037L84.1976 47.0959L77.1361 39.8058L76.432 39.0783V35.1799H69.1683V39.0783ZM66.8461 30.1799H78.848V25.8H66.8461V30.1799Z" fill="#FFE674"/>
</g>
<g filter="url(#filter2_d_2103_8389)">
<path d="M33.2183 11.8H11.8V33.2182" stroke="#FFE674" stroke-width="5"/>
</g>
<g filter="url(#filter3_d_2103_8389)">
<path d="M113.255 124.218L134.673 124.218L134.673 102.8" stroke="#FFE674" stroke-width="5"/>
</g>
<g filter="url(#filter4_d_2103_8389)">
<path d="M134.673 33.2182L134.673 11.8L113.255 11.8" stroke="#FFE674" stroke-width="5"/>
</g>
<g filter="url(#filter5_d_2103_8389)">
<path d="M11.8 102.8L11.8 124.218L33.2183 124.218" stroke="#FFE674" stroke-width="5"/>
</g>
<defs>
<filter id="filter0_d_2103_8389" x="44.7881" y="133.936" width="55.0663" height="31.868" filterUnits="userSpaceOnUse" color-interpolation-filters="sRGB">
<feFlood flood-opacity="0" result="BackgroundImageFix"/>
<feColorMatrix in="SourceAlpha" type="matrix" values="0 0 0 0 0 0 0 0 0 0 0 0 0 0 0 0 0 0 127 0" result="hardAlpha"/>
<feOffset/>
<feGaussianBlur stdDeviation="2"/>
<feComposite in2="hardAlpha" operator="out"/>
<feColorMatrix type="matrix" values="0 0 0 0 0.996078 0 0 0 0 0.541176 0 0 0 0 0.00392157 0 0 0 1 0"/>
<feBlend mode="normal" in2="BackgroundImageFix" result="effect1_dropShadow_2103_8389"/>
<feBlend mode="normal" in="SourceGraphic" in2="effect1_dropShadow_2103_8389" result="shape"/>
</filter>
<filter id="filter1_d_2103_8389" x="49.0566" y="16.8" width="47.4883" height="102.671" filterUnits="userSpaceOnUse" color-interpolation-filters="sRGB">
<feFlood flood-opacity="0" result="BackgroundImageFix"/>
<feColorMatrix in="SourceAlpha" type="matrix" values="0 0 0 0 0 0 0 0 0 0 0 0 0 0 0 0 0 0 127 0" result="hardAlpha"/>
<feOffset/>
<feGaussianBlur stdDeviation="2"/>
<feComposite in2="hardAlpha" operator="out"/>
<feColorMatrix type="matrix" values="0 0 0 0 0.996078 0 0 0 0 0.541176 0 0 0 0 0.00392157 0 0 0 1 0"/>
<feBlend mode="normal" in2="BackgroundImageFix" result="effect1_dropShadow_2103_8389"/>
<feBlend mode="normal" in="SourceGraphic" in2="effect1_dropShadow_2103_8389" result="shape"/>
</filter>
<filter id="filter2_d_2103_8389" x="4.86374e-05" y="-1.23978e-05" width="42.5182" height="42.5182" filterUnits="userSpaceOnUse" color-interpolation-filters="sRGB">
<feFlood flood-opacity="0" result="BackgroundImageFix"/>
<feColorMatrix in="SourceAlpha" type="matrix" values="0 0 0 0 0 0 0 0 0 0 0 0 0 0 0 0 0 0 127 0" result="hardAlpha"/>
<feOffset/>
<feGaussianBlur stdDeviation="4.65"/>
<feComposite in2="hardAlpha" operator="out"/>
<feColorMatrix type="matrix" values="0 0 0 0 0.996078 0 0 0 0 0.541176 0 0 0 0 0.00392157 0 0 0 1 0"/>
<feBlend mode="normal" in2="BackgroundImageFix" result="effect1_dropShadow_2103_8389"/>
<feBlend mode="normal" in="SourceGraphic" in2="effect1_dropShadow_2103_8389" result="shape"/>
</filter>
<filter id="filter3_d_2103_8389" x="103.955" y="93.5" width="42.5182" height="42.5182" filterUnits="userSpaceOnUse" color-interpolation-filters="sRGB">
<feFlood flood-opacity="0" result="BackgroundImageFix"/>
<feColorMatrix in="SourceAlpha" type="matrix" values="0 0 0 0 0 0 0 0 0 0 0 0 0 0 0 0 0 0 127 0" result="hardAlpha"/>
<feOffset/>
<feGaussianBlur stdDeviation="4.65"/>
<feComposite in2="hardAlpha" operator="out"/>
<feColorMatrix type="matrix" values="0 0 0 0 0.996078 0 0 0 0 0.541176 0 0 0 0 0.00392157 0 0 0 1 0"/>
<feBlend mode="normal" in2="BackgroundImageFix" result="effect1_dropShadow_2103_8389"/>
<feBlend mode="normal" in="SourceGraphic" in2="effect1_dropShadow_2103_8389" result="shape"/>
</filter>
<filter id="filter4_d_2103_8389" x="103.955" y="-1.23978e-05" width="42.5182" height="42.5182" filterUnits="userSpaceOnUse" color-interpolation-filters="sRGB">
<feFlood flood-opacity="0" result="BackgroundImageFix"/>
<feColorMatrix in="SourceAlpha" type="matrix" values="0 0 0 0 0 0 0 0 0 0 0 0 0 0 0 0 0 0 127 0" result="hardAlpha"/>
<feOffset/>
<feGaussianBlur stdDeviation="4.65"/>
<feComposite in2="hardAlpha" operator="out"/>
<feColorMatrix type="matrix" values="0 0 0 0 0.996078 0 0 0 0 0.541176 0 0 0 0 0.00392157 0 0 0 1 0"/>
<feBlend mode="normal" in2="BackgroundImageFix" result="effect1_dropShadow_2103_8389"/>
<feBlend mode="normal" in="SourceGraphic" in2="effect1_dropShadow_2103_8389" result="shape"/>
</filter>
<filter id="filter5_d_2103_8389" x="4.86374e-05" y="93.5" width="42.5182" height="42.5182" filterUnits="userSpaceOnUse" color-interpolation-filters="sRGB">
<feFlood flood-opacity="0" result="BackgroundImageFix"/>
<feColorMatrix in="SourceAlpha" type="matrix" values="0 0 0 0 0 0 0 0 0 0 0 0 0 0 0 0 0 0 127 0" result="hardAlpha"/>
<feOffset/>
<feGaussianBlur stdDeviation="4.65"/>
<feComposite in2="hardAlpha" operator="out"/>
<feColorMatrix type="matrix" values="0 0 0 0 0.996078 0 0 0 0 0.541176 0 0 0 0 0.00392157 0 0 0 1 0"/>
<feBlend mode="normal" in2="BackgroundImageFix" result="effect1_dropShadow_2103_8389"/>
<feBlend mode="normal" in="SourceGraphic" in2="effect1_dropShadow_2103_8389" result="shape"/>
</filter>
</defs>
</svg>
