<svg width="68" height="161" viewBox="0 0 68 161" fill="none" xmlns="http://www.w3.org/2000/svg">
<g filter="url(#filter0_d_2103_8250)">
<path d="M23.3676 139.72H19.5456C15.4896 139.72 12.7596 138.29 12.7596 135.352C12.7596 132.44 15.4896 131.036 19.5456 131.036H23.3676C27.4236 131.036 30.1276 132.44 30.1276 135.352C30.1276 138.29 27.4236 139.72 23.3676 139.72ZM20.0136 137.588H22.8996C25.8896 137.588 27.5536 136.782 27.5536 135.378C27.5536 133.948 25.8896 133.194 22.8996 133.194H20.0136C17.0236 133.194 15.3596 133.948 15.3596 135.378C15.3596 136.808 17.0236 137.588 20.0136 137.588ZM32.7796 144.088H10.1076V141.852H32.7796V144.088ZM30.0236 154.904H12.9156V146.506H30.0236V154.904ZM15.4896 148.69V152.72H27.4236V148.69H15.4896ZM37.2839 137.874H51.8179V134.728H37.1539V132.388H54.4179V140.162H39.8839V143.412H54.9119V145.7H37.2839V137.874ZM51.1419 147.104V150.718H57.1739V153.11H34.5019V150.718H40.5599V147.104H43.0819V150.718H48.6199V147.104H51.1419Z" fill="white"/>
</g>
<g filter="url(#filter1_d_2103_8250)">
<path d="M40.0078 13.9C42.5954 13.9 44.6914 15.9937 44.6914 18.5826V23.5973C44.6914 25.3627 43.7161 26.897 42.2754 27.6949V30.1529L48.623 36.7086C51.0875 39.2294 52.4492 42.6473 52.4492 46.1646V54.2447C52.4491 57.175 51.4711 59.9621 49.7832 62.2682L49.7783 62.274L49.7744 62.2799L49.3359 62.8707V65.8053L51.1084 68.1559L51.1143 68.1627L51.1201 68.1705C52.4838 70.0078 53.2775 72.2322 53.2842 74.5992H53.2852V74.6529C53.2856 74.689 53.2863 74.743 53.2871 74.8131C53.2888 74.9533 53.291 75.16 53.2939 75.4254C53.2999 75.9562 53.3083 76.7229 53.3174 77.6676C53.3356 79.5574 53.3575 82.1605 53.3721 85.0123C53.4011 90.7006 53.4018 97.429 53.2842 101.449L53.2832 101.456C53.211 103.724 51.8096 106.638 48.8896 107.933C46.3321 109.068 43.2578 108.707 39.877 106.705C38.6183 107.808 36.7565 108.542 34.1426 108.57L33.5762 108.565C30.7368 108.596 28.7455 107.846 27.4219 106.697C24.0314 108.706 20.9456 109.068 18.3828 107.934C15.4601 106.641 14.0395 103.721 14.0029 101.416L14.0039 101.415C13.8873 97.391 13.8871 90.6845 13.916 85.0123C13.9306 82.1605 13.9516 79.5574 13.9697 77.6676C13.9788 76.7229 13.9873 75.9562 13.9932 75.4254C13.9961 75.16 13.9983 74.9533 14 74.8131C14.0008 74.743 14.0015 74.689 14.002 74.6529C14.0021 74.644 14.0028 74.6362 14.0029 74.6295V74.5992H14.0039C14.0101 72.2823 14.7286 70.0411 16.1797 68.1559H16.1787L17.8232 65.9732C17.843 65.7772 17.8888 65.5888 17.9512 65.4088V62.8697L17.5459 62.3238L17.2188 61.8814C15.6336 59.6392 14.8389 56.9478 14.8389 54.2447V50.5455C14.7202 50.2545 14.6533 49.9368 14.6533 49.6031C14.6533 49.2691 14.72 48.951 14.8389 48.6598V46.1646C14.8389 42.6314 16.2092 39.2759 18.6436 36.7291L18.6553 36.7174L25.0117 30.1529V27.6412C23.6227 26.8294 22.6895 25.3242 22.6895 23.5973V18.5826C22.6895 15.9937 24.7855 13.9 27.373 13.9H40.0078ZM22.0107 68.7271L20.1709 71.1656L20.1611 71.1793L20.1514 71.192C19.3923 72.1723 19.0029 73.3457 19.0029 74.6295V74.6598L16.5029 74.6295L19.0029 74.6607C19.0029 74.6613 19.002 74.6626 19.002 74.6637V74.7135C19.0015 74.749 19.0008 74.8022 19 74.8717C18.9984 75.0108 18.9961 75.2167 18.9932 75.481C18.9873 76.0097 18.9788 76.7744 18.9697 77.7164C18.9516 79.6009 18.9295 82.1956 18.915 85.0377C18.8896 90.0252 18.8873 95.7362 18.9639 99.7125L19.002 101.303V101.337C19.0119 101.956 19.4962 102.96 20.4053 103.362C21.1366 103.685 23.03 103.966 26.542 101.254L29.9375 98.6324L30.5195 102.71C30.5387 102.744 30.5779 102.807 30.6553 102.881C30.8182 103.038 31.5132 103.604 33.5986 103.566L33.6553 103.565L33.7109 103.567C35.7856 103.623 36.4684 103.058 36.625 102.906C36.7052 102.828 36.7444 102.762 36.7637 102.725L37.3418 98.6256L40.7461 101.254C44.2613 103.969 46.1404 103.683 46.8623 103.363C47.7628 102.963 48.2653 101.953 48.2861 101.296C48.4006 97.375 48.4011 90.7344 48.3721 85.0377C48.3576 82.1956 48.3355 79.6009 48.3174 77.7164C48.3083 76.7744 48.3008 76.0097 48.2949 75.481C48.292 75.2167 48.2897 75.0108 48.2881 74.8717C48.2873 74.8022 48.2866 74.749 48.2861 74.7135C48.2859 74.6958 48.2853 74.6823 48.2852 74.6734V74.6295C48.2852 73.3918 47.8765 72.1961 47.1162 71.1656L45.2773 68.7271H22.0107ZM30.543 102.876H30.5439C30.5438 102.875 30.5432 102.873 30.543 102.872C30.5426 102.869 30.5424 102.866 30.542 102.864C30.5413 102.859 30.5397 102.855 30.5391 102.85L30.543 102.876ZM19.8389 54.2447C19.8389 55.9817 20.3507 57.6488 21.3018 58.9947L21.498 59.2603L21.5146 59.2818L21.5303 59.3033L22.46 60.5572L22.9512 61.2203V63.7271H44.3359V61.2203L44.8281 60.5572L45.748 59.315C46.847 57.8137 47.4491 56.0504 47.4492 54.2447V52.1031H19.8389V54.2447ZM30.0117 32.1783L29.3076 32.9059L22.2471 40.1959C20.6939 41.8266 19.8389 43.9455 19.8389 46.1646V47.1031H47.4492V46.1646C47.4492 43.924 46.5793 41.7692 45.0488 40.2037L45.041 40.1959L37.9795 32.9059L37.2754 32.1783V28.2799H30.0117V32.1783ZM27.6895 23.2799H39.6914V18.9H27.6895V23.2799Z" fill="white"/>
</g>
<defs>
<filter id="filter0_d_2103_8250" x="6.10767" y="127.036" width="55.0663" height="31.868" filterUnits="userSpaceOnUse" color-interpolation-filters="sRGB">
<feFlood flood-opacity="0" result="BackgroundImageFix"/>
<feColorMatrix in="SourceAlpha" type="matrix" values="0 0 0 0 0 0 0 0 0 0 0 0 0 0 0 0 0 0 127 0" result="hardAlpha"/>
<feOffset/>
<feGaussianBlur stdDeviation="2"/>
<feComposite in2="hardAlpha" operator="out"/>
<feColorMatrix type="matrix" values="0 0 0 0 0.00392157 0 0 0 0 0.917647 0 0 0 0 0.839216 0 0 0 1 0"/>
<feBlend mode="normal" in2="BackgroundImageFix" result="effect1_dropShadow_2103_8250"/>
<feBlend mode="normal" in="SourceGraphic" in2="effect1_dropShadow_2103_8250" result="shape"/>
</filter>
<filter id="filter1_d_2103_8250" x="2.47955e-05" y="-5.72205e-06" width="67.2883" height="122.471" filterUnits="userSpaceOnUse" color-interpolation-filters="sRGB">
<feFlood flood-opacity="0" result="BackgroundImageFix"/>
<feColorMatrix in="SourceAlpha" type="matrix" values="0 0 0 0 0 0 0 0 0 0 0 0 0 0 0 0 0 0 127 0" result="hardAlpha"/>
<feOffset/>
<feGaussianBlur stdDeviation="6.95"/>
<feComposite in2="hardAlpha" operator="out"/>
<feColorMatrix type="matrix" values="0 0 0 0 0.00392157 0 0 0 0 0.917647 0 0 0 0 0.839216 0 0 0 1 0"/>
<feBlend mode="normal" in2="BackgroundImageFix" result="effect1_dropShadow_2103_8250"/>
<feBlend mode="normal" in="SourceGraphic" in2="effect1_dropShadow_2103_8250" result="shape"/>
</filter>
</defs>
</svg>
