<svg width="147" height="168" viewBox="0 0 147 168" fill="none" xmlns="http://www.w3.org/2000/svg">
<g filter="url(#filter0_d_2103_8378)">
<path d="M66.7589 151.222V137.676H69.3589V151.222H66.7589ZM62.8589 150.52L56.1249 145.996C54.8769 147.842 52.9269 149.506 50.2749 151.04L48.9229 148.96C53.3429 146.36 55.3189 143.604 55.3189 140.094V138.456H57.8929V140.094C57.8929 141.42 57.6849 142.642 57.2689 143.786L64.2369 148.466L62.8589 150.52ZM66.7589 155.096H53.1349V152.73H69.3589V162.064H66.7589V155.096ZM89.5152 145.008H93.1032V147.192H75.7352V145.008H79.3492V140.354H75.7352V138.196H93.1032V140.354H89.5152V145.008ZM86.9932 140.354H81.8712V145.008H86.9932V140.354ZM95.7552 149.246V151.508H85.7192V153.926H92.9992V161.804H75.8652V153.926H83.1192V151.508H73.0832V149.246H95.7552ZM78.4652 159.646H90.3992V156.058H78.4652V159.646Z" fill="#FFE674"/>
</g>
<g filter="url(#filter1_d_2103_8378)">
<path d="M72.7249 34.8C81.9393 34.8001 90.4031 36.4988 96.6565 39.3508C102.687 42.1012 107.602 46.4104 107.602 52.0666C107.602 52.3787 107.584 52.6865 107.555 52.9904V83.2687C107.555 88.9329 102.642 93.2422 96.6096 95.9914C90.3561 98.8412 81.8929 100.535 72.678 100.535C63.4629 100.535 54.9989 98.8413 48.7454 95.9914C42.7128 93.2422 37.8 88.9328 37.8 83.2687V52.0646C37.8 51.8753 37.8227 51.6912 37.8625 51.5139C38.1708 46.129 42.9604 42.0109 48.7932 39.3508C55.0467 36.4989 63.5104 34.8 72.7249 34.8ZM42.8 83.2687C42.8 85.7771 45.1339 88.8508 50.8186 91.4416C56.2828 93.9317 64.0087 95.5353 72.678 95.5353C81.3472 95.5353 89.0723 93.9317 94.5364 91.4416C100.221 88.8508 102.555 85.7771 102.555 83.2687V61.216C100.851 62.5995 98.8266 63.7927 96.6565 64.7824C90.4031 67.6344 81.9393 69.3331 72.7249 69.3332C63.5105 69.3332 55.0467 67.6342 48.7932 64.7824C46.5832 63.7745 44.5235 62.556 42.8 61.1398V83.2687ZM72.7249 39.8C64.0581 39.8 56.3323 41.4073 50.8674 43.8996C45.1799 46.4935 42.8469 49.5677 42.8469 52.0666C42.8471 54.5654 45.18 57.6397 50.8674 60.2336C56.3323 62.7258 64.0581 64.3332 72.7249 64.3332C81.3913 64.3331 89.1166 62.7257 94.5813 60.2336C99.8168 57.8458 102.208 55.0504 102.555 52.6721V52.0646C102.555 51.9421 102.566 51.8221 102.583 51.7043C102.368 49.2749 99.9966 46.3694 94.5813 43.8996C89.1166 41.4074 81.3914 39.8001 72.7249 39.8ZM75.0686 46.8098C77.0446 45.9055 79.676 45.5875 82.8411 45.8117C86.3577 46.0609 89.353 47.5124 91.3987 48.8137C92.4348 49.4728 93.2656 50.1175 93.843 50.6027C94.1324 50.8459 94.3607 51.0518 94.5217 51.2014C94.6023 51.2762 94.6666 51.3378 94.7131 51.383C94.7363 51.4055 94.7553 51.4243 94.7698 51.4387C94.7768 51.4457 94.7834 51.4513 94.7883 51.4562L94.7991 51.467C94.7993 51.4679 94.7762 51.4926 93.0237 53.2277L94.5168 55.2326L94.5149 55.2336C94.514 55.2343 94.513 55.2357 94.512 55.2365C94.5098 55.2381 94.5069 55.2394 94.5042 55.2414C94.4985 55.2456 94.4917 55.2511 94.4836 55.257C94.4672 55.269 94.4455 55.2851 94.4192 55.3039C94.3665 55.3415 94.2941 55.3923 94.2034 55.4543C94.0218 55.5784 93.7654 55.7482 93.4426 55.9465C92.7989 56.3419 91.8806 56.8583 90.759 57.3605C88.547 58.3511 85.3758 59.3599 81.8831 59.1105C78.7475 58.8866 76.186 58.2143 74.3538 57.0617C72.4545 55.8669 71.1578 53.9928 71.3469 51.6769C71.5308 49.4271 73.0124 47.7508 75.0686 46.8098ZM96.8245 53.5129L94.5178 55.2316L93.0237 53.2277L94.8 51.4689L96.8245 53.5129ZM82.4885 50.799C79.7544 50.6053 78.0653 50.9376 77.1497 51.3566C76.3152 51.7385 76.3323 52.0584 76.3303 52.0842C76.3264 52.1318 76.3288 52.1735 76.3762 52.2541C76.4357 52.3551 76.6024 52.5686 77.0168 52.8293C77.8789 53.3715 79.5217 53.9292 82.2385 54.1232C84.5029 54.2849 86.7212 53.6589 88.4924 52.8937C86.863 51.8903 84.7662 50.9605 82.4885 50.799Z" fill="#FFE674"/>
</g>
<g filter="url(#filter2_d_2103_8378)">
<path d="M33.2183 11.8H11.8V33.2182" stroke="#FFE674" stroke-width="5"/>
</g>
<g filter="url(#filter3_d_2103_8378)">
<path d="M113.255 124.218L134.673 124.218L134.673 102.8" stroke="#FFE674" stroke-width="5"/>
</g>
<g filter="url(#filter4_d_2103_8378)">
<path d="M134.673 33.2182L134.673 11.8L113.255 11.8" stroke="#FFE674" stroke-width="5"/>
</g>
<g filter="url(#filter5_d_2103_8378)">
<path d="M11.8 102.8L11.8 124.218L33.2183 124.218" stroke="#FFE674" stroke-width="5"/>
</g>
<defs>
<filter id="filter0_d_2103_8378" x="44.923" y="133.676" width="54.8323" height="32.3881" filterUnits="userSpaceOnUse" color-interpolation-filters="sRGB">
<feFlood flood-opacity="0" result="BackgroundImageFix"/>
<feColorMatrix in="SourceAlpha" type="matrix" values="0 0 0 0 0 0 0 0 0 0 0 0 0 0 0 0 0 0 127 0" result="hardAlpha"/>
<feOffset/>
<feGaussianBlur stdDeviation="2"/>
<feComposite in2="hardAlpha" operator="out"/>
<feColorMatrix type="matrix" values="0 0 0 0 0.996078 0 0 0 0 0.541176 0 0 0 0 0.00392157 0 0 0 1 0"/>
<feBlend mode="normal" in2="BackgroundImageFix" result="effect1_dropShadow_2103_8378"/>
<feBlend mode="normal" in="SourceGraphic" in2="effect1_dropShadow_2103_8378" result="shape"/>
</filter>
<filter id="filter1_d_2103_8378" x="33.8" y="30.8" width="77.8018" height="73.7354" filterUnits="userSpaceOnUse" color-interpolation-filters="sRGB">
<feFlood flood-opacity="0" result="BackgroundImageFix"/>
<feColorMatrix in="SourceAlpha" type="matrix" values="0 0 0 0 0 0 0 0 0 0 0 0 0 0 0 0 0 0 127 0" result="hardAlpha"/>
<feOffset/>
<feGaussianBlur stdDeviation="2"/>
<feComposite in2="hardAlpha" operator="out"/>
<feColorMatrix type="matrix" values="0 0 0 0 0.996078 0 0 0 0 0.541176 0 0 0 0 0.00392157 0 0 0 1 0"/>
<feBlend mode="normal" in2="BackgroundImageFix" result="effect1_dropShadow_2103_8378"/>
<feBlend mode="normal" in="SourceGraphic" in2="effect1_dropShadow_2103_8378" result="shape"/>
</filter>
<filter id="filter2_d_2103_8378" x="4.86374e-05" y="-1.23978e-05" width="42.5182" height="42.5182" filterUnits="userSpaceOnUse" color-interpolation-filters="sRGB">
<feFlood flood-opacity="0" result="BackgroundImageFix"/>
<feColorMatrix in="SourceAlpha" type="matrix" values="0 0 0 0 0 0 0 0 0 0 0 0 0 0 0 0 0 0 127 0" result="hardAlpha"/>
<feOffset/>
<feGaussianBlur stdDeviation="4.65"/>
<feComposite in2="hardAlpha" operator="out"/>
<feColorMatrix type="matrix" values="0 0 0 0 0.996078 0 0 0 0 0.541176 0 0 0 0 0.00392157 0 0 0 1 0"/>
<feBlend mode="normal" in2="BackgroundImageFix" result="effect1_dropShadow_2103_8378"/>
<feBlend mode="normal" in="SourceGraphic" in2="effect1_dropShadow_2103_8378" result="shape"/>
</filter>
<filter id="filter3_d_2103_8378" x="103.955" y="93.5" width="42.5182" height="42.5182" filterUnits="userSpaceOnUse" color-interpolation-filters="sRGB">
<feFlood flood-opacity="0" result="BackgroundImageFix"/>
<feColorMatrix in="SourceAlpha" type="matrix" values="0 0 0 0 0 0 0 0 0 0 0 0 0 0 0 0 0 0 127 0" result="hardAlpha"/>
<feOffset/>
<feGaussianBlur stdDeviation="4.65"/>
<feComposite in2="hardAlpha" operator="out"/>
<feColorMatrix type="matrix" values="0 0 0 0 0.996078 0 0 0 0 0.541176 0 0 0 0 0.00392157 0 0 0 1 0"/>
<feBlend mode="normal" in2="BackgroundImageFix" result="effect1_dropShadow_2103_8378"/>
<feBlend mode="normal" in="SourceGraphic" in2="effect1_dropShadow_2103_8378" result="shape"/>
</filter>
<filter id="filter4_d_2103_8378" x="103.955" y="-1.23978e-05" width="42.5182" height="42.5182" filterUnits="userSpaceOnUse" color-interpolation-filters="sRGB">
<feFlood flood-opacity="0" result="BackgroundImageFix"/>
<feColorMatrix in="SourceAlpha" type="matrix" values="0 0 0 0 0 0 0 0 0 0 0 0 0 0 0 0 0 0 127 0" result="hardAlpha"/>
<feOffset/>
<feGaussianBlur stdDeviation="4.65"/>
<feComposite in2="hardAlpha" operator="out"/>
<feColorMatrix type="matrix" values="0 0 0 0 0.996078 0 0 0 0 0.541176 0 0 0 0 0.00392157 0 0 0 1 0"/>
<feBlend mode="normal" in2="BackgroundImageFix" result="effect1_dropShadow_2103_8378"/>
<feBlend mode="normal" in="SourceGraphic" in2="effect1_dropShadow_2103_8378" result="shape"/>
</filter>
<filter id="filter5_d_2103_8378" x="4.86374e-05" y="93.5" width="42.5182" height="42.5182" filterUnits="userSpaceOnUse" color-interpolation-filters="sRGB">
<feFlood flood-opacity="0" result="BackgroundImageFix"/>
<feColorMatrix in="SourceAlpha" type="matrix" values="0 0 0 0 0 0 0 0 0 0 0 0 0 0 0 0 0 0 127 0" result="hardAlpha"/>
<feOffset/>
<feGaussianBlur stdDeviation="4.65"/>
<feComposite in2="hardAlpha" operator="out"/>
<feColorMatrix type="matrix" values="0 0 0 0 0.996078 0 0 0 0 0.541176 0 0 0 0 0.00392157 0 0 0 1 0"/>
<feBlend mode="normal" in2="BackgroundImageFix" result="effect1_dropShadow_2103_8378"/>
<feBlend mode="normal" in="SourceGraphic" in2="effect1_dropShadow_2103_8378" result="shape"/>
</filter>
</defs>
</svg>
