<svg width="98" height="147" viewBox="0 0 98 147" fill="none" xmlns="http://www.w3.org/2000/svg">
<g filter="url(#filter0_d_2103_8238)">
<path d="M43.3346 130.322V116.776H45.9346V130.322H43.3346ZM39.4346 129.62L32.7006 125.096C31.4526 126.942 29.5026 128.606 26.8506 130.14L25.4986 128.06C29.9186 125.46 31.8946 122.704 31.8946 119.194V117.556H34.4686V119.194C34.4686 120.52 34.2606 121.742 33.8446 122.886L40.8126 127.566L39.4346 129.62ZM43.3346 134.196H29.7106V131.83H45.9346V141.164H43.3346V134.196ZM66.0909 124.108H69.6789V126.292H52.3109V124.108H55.9249V119.454H52.3109V117.296H69.6789V119.454H66.0909V124.108ZM63.5689 119.454H58.4469V124.108H63.5689V119.454ZM72.3309 128.346V130.608H62.2949V133.026H69.5749V140.904H52.4409V133.026H59.6949V130.608H49.6589V128.346H72.3309ZM55.0409 138.746H66.9749V135.158H55.0409V138.746Z" fill="white"/>
</g>
<g filter="url(#filter1_d_2103_8238)">
<path d="M48.8248 13.9C58.0393 13.9001 66.5031 15.5988 72.7565 18.4508C78.787 21.2012 83.7018 25.5104 83.7018 31.1666C83.7018 31.4787 83.6842 31.7865 83.6549 32.0904V62.3687C83.6549 68.0329 78.7423 72.3422 72.7096 75.0914C66.4561 77.9412 57.9929 79.6353 48.778 79.6353C39.5629 79.6353 31.0989 77.9413 24.8453 75.0914C18.8128 72.3422 13.9 68.0328 13.9 62.3687V31.1646C13.9 30.9753 13.9226 30.7912 13.9625 30.6139C14.2707 25.229 19.0604 21.1109 24.8932 18.4508C31.1467 15.5989 39.6104 13.9 48.8248 13.9ZM18.9 62.3687C18.9 64.8771 21.2338 67.9508 26.9186 70.5416C32.3827 73.0317 40.1087 74.6353 48.778 74.6353C57.4471 74.6353 65.1723 73.0317 70.6364 70.5416C76.3214 67.9508 78.6549 64.8771 78.6549 62.3687V40.316C76.9509 41.6996 74.9266 42.8927 72.7565 43.8824C66.5031 46.7344 58.0393 48.4331 48.8248 48.4332C39.6104 48.4332 31.1467 46.7342 24.8932 43.8824C22.6831 42.8745 20.6235 41.656 18.9 40.2398V62.3687ZM48.8248 18.9C40.158 18.9 32.4323 20.5073 26.9674 22.9996C21.2799 25.5935 18.9469 28.6677 18.9469 31.1666C18.947 33.6654 21.28 36.7397 26.9674 39.3336C32.4323 41.8258 40.1581 43.4332 48.8248 43.4332C57.4913 43.4331 65.2166 41.8257 70.6813 39.3336C75.9168 36.9458 78.3077 34.1504 78.6549 31.7721V31.1646C78.6549 31.0421 78.6662 30.9221 78.6832 30.8043C78.4685 28.3749 76.0966 25.4694 70.6813 22.9996C65.2165 20.5074 57.4914 18.9001 48.8248 18.9ZM51.1686 25.9098C53.1446 25.0055 55.776 24.6875 58.941 24.9117C62.4577 25.1609 65.453 26.6124 67.4987 27.9137C68.5348 28.5728 69.3656 29.2175 69.943 29.7027C70.2324 29.9459 70.4607 30.1518 70.6217 30.3014C70.7023 30.3762 70.7666 30.4378 70.8131 30.483C70.8363 30.5055 70.8553 30.5243 70.8698 30.5387C70.8768 30.5457 70.8833 30.5513 70.8883 30.5562L70.899 30.567C70.8993 30.5679 70.8762 30.5926 69.1237 32.3277L70.6168 34.3326L70.6149 34.3336C70.6139 34.3343 70.613 34.3357 70.6119 34.3365C70.6098 34.3381 70.6069 34.3394 70.6041 34.3414C70.5985 34.3456 70.5917 34.3511 70.5836 34.357C70.5672 34.369 70.5455 34.3851 70.5192 34.4039C70.4665 34.4415 70.394 34.4923 70.3033 34.5543C70.1218 34.6784 69.8654 34.8482 69.5426 35.0465C68.8989 35.4419 67.9806 35.9583 66.859 36.4605C64.647 37.4511 61.4757 38.4599 57.983 38.2105C54.8474 37.9867 52.286 37.3143 50.4537 36.1617C48.5545 34.9669 47.2578 33.0929 47.4469 30.7769C47.6308 28.5271 49.1124 26.8508 51.1686 25.9098ZM72.9244 32.6129L70.6178 34.3316L69.1237 32.3277L70.9 30.5689L72.9244 32.6129ZM58.5885 29.899C55.8544 29.7053 54.1653 30.0376 53.2496 30.4566C52.4151 30.8385 52.4323 31.1584 52.4303 31.1842C52.4264 31.2318 52.4288 31.2735 52.4762 31.3541C52.5356 31.4551 52.7024 31.6686 53.1168 31.9293C53.9789 32.4715 55.6217 33.0292 58.3385 33.2232C60.6029 33.3849 62.8211 32.7589 64.5924 31.9937C62.963 30.9903 60.8662 30.0605 58.5885 29.899Z" fill="white"/>
</g>
<defs>
<filter id="filter0_d_2103_8238" x="21.4987" y="112.776" width="54.8323" height="32.388" filterUnits="userSpaceOnUse" color-interpolation-filters="sRGB">
<feFlood flood-opacity="0" result="BackgroundImageFix"/>
<feColorMatrix in="SourceAlpha" type="matrix" values="0 0 0 0 0 0 0 0 0 0 0 0 0 0 0 0 0 0 127 0" result="hardAlpha"/>
<feOffset/>
<feGaussianBlur stdDeviation="2"/>
<feComposite in2="hardAlpha" operator="out"/>
<feColorMatrix type="matrix" values="0 0 0 0 0.00392157 0 0 0 0 0.917647 0 0 0 0 0.839216 0 0 0 1 0"/>
<feBlend mode="normal" in2="BackgroundImageFix" result="effect1_dropShadow_2103_8238"/>
<feBlend mode="normal" in="SourceGraphic" in2="effect1_dropShadow_2103_8238" result="shape"/>
</filter>
<filter id="filter1_d_2103_8238" x="2.47955e-05" y="-5.72205e-06" width="97.6018" height="93.5354" filterUnits="userSpaceOnUse" color-interpolation-filters="sRGB">
<feFlood flood-opacity="0" result="BackgroundImageFix"/>
<feColorMatrix in="SourceAlpha" type="matrix" values="0 0 0 0 0 0 0 0 0 0 0 0 0 0 0 0 0 0 127 0" result="hardAlpha"/>
<feOffset/>
<feGaussianBlur stdDeviation="6.95"/>
<feComposite in2="hardAlpha" operator="out"/>
<feColorMatrix type="matrix" values="0 0 0 0 0.00392157 0 0 0 0 0.917647 0 0 0 0 0.839216 0 0 0 1 0"/>
<feBlend mode="normal" in2="BackgroundImageFix" result="effect1_dropShadow_2103_8238"/>
<feBlend mode="normal" in="SourceGraphic" in2="effect1_dropShadow_2103_8238" result="shape"/>
</filter>
</defs>
</svg>
