<svg width="78" height="137" viewBox="0 0 78 137" fill="none" xmlns="http://www.w3.org/2000/svg">
<g filter="url(#filter0_d_2103_8160)">
<path d="M32.9589 120.422V106.876H35.5589V120.422H32.9589ZM29.0589 119.72L22.3249 115.196C21.0769 117.042 19.1269 118.706 16.4749 120.24L15.1229 118.16C19.5429 115.56 21.5189 112.804 21.5189 109.294V107.656H24.0929V109.294C24.0929 110.62 23.8849 111.842 23.4689 112.986L30.4369 117.666L29.0589 119.72ZM32.9589 124.296H19.3349V121.93H35.5589V131.264H32.9589V124.296ZM55.7152 114.208H59.3032V116.392H41.9352V114.208H45.5492V109.554H41.9352V107.396H59.3032V109.554H55.7152V114.208ZM53.1932 109.554H48.0712V114.208H53.1932V109.554ZM61.9552 118.446V120.708H51.9192V123.126H59.1992V131.004H42.0652V123.126H49.3192V120.708H39.2832V118.446H61.9552ZM44.6652 128.846H56.5992V125.258H44.6652V128.846Z" fill="white"/>
</g>
<g filter="url(#filter1_d_2103_8160)">
<path d="M38.9248 4C48.1393 4.00008 56.603 5.69882 62.8564 8.55078C68.887 11.3012 73.8018 15.6104 73.8018 21.2666C73.8018 21.5787 73.7842 21.8865 73.7549 22.1904V52.4688C73.7549 58.1329 68.8422 62.4422 62.8096 65.1914C56.556 68.0413 48.0929 69.7353 38.8779 69.7354C29.6629 69.7354 21.1989 68.0413 14.9453 65.1914C8.91278 62.4422 4 58.1328 4 52.4688V21.2646C4 21.0753 4.0226 20.8912 4.0625 20.7139C4.3707 15.329 9.16035 11.2109 14.9932 8.55078C21.2467 5.6989 29.7103 4 38.9248 4ZM9 52.4688C9 54.9771 11.3338 58.0508 17.0186 60.6416C22.4827 63.1317 30.2086 64.7354 38.8779 64.7354C47.5471 64.7353 55.2722 63.1317 60.7363 60.6416C66.4213 58.0508 68.7549 54.9772 68.7549 52.4688V30.416C67.0509 31.7996 65.0265 32.9927 62.8564 33.9824C56.603 36.8344 48.1393 38.5331 38.9248 38.5332C29.7104 38.5332 21.2466 36.8343 14.9932 33.9824C12.7831 32.9745 10.7235 31.756 9 30.3398V52.4688ZM38.9248 9C30.258 9 22.5322 10.6073 17.0674 13.0996C11.3798 15.6935 9.04688 18.7678 9.04688 21.2666C9.04702 23.7654 11.38 26.8398 17.0674 29.4336C22.5322 31.9258 30.2581 33.5332 38.9248 33.5332C47.5912 33.5331 55.3165 31.9258 60.7812 29.4336C66.0168 27.0458 68.4077 24.2504 68.7549 21.8721V21.2646C68.7549 21.1422 68.7662 21.0221 68.7832 20.9043C68.5684 18.4749 66.1965 15.5694 60.7812 13.0996C55.3165 10.6074 47.5913 9.00008 38.9248 9ZM41.2686 16.0098C43.2445 15.1055 45.876 14.7876 49.041 15.0117C52.5577 15.2609 55.553 16.7124 57.5986 18.0137C58.6347 18.6728 59.4655 19.3175 60.043 19.8027C60.3324 20.046 60.5607 20.2518 60.7217 20.4014C60.8022 20.4762 60.8665 20.5378 60.9131 20.583C60.9363 20.6055 60.9552 20.6243 60.9697 20.6387C60.9768 20.6457 60.9833 20.6513 60.9883 20.6562L60.999 20.667C60.9993 20.6679 60.9762 20.6926 59.2236 22.4277L60.7168 24.4326L60.7148 24.4336C60.7139 24.4343 60.713 24.4357 60.7119 24.4365C60.7098 24.4381 60.7068 24.4394 60.7041 24.4414C60.6985 24.4456 60.6917 24.4511 60.6836 24.457C60.6672 24.469 60.6454 24.4851 60.6191 24.5039C60.5665 24.5415 60.494 24.5923 60.4033 24.6543C60.2218 24.7784 59.9653 24.9482 59.6426 25.1465C58.9989 25.5419 58.0806 26.0583 56.959 26.5605C54.747 27.5511 51.5757 28.5599 48.083 28.3105C44.9474 28.0867 42.3859 27.4143 40.5537 26.2617C38.6544 25.0669 37.3577 23.1929 37.5469 20.877C37.7307 18.6271 39.2123 16.9508 41.2686 16.0098ZM63.0244 22.7129L60.7178 24.4316L59.2236 22.4277L61 20.6689L63.0244 22.7129ZM48.6885 19.999C45.9543 19.8053 44.2652 20.1376 43.3496 20.5566C42.5151 20.9386 42.5323 21.2584 42.5303 21.2842C42.5264 21.3318 42.5288 21.3735 42.5762 21.4541C42.6356 21.5551 42.8024 21.7686 43.2168 22.0293C44.0789 22.5715 45.7217 23.1292 48.4385 23.3232C50.7029 23.4849 52.9211 22.8589 54.6924 22.0938C53.0629 21.0904 50.9662 20.1605 48.6885 19.999Z" fill="white"/>
</g>
<defs>
<filter id="filter0_d_2103_8160" x="11.1229" y="102.876" width="54.8323" height="32.388" filterUnits="userSpaceOnUse" color-interpolation-filters="sRGB">
<feFlood flood-opacity="0" result="BackgroundImageFix"/>
<feColorMatrix in="SourceAlpha" type="matrix" values="0 0 0 0 0 0 0 0 0 0 0 0 0 0 0 0 0 0 127 0" result="hardAlpha"/>
<feOffset/>
<feGaussianBlur stdDeviation="2"/>
<feComposite in2="hardAlpha" operator="out"/>
<feColorMatrix type="matrix" values="0 0 0 0 0.00392157 0 0 0 0 0.917647 0 0 0 0 0.839216 0 0 0 1 0"/>
<feBlend mode="normal" in2="BackgroundImageFix" result="effect1_dropShadow_2103_8160"/>
<feBlend mode="normal" in="SourceGraphic" in2="effect1_dropShadow_2103_8160" result="shape"/>
</filter>
<filter id="filter1_d_2103_8160" x="0" y="0" width="77.8018" height="73.7354" filterUnits="userSpaceOnUse" color-interpolation-filters="sRGB">
<feFlood flood-opacity="0" result="BackgroundImageFix"/>
<feColorMatrix in="SourceAlpha" type="matrix" values="0 0 0 0 0 0 0 0 0 0 0 0 0 0 0 0 0 0 127 0" result="hardAlpha"/>
<feOffset/>
<feGaussianBlur stdDeviation="2"/>
<feComposite in2="hardAlpha" operator="out"/>
<feColorMatrix type="matrix" values="0 0 0 0 0.00392157 0 0 0 0 0.917647 0 0 0 0 0.839216 0 0 0 1 0"/>
<feBlend mode="normal" in2="BackgroundImageFix" result="effect1_dropShadow_2103_8160"/>
<feBlend mode="normal" in="SourceGraphic" in2="effect1_dropShadow_2103_8160" result="shape"/>
</filter>
</defs>
</svg>
