<svg width="116" height="146" viewBox="0 0 116 146" fill="none" xmlns="http://www.w3.org/2000/svg">
<g filter="url(#filter0_d_2103_8198)">
<path d="M7.01596 115.396H23.656V124.912H7.01596V115.396ZM9.61596 122.598H21.056V117.658H9.61596V122.598ZM3.99996 129.826V127.434H26.672V129.826H16.636V134.09H14.062V129.826H3.99996ZM6.91196 132.01H9.51196V136.586H24.28V139.004H6.91196V132.01ZM47.1663 127.616H51.0663V129.982H41.0303V139.29H38.4563V129.982H28.3943V127.616H44.5403C45.1123 124.314 45.4503 120.778 45.4503 118.776V118.516H30.9163V116.15H48.0503V118.074C48.0503 120.83 47.7123 124.314 47.1663 127.616ZM54.8166 141.24H52.0606L61.1606 113.94H63.9166L54.8166 141.24ZM84.4458 114.876V122.182H87.9558V124.548H84.4458V133.466H81.8458V114.876H84.4458ZM79.8438 127.642L80.1298 129.904C76.5158 130.398 71.9138 130.684 68.4818 130.684H64.6598L64.5298 128.37H68.6898C69.2878 128.37 69.9378 128.37 70.6658 128.344V125.926C67.6498 125.588 65.4658 123.924 65.4658 120.934V120.596C65.4658 117.19 68.2478 115.526 71.8358 115.526C75.3978 115.526 78.1798 117.19 78.1798 120.596V120.934C78.1798 123.82 76.1258 125.484 73.2658 125.874V128.214C75.4238 128.11 77.7898 127.902 79.8438 127.642ZM67.9878 120.596V120.882C67.9878 122.754 69.5998 123.768 71.8358 123.768C74.0458 123.768 75.6318 122.754 75.6318 120.882V120.596C75.6318 118.724 74.0458 117.71 71.8358 117.71C69.5998 117.71 67.9878 118.724 67.9878 120.596ZM68.7418 132.712H71.3418V136.638H85.7198V139.004H68.7418V132.712ZM108.06 127.616H111.96V129.982H101.924V139.29H99.3501V129.982H89.2881V127.616H105.434C106.006 124.314 106.344 120.778 106.344 118.776V118.516H91.8101V116.15H108.944V118.074C108.944 120.83 108.606 124.314 108.06 127.616Z" fill="white"/>
</g>
<g filter="url(#filter1_d_2103_8198)">
<path d="M36.4192 4.04688H37.552V4.0459H93.3254V86.2207H42.551V86.2217H33.9192C30.4028 86.2214 27.5637 83.3847 27.5637 79.8672V73.8691H25.512C24.1313 73.8691 23.012 72.7499 23.012 71.3691C23.012 69.9884 24.1313 68.8691 25.512 68.8691H27.5637V60.9629H25.512C24.1313 60.9629 23.012 59.8436 23.012 58.4629C23.012 57.0822 24.1313 55.9629 25.512 55.9629H27.5637V48.0078H25.512C24.1313 48.0078 23.012 46.8885 23.012 45.5078C23.012 44.1271 24.1313 43.0078 25.512 43.0078H27.5637V35.0518H25.512C24.1313 35.0518 23.012 33.9325 23.012 32.5518C23.012 31.171 24.1313 30.0518 25.512 30.0518H27.5637V22.0967H25.512C24.1313 22.0967 23.012 20.9774 23.012 19.5967C23.012 18.216 24.1313 17.0967 25.512 17.0967H27.5637V10.3545C27.5637 6.83703 30.4028 4.00027 33.9192 4H36.4192V4.04688ZM37.551 73.1738C37.1021 73.6035 36.4949 73.8691 35.8245 73.8691H32.5637V79.8672C32.5637 80.6214 33.1624 81.2214 33.9192 81.2217H37.551V73.1738ZM42.552 81.2207H88.3254V9.0459H42.552V81.2207ZM37.551 60.2676C37.1021 60.6972 36.4949 60.9628 35.8245 60.9629H32.5637V68.8691H35.8245C36.4947 68.8692 37.1022 69.1341 37.551 69.5635V60.2676ZM37.551 47.3125C37.1021 47.7421 36.4949 48.0078 35.8245 48.0078H32.5637V55.9629H35.8245C36.4947 55.9629 37.1022 56.2279 37.551 56.6572V47.3125ZM82.7415 41.5205C84.1221 41.5206 85.2415 42.6398 85.2415 44.0205C85.2415 45.4012 84.1221 46.5205 82.7415 46.5205H47.4836C46.1031 46.5203 44.9836 45.4011 44.9836 44.0205C44.9836 42.6399 46.1031 41.5207 47.4836 41.5205H82.7415ZM37.551 34.3564C37.1021 34.7861 36.4949 35.0517 35.8245 35.0518H32.5637V43.0078H35.8245C36.4947 43.0079 37.1022 43.2728 37.551 43.7021V34.3564ZM82.7415 31.2129C84.1221 31.2129 85.2415 32.3322 85.2415 33.7129C85.2415 35.0936 84.1221 36.2128 82.7415 36.2129H47.4836C46.1031 36.2127 44.9836 35.0935 44.9836 33.7129C44.9836 32.3323 46.1031 31.2131 47.4836 31.2129H82.7415ZM37.551 21.4014C37.1021 21.831 36.4949 22.0966 35.8245 22.0967H32.5637V30.0518H35.8245C36.4947 30.0518 37.1022 30.3167 37.551 30.7461V21.4014ZM82.7415 20.8555C84.1221 20.8555 85.2415 21.9748 85.2415 23.3555C85.2415 24.7362 84.1221 25.8554 82.7415 25.8555H47.4836C46.1031 25.8553 44.9836 24.7361 44.9836 23.3555C44.9836 21.9749 46.1031 20.8556 47.4836 20.8555H82.7415ZM33.5667 9.04688C32.9849 9.19988 32.5637 9.72226 32.5637 10.3545V17.0967H35.8245C36.4947 17.0967 37.1022 17.3616 37.551 17.791V9.04688H33.5667Z" fill="white"/>
</g>
<defs>
<filter id="filter0_d_2103_8198" x="0" y="109.94" width="115.96" height="35.3" filterUnits="userSpaceOnUse" color-interpolation-filters="sRGB">
<feFlood flood-opacity="0" result="BackgroundImageFix"/>
<feColorMatrix in="SourceAlpha" type="matrix" values="0 0 0 0 0 0 0 0 0 0 0 0 0 0 0 0 0 0 127 0" result="hardAlpha"/>
<feOffset/>
<feGaussianBlur stdDeviation="2"/>
<feComposite in2="hardAlpha" operator="out"/>
<feColorMatrix type="matrix" values="0 0 0 0 0.00392157 0 0 0 0 0.917647 0 0 0 0 0.839216 0 0 0 1 0"/>
<feBlend mode="normal" in2="BackgroundImageFix" result="effect1_dropShadow_2103_8198"/>
<feBlend mode="normal" in="SourceGraphic" in2="effect1_dropShadow_2103_8198" result="shape"/>
</filter>
<filter id="filter1_d_2103_8198" x="19.012" y="0" width="78.3135" height="90.2217" filterUnits="userSpaceOnUse" color-interpolation-filters="sRGB">
<feFlood flood-opacity="0" result="BackgroundImageFix"/>
<feColorMatrix in="SourceAlpha" type="matrix" values="0 0 0 0 0 0 0 0 0 0 0 0 0 0 0 0 0 0 127 0" result="hardAlpha"/>
<feOffset/>
<feGaussianBlur stdDeviation="2"/>
<feComposite in2="hardAlpha" operator="out"/>
<feColorMatrix type="matrix" values="0 0 0 0 0.00392157 0 0 0 0 0.917647 0 0 0 0 0.839216 0 0 0 1 0"/>
<feBlend mode="normal" in2="BackgroundImageFix" result="effect1_dropShadow_2103_8198"/>
<feBlend mode="normal" in="SourceGraphic" in2="effect1_dropShadow_2103_8198" result="shape"/>
</filter>
</defs>
</svg>
