<svg width="147" height="169" viewBox="0 0 147 169" fill="none" xmlns="http://www.w3.org/2000/svg">
<g filter="url(#filter0_d_2103_8430)">
<path d="M33.2183 11.8H11.8V33.2182" stroke="#FFE674" stroke-width="5"/>
</g>
<g filter="url(#filter1_d_2103_8430)">
<path d="M113.255 124.218L134.673 124.218L134.673 102.8" stroke="#FFE674" stroke-width="5"/>
</g>
<g filter="url(#filter2_d_2103_8430)">
<path d="M134.673 33.2182L134.673 11.8L113.255 11.8" stroke="#FFE674" stroke-width="5"/>
</g>
<g filter="url(#filter3_d_2103_8430)">
<path d="M11.8 102.8L11.8 124.218L33.2183 124.218" stroke="#FFE674" stroke-width="5"/>
</g>
<g filter="url(#filter4_d_2103_8430)">
<path d="M21.804 138.196H38.444V147.712H21.804V138.196ZM24.404 145.398H35.844V140.458H24.404V145.398ZM18.788 152.626V150.234H41.46V152.626H31.4241V156.89H28.85V152.626H18.788ZM21.7 154.81H24.3V159.386H39.068V161.804H21.7V154.81ZM61.9543 150.416H65.8543V152.782H55.8183V162.09H53.2443V152.782H43.1823V150.416H59.3283C59.9003 147.114 60.2383 143.578 60.2383 141.576V141.316H45.7043V138.95H62.8383V140.874C62.8383 143.63 62.5003 147.114 61.9543 150.416ZM69.6046 164.04H66.8486L75.9486 136.74H78.7046L69.6046 164.04ZM99.2339 137.676V144.982H102.744V147.348H99.2339V156.266H96.6339V137.676H99.2339ZM94.6319 150.442L94.9179 152.704C91.3039 153.198 86.7019 153.484 83.2699 153.484H79.4479L79.3179 151.17H83.4779C84.0759 151.17 84.7259 151.17 85.4539 151.144V148.726C82.4379 148.388 80.2539 146.724 80.2539 143.734V143.396C80.2539 139.99 83.0359 138.326 86.6239 138.326C90.1859 138.326 92.9679 139.99 92.9679 143.396V143.734C92.9679 146.62 90.9139 148.284 88.0539 148.674V151.014C90.2119 150.91 92.5779 150.702 94.6319 150.442ZM82.7759 143.396V143.682C82.7759 145.554 84.3879 146.568 86.6239 146.568C88.8339 146.568 90.4199 145.554 90.4199 143.682V143.396C90.4199 141.524 88.8339 140.51 86.6239 140.51C84.3879 140.51 82.7759 141.524 82.7759 143.396ZM83.5299 155.512H86.1299V159.438H100.508V161.804H83.5299V155.512ZM122.848 150.416H126.748V152.782H116.712V162.09H114.138V152.782H104.076V150.416H120.222C120.794 147.114 121.132 143.578 121.132 141.576V141.316H106.598V138.95H123.732V140.874C123.732 143.63 123.394 147.114 122.848 150.416Z" fill="#FFE674"/>
</g>
<g filter="url(#filter5_d_2103_8430)">
<path d="M51.2073 26.8469H52.3401V26.8459H108.114V109.021H57.3391V109.022H48.7073C45.1909 109.021 42.3518 106.185 42.3518 102.667V96.6691H40.3C38.9193 96.6691 37.8 95.5498 37.8 94.1691C37.8 92.7884 38.9193 91.6691 40.3 91.6691H42.3518V83.7629H40.3C38.9193 83.7629 37.8 82.6436 37.8 81.2629C37.8 79.8822 38.9193 78.7629 40.3 78.7629H42.3518V70.8078H40.3C38.9193 70.8078 37.8 69.6885 37.8 68.3078C37.8 66.9271 38.9193 65.8078 40.3 65.8078H42.3518V57.8517H40.3C38.9193 57.8517 37.8 56.7325 37.8 55.3517C37.8 53.971 38.9193 52.8517 40.3 52.8517H42.3518V44.8967H40.3C38.9193 44.8967 37.8 43.7774 37.8 42.3967C37.8 41.016 38.9193 39.8967 40.3 39.8967H42.3518V33.1545C42.3518 29.637 45.1909 26.8003 48.7073 26.8H51.2073V26.8469ZM52.3391 95.9738C51.8902 96.4035 51.283 96.6691 50.6125 96.6691H47.3518V102.667C47.3518 103.421 47.9505 104.021 48.7073 104.022H52.3391V95.9738ZM57.3401 104.021H103.114V31.8459H57.3401V104.021ZM52.3391 83.0676C51.8902 83.4972 51.283 83.7628 50.6125 83.7629H47.3518V91.6691H50.6125C51.2827 91.6692 51.8902 91.9341 52.3391 92.3635V83.0676ZM52.3391 70.1125C51.8902 70.5421 51.283 70.8078 50.6125 70.8078H47.3518V78.7629H50.6125C51.2827 78.7629 51.8902 79.0278 52.3391 79.4572V70.1125ZM97.5295 64.3205C98.9102 64.3205 100.03 65.4398 100.03 66.8205C100.03 68.2012 98.9102 69.3205 97.5295 69.3205H62.2717C60.8912 69.3203 59.7717 68.2011 59.7717 66.8205C59.7717 65.4399 60.8912 64.3207 62.2717 64.3205H97.5295ZM52.3391 57.1564C51.8902 57.5861 51.283 57.8517 50.6125 57.8517H47.3518V65.8078H50.6125C51.2827 65.8078 51.8902 66.0728 52.3391 66.5021V57.1564ZM97.5295 54.0129C98.9102 54.0129 100.03 55.1322 100.03 56.5129C100.03 57.8936 98.9102 59.0128 97.5295 59.0129H62.2717C60.8912 59.0127 59.7717 57.8935 59.7717 56.5129C59.7717 55.1323 60.8912 54.013 62.2717 54.0129H97.5295ZM52.3391 44.2014C51.8902 44.631 51.283 44.8966 50.6125 44.8967H47.3518V52.8517H50.6125C51.2827 52.8518 51.8902 53.1167 52.3391 53.5461V44.2014ZM97.5295 43.6555C98.9102 43.6555 100.03 44.7748 100.03 46.1555C100.03 47.5361 98.9102 48.6554 97.5295 48.6555H62.2717C60.8912 48.6553 59.7717 47.5361 59.7717 46.1555C59.7717 44.7748 60.8912 43.6556 62.2717 43.6555H97.5295ZM48.3547 31.8469C47.773 31.9999 47.3518 32.5223 47.3518 33.1545V39.8967H50.6125C51.2827 39.8967 51.8902 40.1616 52.3391 40.591V31.8469H48.3547Z" fill="#FFE674"/>
</g>
<defs>
<filter id="filter0_d_2103_8430" x="4.86374e-05" y="-1.23978e-05" width="42.5182" height="42.5182" filterUnits="userSpaceOnUse" color-interpolation-filters="sRGB">
<feFlood flood-opacity="0" result="BackgroundImageFix"/>
<feColorMatrix in="SourceAlpha" type="matrix" values="0 0 0 0 0 0 0 0 0 0 0 0 0 0 0 0 0 0 127 0" result="hardAlpha"/>
<feOffset/>
<feGaussianBlur stdDeviation="4.65"/>
<feComposite in2="hardAlpha" operator="out"/>
<feColorMatrix type="matrix" values="0 0 0 0 0.996078 0 0 0 0 0.541176 0 0 0 0 0.00392157 0 0 0 1 0"/>
<feBlend mode="normal" in2="BackgroundImageFix" result="effect1_dropShadow_2103_8430"/>
<feBlend mode="normal" in="SourceGraphic" in2="effect1_dropShadow_2103_8430" result="shape"/>
</filter>
<filter id="filter1_d_2103_8430" x="103.955" y="93.5" width="42.5182" height="42.5182" filterUnits="userSpaceOnUse" color-interpolation-filters="sRGB">
<feFlood flood-opacity="0" result="BackgroundImageFix"/>
<feColorMatrix in="SourceAlpha" type="matrix" values="0 0 0 0 0 0 0 0 0 0 0 0 0 0 0 0 0 0 127 0" result="hardAlpha"/>
<feOffset/>
<feGaussianBlur stdDeviation="4.65"/>
<feComposite in2="hardAlpha" operator="out"/>
<feColorMatrix type="matrix" values="0 0 0 0 0.996078 0 0 0 0 0.541176 0 0 0 0 0.00392157 0 0 0 1 0"/>
<feBlend mode="normal" in2="BackgroundImageFix" result="effect1_dropShadow_2103_8430"/>
<feBlend mode="normal" in="SourceGraphic" in2="effect1_dropShadow_2103_8430" result="shape"/>
</filter>
<filter id="filter2_d_2103_8430" x="103.955" y="-1.23978e-05" width="42.5182" height="42.5182" filterUnits="userSpaceOnUse" color-interpolation-filters="sRGB">
<feFlood flood-opacity="0" result="BackgroundImageFix"/>
<feColorMatrix in="SourceAlpha" type="matrix" values="0 0 0 0 0 0 0 0 0 0 0 0 0 0 0 0 0 0 127 0" result="hardAlpha"/>
<feOffset/>
<feGaussianBlur stdDeviation="4.65"/>
<feComposite in2="hardAlpha" operator="out"/>
<feColorMatrix type="matrix" values="0 0 0 0 0.996078 0 0 0 0 0.541176 0 0 0 0 0.00392157 0 0 0 1 0"/>
<feBlend mode="normal" in2="BackgroundImageFix" result="effect1_dropShadow_2103_8430"/>
<feBlend mode="normal" in="SourceGraphic" in2="effect1_dropShadow_2103_8430" result="shape"/>
</filter>
<filter id="filter3_d_2103_8430" x="4.86374e-05" y="93.5" width="42.5182" height="42.5182" filterUnits="userSpaceOnUse" color-interpolation-filters="sRGB">
<feFlood flood-opacity="0" result="BackgroundImageFix"/>
<feColorMatrix in="SourceAlpha" type="matrix" values="0 0 0 0 0 0 0 0 0 0 0 0 0 0 0 0 0 0 127 0" result="hardAlpha"/>
<feOffset/>
<feGaussianBlur stdDeviation="4.65"/>
<feComposite in2="hardAlpha" operator="out"/>
<feColorMatrix type="matrix" values="0 0 0 0 0.996078 0 0 0 0 0.541176 0 0 0 0 0.00392157 0 0 0 1 0"/>
<feBlend mode="normal" in2="BackgroundImageFix" result="effect1_dropShadow_2103_8430"/>
<feBlend mode="normal" in="SourceGraphic" in2="effect1_dropShadow_2103_8430" result="shape"/>
</filter>
<filter id="filter4_d_2103_8430" x="14.7881" y="132.74" width="115.96" height="35.3" filterUnits="userSpaceOnUse" color-interpolation-filters="sRGB">
<feFlood flood-opacity="0" result="BackgroundImageFix"/>
<feColorMatrix in="SourceAlpha" type="matrix" values="0 0 0 0 0 0 0 0 0 0 0 0 0 0 0 0 0 0 127 0" result="hardAlpha"/>
<feOffset/>
<feGaussianBlur stdDeviation="2"/>
<feComposite in2="hardAlpha" operator="out"/>
<feColorMatrix type="matrix" values="0 0 0 0 0.996078 0 0 0 0 0.541176 0 0 0 0 0.00392157 0 0 0 1 0"/>
<feBlend mode="normal" in2="BackgroundImageFix" result="effect1_dropShadow_2103_8430"/>
<feBlend mode="normal" in="SourceGraphic" in2="effect1_dropShadow_2103_8430" result="shape"/>
</filter>
<filter id="filter5_d_2103_8430" x="33.8" y="22.8" width="78.3135" height="90.2217" filterUnits="userSpaceOnUse" color-interpolation-filters="sRGB">
<feFlood flood-opacity="0" result="BackgroundImageFix"/>
<feColorMatrix in="SourceAlpha" type="matrix" values="0 0 0 0 0 0 0 0 0 0 0 0 0 0 0 0 0 0 127 0" result="hardAlpha"/>
<feOffset/>
<feGaussianBlur stdDeviation="2"/>
<feComposite in2="hardAlpha" operator="out"/>
<feColorMatrix type="matrix" values="0 0 0 0 0.996078 0 0 0 0 0.541176 0 0 0 0 0.00392157 0 0 0 1 0"/>
<feBlend mode="normal" in2="BackgroundImageFix" result="effect1_dropShadow_2103_8430"/>
<feBlend mode="normal" in="SourceGraphic" in2="effect1_dropShadow_2103_8430" result="shape"/>
</filter>
</defs>
</svg>
