<svg width="116" height="146" viewBox="0 0 116 146" fill="none" xmlns="http://www.w3.org/2000/svg">
<g filter="url(#filter0_d_2103_8327)">
<path d="M7.14594 115.5H23.3439V124.86H7.14594V115.5ZM8.99194 123.17H21.4719V117.164H8.99194V123.17ZM3.99994 129.514V127.798H26.4639V129.514H16.1679V134.272H14.3219V129.514H3.99994ZM7.01594 131.932H8.88794V137.184H23.9679V138.9H7.01594V131.932ZM46.6462 127.85H50.8582V129.566H40.5622V139.186H38.7162V129.566H28.3942V127.85H44.7742C45.3982 124.392 45.8142 120.622 45.8142 118.516V117.97H30.9682V116.254H47.6602V118.1C47.6602 120.83 47.2442 124.444 46.6462 127.85ZM53.9845 141.162H52.0345L61.1345 114.018H63.0845L53.9845 141.162ZM83.421 114.902V122.52H87.165V124.262H83.421V133.492H81.575V114.902H83.421ZM79.287 128.006L79.495 129.618C75.985 130.086 71.357 130.424 67.925 130.424H63.973L63.895 128.734H68.029C68.705 128.734 69.459 128.708 70.291 128.682V125.848C67.275 125.588 64.935 123.976 64.935 120.986V120.596C64.935 117.32 67.691 115.682 71.097 115.682C74.503 115.682 77.259 117.32 77.259 120.596V120.986C77.259 123.898 75.049 125.51 72.163 125.822V128.604C74.503 128.5 77.077 128.292 79.287 128.006ZM66.755 120.622V120.96C66.755 123.066 68.575 124.236 71.097 124.236C73.619 124.236 75.413 123.066 75.413 120.96V120.622C75.413 118.49 73.619 117.32 71.097 117.32C68.575 117.32 66.755 118.49 66.755 120.622ZM68.263 132.868H70.109V137.184H84.799V138.9H68.263V132.868ZM106.905 127.85H111.117V129.566H100.821V139.186H98.9753V129.566H88.6533V127.85H105.033C105.657 124.392 106.073 120.622 106.073 118.516V117.97H91.2273V116.254H107.919V118.1C107.919 120.83 107.503 124.444 106.905 127.85Z" fill="#BFBFBF"/>
</g>
<g filter="url(#filter1_d_2103_8327)">
<path d="M35.969 4.04688H37.1018V4.0459H92.8752V86.2207H42.1008V86.2217H33.469C29.9526 86.2214 27.1135 83.3847 27.1135 79.8672V73.8691H25.0618C23.6811 73.8691 22.5618 72.7499 22.5618 71.3691C22.5618 69.9884 23.6811 68.8691 25.0618 68.8691H27.1135V60.9629H25.0618C23.6811 60.9629 22.5618 59.8436 22.5618 58.4629C22.5618 57.0822 23.6811 55.9629 25.0618 55.9629H27.1135V48.0078H25.0618C23.6811 48.0078 22.5618 46.8885 22.5618 45.5078C22.5618 44.1271 23.6811 43.0078 25.0618 43.0078H27.1135V35.0518H25.0618C23.6811 35.0518 22.5618 33.9325 22.5618 32.5518C22.5618 31.171 23.6811 30.0518 25.0618 30.0518H27.1135V22.0967H25.0618C23.6811 22.0967 22.5618 20.9774 22.5618 19.5967C22.5618 18.216 23.6811 17.0967 25.0618 17.0967H27.1135V10.3545C27.1135 6.83703 29.9526 4.00027 33.469 4H35.969V4.04688ZM37.1008 73.1738C36.6519 73.6035 36.0447 73.8691 35.3743 73.8691H32.1135V79.8672C32.1135 80.6214 32.7122 81.2214 33.469 81.2217H37.1008V73.1738ZM42.1018 81.2207H87.8752V9.0459H42.1018V81.2207ZM37.1008 60.2676C36.6519 60.6972 36.0447 60.9628 35.3743 60.9629H32.1135V68.8691H35.3743C36.0445 68.8692 36.652 69.1341 37.1008 69.5635V60.2676ZM37.1008 47.3125C36.6519 47.7421 36.0447 48.0078 35.3743 48.0078H32.1135V55.9629H35.3743C36.0445 55.9629 36.652 56.2279 37.1008 56.6572V47.3125ZM82.2913 41.5205C83.6719 41.5206 84.7913 42.6398 84.7913 44.0205C84.7913 45.4012 83.6719 46.5205 82.2913 46.5205H47.0334C45.6529 46.5203 44.5334 45.4011 44.5334 44.0205C44.5334 42.6399 45.6529 41.5207 47.0334 41.5205H82.2913ZM37.1008 34.3564C36.6519 34.7861 36.0447 35.0517 35.3743 35.0518H32.1135V43.0078H35.3743C36.0445 43.0079 36.652 43.2728 37.1008 43.7021V34.3564ZM82.2913 31.2129C83.6719 31.2129 84.7913 32.3322 84.7913 33.7129C84.7913 35.0936 83.6719 36.2128 82.2913 36.2129H47.0334C45.6529 36.2127 44.5334 35.0935 44.5334 33.7129C44.5334 32.3323 45.6529 31.2131 47.0334 31.2129H82.2913ZM37.1008 21.4014C36.6519 21.831 36.0447 22.0966 35.3743 22.0967H32.1135V30.0518H35.3743C36.0445 30.0518 36.652 30.3167 37.1008 30.7461V21.4014ZM82.2913 20.8555C83.6719 20.8555 84.7913 21.9748 84.7913 23.3555C84.7913 24.7362 83.6719 25.8554 82.2913 25.8555H47.0334C45.6529 25.8553 44.5334 24.7361 44.5334 23.3555C44.5334 21.9749 45.6529 20.8556 47.0334 20.8555H82.2913ZM33.1165 9.04688C32.5347 9.19988 32.1135 9.72226 32.1135 10.3545V17.0967H35.3743C36.0445 17.0967 36.652 17.3616 37.1008 17.791V9.04688H33.1165Z" fill="#BFBFBF"/>
</g>
<defs>
<filter id="filter0_d_2103_8327" x="0" y="110.018" width="115.117" height="35.144" filterUnits="userSpaceOnUse" color-interpolation-filters="sRGB">
<feFlood flood-opacity="0" result="BackgroundImageFix"/>
<feColorMatrix in="SourceAlpha" type="matrix" values="0 0 0 0 0 0 0 0 0 0 0 0 0 0 0 0 0 0 127 0" result="hardAlpha"/>
<feOffset/>
<feGaussianBlur stdDeviation="2"/>
<feComposite in2="hardAlpha" operator="out"/>
<feColorMatrix type="matrix" values="0 0 0 0 0.00392157 0 0 0 0 0.917647 0 0 0 0 0.839216 0 0 0 1 0"/>
<feBlend mode="normal" in2="BackgroundImageFix" result="effect1_dropShadow_2103_8327"/>
<feBlend mode="normal" in="SourceGraphic" in2="effect1_dropShadow_2103_8327" result="shape"/>
</filter>
<filter id="filter1_d_2103_8327" x="18.5618" y="0" width="78.3135" height="90.2217" filterUnits="userSpaceOnUse" color-interpolation-filters="sRGB">
<feFlood flood-opacity="0" result="BackgroundImageFix"/>
<feColorMatrix in="SourceAlpha" type="matrix" values="0 0 0 0 0 0 0 0 0 0 0 0 0 0 0 0 0 0 127 0" result="hardAlpha"/>
<feOffset/>
<feGaussianBlur stdDeviation="2"/>
<feComposite in2="hardAlpha" operator="out"/>
<feColorMatrix type="matrix" values="0 0 0 0 0.00392157 0 0 0 0 0.917647 0 0 0 0 0.839216 0 0 0 1 0"/>
<feBlend mode="normal" in2="BackgroundImageFix" result="effect1_dropShadow_2103_8327"/>
<feBlend mode="normal" in="SourceGraphic" in2="effect1_dropShadow_2103_8327" result="shape"/>
</filter>
</defs>
</svg>
