<svg width="116" height="156" viewBox="0 0 116 156" fill="none" xmlns="http://www.w3.org/2000/svg">
<g filter="url(#filter0_d_2103_8314)">
<path d="M7.01594 125.296H23.6559V134.812H7.01594V125.296ZM9.61594 132.498H21.0559V127.558H9.61594V132.498ZM3.99994 139.726V137.334H26.6719V139.726H16.6359V143.99H14.0619V139.726H3.99994ZM6.91194 141.91H9.51194V146.486H24.2799V148.904H6.91194V141.91ZM47.1662 137.516H51.0662V139.882H41.0302V149.19H38.4562V139.882H28.3942V137.516H44.5402C45.1122 134.214 45.4502 130.678 45.4502 128.676V128.416H30.9162V126.05H48.0502V127.974C48.0502 130.73 47.7122 134.214 47.1662 137.516ZM54.8165 151.14H52.0605L61.1605 123.84H63.9165L54.8165 151.14ZM84.4458 124.776V132.082H87.9558V134.448H84.4458V143.366H81.8458V124.776H84.4458ZM79.8438 137.542L80.1298 139.804C76.5158 140.298 71.9138 140.584 68.4818 140.584H64.6598L64.5298 138.27H68.6898C69.2878 138.27 69.9378 138.27 70.6658 138.244V135.826C67.6498 135.488 65.4658 133.824 65.4658 130.834V130.496C65.4658 127.09 68.2478 125.426 71.8358 125.426C75.3978 125.426 78.1798 127.09 78.1798 130.496V130.834C78.1798 133.72 76.1258 135.384 73.2658 135.774V138.114C75.4238 138.01 77.7898 137.802 79.8438 137.542ZM67.9878 130.496V130.782C67.9878 132.654 69.5998 133.668 71.8358 133.668C74.0458 133.668 75.6318 132.654 75.6318 130.782V130.496C75.6318 128.624 74.0458 127.61 71.8358 127.61C69.5998 127.61 67.9878 128.624 67.9878 130.496ZM68.7418 142.612H71.3418V146.538H85.7198V148.904H68.7418V142.612ZM108.06 137.516H111.96V139.882H101.924V149.19H99.3501V139.882H89.2881V137.516H105.434C106.006 134.214 106.344 130.678 106.344 128.676V128.416H91.8101V126.05H108.944V127.974C108.944 130.73 108.606 134.214 108.06 137.516Z" fill="white"/>
</g>
<g filter="url(#filter1_d_2103_8314)">
<path d="M36.3904 13.9469H37.5232V13.9459H93.2966V96.1207H42.5222V96.1217H33.8904C30.374 96.1214 27.5349 93.2847 27.5349 89.7672V83.7691H25.4832C24.1024 83.7691 22.9832 82.6498 22.9832 81.2691C22.9832 79.8884 24.1024 78.7691 25.4832 78.7691H27.5349V70.8629H25.4832C24.1024 70.8629 22.9832 69.7436 22.9832 68.3629C22.9832 66.9822 24.1024 65.8629 25.4832 65.8629H27.5349V57.9078H25.4832C24.1024 57.9078 22.9832 56.7885 22.9832 55.4078C22.9832 54.0271 24.1024 52.9078 25.4832 52.9078H27.5349V44.9518H25.4832C24.1024 44.9518 22.9832 43.8325 22.9832 42.4518C22.9832 41.071 24.1024 39.9518 25.4832 39.9518H27.5349V31.9967H25.4832C24.1024 31.9967 22.9832 30.8774 22.9832 29.4967C22.9832 28.116 24.1024 26.9967 25.4832 26.9967H27.5349V20.2545C27.5349 16.737 30.374 13.9003 33.8904 13.9H36.3904V13.9469ZM37.5222 83.0738C37.0733 83.5035 36.4661 83.7691 35.7957 83.7691H32.5349V89.7672C32.5349 90.5214 33.1336 91.1214 33.8904 91.1217H37.5222V83.0738ZM42.5232 91.1207H88.2966V18.9459H42.5232V91.1207ZM37.5222 70.1676C37.0733 70.5972 36.4661 70.8628 35.7957 70.8629H32.5349V78.7691H35.7957C36.4659 78.7692 37.0733 79.0341 37.5222 79.4635V70.1676ZM37.5222 57.2125C37.0733 57.6421 36.4661 57.9078 35.7957 57.9078H32.5349V65.8629H35.7957C36.4659 65.8629 37.0733 66.1278 37.5222 66.5572V57.2125ZM82.7126 51.4205C84.0933 51.4205 85.2126 52.5398 85.2126 53.9205C85.2126 55.3012 84.0933 56.4205 82.7126 56.4205H47.4548C46.0743 56.4203 44.9548 55.3011 44.9548 53.9205C44.9548 52.5399 46.0743 51.4207 47.4548 51.4205H82.7126ZM37.5222 44.2564C37.0733 44.6861 36.4661 44.9517 35.7957 44.9518H32.5349V52.9078H35.7957C36.4659 52.9079 37.0733 53.1728 37.5222 53.6021V44.2564ZM82.7126 41.1129C84.0933 41.1129 85.2126 42.2322 85.2126 43.6129C85.2126 44.9936 84.0933 46.1128 82.7126 46.1129H47.4548C46.0743 46.1127 44.9548 44.9935 44.9548 43.6129C44.9548 42.2323 46.0743 41.113 47.4548 41.1129H82.7126ZM37.5222 31.3014C37.0733 31.731 36.4661 31.9966 35.7957 31.9967H32.5349V39.9518H35.7957C36.4659 39.9518 37.0733 40.2167 37.5222 40.6461V31.3014ZM82.7126 30.7555C84.0933 30.7555 85.2126 31.8748 85.2126 33.2555C85.2126 34.6361 84.0933 35.7554 82.7126 35.7555H47.4548C46.0743 35.7553 44.9548 34.6361 44.9548 33.2555C44.9548 31.8749 46.0743 30.7556 47.4548 30.7555H82.7126ZM33.5378 18.9469C32.9561 19.0999 32.5349 19.6223 32.5349 20.2545V26.9967H35.7957C36.4659 26.9967 37.0733 27.2616 37.5222 27.691V18.9469H33.5378Z" fill="white"/>
</g>
<defs>
<filter id="filter0_d_2103_8314" x="0" y="119.84" width="115.96" height="35.3" filterUnits="userSpaceOnUse" color-interpolation-filters="sRGB">
<feFlood flood-opacity="0" result="BackgroundImageFix"/>
<feColorMatrix in="SourceAlpha" type="matrix" values="0 0 0 0 0 0 0 0 0 0 0 0 0 0 0 0 0 0 127 0" result="hardAlpha"/>
<feOffset/>
<feGaussianBlur stdDeviation="2"/>
<feComposite in2="hardAlpha" operator="out"/>
<feColorMatrix type="matrix" values="0 0 0 0 0.00392157 0 0 0 0 0.917647 0 0 0 0 0.839216 0 0 0 1 0"/>
<feBlend mode="normal" in2="BackgroundImageFix" result="effect1_dropShadow_2103_8314"/>
<feBlend mode="normal" in="SourceGraphic" in2="effect1_dropShadow_2103_8314" result="shape"/>
</filter>
<filter id="filter1_d_2103_8314" x="9.08315" y="-5.72205e-06" width="98.1135" height="110.022" filterUnits="userSpaceOnUse" color-interpolation-filters="sRGB">
<feFlood flood-opacity="0" result="BackgroundImageFix"/>
<feColorMatrix in="SourceAlpha" type="matrix" values="0 0 0 0 0 0 0 0 0 0 0 0 0 0 0 0 0 0 127 0" result="hardAlpha"/>
<feOffset/>
<feGaussianBlur stdDeviation="6.95"/>
<feComposite in2="hardAlpha" operator="out"/>
<feColorMatrix type="matrix" values="0 0 0 0 0.00392157 0 0 0 0 0.917647 0 0 0 0 0.839216 0 0 0 1 0"/>
<feBlend mode="normal" in2="BackgroundImageFix" result="effect1_dropShadow_2103_8314"/>
<feBlend mode="normal" in="SourceGraphic" in2="effect1_dropShadow_2103_8314" result="shape"/>
</filter>
</defs>
</svg>
