<svg width="100" height="145" viewBox="0 0 100 145" fill="none" xmlns="http://www.w3.org/2000/svg">
<g filter="url(#filter0_d_2103_8153)">
<path d="M49.3198 117.606V119.816H45.5758V122.52H49.3198V124.73H45.5758V128.422H42.9758V114.876H45.5758V117.606H49.3198ZM39.1018 121.246V121.662C39.1018 125.588 36.3198 127.486 32.8098 127.486C29.2478 127.486 26.4398 125.588 26.4398 121.662V121.246C26.4398 117.294 29.2478 115.396 32.8098 115.396C36.3198 115.396 39.1018 117.294 39.1018 121.246ZM29.0398 121.272V121.61C29.0398 124.002 30.6518 125.198 32.8098 125.198C34.9158 125.198 36.5278 124.002 36.5278 121.61V121.272C36.5278 118.88 34.9158 117.684 32.8098 117.684C30.6518 117.684 29.0398 118.88 29.0398 121.272ZM42.9758 132.296H29.8718V129.93H45.5758V139.264H42.9758V132.296ZM73.3241 124.496V126.784H63.2881V130.242H70.5681V139.264H67.9681V132.53H53.4341V130.242H60.7141V126.784H50.6521V124.496H66.7981C67.2141 121.974 67.4741 119.426 67.4741 117.996H53.4341V115.656H70.0481V117.242C70.0481 119.322 69.8141 121.948 69.3981 124.496H73.3241Z" fill="white"/>
</g>
<g filter="url(#filter1_d_2103_8153)">
<path d="M62.3359 4C65.7797 4 68.7852 6.67421 68.7852 10.2617V16.9551H83.1006C89.9962 16.9551 95.5878 22.5432 95.5879 29.4385V72.7158C95.5879 79.6112 89.9963 85.1992 83.1006 85.1992H16.4873C9.59166 85.1992 4 79.6112 4 72.7158V29.4385C4.00008 22.5432 9.59171 16.9551 16.4873 16.9551H30.7568V10.2617C30.7568 6.6743 33.7614 4.00013 37.2051 4H62.3359ZM16.4873 21.9551C12.3513 21.9551 9.00008 25.3064 9 29.4385V72.7158C9 76.8479 12.3513 80.1992 16.4873 80.1992H83.1006C87.2366 80.1992 90.5879 76.848 90.5879 72.7158V29.4385C90.5878 25.3064 87.2366 21.9551 83.1006 21.9551H16.4873ZM49.7939 29.2129C62.3081 29.2129 72.4551 39.3545 72.4551 51.8662C72.4548 64.3777 62.308 74.5186 49.7939 74.5186C37.2801 74.5183 27.1341 64.3776 27.1338 51.8662C27.1338 39.3546 37.2799 29.2131 49.7939 29.2129ZM49.7939 34.2129C40.0396 34.2131 32.1338 42.1178 32.1338 51.8662C32.1341 61.6143 40.0397 69.5183 49.7939 69.5186C59.5483 69.5186 67.4548 61.6145 67.4551 51.8662C67.4551 42.1177 59.5485 34.2129 49.7939 34.2129ZM53.0928 48.3867H61.5928V54.9805H53.0928V63.4775H46.542V54.9805H37.9951V48.3867H46.542V39.8887H53.0928V48.3867ZM37.2051 9C36.2825 9.00012 35.7568 9.67012 35.7568 10.2617V16.9551H63.7852V10.2617C63.7852 9.67007 63.2587 9 62.3359 9H37.2051Z" fill="white"/>
</g>
<defs>
<filter id="filter0_d_2103_8153" x="22.4398" y="110.876" width="54.8843" height="32.388" filterUnits="userSpaceOnUse" color-interpolation-filters="sRGB">
<feFlood flood-opacity="0" result="BackgroundImageFix"/>
<feColorMatrix in="SourceAlpha" type="matrix" values="0 0 0 0 0 0 0 0 0 0 0 0 0 0 0 0 0 0 127 0" result="hardAlpha"/>
<feOffset/>
<feGaussianBlur stdDeviation="2"/>
<feComposite in2="hardAlpha" operator="out"/>
<feColorMatrix type="matrix" values="0 0 0 0 0.00392157 0 0 0 0 0.917647 0 0 0 0 0.839216 0 0 0 1 0"/>
<feBlend mode="normal" in2="BackgroundImageFix" result="effect1_dropShadow_2103_8153"/>
<feBlend mode="normal" in="SourceGraphic" in2="effect1_dropShadow_2103_8153" result="shape"/>
</filter>
<filter id="filter1_d_2103_8153" x="0" y="0" width="99.5879" height="89.1992" filterUnits="userSpaceOnUse" color-interpolation-filters="sRGB">
<feFlood flood-opacity="0" result="BackgroundImageFix"/>
<feColorMatrix in="SourceAlpha" type="matrix" values="0 0 0 0 0 0 0 0 0 0 0 0 0 0 0 0 0 0 127 0" result="hardAlpha"/>
<feOffset/>
<feGaussianBlur stdDeviation="2"/>
<feComposite in2="hardAlpha" operator="out"/>
<feColorMatrix type="matrix" values="0 0 0 0 0.00392157 0 0 0 0 0.917647 0 0 0 0 0.839216 0 0 0 1 0"/>
<feBlend mode="normal" in2="BackgroundImageFix" result="effect1_dropShadow_2103_8153"/>
<feBlend mode="normal" in="SourceGraphic" in2="effect1_dropShadow_2103_8153" result="shape"/>
</filter>
</defs>
</svg>
