<svg width="100" height="145" viewBox="0 0 100 145" fill="none" xmlns="http://www.w3.org/2000/svg">
<g filter="url(#filter0_d_2103_8231)">
<path d="M49.2938 117.866V119.504H45.2898V122.65H49.2938V124.288H45.2898V128.422H43.4438V114.928H45.2898V117.866H49.2938ZM38.8938 121.194V121.714C38.8938 125.484 36.1638 127.33 32.8098 127.33C29.3778 127.33 26.6738 125.484 26.6738 121.714V121.194C26.6738 117.424 29.3778 115.578 32.8098 115.578C36.1638 115.578 38.8938 117.424 38.8938 121.194ZM28.5198 121.246V121.662C28.5198 124.288 30.3138 125.666 32.8098 125.666C35.2278 125.666 37.0218 124.288 37.0218 121.662V121.246C37.0218 118.62 35.2278 117.242 32.8098 117.242C30.3138 117.242 28.5198 118.62 28.5198 121.246ZM43.4438 131.802H30.1058V130.112H45.2898V139.134H43.4438V131.802ZM73.2201 124.782V126.446H62.9241V130.372H70.3341V139.16H68.4621V132.036H53.6681V130.372H61.0781V126.446H50.7561V124.782H67.1621C67.6301 122 67.9161 119.14 67.9161 117.658V117.45H53.5901V115.76H69.7621V117.242C69.7621 119.322 69.4761 122.078 69.0081 124.782H73.2201Z" fill="#BFBFBF"/>
</g>
<g filter="url(#filter1_d_2103_8231)">
<path d="M62.3359 4C65.7797 4 68.7852 6.67421 68.7852 10.2617V16.9551H83.1006C89.9962 16.9551 95.5878 22.5432 95.5879 29.4385V72.7158C95.5879 79.6112 89.9963 85.1992 83.1006 85.1992H16.4873C9.59166 85.1992 4 79.6112 4 72.7158V29.4385C4.00008 22.5432 9.59171 16.9551 16.4873 16.9551H30.7568V10.2617C30.7568 6.6743 33.7614 4.00013 37.2051 4H62.3359ZM16.4873 21.9551C12.3513 21.9551 9.00008 25.3064 9 29.4385V72.7158C9 76.8479 12.3513 80.1992 16.4873 80.1992H83.1006C87.2366 80.1992 90.5879 76.848 90.5879 72.7158V29.4385C90.5878 25.3064 87.2366 21.9551 83.1006 21.9551H16.4873ZM49.7939 29.2129C62.3081 29.2129 72.4551 39.3545 72.4551 51.8662C72.4548 64.3777 62.308 74.5186 49.7939 74.5186C37.2801 74.5183 27.1341 64.3776 27.1338 51.8662C27.1338 39.3546 37.2799 29.2131 49.7939 29.2129ZM49.7939 34.2129C40.0396 34.2131 32.1338 42.1178 32.1338 51.8662C32.1341 61.6143 40.0397 69.5183 49.7939 69.5186C59.5483 69.5186 67.4548 61.6145 67.4551 51.8662C67.4551 42.1177 59.5485 34.2129 49.7939 34.2129ZM53.0928 48.3867H61.5928V54.9805H53.0928V63.4775H46.542V54.9805H37.9951V48.3867H46.542V39.8887H53.0928V48.3867ZM37.2051 9C36.2825 9.00012 35.7568 9.67012 35.7568 10.2617V16.9551H63.7852V10.2617C63.7852 9.67007 63.2587 9 62.3359 9H37.2051Z" fill="#BFBFBF"/>
</g>
<defs>
<filter id="filter0_d_2103_8231" x="22.6738" y="110.928" width="54.5463" height="32.232" filterUnits="userSpaceOnUse" color-interpolation-filters="sRGB">
<feFlood flood-opacity="0" result="BackgroundImageFix"/>
<feColorMatrix in="SourceAlpha" type="matrix" values="0 0 0 0 0 0 0 0 0 0 0 0 0 0 0 0 0 0 127 0" result="hardAlpha"/>
<feOffset/>
<feGaussianBlur stdDeviation="2"/>
<feComposite in2="hardAlpha" operator="out"/>
<feColorMatrix type="matrix" values="0 0 0 0 0.00392157 0 0 0 0 0.917647 0 0 0 0 0.839216 0 0 0 1 0"/>
<feBlend mode="normal" in2="BackgroundImageFix" result="effect1_dropShadow_2103_8231"/>
<feBlend mode="normal" in="SourceGraphic" in2="effect1_dropShadow_2103_8231" result="shape"/>
</filter>
<filter id="filter1_d_2103_8231" x="0" y="0" width="99.5879" height="89.1992" filterUnits="userSpaceOnUse" color-interpolation-filters="sRGB">
<feFlood flood-opacity="0" result="BackgroundImageFix"/>
<feColorMatrix in="SourceAlpha" type="matrix" values="0 0 0 0 0 0 0 0 0 0 0 0 0 0 0 0 0 0 127 0" result="hardAlpha"/>
<feOffset/>
<feGaussianBlur stdDeviation="2"/>
<feComposite in2="hardAlpha" operator="out"/>
<feColorMatrix type="matrix" values="0 0 0 0 0.00392157 0 0 0 0 0.917647 0 0 0 0 0.839216 0 0 0 1 0"/>
<feBlend mode="normal" in2="BackgroundImageFix" result="effect1_dropShadow_2103_8231"/>
<feBlend mode="normal" in="SourceGraphic" in2="effect1_dropShadow_2103_8231" result="shape"/>
</filter>
</defs>
</svg>
