<svg width="120" height="155" viewBox="0 0 120 155" fill="none" xmlns="http://www.w3.org/2000/svg">
<g filter="url(#filter0_d_2103_8224)">
<path d="M59.2198 127.506V129.716H55.4758V132.42H59.2198V134.63H55.4758V138.322H52.8758V124.776H55.4758V127.506H59.2198ZM49.0018 131.146V131.562C49.0018 135.488 46.2198 137.386 42.7098 137.386C39.1478 137.386 36.3398 135.488 36.3398 131.562V131.146C36.3398 127.194 39.1478 125.296 42.7098 125.296C46.2198 125.296 49.0018 127.194 49.0018 131.146ZM38.9398 131.172V131.51C38.9398 133.902 40.5518 135.098 42.7098 135.098C44.8158 135.098 46.4278 133.902 46.4278 131.51V131.172C46.4278 128.78 44.8158 127.584 42.7098 127.584C40.5518 127.584 38.9398 128.78 38.9398 131.172ZM52.8758 142.196H39.7718V139.83H55.4758V149.164H52.8758V142.196ZM83.2241 134.396V136.684H73.1881V140.142H80.4681V149.164H77.8681V142.43H63.3341V140.142H70.6141V136.684H60.5521V134.396H76.6981C77.1141 131.874 77.3741 129.326 77.3741 127.896H63.3341V125.556H79.9481V127.142C79.9481 129.222 79.7141 131.848 79.2981 134.396H83.2241Z" fill="white"/>
</g>
<g filter="url(#filter1_d_2103_8224)">
<path d="M72.236 13.9C75.6798 13.9 78.6852 16.5742 78.6852 20.1617V26.8551H93.0006C99.8963 26.8551 105.488 32.4432 105.488 39.3385V82.6158C105.488 89.5112 99.8963 95.0992 93.0006 95.0992H26.3873C19.4917 95.0992 13.9 89.5112 13.9 82.6158V39.3385C13.9001 32.4432 19.4917 26.8551 26.3873 26.8551H40.6569V20.1617C40.6569 16.5743 43.6614 13.9001 47.1051 13.9H72.236ZM26.3873 31.8551C22.2513 31.8551 18.9001 35.2064 18.9 39.3385V82.6158C18.9 86.7479 22.2513 90.0992 26.3873 90.0992H93.0006C97.1367 90.0992 100.488 86.748 100.488 82.6158V39.3385C100.488 35.2064 97.1366 31.8551 93.0006 31.8551H26.3873ZM59.694 39.1129C72.2081 39.1129 82.3551 49.2545 82.3551 61.7662C82.3548 74.2777 72.208 84.4185 59.694 84.4185C47.1801 84.4183 37.0341 74.2776 37.0338 61.7662C37.0338 49.2546 47.18 39.1131 59.694 39.1129ZM59.694 44.1129C49.9396 44.1131 42.0338 52.0178 42.0338 61.7662C42.0341 71.5143 49.9398 79.4183 59.694 79.4185C69.4484 79.4185 77.3548 71.5145 77.3551 61.7662C77.3551 52.0177 69.4485 44.1129 59.694 44.1129ZM62.9928 58.2867H71.4928V64.8805H62.9928V73.3775H56.442V64.8805H47.8951V58.2867H56.442V49.7887H62.9928V58.2867ZM47.1051 18.9C46.1825 18.9001 45.6569 19.5701 45.6569 20.1617V26.8551H73.6852V20.1617C73.6852 19.5701 73.1587 18.9 72.236 18.9H47.1051Z" fill="white"/>
</g>
<defs>
<filter id="filter0_d_2103_8224" x="32.3398" y="120.776" width="54.8843" height="32.388" filterUnits="userSpaceOnUse" color-interpolation-filters="sRGB">
<feFlood flood-opacity="0" result="BackgroundImageFix"/>
<feColorMatrix in="SourceAlpha" type="matrix" values="0 0 0 0 0 0 0 0 0 0 0 0 0 0 0 0 0 0 127 0" result="hardAlpha"/>
<feOffset/>
<feGaussianBlur stdDeviation="2"/>
<feComposite in2="hardAlpha" operator="out"/>
<feColorMatrix type="matrix" values="0 0 0 0 0.00392157 0 0 0 0 0.917647 0 0 0 0 0.839216 0 0 0 1 0"/>
<feBlend mode="normal" in2="BackgroundImageFix" result="effect1_dropShadow_2103_8224"/>
<feBlend mode="normal" in="SourceGraphic" in2="effect1_dropShadow_2103_8224" result="shape"/>
</filter>
<filter id="filter1_d_2103_8224" x="2.47955e-05" y="-5.72205e-06" width="119.388" height="108.999" filterUnits="userSpaceOnUse" color-interpolation-filters="sRGB">
<feFlood flood-opacity="0" result="BackgroundImageFix"/>
<feColorMatrix in="SourceAlpha" type="matrix" values="0 0 0 0 0 0 0 0 0 0 0 0 0 0 0 0 0 0 127 0" result="hardAlpha"/>
<feOffset/>
<feGaussianBlur stdDeviation="6.95"/>
<feComposite in2="hardAlpha" operator="out"/>
<feColorMatrix type="matrix" values="0 0 0 0 0.00392157 0 0 0 0 0.917647 0 0 0 0 0.839216 0 0 0 1 0"/>
<feBlend mode="normal" in2="BackgroundImageFix" result="effect1_dropShadow_2103_8224"/>
<feBlend mode="normal" in="SourceGraphic" in2="effect1_dropShadow_2103_8224" result="shape"/>
</filter>
</defs>
</svg>
