<svg width="163" height="172" viewBox="0 0 163 172" fill="none" xmlns="http://www.w3.org/2000/svg">
<g filter="url(#filter0_d_2103_8414)">
<path d="M45.5602 11.8H24.142V33.2182" stroke="#FFE674" stroke-width="5"/>
</g>
<g filter="url(#filter1_d_2103_8414)">
<path d="M125.597 124.218L147.015 124.218L147.015 102.8" stroke="#FFE674" stroke-width="5"/>
</g>
<g filter="url(#filter2_d_2103_8414)">
<path d="M147.015 33.2182L147.015 11.8L125.597 11.8" stroke="#FFE674" stroke-width="5"/>
</g>
<g filter="url(#filter3_d_2103_8414)">
<path d="M24.142 102.8L24.142 124.218L45.5602 124.218" stroke="#FFE674" stroke-width="5"/>
</g>
<g filter="url(#filter4_d_2103_8414)">
<path d="M23.63 146.72H27.322V149.086H23.63V154.702H21.108V141.676H23.63V146.72ZM4.85797 142.95H10.864V144.328C10.864 148.15 9.22597 151.634 5.58597 154.572L3.99997 152.622C6.88597 150.204 8.15997 147.656 8.28997 145.316H4.85797V142.95ZM17.936 142.95V144.354C17.936 148.332 16.324 152.31 12.684 155.248L11.072 153.324C13.984 150.88 15.232 147.838 15.362 145.316H12.034V142.95H17.936ZM23.63 165.804H8.15997V156.236H23.63V165.804ZM21.03 158.524H10.76V163.464H21.03V158.524ZM48.2583 147.084H51.6903V149.476H48.2583V155.456H45.7363V141.676H48.2583V147.084ZM36.0123 155.222L32.7363 151.062C31.9823 152.544 30.9163 154 29.4863 155.274L27.9783 153.662C30.6043 151.14 31.8783 148.098 31.9303 145.056H28.9923V142.82H35.6743V145.056H34.2443C34.2183 146.2 34.0623 147.396 33.7243 148.592L36.1163 151.764C37.4943 150.152 38.3263 147.812 38.3783 145.056H36.7923V142.82H43.4743V145.056H40.6923C40.6663 146.2 40.5623 147.344 40.3023 148.41L44.2803 153.532L42.6163 155.014L39.4183 150.958C38.6903 152.518 37.5723 153.974 36.0123 155.222ZM45.6843 159.356H32.4243V156.99H48.2583V166.064H45.6843V159.356ZM77.5436 165.804V141.676H80.0656V165.804H77.5436ZM68.4696 149.996H72.3176V142.04H74.7876V165.31H72.3176V152.362H68.4696V149.996ZM66.0256 143.08V146.278C66.0256 148.306 65.8436 150.23 65.4536 152.076L70.8356 160.786L68.7556 162.268L64.5436 155.404C63.6596 157.9 62.3856 160.266 60.6696 162.528L58.6936 160.968C61.9696 156.6 63.5556 151.946 63.5556 146.278V143.08H66.0256ZM104.096 153.454H101.522V141.676H104.096V153.454ZM90.8359 152.908C87.1959 152.908 84.3619 151.166 84.3619 147.682V147.292C84.3619 143.782 87.1959 142.066 90.8359 142.066C94.4239 142.066 97.2839 143.782 97.2839 147.292V147.682C97.2839 151.166 94.4239 152.908 90.8359 152.908ZM90.8359 150.62C93.0459 150.62 94.6839 149.606 94.6839 147.63V147.344C94.6839 145.368 93.0459 144.354 90.8359 144.354C88.5999 144.354 86.9619 145.368 86.9619 147.344V147.63C86.9619 149.606 88.5999 150.62 90.8359 150.62ZM105.006 165.934H88.1579V159.304H101.522V157.12H88.0279V154.962H104.096V161.436H90.7579V163.724H105.006V165.934ZM131.379 149.866C131.509 148.514 131.561 147.292 131.561 146.408V145.888H116.403V143.548H134.161V145.68C134.161 149.164 133.615 154.052 132.913 158.134L130.365 157.744C130.677 156.002 130.963 154.052 131.145 152.206C127.349 152.57 121.603 152.778 118.093 152.778H116.403L116.273 150.49H118.327C121.473 150.49 127.505 150.282 131.379 149.866ZM125.061 154.962V161.618H136.605V164.01H113.933V161.618H122.487V154.962H125.061ZM156.424 149.242V141.676H158.998V165.804H156.424V151.608H148.676V149.242H156.424ZM142.514 159.512H144.516C147.272 159.512 150.704 159.226 153.798 158.732L154.11 161.02C151.172 161.54 147.532 161.878 144.074 161.878H139.888V143.444H142.514V159.512Z" fill="#FFE674"/>
</g>
<g filter="url(#filter5_d_2103_8414)">
<path d="M126.742 23.5324C127.718 22.5562 129.3 22.5561 130.277 23.5324C131.253 24.5087 131.253 26.0913 130.277 27.0676L122.834 34.509L124.608 63.1662L124.678 64.2932L123.879 65.09L70.0287 118.87L68.2611 120.635L66.4945 118.869L34.9115 87.298L33.142 85.5295L34.9125 83.7619L88.7631 29.9816L89.558 29.1867L90.6801 29.2551L119.294 30.9787L126.742 23.5324ZM40.2162 85.5305L68.2621 113.567L119.547 62.3488L118.116 39.2277L116.182 41.1613C117.104 42.6253 117.639 44.3573 117.639 46.215C117.639 51.4617 113.386 55.715 108.139 55.715C102.892 55.715 98.639 51.4617 98.639 46.215C98.6391 40.9684 102.892 36.715 108.139 36.715C109.711 36.715 111.193 37.0988 112.498 37.7746L114.571 35.7023L91.5004 34.3127L40.2162 85.5305ZM58.8969 83.6887C61.2879 81.2988 64.3262 80.9998 66.2689 82.842L64.5258 84.5851C63.3302 83.5892 61.736 83.9379 60.391 85.2824H60.2914C58.8467 86.7265 58.6974 88.3695 59.6937 89.3654C60.7897 90.4608 62.4337 89.7139 63.6293 89.0168L65.0736 88.1701C66.9665 87.0249 69.6563 85.9796 71.7982 88.0705C73.7908 90.0624 73.6416 93.1003 70.8519 95.8889C68.2117 98.528 65.2723 98.8768 62.9808 96.8351L64.7748 95.0422C66.1696 96.2373 67.9132 95.6894 69.308 94.3449C70.8022 92.8511 71.1509 91.0087 70.0052 89.8137C68.9591 88.768 67.5642 89.3656 66.0199 90.2619L64.2767 91.258C61.8856 92.6523 59.7429 92.8515 58.099 91.258C56.0567 89.2163 56.5556 86.0789 58.8969 83.6887ZM86.3949 79.9045L84.5013 81.7971L80.3168 79.7551L75.7338 84.3361L77.7767 88.5197L75.8832 90.4113L68.3617 74.4269L70.4037 72.3849L86.3949 79.9045ZM71.4496 75.6223L74.7377 82.3449L78.2748 78.8088H78.3246L71.5492 75.5226L71.4496 75.6223ZM88.1381 75.1242L93.4681 69.7961L95.0131 71.34L87.9388 78.4113L76.183 66.6594L77.9261 64.9162L88.1381 75.1242ZM93.9662 51.968L88.3871 57.5451L91.9242 61.0803L97.1049 55.9016L98.6488 57.4455L93.4681 62.6242L97.0551 66.2101L102.684 60.5832L104.228 62.1262L96.806 69.5461L85.0492 57.7941L92.4222 50.424L93.9662 51.968ZM108.139 41.715C105.654 41.715 103.639 43.7298 103.639 46.215C103.639 48.7003 105.654 50.715 108.139 50.715C110.624 50.715 112.639 48.7003 112.639 46.215C112.639 45.7576 112.57 45.3165 112.443 44.9006L111.277 46.0676C110.3 47.0438 108.718 47.0437 107.742 46.0676C106.765 45.0913 106.765 43.5087 107.742 42.5324L108.539 41.7336C108.407 41.7219 108.274 41.715 108.139 41.715Z" fill="#FFE674"/>
</g>
<defs>
<filter id="filter0_d_2103_8414" x="12.342" y="-1.23978e-05" width="42.5182" height="42.5182" filterUnits="userSpaceOnUse" color-interpolation-filters="sRGB">
<feFlood flood-opacity="0" result="BackgroundImageFix"/>
<feColorMatrix in="SourceAlpha" type="matrix" values="0 0 0 0 0 0 0 0 0 0 0 0 0 0 0 0 0 0 127 0" result="hardAlpha"/>
<feOffset/>
<feGaussianBlur stdDeviation="4.65"/>
<feComposite in2="hardAlpha" operator="out"/>
<feColorMatrix type="matrix" values="0 0 0 0 0.996078 0 0 0 0 0.541176 0 0 0 0 0.00392157 0 0 0 1 0"/>
<feBlend mode="normal" in2="BackgroundImageFix" result="effect1_dropShadow_2103_8414"/>
<feBlend mode="normal" in="SourceGraphic" in2="effect1_dropShadow_2103_8414" result="shape"/>
</filter>
<filter id="filter1_d_2103_8414" x="116.297" y="93.5" width="42.5182" height="42.5182" filterUnits="userSpaceOnUse" color-interpolation-filters="sRGB">
<feFlood flood-opacity="0" result="BackgroundImageFix"/>
<feColorMatrix in="SourceAlpha" type="matrix" values="0 0 0 0 0 0 0 0 0 0 0 0 0 0 0 0 0 0 127 0" result="hardAlpha"/>
<feOffset/>
<feGaussianBlur stdDeviation="4.65"/>
<feComposite in2="hardAlpha" operator="out"/>
<feColorMatrix type="matrix" values="0 0 0 0 0.996078 0 0 0 0 0.541176 0 0 0 0 0.00392157 0 0 0 1 0"/>
<feBlend mode="normal" in2="BackgroundImageFix" result="effect1_dropShadow_2103_8414"/>
<feBlend mode="normal" in="SourceGraphic" in2="effect1_dropShadow_2103_8414" result="shape"/>
</filter>
<filter id="filter2_d_2103_8414" x="116.297" y="-1.23978e-05" width="42.5182" height="42.5182" filterUnits="userSpaceOnUse" color-interpolation-filters="sRGB">
<feFlood flood-opacity="0" result="BackgroundImageFix"/>
<feColorMatrix in="SourceAlpha" type="matrix" values="0 0 0 0 0 0 0 0 0 0 0 0 0 0 0 0 0 0 127 0" result="hardAlpha"/>
<feOffset/>
<feGaussianBlur stdDeviation="4.65"/>
<feComposite in2="hardAlpha" operator="out"/>
<feColorMatrix type="matrix" values="0 0 0 0 0.996078 0 0 0 0 0.541176 0 0 0 0 0.00392157 0 0 0 1 0"/>
<feBlend mode="normal" in2="BackgroundImageFix" result="effect1_dropShadow_2103_8414"/>
<feBlend mode="normal" in="SourceGraphic" in2="effect1_dropShadow_2103_8414" result="shape"/>
</filter>
<filter id="filter3_d_2103_8414" x="12.342" y="93.5" width="42.5182" height="42.5182" filterUnits="userSpaceOnUse" color-interpolation-filters="sRGB">
<feFlood flood-opacity="0" result="BackgroundImageFix"/>
<feColorMatrix in="SourceAlpha" type="matrix" values="0 0 0 0 0 0 0 0 0 0 0 0 0 0 0 0 0 0 127 0" result="hardAlpha"/>
<feOffset/>
<feGaussianBlur stdDeviation="4.65"/>
<feComposite in2="hardAlpha" operator="out"/>
<feColorMatrix type="matrix" values="0 0 0 0 0.996078 0 0 0 0 0.541176 0 0 0 0 0.00392157 0 0 0 1 0"/>
<feBlend mode="normal" in2="BackgroundImageFix" result="effect1_dropShadow_2103_8414"/>
<feBlend mode="normal" in="SourceGraphic" in2="effect1_dropShadow_2103_8414" result="shape"/>
</filter>
<filter id="filter4_d_2103_8414" x="0" y="137.676" width="162.998" height="32.3881" filterUnits="userSpaceOnUse" color-interpolation-filters="sRGB">
<feFlood flood-opacity="0" result="BackgroundImageFix"/>
<feColorMatrix in="SourceAlpha" type="matrix" values="0 0 0 0 0 0 0 0 0 0 0 0 0 0 0 0 0 0 127 0" result="hardAlpha"/>
<feOffset/>
<feGaussianBlur stdDeviation="2"/>
<feComposite in2="hardAlpha" operator="out"/>
<feColorMatrix type="matrix" values="0 0 0 0 0.996078 0 0 0 0 0.541176 0 0 0 0 0.00392157 0 0 0 1 0"/>
<feBlend mode="normal" in2="BackgroundImageFix" result="effect1_dropShadow_2103_8414"/>
<feBlend mode="normal" in="SourceGraphic" in2="effect1_dropShadow_2103_8414" result="shape"/>
</filter>
<filter id="filter5_d_2103_8414" x="29.142" y="18.8002" width="105.867" height="105.835" filterUnits="userSpaceOnUse" color-interpolation-filters="sRGB">
<feFlood flood-opacity="0" result="BackgroundImageFix"/>
<feColorMatrix in="SourceAlpha" type="matrix" values="0 0 0 0 0 0 0 0 0 0 0 0 0 0 0 0 0 0 127 0" result="hardAlpha"/>
<feOffset/>
<feGaussianBlur stdDeviation="2"/>
<feComposite in2="hardAlpha" operator="out"/>
<feColorMatrix type="matrix" values="0 0 0 0 0.996078 0 0 0 0 0.541176 0 0 0 0 0.00392157 0 0 0 1 0"/>
<feBlend mode="normal" in2="BackgroundImageFix" result="effect1_dropShadow_2103_8414"/>
<feBlend mode="normal" in="SourceGraphic" in2="effect1_dropShadow_2103_8414" result="shape"/>
</filter>
</defs>
</svg>
