<svg width="163" height="153" viewBox="0 0 163 153" fill="none" xmlns="http://www.w3.org/2000/svg">
<g filter="url(#filter0_d_2103_8187)">
<path d="M23.63 127.92H27.322V130.286H23.63V135.902H21.108V122.876H23.63V127.92ZM4.85797 124.15H10.864V125.528C10.864 129.35 9.22597 132.834 5.58597 135.772L3.99997 133.822C6.88597 131.404 8.15997 128.856 8.28997 126.516H4.85797V124.15ZM17.936 124.15V125.554C17.936 129.532 16.324 133.51 12.684 136.448L11.072 134.524C13.984 132.08 15.232 129.038 15.362 126.516H12.034V124.15H17.936ZM23.63 147.004H8.15997V137.436H23.63V147.004ZM21.03 139.724H10.76V144.664H21.03V139.724ZM48.2583 128.284H51.6903V130.676H48.2583V136.656H45.7363V122.876H48.2583V128.284ZM36.0123 136.422L32.7363 132.262C31.9823 133.744 30.9163 135.2 29.4863 136.474L27.9783 134.862C30.6043 132.34 31.8783 129.298 31.9303 126.256H28.9923V124.02H35.6743V126.256H34.2443C34.2183 127.4 34.0623 128.596 33.7243 129.792L36.1163 132.964C37.4943 131.352 38.3263 129.012 38.3783 126.256H36.7923V124.02H43.4743V126.256H40.6923C40.6663 127.4 40.5623 128.544 40.3023 129.61L44.2803 134.732L42.6163 136.214L39.4183 132.158C38.6903 133.718 37.5723 135.174 36.0123 136.422ZM45.6843 140.556H32.4243V138.19H48.2583V147.264H45.6843V140.556ZM77.5436 147.004V122.876H80.0656V147.004H77.5436ZM68.4696 131.196H72.3176V123.24H74.7876V146.51H72.3176V133.562H68.4696V131.196ZM66.0256 124.28V127.478C66.0256 129.506 65.8436 131.43 65.4536 133.276L70.8356 141.986L68.7556 143.468L64.5436 136.604C63.6596 139.1 62.3856 141.466 60.6696 143.728L58.6936 142.168C61.9696 137.8 63.5556 133.146 63.5556 127.478V124.28H66.0256ZM104.096 134.654H101.522V122.876H104.096V134.654ZM90.8359 134.108C87.1959 134.108 84.3619 132.366 84.3619 128.882V128.492C84.3619 124.982 87.1959 123.266 90.8359 123.266C94.4239 123.266 97.2839 124.982 97.2839 128.492V128.882C97.2839 132.366 94.4239 134.108 90.8359 134.108ZM90.8359 131.82C93.0459 131.82 94.6839 130.806 94.6839 128.83V128.544C94.6839 126.568 93.0459 125.554 90.8359 125.554C88.5999 125.554 86.9619 126.568 86.9619 128.544V128.83C86.9619 130.806 88.5999 131.82 90.8359 131.82ZM105.006 147.134H88.1579V140.504H101.522V138.32H88.0279V136.162H104.096V142.636H90.7579V144.924H105.006V147.134ZM131.379 131.066C131.509 129.714 131.561 128.492 131.561 127.608V127.088H116.403V124.748H134.161V126.88C134.161 130.364 133.615 135.252 132.913 139.334L130.365 138.944C130.677 137.202 130.963 135.252 131.145 133.406C127.349 133.77 121.603 133.978 118.093 133.978H116.403L116.273 131.69H118.327C121.473 131.69 127.505 131.482 131.379 131.066ZM125.061 136.162V142.818H136.605V145.21H113.933V142.818H122.487V136.162H125.061ZM156.424 130.442V122.876H158.998V147.004H156.424V132.808H148.676V130.442H156.424ZM142.514 140.712H144.516C147.272 140.712 150.704 140.426 153.798 139.932L154.11 142.22C151.172 142.74 147.532 143.078 144.074 143.078H139.888V124.644H142.514V140.712Z" fill="white"/>
</g>
<g filter="url(#filter1_d_2103_8187)">
<path d="M127.131 4.73218C128.108 3.75596 129.69 3.7559 130.666 4.73218C131.643 5.70847 131.643 7.29107 130.666 8.26733L123.224 15.7087L124.997 44.366L125.068 45.4929L124.269 46.2898L70.4183 100.07L68.6508 101.835L66.8842 100.069L35.3011 68.4978L33.5316 66.7292L35.3021 64.9617L89.1527 11.1814L89.9476 10.3865L91.0697 10.4548L119.684 12.1785L127.131 4.73218ZM40.6058 66.7302L68.6517 94.7664L119.937 43.5486L118.505 20.4275L116.572 22.3611C117.493 23.825 118.029 25.557 118.029 27.4148C118.029 32.6615 113.775 36.9148 108.529 36.9148C103.282 36.9148 99.0287 32.6615 99.0287 27.4148C99.0288 22.1682 103.282 17.9148 108.529 17.9148C110.101 17.9148 111.582 18.2986 112.888 18.9744L114.96 16.9021L91.89 15.5125L40.6058 66.7302ZM59.2865 64.8884C61.6775 62.4986 64.7158 62.1996 66.6586 64.0417L64.9154 65.7849C63.7198 64.789 62.1257 65.1377 60.7806 66.4822H60.681C59.2364 67.9263 59.0871 69.5693 60.0834 70.5652C61.1793 71.6606 62.8234 70.9137 64.0189 70.2166L65.4633 69.3699C67.3561 68.2247 70.046 67.1794 72.1879 69.2703C74.1805 71.2621 74.0312 74.3 71.2416 77.0886C68.6014 79.7278 65.662 80.0766 63.3705 78.0349L65.1644 76.2419C66.5593 77.4371 68.3028 76.8892 69.6976 75.5447C71.1919 74.0508 71.5406 72.2085 70.3949 71.0134C69.3488 69.9678 67.9538 70.5653 66.4095 71.4617L64.6664 72.4578C62.2752 73.8521 60.1326 74.0512 58.4886 72.4578C56.4463 70.4161 56.9452 67.2786 59.2865 64.8884ZM86.7845 61.1042L84.891 62.9968L80.7064 60.9548L76.1234 65.5359L78.1664 69.7195L76.2728 71.6111L68.7513 55.6267L70.7933 53.5847L86.7845 61.1042ZM71.8392 56.822L75.1273 63.5447L78.6644 60.0085H78.7142L71.9388 56.7224L71.8392 56.822ZM88.5277 56.324L93.8578 50.9958L95.4027 52.5398L88.3285 59.6111L76.5726 47.8591L78.3158 46.116L88.5277 56.324ZM94.3558 33.1677L88.7767 38.7449L92.3138 42.28L97.4945 37.1013L99.0385 38.6453L93.8578 43.824L97.4447 47.4099L103.074 41.783L104.618 43.3259L97.1957 50.7458L85.4388 38.9939L92.8119 31.6238L94.3558 33.1677ZM108.529 22.9148C106.043 22.9148 104.029 24.9296 104.029 27.4148C104.029 29.9001 106.043 31.9148 108.529 31.9148C111.014 31.9148 113.029 29.9001 113.029 27.4148C113.029 26.9574 112.959 26.5162 112.832 26.1003L111.666 27.2673C110.69 28.2436 109.108 28.2435 108.131 27.2673C107.155 26.291 107.155 24.7085 108.131 23.7322L108.929 22.9333C108.797 22.9217 108.664 22.9148 108.529 22.9148Z" fill="white"/>
</g>
<defs>
<filter id="filter0_d_2103_8187" x="0" y="118.876" width="162.998" height="32.388" filterUnits="userSpaceOnUse" color-interpolation-filters="sRGB">
<feFlood flood-opacity="0" result="BackgroundImageFix"/>
<feColorMatrix in="SourceAlpha" type="matrix" values="0 0 0 0 0 0 0 0 0 0 0 0 0 0 0 0 0 0 127 0" result="hardAlpha"/>
<feOffset/>
<feGaussianBlur stdDeviation="2"/>
<feComposite in2="hardAlpha" operator="out"/>
<feColorMatrix type="matrix" values="0 0 0 0 0.00392157 0 0 0 0 0.917647 0 0 0 0 0.839216 0 0 0 1 0"/>
<feBlend mode="normal" in2="BackgroundImageFix" result="effect1_dropShadow_2103_8187"/>
<feBlend mode="normal" in="SourceGraphic" in2="effect1_dropShadow_2103_8187" result="shape"/>
</filter>
<filter id="filter1_d_2103_8187" x="29.5316" y="0" width="105.867" height="105.835" filterUnits="userSpaceOnUse" color-interpolation-filters="sRGB">
<feFlood flood-opacity="0" result="BackgroundImageFix"/>
<feColorMatrix in="SourceAlpha" type="matrix" values="0 0 0 0 0 0 0 0 0 0 0 0 0 0 0 0 0 0 127 0" result="hardAlpha"/>
<feOffset/>
<feGaussianBlur stdDeviation="2"/>
<feComposite in2="hardAlpha" operator="out"/>
<feColorMatrix type="matrix" values="0 0 0 0 0.00392157 0 0 0 0 0.917647 0 0 0 0 0.839216 0 0 0 1 0"/>
<feBlend mode="normal" in2="BackgroundImageFix" result="effect1_dropShadow_2103_8187"/>
<feBlend mode="normal" in="SourceGraphic" in2="effect1_dropShadow_2103_8187" result="shape"/>
</filter>
</defs>
</svg>
