<svg width="163" height="153" viewBox="0 0 163 153" fill="none" xmlns="http://www.w3.org/2000/svg">
<g filter="url(#filter0_d_2103_8303)">
<path d="M22.954 128.284H26.906V129.974H22.954V135.902H21.134V122.902H22.954V128.284ZM4.70205 124.332H10.396V125.476C10.396 129.09 8.70605 132.73 5.19605 135.642L4.00005 134.238C6.96405 131.716 8.49805 128.7 8.55005 126.022H4.70205V124.332ZM12.164 136.318L10.994 134.94C13.984 132.366 15.466 128.934 15.518 126.022H11.748V124.332H17.364V125.502C17.364 129.324 15.7 133.406 12.164 136.318ZM22.954 146.9H8.03005V137.618H22.954V146.9ZM21.108 139.282H9.90205V145.21H21.108V139.282ZM47.5823 128.648H51.3003V130.364H47.5823V136.656H45.7623V122.928H47.5823V128.648ZM35.6743 136.292L32.3203 131.638C31.5663 133.302 30.4223 134.914 28.8883 136.318L27.8223 135.122C30.5003 132.548 31.8523 129.272 31.8523 126.152V125.84H28.7843V124.202H35.2583V125.84H33.5683V126.152C33.5683 127.322 33.3863 128.544 33.0483 129.74L35.7783 133.744C37.3643 131.794 38.3523 129.246 38.3523 126.1V125.84H36.5583V124.202H43.0583V125.84H40.0943V126.1C40.0943 127.296 39.9643 128.44 39.7043 129.532L43.7343 134.992L42.4863 136.084L39.0803 131.534C38.3523 133.302 37.2083 134.914 35.6743 136.292ZM45.7363 140.062H32.2943V138.372H47.5823V147.134H45.7363V140.062ZM77.4669 146.9V122.902H79.2869V146.9H77.4669ZM68.0549 131.534H72.2929V123.292H74.0869V146.458H72.2929V133.25H68.0549V131.534ZM65.3249 124.384V127.452C65.3249 129.506 65.1169 131.43 64.7269 133.276L70.3949 142.194L68.8869 143.286L64.0509 135.668C63.1409 138.45 61.7109 141.05 59.7609 143.572L58.3829 142.376C61.7369 138.034 63.5049 133.406 63.5049 127.452V124.384H65.3249ZM103.395 134.654H101.549V122.902H103.395V134.654ZM90.4212 133.952C86.9372 133.952 84.1552 132.262 84.1552 128.908V128.492C84.1552 125.112 86.9372 123.448 90.4212 123.448C93.8532 123.448 96.6352 125.112 96.6352 128.492V128.908C96.6352 132.262 93.8532 133.952 90.4212 133.952ZM90.4212 132.262C92.9432 132.262 94.7892 131.092 94.7892 128.856V128.518C94.7892 126.334 92.9432 125.112 90.4212 125.112C87.8472 125.112 86.0272 126.334 86.0272 128.518V128.856C86.0272 131.092 87.8472 132.262 90.4212 132.262ZM104.409 147.03H87.9772V140.816H101.549V137.956H87.8732V136.37H103.395V142.428H89.8492V145.392H104.409V147.03ZM131.382 131.248C131.512 129.74 131.59 128.414 131.59 127.426V126.62H116.12V124.93H133.436V127.01C133.436 130.39 132.864 135.304 132.11 139.386L130.29 139.074C130.654 137.124 130.992 134.966 131.2 132.964C127.482 133.328 121.528 133.588 117.888 133.588H116.068L115.99 131.898H118.018C121.216 131.898 127.534 131.664 131.382 131.248ZM124.362 136.11V143.26H136.036V144.976H113.572V143.26H122.516V136.11H124.362ZM156.4 130.78V122.902H158.246V146.9H156.4V132.496H148.21V130.78H156.4ZM141.502 141.206H143.66C146.572 141.206 150.42 140.868 153.54 140.374L153.748 142.012C150.862 142.532 146.858 142.896 143.322 142.896H139.656V124.826H141.502V141.206Z" fill="#BFBFBF"/>
</g>
<g filter="url(#filter1_d_2103_8303)">
<path d="M126.642 4.73218C127.619 3.75596 129.201 3.7559 130.178 4.73218C131.154 5.70847 131.154 7.29107 130.178 8.26733L122.735 15.7087L124.509 44.366L124.579 45.4929L123.78 46.2898L69.9296 100.07L68.162 101.835L66.3954 100.069L34.8124 68.4978L33.0428 66.7292L34.8134 64.9617L88.6639 11.1814L89.4589 10.3865L90.5809 10.4548L119.195 12.1785L126.642 4.73218ZM40.1171 66.7302L68.163 94.7664L119.448 43.5486L118.016 20.4275L116.083 22.3611C117.005 23.825 117.54 25.557 117.54 27.4148C117.54 32.6615 113.287 36.9148 108.04 36.9148C102.793 36.9148 98.5399 32.6615 98.5399 27.4148C98.54 22.1682 102.793 17.9148 108.04 17.9148C109.612 17.9148 111.093 18.2986 112.399 18.9744L114.472 16.9021L91.4012 15.5125L40.1171 66.7302ZM58.7977 64.8884C61.1887 62.4986 64.2271 62.1996 66.1698 64.0417L64.4266 65.7849C63.2311 64.789 61.6369 65.1377 60.2919 66.4822H60.1923C58.7476 67.9263 58.5983 69.5693 59.5946 70.5652C60.6905 71.6606 62.3346 70.9137 63.5302 70.2166L64.9745 69.3699C66.8674 68.2247 69.5572 67.1794 71.6991 69.2703C73.6917 71.2621 73.5425 74.3 70.7528 77.0886C68.1126 79.7278 65.1732 80.0766 62.8817 78.0349L64.6757 76.2419C66.0705 77.4371 67.814 76.8892 69.2089 75.5447C70.7031 74.0508 71.0518 72.2085 69.9061 71.0134C68.86 69.9678 67.465 70.5653 65.9208 71.4617L64.1776 72.4578C61.7865 73.8521 59.6438 74.0512 57.9999 72.4578C55.9575 70.4161 56.4564 67.2786 58.7977 64.8884ZM86.2958 61.1042L84.4022 62.9968L80.2177 60.9548L75.6346 65.5359L77.6776 69.7195L75.7841 71.6111L68.2626 55.6267L70.3046 53.5847L86.2958 61.1042ZM71.3505 56.822L74.6385 63.5447L78.1757 60.0085H78.2255L71.4501 56.7224L71.3505 56.822ZM88.0389 56.324L93.369 50.9958L94.9139 52.5398L87.8397 59.6111L76.0839 47.8591L77.827 46.116L88.0389 56.324ZM93.8671 33.1677L88.288 38.7449L91.8251 42.28L97.0057 37.1013L98.5497 38.6453L93.369 43.824L96.9559 47.4099L102.585 41.783L104.129 43.3259L96.7069 50.7458L84.9501 38.9939L92.3231 31.6238L93.8671 33.1677ZM108.04 22.9148C105.555 22.9148 103.54 24.9296 103.54 27.4148C103.54 29.9001 105.555 31.9148 108.04 31.9148C110.525 31.9148 112.54 29.9001 112.54 27.4148C112.54 26.9574 112.471 26.5162 112.344 26.1003L111.178 27.2673C110.201 28.2436 108.619 28.2435 107.642 27.2673C106.666 26.291 106.666 24.7085 107.642 23.7322L108.44 22.9333C108.308 22.9217 108.175 22.9148 108.04 22.9148Z" fill="#BFBFBF"/>
</g>
<defs>
<filter id="filter0_d_2103_8303" x="0" y="118.902" width="162.246" height="32.232" filterUnits="userSpaceOnUse" color-interpolation-filters="sRGB">
<feFlood flood-opacity="0" result="BackgroundImageFix"/>
<feColorMatrix in="SourceAlpha" type="matrix" values="0 0 0 0 0 0 0 0 0 0 0 0 0 0 0 0 0 0 127 0" result="hardAlpha"/>
<feOffset/>
<feGaussianBlur stdDeviation="2"/>
<feComposite in2="hardAlpha" operator="out"/>
<feColorMatrix type="matrix" values="0 0 0 0 0.00392157 0 0 0 0 0.917647 0 0 0 0 0.839216 0 0 0 1 0"/>
<feBlend mode="normal" in2="BackgroundImageFix" result="effect1_dropShadow_2103_8303"/>
<feBlend mode="normal" in="SourceGraphic" in2="effect1_dropShadow_2103_8303" result="shape"/>
</filter>
<filter id="filter1_d_2103_8303" x="29.0428" y="0" width="105.867" height="105.835" filterUnits="userSpaceOnUse" color-interpolation-filters="sRGB">
<feFlood flood-opacity="0" result="BackgroundImageFix"/>
<feColorMatrix in="SourceAlpha" type="matrix" values="0 0 0 0 0 0 0 0 0 0 0 0 0 0 0 0 0 0 127 0" result="hardAlpha"/>
<feOffset/>
<feGaussianBlur stdDeviation="2"/>
<feComposite in2="hardAlpha" operator="out"/>
<feColorMatrix type="matrix" values="0 0 0 0 0.00392157 0 0 0 0 0.917647 0 0 0 0 0.839216 0 0 0 1 0"/>
<feBlend mode="normal" in2="BackgroundImageFix" result="effect1_dropShadow_2103_8303"/>
<feBlend mode="normal" in="SourceGraphic" in2="effect1_dropShadow_2103_8303" result="shape"/>
</filter>
</defs>
</svg>
