<svg width="163" height="163" viewBox="0 0 163 163" fill="none" xmlns="http://www.w3.org/2000/svg">
<g filter="url(#filter0_d_2103_8292)">
<path d="M23.6301 137.82H27.3221V140.186H23.6301V145.802H21.1081V132.776H23.6301V137.82ZM4.85806 134.05H10.8641V135.428C10.8641 139.25 9.22606 142.734 5.58606 145.672L4.00006 143.722C6.88606 141.304 8.16006 138.756 8.29006 136.416H4.85806V134.05ZM17.9361 134.05V135.454C17.9361 139.432 16.3241 143.41 12.6841 146.348L11.0721 144.424C13.9841 141.98 15.2321 138.938 15.3621 136.416H12.0341V134.05H17.9361ZM23.6301 156.904H8.16006V147.336H23.6301V156.904ZM21.0301 149.624H10.7601V154.564H21.0301V149.624ZM48.2584 138.184H51.6904V140.576H48.2584V146.556H45.7364V132.776H48.2584V138.184ZM36.0124 146.322L32.7364 142.162C31.9824 143.644 30.9164 145.1 29.4864 146.374L27.9784 144.762C30.6044 142.24 31.8784 139.198 31.9304 136.156H28.9924V133.92H35.6744V136.156H34.2444C34.2184 137.3 34.0624 138.496 33.7244 139.692L36.1164 142.864C37.4944 141.252 38.3264 138.912 38.3784 136.156H36.7924V133.92H43.4744V136.156H40.6924C40.6664 137.3 40.5624 138.444 40.3024 139.51L44.2804 144.632L42.6164 146.114L39.4184 142.058C38.6904 143.618 37.5724 145.074 36.0124 146.322ZM45.6844 150.456H32.4244V148.09H48.2584V157.164H45.6844V150.456ZM77.5437 156.904V132.776H80.0657V156.904H77.5437ZM68.4697 141.096H72.3177V133.14H74.7877V156.41H72.3177V143.462H68.4697V141.096ZM66.0257 134.18V137.378C66.0257 139.406 65.8437 141.33 65.4537 143.176L70.8357 151.886L68.7557 153.368L64.5437 146.504C63.6597 149 62.3857 151.366 60.6697 153.628L58.6937 152.068C61.9697 147.7 63.5557 143.046 63.5557 137.378V134.18H66.0257ZM104.096 144.554H101.522V132.776H104.096V144.554ZM90.836 144.008C87.196 144.008 84.362 142.266 84.362 138.782V138.392C84.362 134.882 87.196 133.166 90.836 133.166C94.424 133.166 97.284 134.882 97.284 138.392V138.782C97.284 142.266 94.424 144.008 90.836 144.008ZM90.836 141.72C93.046 141.72 94.684 140.706 94.684 138.73V138.444C94.684 136.468 93.046 135.454 90.836 135.454C88.6 135.454 86.962 136.468 86.962 138.444V138.73C86.962 140.706 88.6 141.72 90.836 141.72ZM105.006 157.034H88.158V150.404H101.522V148.22H88.028V146.062H104.096V152.536H90.758V154.824H105.006V157.034ZM131.379 140.966C131.509 139.614 131.561 138.392 131.561 137.508V136.988H116.403V134.648H134.161V136.78C134.161 140.264 133.615 145.152 132.913 149.234L130.365 148.844C130.677 147.102 130.963 145.152 131.145 143.306C127.349 143.67 121.603 143.878 118.093 143.878H116.403L116.273 141.59H118.327C121.473 141.59 127.505 141.382 131.379 140.966ZM125.061 146.062V152.718H136.605V155.11H113.933V152.718H122.487V146.062H125.061ZM156.424 140.342V132.776H158.998V156.904H156.424V142.708H148.676V140.342H156.424ZM142.514 150.612H144.516C147.272 150.612 150.704 150.326 153.798 149.832L154.11 152.12C151.172 152.64 147.532 152.978 144.074 152.978H139.888V134.544H142.514V150.612Z" fill="white"/>
</g>
<g filter="url(#filter1_d_2103_8292)">
<path d="M127.057 14.6322C128.034 13.656 129.616 13.6559 130.592 14.6322C131.569 15.6085 131.569 17.1911 130.592 18.1673L123.15 25.6087L124.923 54.266L124.994 55.3929L124.195 56.1898L70.3444 109.97L68.5768 111.735L66.8102 109.969L35.2272 78.3978L33.4576 76.6292L35.2281 74.8617L89.0787 21.0814L89.8737 20.2865L90.9957 20.3548L119.61 22.0785L127.057 14.6322ZM40.5319 76.6302L68.5778 104.666L119.863 53.4486L118.431 30.3275L116.498 32.2611C117.419 33.725 117.955 35.457 117.955 37.3148C117.955 42.5615 113.701 46.8148 108.455 46.8148C103.208 46.8148 98.9547 42.5615 98.9547 37.3148C98.9548 32.0682 103.208 27.8148 108.455 27.8148C110.027 27.8148 111.508 28.1985 112.814 28.8744L114.886 26.8021L91.816 25.4124L40.5319 76.6302ZM59.2125 74.7884C61.6035 72.3986 64.6419 72.0996 66.5846 73.9417L64.8414 75.6849C63.6459 74.689 62.0517 75.0377 60.7067 76.3822H60.6071C59.1624 77.8263 59.0131 79.4693 60.0094 80.4652C61.1053 81.5606 62.7494 80.8137 63.9449 80.1165L65.3893 79.2699C67.2821 78.1247 69.972 77.0794 72.1139 79.1703C74.1065 81.1621 73.9573 84.2 71.1676 86.9886C68.5274 89.6278 65.588 89.9765 63.2965 87.9349L65.0905 86.1419C66.4853 87.337 68.2288 86.7892 69.6237 85.4447C71.1179 83.9508 71.4666 82.1085 70.3209 80.9134C69.2748 79.8677 67.8798 80.4653 66.3356 81.3617L64.5924 82.3578C62.2013 83.7521 60.0586 83.9512 58.4147 82.3578C56.3723 80.3161 56.8712 77.1786 59.2125 74.7884ZM86.7106 71.0042L84.817 72.8968L80.6324 70.8548L76.0494 75.4359L78.0924 79.6195L76.1989 81.5111L68.6774 65.5267L70.7194 63.4847L86.7106 71.0042ZM71.7653 66.722L75.0533 73.4447L78.5905 69.9085H78.6403L71.8649 66.6224L71.7653 66.722ZM88.4537 66.224L93.7838 60.8958L95.3287 62.4398L88.2545 69.5111L76.4987 57.7591L78.2418 56.016L88.4537 66.224ZM94.2819 43.0677L88.7028 48.6449L92.2399 52.18L97.4205 47.0013L98.9645 48.5453L93.7838 53.724L97.3707 57.3099L103 51.683L104.544 53.2259L97.1217 60.6458L85.3649 48.8939L92.7379 41.5238L94.2819 43.0677ZM108.455 32.8148C105.969 32.8148 103.955 34.8296 103.955 37.3148C103.955 39.8001 105.969 41.8148 108.455 41.8148C110.94 41.8148 112.955 39.8001 112.955 37.3148C112.955 36.8574 112.885 36.4162 112.758 36.0003L111.592 37.1673C110.616 38.1436 109.034 38.1435 108.057 37.1673C107.081 36.191 107.081 34.6085 108.057 33.6322L108.855 32.8333C108.723 32.8217 108.59 32.8148 108.455 32.8148Z" fill="white"/>
</g>
<defs>
<filter id="filter0_d_2103_8292" x="0" y="128.776" width="162.998" height="32.388" filterUnits="userSpaceOnUse" color-interpolation-filters="sRGB">
<feFlood flood-opacity="0" result="BackgroundImageFix"/>
<feColorMatrix in="SourceAlpha" type="matrix" values="0 0 0 0 0 0 0 0 0 0 0 0 0 0 0 0 0 0 127 0" result="hardAlpha"/>
<feOffset/>
<feGaussianBlur stdDeviation="2"/>
<feComposite in2="hardAlpha" operator="out"/>
<feColorMatrix type="matrix" values="0 0 0 0 0.00392157 0 0 0 0 0.917647 0 0 0 0 0.839216 0 0 0 1 0"/>
<feBlend mode="normal" in2="BackgroundImageFix" result="effect1_dropShadow_2103_8292"/>
<feBlend mode="normal" in="SourceGraphic" in2="effect1_dropShadow_2103_8292" result="shape"/>
</filter>
<filter id="filter1_d_2103_8292" x="19.5576" y="-5.72205e-06" width="125.667" height="125.635" filterUnits="userSpaceOnUse" color-interpolation-filters="sRGB">
<feFlood flood-opacity="0" result="BackgroundImageFix"/>
<feColorMatrix in="SourceAlpha" type="matrix" values="0 0 0 0 0 0 0 0 0 0 0 0 0 0 0 0 0 0 127 0" result="hardAlpha"/>
<feOffset/>
<feGaussianBlur stdDeviation="6.95"/>
<feComposite in2="hardAlpha" operator="out"/>
<feColorMatrix type="matrix" values="0 0 0 0 0.00392157 0 0 0 0 0.917647 0 0 0 0 0.839216 0 0 0 1 0"/>
<feBlend mode="normal" in2="BackgroundImageFix" result="effect1_dropShadow_2103_8292"/>
<feBlend mode="normal" in="SourceGraphic" in2="effect1_dropShadow_2103_8292" result="shape"/>
</filter>
</defs>
</svg>
