<svg width="838" height="274" viewBox="0 0 838 274" fill="none" xmlns="http://www.w3.org/2000/svg">
<g filter="url(#filter0_d_1745_4911)">
<path d="M337.36 129.161H363.33V133.748H352.927V159.328H347.764V133.748H337.283V129.161H337.36Z" fill="white"/>
<path d="M372.116 129.161H392.999L396.852 133.126V155.363L392.999 159.328H372.116L368.263 155.363V133.126L372.116 129.161ZM373.426 135.148V153.419L374.736 154.741H390.456L391.766 153.419V135.148L390.456 133.826H374.736L373.426 135.148Z" fill="white"/>
<path d="M410.415 129.161H436.385V133.748H425.981V159.328H420.818V133.748H410.338V129.161H410.415Z" fill="white"/>
<path d="M442.857 159.406V129.161H448.021V140.59H464.897V129.161H470.06V159.406H464.897V145.255H448.021V159.406H442.857Z" fill="white"/>
<path d="M497.109 145.955H485.627V154.819H505.894V159.406H480.464V129.161H504.738V133.748H485.55V141.212H497.032V145.877L497.109 145.955Z" fill="white"/>
<path d="M260.08 15.5098L269.44 25.0525V43.1477L262.6 50.1698L271.87 59.2624V81.2287L262.42 90.7715H202.392V15.5098H260.08ZM212.561 47.1989H255.04L259.27 42.6976V28.7436L255.04 24.3323H212.561V47.1989ZM212.561 81.9489H257.29L261.7 77.4476V61.333L256.12 55.6614H212.471V81.9489H212.561Z" fill="white"/>
<path d="M378.155 90.8166L413.074 15.4648H422.524L457.443 90.8166H446.463L436.564 69.0303H398.405L388.595 90.8166H378.065H378.155ZM402.455 60.1177H432.784L418.024 27.2582H417.304L402.455 60.1177Z" fill="white"/>
<path d="M629.608 24.3774H578.129L573.629 28.8787V77.4927L578.129 81.994H619.888L624.298 77.4927V58.7673H601.799V49.8548H633.748V81.2738L624.388 90.8166H573.089L563.64 81.2738V25.0076L573.089 15.4648H629.608V24.3774Z" fill="white"/>
<path d="M15.4648 257.944V192.867H66.4024V200.564H24.0957V220.468H50.1425V228.166H24.0957V257.944H15.4648Z" fill="white"/>
<path d="M165.042 192.867V246.359L168.818 250.246H201.8L205.576 246.359V192.867H214.207V249.702L206.193 257.944H164.503L156.411 249.702V192.867H165.119H165.042Z" fill="white"/>
<path d="M305.909 192.867H360.315V200.564H337.427V257.944H328.951V200.564H305.909V192.867Z" fill="white"/>
<path d="M460.958 192.867V246.359L464.734 250.246H497.716L501.492 246.359V192.867H510.123V249.702L502.109 257.944H460.419L452.327 249.702V192.867H461.035H460.958Z" fill="white"/>
<path d="M643.208 231.431H619.627V257.944H610.919V192.867H660.007L668.021 201.109V223.112L660.007 231.353H653.38L670.873 257.866H660.624L643.208 231.353V231.431ZM655.615 223.734L659.391 219.846V204.374L655.615 200.487H619.55V223.734H655.615Z" fill="white"/>
<path d="M802.57 227.544H776.524V250.246H822.067V257.944H767.97V192.867H819.832V200.564H776.601V219.924H802.647V227.621L802.57 227.544Z" fill="white"/>
</g>
<defs>
<filter id="filter0_d_1745_4911" x="0.000108719" y="0.000108719" width="837.532" height="273.408" filterUnits="userSpaceOnUse" color-interpolation-filters="sRGB">
<feFlood flood-opacity="0" result="BackgroundImageFix"/>
<feColorMatrix in="SourceAlpha" type="matrix" values="0 0 0 0 0 0 0 0 0 0 0 0 0 0 0 0 0 0 127 0" result="hardAlpha"/>
<feOffset/>
<feGaussianBlur stdDeviation="7.73237"/>
<feComposite in2="hardAlpha" operator="out"/>
<feColorMatrix type="matrix" values="0 0 0 0 1 0 0 0 0 0.701961 0 0 0 0 0.196078 0 0 0 1 0"/>
<feBlend mode="normal" in2="BackgroundImageFix" result="effect1_dropShadow_1745_4911"/>
<feBlend mode="normal" in="SourceGraphic" in2="effect1_dropShadow_1745_4911" result="shape"/>
</filter>
</defs>
</svg>
