<svg width="566" height="145" viewBox="0 0 566 145" fill="none" xmlns="http://www.w3.org/2000/svg">
<g filter="url(#filter0_d_1745_5440)">
<rect x="16.6807" y="17.7373" width="532.245" height="110" rx="2.62673" transform="rotate(-0.113817 16.6807 17.7373)" stroke="#FFB332" stroke-opacity="0.8" stroke-width="2" shape-rendering="crispEdges"/>
<path d="M27.7094 32.3425C27.7054 30.3396 29.3259 28.7126 31.3289 28.7086L534.32 27.7094C536.323 27.7055 537.95 29.326 537.954 31.329L538.114 112.075C538.118 114.078 536.498 115.705 534.495 115.709L31.5037 116.708C29.5007 116.712 27.8737 115.092 27.8698 113.089L27.7094 32.3425Z" fill="#FFB332" fill-opacity="0.1"/>
<path d="M31.3311 29.7086L534.321 28.7094C535.772 28.7066 536.951 29.8805 536.953 31.3312L537.114 112.077C537.117 113.528 535.943 114.706 534.492 114.709L31.5019 115.708C30.0512 115.711 28.8726 114.537 28.8698 113.087L28.7094 32.3408C28.7066 30.9807 29.7382 29.8599 31.0626 29.7228L31.3311 29.7086Z" stroke="#FFB332" stroke-opacity="0.3" stroke-width="2"/>
<path d="M231.219 56.5674C232.539 56.5648 233.728 56.8625 234.785 57.4604C235.842 58.0343 236.732 58.8725 237.454 59.9751C238.2 61.0536 238.767 62.3725 239.154 63.9317C239.565 65.4909 239.772 67.2425 239.776 69.1865C239.78 71.1305 239.579 72.8829 239.174 74.4437C238.794 76.0044 238.232 77.3376 237.49 78.443C236.773 79.5245 235.886 80.3662 234.831 80.9683C233.777 81.5464 232.589 81.8368 231.269 81.8394C229.949 81.842 228.761 81.5564 227.703 80.9825C226.646 80.3846 225.745 79.5464 224.998 78.4678C224.276 77.3653 223.71 76.0344 223.299 74.4752C222.911 72.916 222.716 71.1644 222.712 69.2204C222.708 67.2764 222.897 65.524 223.278 63.9632C223.683 62.4024 224.244 61.0813 224.962 59.9999C225.704 58.8944 226.602 58.0526 227.657 57.4745C228.712 56.8724 229.899 56.5701 231.219 56.5674ZM231.264 79.4634C232.248 79.4614 233.1 79.2198 233.819 78.7383C234.538 78.2329 235.137 77.5357 235.615 76.6468C236.093 75.7578 236.451 74.6891 236.688 73.4406C236.926 72.1681 237.043 70.7519 237.04 69.1919C237.037 67.6559 236.914 66.2521 236.672 64.9806C236.429 63.7091 236.067 62.6298 235.585 61.7428C235.103 60.8557 234.502 60.1729 233.781 59.6944C233.06 59.1918 232.208 58.9415 231.224 58.9434C230.24 58.9454 229.388 59.1991 228.669 59.7045C227.95 60.1859 227.352 60.8711 226.873 61.7601C226.395 62.649 226.037 63.7298 225.8 65.0022C225.562 66.2747 225.445 67.6789 225.448 69.2149C225.451 70.7749 225.574 72.1907 225.817 73.4622C226.059 74.7097 226.421 75.777 226.903 76.6641C227.385 77.5511 227.986 78.2459 228.707 78.7485C229.428 79.227 230.28 79.4654 231.264 79.4634ZM245.213 87.6437L245.149 55.5318L247.885 55.5263L247.949 87.6383L245.213 87.6437ZM262.504 56.5053C263.68 56.503 264.748 56.7528 265.709 57.2549C266.694 57.757 267.548 58.4753 268.27 59.4098C268.991 60.3444 269.558 61.4833 269.968 62.8265C270.403 64.1456 270.682 65.6451 270.805 67.3248L276.637 67.3132L276.614 55.4693L279.35 55.4638L279.414 87.5758L276.678 87.5812L276.642 69.7612L270.882 69.7727C270.838 71.6208 270.613 73.2892 270.208 74.778C269.827 76.2668 269.278 77.5279 268.56 78.5613C267.842 79.5947 266.967 80.3885 265.936 80.9425C264.929 81.4965 263.802 81.7748 262.554 81.7772C261.258 81.7798 260.093 81.4941 259.06 80.9202C258.027 80.3222 257.149 79.484 256.427 78.4054C255.705 77.3028 255.15 75.9719 254.763 74.4127C254.376 72.8535 254.181 71.1019 254.177 69.1579C254.173 67.2139 254.362 65.4615 254.742 63.9007C255.123 62.34 255.673 61.0189 256.391 59.9374C257.108 58.832 257.983 57.9903 259.014 57.4122C260.044 56.8102 261.208 56.5079 262.504 56.5053ZM262.549 79.4013C263.509 79.3993 264.337 79.1577 265.032 78.6763C265.727 78.1709 266.301 77.4738 266.756 76.5849C267.234 75.6959 267.58 74.6272 267.793 73.3788C268.031 72.1063 268.148 70.6901 268.145 69.1301C268.142 67.5941 268.019 66.1904 267.776 64.9188C267.558 63.6473 267.208 62.568 266.726 61.6809C266.268 60.7938 265.691 60.111 264.994 59.6324C264.297 59.1297 263.468 58.8794 262.508 58.8813C261.548 58.8832 260.721 59.1368 260.026 59.6422C259.331 60.1236 258.744 60.8088 258.266 61.6977C257.812 62.5866 257.466 63.6673 257.228 64.9398C257.015 66.2122 256.91 67.6164 256.913 69.1524C256.916 70.7124 257.027 72.1282 257.245 73.3998C257.488 74.6473 257.838 75.7146 258.296 76.6017C258.777 77.4887 259.367 78.1836 260.064 78.6862C260.761 79.1648 261.589 79.4032 262.549 79.4013ZM306.702 87.5216L306.639 55.4096L309.374 55.4042L309.401 68.7242L314.189 68.7146L314.194 71.1626L309.406 71.1722L309.438 87.5161L306.702 87.5216ZM284.189 62.8342L284.184 60.4582L292.248 60.4422L292.239 55.7982L294.975 55.7928L294.984 60.4368L302.976 60.4209L302.981 62.7969L284.189 62.8342ZM293.804 82.2552C292.556 82.2577 291.427 82.0439 290.419 81.6139C289.41 81.1839 288.544 80.5856 287.823 79.819C287.101 79.0285 286.536 78.1056 286.125 77.0504C285.739 75.9952 285.545 74.8436 285.543 73.5956C285.54 72.3476 285.73 71.1952 286.112 70.1384C286.518 69.0816 287.08 68.1685 287.798 67.3991C288.517 66.6056 289.379 65.9919 290.387 65.5579C291.394 65.1239 292.521 64.9057 293.769 64.9032C295.017 64.9007 296.146 65.1145 297.155 65.5445C298.163 65.9745 299.029 66.5848 299.75 67.3753C300.472 68.1419 301.026 69.0528 301.412 70.108C301.822 71.1632 302.028 72.3148 302.031 73.5628C302.033 74.8108 301.831 75.9632 301.425 77.02C301.044 78.0768 300.493 79.0019 299.775 79.7953C299.056 80.5647 298.194 81.1664 297.187 81.6005C296.179 82.0345 295.052 82.2527 293.804 82.2552ZM293.774 67.2072C291.974 67.2108 290.607 67.8015 289.673 68.9793C288.74 70.1572 288.275 71.6941 288.279 73.5901C288.282 75.4861 288.753 77.0212 289.692 78.1953C290.63 79.3695 291.999 79.9548 293.799 79.9512C295.599 79.9476 296.966 79.3569 297.9 78.179C298.833 77.0012 299.298 75.4642 299.295 73.5682C299.291 71.6723 298.82 70.1372 297.881 68.963C296.943 67.7889 295.574 67.2036 293.774 67.2072ZM339.607 87.4562L339.543 55.3443L342.279 55.3388L342.343 87.4508L339.607 87.4562ZM317.803 57.1514L332.563 57.1221C332.569 60.0501 332.202 62.7749 331.463 65.2963C330.724 67.8178 329.709 70.1358 328.417 72.2504C327.149 74.3409 325.653 76.2279 323.928 77.9113C322.203 79.5948 320.37 81.0624 318.429 82.3143L316.481 80.4461C318.399 79.2663 320.136 77.9069 321.693 76.3678C323.274 74.8286 324.627 73.1579 325.751 71.3557C326.875 69.5534 327.772 67.6557 328.44 65.6623C329.108 63.669 329.5 61.6162 329.616 59.504L317.808 59.5274L317.803 57.1514Z" fill="#FFB332"/>
</g>
<defs>
<filter id="filter0_d_1745_5440" x="-0.00690746" y="-0.00788403" width="565.838" height="144.433" filterUnits="userSpaceOnUse" color-interpolation-filters="sRGB">
<feFlood flood-opacity="0" result="BackgroundImageFix"/>
<feColorMatrix in="SourceAlpha" type="matrix" values="0 0 0 0 0 0 0 0 0 0 0 0 0 0 0 0 0 0 127 0" result="hardAlpha"/>
<feOffset/>
<feGaussianBlur stdDeviation="7.84281"/>
<feComposite in2="hardAlpha" operator="out"/>
<feColorMatrix type="matrix" values="0 0 0 0 1 0 0 0 0 0.701961 0 0 0 0 0.196078 0 0 0 1 0"/>
<feBlend mode="normal" in2="BackgroundImageFix" result="effect1_dropShadow_1745_5440"/>
<feBlend mode="normal" in="SourceGraphic" in2="effect1_dropShadow_1745_5440" result="shape"/>
</filter>
</defs>
</svg>
