<svg width="573" height="144" viewBox="0 0 573 144" fill="none" xmlns="http://www.w3.org/2000/svg">
<path d="M31 112.373C31 114.376 32.6237 116 34.6267 116H537.373C539.376 116 541 114.376 541 112.373V31.6267C541 29.6237 539.376 28 537.373 28H34.6267C32.6237 28 31 29.6237 31 31.6267V112.373Z" fill="#FFB332" fill-opacity="0.1"/>
<path d="M34.627 115H537.373C538.824 115 540 113.824 540 112.373V31.627C540 30.1762 538.824 29 537.373 29H34.627C33.1762 29 32 30.1762 32 31.627V112.373C32 113.733 33.0337 114.852 34.3584 114.986L34.627 115Z" stroke="#FFB332" stroke-opacity="0.3" stroke-width="2"/>
<path d="M220.97 56.6899L232.814 56.6664C232.843 59.4023 232.584 61.9828 232.037 64.4079C231.49 66.809 230.714 69.0546 229.71 71.1446C228.707 73.2346 227.51 75.1569 226.122 76.9117C224.733 78.6665 223.212 80.2415 221.559 81.6368L219.504 79.9489C221.181 78.5775 222.654 77.0626 223.923 75.4041C225.192 73.7455 226.256 72.0154 227.117 70.2137C228.001 68.4119 228.669 66.5626 229.121 64.6657C229.598 62.7688 229.87 60.8962 229.938 59.0481L220.974 59.0659L220.97 56.6899ZM240.144 85.8839L237.444 85.8892L237.411 69.4733L232.659 69.4827L232.654 67.0347L237.406 67.0253L237.382 55.0373L240.082 55.0319L240.144 85.8839ZM243.862 54.6644L246.598 54.659L246.661 86.7349L243.925 86.7404L243.862 54.6644ZM260.311 71.1198C259.087 71.1222 257.947 70.9325 256.89 70.5506C255.833 70.1447 254.92 69.5825 254.151 68.864C253.405 68.1455 252.816 67.2947 252.382 66.3115C251.948 65.3284 251.73 64.2488 251.727 63.0728C251.725 61.8968 251.939 60.8164 252.369 59.8315C252.799 58.8467 253.385 57.9935 254.128 57.272C254.894 56.5505 255.805 55.9967 256.86 55.6106C257.916 55.2005 259.055 54.9942 260.279 54.9918C261.503 54.9894 262.644 55.1911 263.7 55.597C264.757 55.9789 265.658 56.5291 266.404 57.2476C267.173 57.9661 267.775 58.8169 268.209 59.8001C268.643 60.7832 268.861 61.8628 268.863 63.0388C268.866 64.2148 268.652 65.2952 268.222 66.28C267.792 67.2649 267.193 68.1181 266.427 68.8396C265.684 69.5611 264.785 70.1269 263.73 70.537C262.675 70.9231 261.535 71.1173 260.311 71.1198ZM260.284 57.3318C259.372 57.3336 258.556 57.4792 257.837 57.7687C257.117 58.0581 256.506 58.4673 256.003 58.9963C255.5 59.5013 255.117 60.1021 254.855 60.7986C254.592 61.4951 254.462 62.2514 254.463 63.0674C254.465 63.8834 254.598 64.6391 254.864 65.3346C255.129 66.0301 255.514 66.6413 256.019 67.1683C256.524 67.6713 257.137 68.0661 257.858 68.3526C258.578 68.6392 259.395 68.7816 260.307 68.7798C261.219 68.778 262.034 68.6323 262.754 68.3429C263.473 68.0535 264.084 67.6563 264.587 67.1513C265.09 66.6223 265.473 66.0095 265.736 65.313C265.998 64.6165 266.129 63.8602 266.127 63.0442C266.126 62.2282 265.992 61.4725 265.727 60.777C265.461 60.0815 265.076 59.4823 264.571 58.9793C264.066 58.4523 263.453 58.0455 262.733 57.7589C262.012 57.4724 261.196 57.33 260.284 57.3318ZM274.786 72.351L274.75 54.6031L277.486 54.5976L277.522 72.3456L274.786 72.351ZM256.31 86.5358L256.285 74.2598L277.453 74.2177L277.478 86.4937L256.31 86.5358ZM259.041 84.1543L274.737 84.1231L274.722 76.5632L259.026 76.5943L259.041 84.1543ZM296.775 86.4554L296.758 78.2114L315.19 78.1748L315.183 74.6468L296.751 74.6834L296.747 72.3794L317.915 72.3373L317.931 80.4013L299.499 80.4379L299.506 84.1099L318.658 84.0719L318.663 86.4119L296.775 86.4554ZM302.694 57.7516C302.696 58.8795 302.914 59.9471 303.348 60.9543C303.782 61.9374 304.372 62.8602 305.117 63.7227C305.887 64.5612 306.777 65.3275 307.786 66.0215C308.819 66.6914 309.924 67.2532 311.101 67.7069L309.701 69.7617C307.852 68.9733 306.218 67.9806 304.8 66.7834C303.405 65.5622 302.25 64.2084 301.335 62.7223C300.57 64.2358 299.433 65.702 297.924 67.121C296.415 68.516 294.569 69.7437 292.387 70.8041L290.692 68.8274C292.034 68.2487 293.269 67.5623 294.395 66.7681C295.522 65.9498 296.48 65.0719 297.27 64.1343C298.084 63.1727 298.706 62.1515 299.136 61.0706C299.59 59.9897 299.816 58.8853 299.814 57.7573L299.809 55.3093L302.689 55.3036L302.694 57.7516ZM308.241 59.6845L315.225 59.6707L315.215 54.5227L317.951 54.5172L317.983 70.6092L315.247 70.6146L315.23 62.0107L308.246 62.0245L308.241 59.6845ZM338.654 73.4841C340.238 73.481 341.714 73.6101 343.083 73.8714C344.475 74.1326 345.688 74.5502 346.721 75.1241C347.754 75.6741 348.56 76.3925 349.137 77.2793C349.739 78.1421 350.041 79.1735 350.043 80.3735C350.046 81.5735 349.748 82.6061 349.15 83.4713C348.575 84.3605 347.773 85.0821 346.742 85.6361C345.711 86.2142 344.5 86.6366 343.108 86.9033C341.741 87.17 340.265 87.305 338.681 87.3081C337.097 87.3113 335.609 87.1822 334.216 86.921C332.848 86.6597 331.647 86.2421 330.614 85.6681C329.581 85.1182 328.763 84.3998 328.162 83.513C327.584 82.6502 327.294 81.6187 327.292 80.4187C327.289 79.2187 327.575 78.1862 328.149 77.321C328.748 76.4318 329.562 75.7102 330.593 75.1562C331.624 74.5781 332.823 74.1557 334.191 73.889C335.582 73.6223 337.07 73.4873 338.654 73.4841ZM338.677 84.9681C341.341 84.9628 343.44 84.5867 344.974 83.8396C346.533 83.0925 347.311 81.939 347.307 80.379C347.304 78.819 346.522 77.6685 344.961 76.9276C343.423 76.1867 341.322 75.8189 338.658 75.8241C335.994 75.8294 333.883 76.2056 332.325 76.9527C330.79 77.6998 330.024 78.8533 330.028 80.4133C330.031 81.9733 330.801 83.1238 332.338 83.8647C333.9 84.6056 336.013 84.9734 338.677 84.9681ZM341.467 57.8905L334.339 57.9047L334.34 58.6967C334.343 59.8967 334.573 61.0362 335.031 62.1153C335.489 63.1944 336.103 64.1892 336.873 65.0997C337.667 65.9861 338.568 66.8003 339.578 67.5423C340.587 68.2603 341.645 68.8822 342.75 69.408L341.314 71.4269C339.512 70.5184 337.89 69.4297 336.447 68.1605C335.005 66.8914 333.85 65.4657 332.983 63.8834C332.218 65.4449 331.081 66.9832 329.572 68.4982C328.087 70.0131 326.265 71.3368 324.108 72.469L322.34 70.5646C323.683 69.9139 324.917 69.1554 326.043 68.2892C327.17 67.399 328.128 66.437 328.918 65.4035C329.732 64.3699 330.353 63.2886 330.783 62.1598C331.237 61.0309 331.463 59.8784 331.46 58.7024L331.459 57.9104L324.331 57.9246L324.326 55.6206L341.462 55.5865L341.467 57.8905ZM340.394 61.3847L346.694 61.3722L346.68 54.4602L349.416 54.4547L349.453 72.9227L346.717 72.9281L346.698 63.7481L340.398 63.7607L340.394 61.3847Z" fill="#FFB332"/>
<g filter="url(#filter0_d_2975_4476)">
<path d="M23.627 126H548.373C549.824 126 551 124.824 551 123.373V19.627C551 18.1762 549.824 17 548.373 17H23.627C22.1763 17 21 18.1762 21 19.627V123.373C21 124.824 22.1762 126 23.627 126Z" stroke="#FFB332" stroke-opacity="0.8" stroke-width="2" shape-rendering="crispEdges"/>
</g>
<defs>
<filter id="filter0_d_2975_4476" x="4.31438" y="0.314382" width="563.371" height="142.371" filterUnits="userSpaceOnUse" color-interpolation-filters="sRGB">
<feFlood flood-opacity="0" result="BackgroundImageFix"/>
<feColorMatrix in="SourceAlpha" type="matrix" values="0 0 0 0 0 0 0 0 0 0 0 0 0 0 0 0 0 0 127 0" result="hardAlpha"/>
<feOffset/>
<feGaussianBlur stdDeviation="7.84281"/>
<feComposite in2="hardAlpha" operator="out"/>
<feColorMatrix type="matrix" values="0 0 0 0 1 0 0 0 0 0.701961 0 0 0 0 0.196078 0 0 0 1 0"/>
<feBlend mode="normal" in2="BackgroundImageFix" result="effect1_dropShadow_2975_4476"/>
<feBlend mode="normal" in="SourceGraphic" in2="effect1_dropShadow_2975_4476" result="shape"/>
</filter>
</defs>
</svg>
