<svg width="566" height="145" viewBox="0 0 566 145" fill="none" xmlns="http://www.w3.org/2000/svg">
<g filter="url(#filter0_d_1745_5443)">
<rect x="16.6807" y="17.7373" width="532.245" height="110" rx="2.62673" transform="rotate(-0.113817 16.6807 17.7373)" stroke="#FFB332" stroke-opacity="0.8" stroke-width="2" shape-rendering="crispEdges"/>
<path d="M27.7094 32.3425C27.7054 30.3396 29.3259 28.7126 31.3289 28.7086L534.32 27.7094C536.323 27.7055 537.95 29.326 537.954 31.329L538.114 112.075C538.118 114.078 536.498 115.705 534.495 115.709L31.5037 116.708C29.5007 116.712 27.8737 115.092 27.8698 113.089L27.7094 32.3425Z" fill="#FFB332" fill-opacity="0.1"/>
<path d="M31.3311 29.7086L534.321 28.7094C535.772 28.7066 536.951 29.8805 536.953 31.3312L537.114 112.077C537.117 113.528 535.943 114.706 534.492 114.709L31.5019 115.708C30.0512 115.711 28.8726 114.537 28.8698 113.087L28.7094 32.3408C28.7066 30.9807 29.7382 29.8599 31.0626 29.7228L31.3311 29.7086Z" stroke="#FFB332" stroke-opacity="0.3" stroke-width="2"/>
<path d="M258.173 87.402L258.157 79.1581L276.589 79.1214L276.582 75.5934L258.15 75.6301L258.145 73.3261L279.313 73.284L279.329 81.348L260.897 81.3846L260.905 85.0566L280.056 85.0186L280.061 87.3586L258.173 87.402ZM264.092 58.6982C264.094 59.8262 264.313 60.8938 264.747 61.9009C265.18 62.8841 265.77 63.8069 266.516 64.6694C267.286 65.5079 268.175 66.2741 269.185 66.9681C270.218 67.6381 271.323 68.1999 272.5 68.6535L271.1 70.7083C269.25 69.92 267.616 68.9272 266.198 67.7301C264.804 66.5088 263.649 65.1551 262.734 63.6689C261.969 65.1825 260.832 66.6487 259.323 68.0677C257.814 69.4627 255.968 70.6904 253.786 71.7507L252.09 69.7741C253.433 69.1954 254.668 68.509 255.794 67.7147C256.92 66.8965 257.879 66.0186 258.669 65.081C259.483 64.1194 260.105 63.0981 260.535 62.0173C260.989 60.9364 261.214 59.8319 261.212 58.7039L261.207 56.2559L264.087 56.2502L264.092 58.6982ZM269.64 60.6312L276.624 60.6173L276.614 55.4693L279.35 55.4639L279.382 71.5559L276.646 71.5613L276.629 62.9573L269.645 62.9712L269.64 60.6312ZM300.052 74.4308C301.636 74.4277 303.113 74.5567 304.481 74.818C305.874 75.0793 307.086 75.4968 308.12 76.0708C309.153 76.6207 309.958 77.3391 310.536 78.226C311.138 79.0888 311.44 80.1202 311.442 81.3202C311.444 82.5202 311.146 83.5528 310.548 84.418C309.974 85.3071 309.171 86.0287 308.14 86.5828C307.11 87.1608 305.898 87.5832 304.507 87.85C303.14 88.1167 301.664 88.2516 300.08 88.2548C298.496 88.2579 297.008 88.1289 295.615 87.8677C294.246 87.6064 293.046 87.1888 292.013 86.6148C290.979 86.0649 290.162 85.3465 289.56 84.4597C288.983 83.5968 288.692 82.5654 288.69 81.3654C288.688 80.1654 288.974 79.1328 289.548 78.2677C290.146 77.3785 290.961 76.6569 291.992 76.1028C293.022 75.5248 294.222 75.1024 295.589 74.8357C296.981 74.5689 298.468 74.434 300.052 74.4308ZM300.075 85.9148C302.739 85.9095 304.838 85.5333 306.373 84.7863C307.931 84.0392 308.709 82.8856 308.706 81.3256C308.703 79.7656 307.921 78.6152 306.359 77.8743C304.822 77.1333 302.721 76.7655 300.057 76.7708C297.393 76.7761 295.282 77.1523 293.723 77.8994C292.189 78.6464 291.423 79.8 291.426 81.36C291.429 82.92 292.199 84.0704 293.737 84.8114C295.298 85.5523 297.411 85.9201 300.075 85.9148ZM302.865 58.8372L295.737 58.8514L295.739 59.6434C295.741 60.8434 295.972 61.9829 296.43 63.062C296.888 64.1411 297.502 65.1359 298.272 66.0463C299.065 66.9328 299.967 67.747 300.977 68.489C301.986 69.207 303.043 69.8289 304.148 70.3547L302.712 72.3735C300.91 71.4651 299.288 70.3763 297.846 69.1072C296.403 67.8381 295.248 66.4123 294.381 64.8301C293.616 66.3916 292.479 67.9298 290.97 69.4448C289.485 70.9598 287.664 72.2834 285.506 73.4157L283.739 71.5112C285.081 70.8605 286.316 70.1021 287.442 69.2359C288.568 68.3456 289.526 67.3837 290.316 66.3501C291.13 65.3165 291.752 64.2353 292.182 63.1064C292.636 61.9775 292.861 60.8251 292.859 59.6491L292.857 58.8571L285.729 58.8712L285.725 56.5672L302.861 56.5332L302.865 58.8372ZM301.792 62.3313L308.092 62.3188L308.079 55.4068L310.815 55.4014L310.851 73.8694L308.115 73.8748L308.097 64.6948L301.797 64.7073L301.792 62.3313Z" fill="#FFB332"/>
</g>
<defs>
<filter id="filter0_d_1745_5443" x="-0.00690746" y="-0.00788403" width="565.838" height="144.433" filterUnits="userSpaceOnUse" color-interpolation-filters="sRGB">
<feFlood flood-opacity="0" result="BackgroundImageFix"/>
<feColorMatrix in="SourceAlpha" type="matrix" values="0 0 0 0 0 0 0 0 0 0 0 0 0 0 0 0 0 0 127 0" result="hardAlpha"/>
<feOffset/>
<feGaussianBlur stdDeviation="7.84281"/>
<feComposite in2="hardAlpha" operator="out"/>
<feColorMatrix type="matrix" values="0 0 0 0 1 0 0 0 0 0.701961 0 0 0 0 0.196078 0 0 0 1 0"/>
<feBlend mode="normal" in2="BackgroundImageFix" result="effect1_dropShadow_1745_5443"/>
<feBlend mode="normal" in="SourceGraphic" in2="effect1_dropShadow_1745_5443" result="shape"/>
</filter>
</defs>
</svg>
