<svg width="573" height="144" viewBox="0 0 573 144" fill="none" xmlns="http://www.w3.org/2000/svg">
<path d="M31 112.373C31 114.376 32.6237 116 34.6267 116H537.373C539.376 116 541 114.376 541 112.373V31.6267C541 29.6237 539.376 28 537.373 28H34.6267C32.6237 28 31 29.6237 31 31.6267V112.373Z" fill="#FFB332" fill-opacity="0.1"/>
<path d="M34.627 115H537.373C538.824 115 540 113.824 540 112.373V31.627C540 30.1762 538.824 29 537.373 29H34.627C33.1762 29 32 30.1762 32 31.627V112.373C32 113.733 33.0337 114.852 34.3584 114.986L34.627 115Z" stroke="#FFB332" stroke-opacity="0.3" stroke-width="2"/>
<path d="M233.356 55.6934C234.676 55.6908 235.864 55.9884 236.921 56.5863C237.979 57.1602 238.868 57.9985 239.59 59.101C240.337 60.1796 240.903 61.4984 241.29 63.0577C241.701 64.6169 241.909 66.3685 241.913 68.3124C241.917 70.2564 241.716 72.0088 241.311 73.5697C240.93 75.1304 240.369 76.4635 239.627 77.569C238.909 78.6504 238.023 79.4922 236.968 80.0943C235.913 80.6724 234.726 80.9627 233.406 80.9654C232.086 80.968 230.897 80.6824 229.84 80.1085C228.783 79.5106 227.881 78.6723 227.135 77.5938C226.413 76.4913 225.846 75.1604 225.435 73.6012C225.048 72.042 224.853 70.2903 224.849 68.3463C224.845 66.4023 225.033 64.65 225.414 63.0892C225.819 61.5284 226.381 60.2073 227.098 59.1259C227.84 58.0204 228.739 57.1786 229.793 56.6005C230.848 55.9984 232.036 55.696 233.356 55.6934ZM233.401 78.5894C234.385 78.5874 235.237 78.3457 235.956 77.8643C236.675 77.3589 237.273 76.6617 237.752 75.7727C238.23 74.8838 238.588 73.8151 238.825 72.5666C239.063 71.2941 239.18 69.8779 239.177 68.3179C239.174 66.7819 239.051 65.3781 238.808 64.1066C238.566 62.8351 238.204 61.7558 237.722 60.8688C237.24 59.9817 236.639 59.2989 235.918 58.8203C235.197 58.3178 234.344 58.0675 233.36 58.0694C232.376 58.0714 231.525 58.3251 230.806 58.8305C230.087 59.3119 229.488 59.9971 229.01 60.8861C228.532 61.775 228.174 62.8557 227.936 64.1282C227.699 65.4007 227.582 66.8049 227.585 68.3409C227.588 69.9009 227.711 71.3167 227.953 72.5882C228.196 73.8357 228.558 74.903 229.04 75.79C229.521 76.6771 230.123 77.3719 230.844 77.8745C231.565 78.353 232.417 78.5913 233.401 78.5894ZM247.349 86.7697L247.286 54.6577L250.022 54.6523L250.085 86.7642L247.349 86.7697ZM264.64 55.6313C265.816 55.6289 266.885 55.8788 267.846 56.3809C268.831 56.883 269.684 57.6013 270.406 58.5358C271.128 59.4704 271.694 60.6093 272.105 61.9525C272.54 63.2716 272.819 64.771 272.942 66.4508L278.774 66.4392L278.75 54.5952L281.486 54.5898L281.55 86.7017L278.814 86.7072L278.779 68.8872L273.019 68.8987C272.975 70.7467 272.75 72.4152 272.345 73.904C271.964 75.3928 271.414 76.6539 270.696 77.6873C269.978 78.7207 269.104 79.5145 268.073 80.0685C267.066 80.6225 265.939 80.9007 264.691 80.9032C263.395 80.9058 262.23 80.6201 261.197 80.0462C260.164 79.4482 259.286 78.61 258.564 77.5314C257.842 76.4288 257.287 75.0979 256.9 73.5387C256.513 71.9795 256.317 70.2278 256.314 68.2838C256.31 66.3398 256.498 64.5875 256.879 63.0267C257.26 61.4659 257.809 60.1449 258.527 59.0634C259.245 57.958 260.119 57.1163 261.15 56.5382C262.181 55.9362 263.344 55.6338 264.64 55.6313ZM264.686 78.5272C265.646 78.5253 266.473 78.2837 267.169 77.8023C267.864 77.2969 268.438 76.5998 268.892 75.7109C269.371 74.8219 269.716 73.7532 269.93 72.5048C270.167 71.2323 270.285 69.8161 270.282 68.2561C270.279 66.7201 270.156 65.3163 269.913 64.0448C269.695 62.7732 269.345 61.6939 268.863 60.8069C268.405 59.9198 267.828 59.2369 267.131 58.7583C266.434 58.2557 265.605 58.0054 264.645 58.0073C263.685 58.0092 262.858 58.2628 262.163 58.7682C261.468 59.2496 260.881 59.9347 260.403 60.8237C259.949 61.7126 259.603 62.7933 259.365 64.0658C259.152 65.3382 259.047 66.7424 259.05 68.2784C259.053 69.8384 259.163 71.2542 259.382 72.5258C259.624 73.7733 259.975 74.8406 260.432 75.7277C260.914 76.6147 261.504 77.3095 262.201 77.8122C262.897 78.2908 263.726 78.5291 264.686 78.5272ZM308.839 86.6475L308.775 54.5356L311.511 54.5302L311.538 67.8501L316.326 67.8406L316.331 70.2886L311.543 70.2981L311.575 86.6421L308.839 86.6475ZM286.326 61.9602L286.321 59.5842L294.385 59.5682L294.376 54.9242L297.112 54.9188L297.121 59.5628L305.113 59.5469L305.118 61.9229L286.326 61.9602ZM295.941 81.3811C294.693 81.3836 293.564 81.1699 292.555 80.7399C291.546 80.3099 290.681 79.7116 289.96 78.945C289.238 78.1545 288.672 77.2316 288.262 76.1764C287.876 75.1212 287.682 73.9695 287.679 72.7215C287.677 71.4735 287.867 70.3212 288.248 69.2644C288.654 68.2076 289.217 67.2945 289.935 66.525C290.653 65.7316 291.516 65.1179 292.523 64.6839C293.53 64.2499 294.658 64.0317 295.906 64.0292C297.154 64.0267 298.282 64.2405 299.291 64.6705C300.3 65.1005 301.165 65.7107 301.887 66.5013C302.609 67.2679 303.162 68.1788 303.548 69.234C303.959 70.2892 304.165 71.4408 304.167 72.6888C304.17 73.9368 303.968 75.0892 303.562 76.146C303.18 77.2028 302.63 78.1279 301.912 78.9213C301.193 79.6907 300.33 80.2924 299.323 80.7264C298.316 81.1604 297.189 81.3787 295.941 81.3811ZM295.911 66.3332C294.111 66.3368 292.744 66.9275 291.81 68.1053C290.876 69.2832 290.412 70.8201 290.415 72.7161C290.419 74.6121 290.89 76.1472 291.828 77.3213C292.767 78.4954 294.136 79.0807 295.936 79.0772C297.736 79.0736 299.103 78.4829 300.036 77.305C300.97 76.1271 301.435 74.5902 301.431 72.6942C301.428 70.7982 300.956 69.2632 300.018 68.089C299.08 66.9149 297.711 66.3296 295.911 66.3332ZM341.744 86.5822L341.68 54.4702L344.416 54.4648L344.48 86.5767L341.744 86.5822ZM319.94 56.2774L334.7 56.2481C334.705 59.1761 334.339 61.9008 333.6 64.4223C332.861 66.9438 331.845 69.2618 330.554 71.3764C329.286 73.4669 327.789 75.3539 326.065 77.0373C324.34 78.7207 322.507 80.1884 320.566 81.4402L318.618 79.5721C320.535 78.3923 322.273 77.0328 323.83 75.4937C325.411 73.9546 326.763 72.2839 327.888 70.4817C329.012 68.6794 329.908 66.7816 330.576 64.7883C331.245 62.795 331.636 60.7422 331.752 58.63L319.944 58.6534L319.94 56.2774Z" fill="#FFB332"/>
<g filter="url(#filter0_d_2975_4472)">
<path d="M23.627 126H548.373C549.824 126 551 124.824 551 123.373V19.627C551 18.1762 549.824 17 548.373 17H23.627C22.1763 17 21 18.1762 21 19.627V123.373C21 124.824 22.1762 126 23.627 126Z" stroke="#FFB332" stroke-opacity="0.8" stroke-width="2" shape-rendering="crispEdges"/>
</g>
<defs>
<filter id="filter0_d_2975_4472" x="4.31438" y="0.314382" width="563.371" height="142.371" filterUnits="userSpaceOnUse" color-interpolation-filters="sRGB">
<feFlood flood-opacity="0" result="BackgroundImageFix"/>
<feColorMatrix in="SourceAlpha" type="matrix" values="0 0 0 0 0 0 0 0 0 0 0 0 0 0 0 0 0 0 127 0" result="hardAlpha"/>
<feOffset/>
<feGaussianBlur stdDeviation="7.84281"/>
<feComposite in2="hardAlpha" operator="out"/>
<feColorMatrix type="matrix" values="0 0 0 0 1 0 0 0 0 0.701961 0 0 0 0 0.196078 0 0 0 1 0"/>
<feBlend mode="normal" in2="BackgroundImageFix" result="effect1_dropShadow_2975_4472"/>
<feBlend mode="normal" in="SourceGraphic" in2="effect1_dropShadow_2975_4472" result="shape"/>
</filter>
</defs>
</svg>
