<svg width="566" height="145" viewBox="0 0 566 145" fill="none" xmlns="http://www.w3.org/2000/svg">
<g filter="url(#filter0_d_1745_5436)">
<rect x="16.6807" y="17.7373" width="532.245" height="110" rx="2.62673" transform="rotate(-0.113817 16.6807 17.7373)" stroke="#FFB332" stroke-opacity="0.8" stroke-width="2" shape-rendering="crispEdges"/>
<path d="M27.7094 32.3425C27.7054 30.3396 29.3259 28.7126 31.3289 28.7086L534.32 27.7094C536.323 27.7055 537.95 29.326 537.954 31.329L538.114 112.075C538.118 114.078 536.498 115.705 534.495 115.709L31.5037 116.708C29.5007 116.712 27.8737 115.092 27.8698 113.089L27.7094 32.3425Z" fill="#FFB332" fill-opacity="0.1"/>
<path d="M31.3311 29.7086L534.321 28.7094C535.772 28.7066 536.951 29.8805 536.953 31.3312L537.114 112.077C537.117 113.528 535.943 114.706 534.492 114.709L31.5019 115.708C30.0512 115.711 28.8726 114.537 28.8698 113.087L28.7094 32.3408C28.7066 30.9807 29.7382 29.8599 31.0626 29.7228L31.3311 29.7086Z" stroke="#FFB332" stroke-opacity="0.3" stroke-width="2"/>
<path d="M221.556 67.279L225.876 67.2704L225.853 55.5704L228.589 55.565L228.652 87.6409L225.916 87.6463L225.881 69.7184L221.561 69.7269L221.595 86.7909L218.895 86.7963L218.833 55.9443L221.533 55.939L221.556 67.279ZM210.356 65.2132C210.358 66.5332 210.529 67.8889 210.868 69.2802C211.206 70.6475 211.665 71.9906 212.244 73.3095C212.846 74.6283 213.545 75.8749 214.339 77.0493C215.157 78.1997 216.035 79.2059 216.973 80.0681L215.285 81.7634C213.746 80.2545 212.458 78.649 211.423 76.9471C210.412 75.2451 209.604 73.4587 209 71.5879C208.452 73.533 207.592 75.4547 206.42 77.353C205.271 79.2273 203.835 80.9942 202.11 82.6536L200.163 80.9295C201.217 80.0154 202.187 78.9335 203.072 77.6837C203.982 76.4339 204.771 75.1123 205.441 73.719C206.11 72.3256 206.623 70.8966 206.98 69.4319C207.361 67.9672 207.55 66.5628 207.548 65.2188L207.532 57.2268L210.34 57.2212L210.356 65.2132ZM243.065 57.5162L254.909 57.4927C254.939 60.2286 254.68 62.8091 254.133 65.2342C253.585 67.6353 252.81 69.8809 251.806 71.9709C250.802 74.0609 249.606 75.9832 248.217 77.738C246.829 79.4928 245.308 81.0678 243.655 82.4631L241.599 80.7752C243.277 79.4038 244.75 77.8889 246.018 76.2304C247.287 74.5719 248.352 72.8417 249.212 71.04C250.097 69.2383 250.765 67.3889 251.217 65.492C251.693 63.5951 251.966 61.7225 252.034 59.8744L243.07 59.8922L243.065 57.5162ZM262.239 86.7102L259.539 86.7155L259.507 70.2996L254.755 70.309L254.75 67.861L259.502 67.8516L259.478 55.8636L262.178 55.8582L262.239 86.7102ZM265.957 55.4907L268.693 55.4853L268.757 87.5612L266.021 87.5667L265.957 55.4907ZM282.407 71.9461C281.183 71.9485 280.042 71.7588 278.986 71.3769C277.929 70.971 277.016 70.4088 276.246 69.6903C275.501 68.9718 274.911 68.121 274.477 67.1378C274.043 66.1547 273.825 65.0751 273.823 63.8991C273.821 62.7231 274.034 61.6427 274.464 60.6578C274.894 59.673 275.481 58.8198 276.223 58.0983C276.99 57.3768 277.901 56.823 278.956 56.4369C280.011 56.0268 281.151 55.8205 282.375 55.8181C283.599 55.8157 284.739 56.0174 285.796 56.4233C286.853 56.8052 287.754 57.3554 288.499 58.074C289.269 58.7924 289.87 59.6432 290.304 60.6264C290.738 61.6095 290.956 62.6891 290.959 63.8651C290.961 65.0411 290.747 66.1215 290.317 67.1064C289.887 68.0912 289.289 68.9444 288.522 69.6659C287.78 70.3874 286.881 70.9532 285.826 71.3633C284.77 71.7494 283.631 71.9437 282.407 71.9461ZM282.379 58.1581C281.467 58.1599 280.652 58.3055 279.932 58.595C279.213 58.8844 278.602 59.2936 278.099 59.8226C277.596 60.3276 277.213 60.9284 276.95 61.6249C276.688 62.3214 276.557 63.0777 276.559 63.8937C276.56 64.7097 276.694 65.4654 276.959 66.1609C277.225 66.8564 277.61 67.4676 278.115 67.9946C278.62 68.4976 279.233 68.8924 279.953 69.179C280.674 69.4655 281.49 69.6079 282.402 69.6061C283.314 69.6043 284.13 69.4587 284.849 69.1692C285.569 68.8798 286.18 68.4826 286.683 67.9776C287.186 67.4486 287.569 66.8358 287.831 66.1393C288.094 65.4428 288.224 64.6865 288.223 63.8705C288.221 63.0545 288.088 62.2988 287.822 61.6033C287.557 60.9078 287.172 60.3086 286.667 59.8056C286.162 59.2786 285.549 58.8718 284.828 58.5852C284.108 58.2987 283.291 58.1563 282.379 58.1581ZM296.881 73.1773L296.846 55.4294L299.582 55.4239L299.617 73.1719L296.881 73.1773ZM278.405 87.3621L278.381 75.0861L299.549 75.044L299.573 87.32L278.405 87.3621ZM281.137 84.9806L296.833 84.9495L296.818 77.3895L281.122 77.4206L281.137 84.9806ZM326.935 87.4817L326.871 55.3697L329.607 55.3643L329.633 68.6843L334.421 68.6748L334.426 71.1227L329.638 71.1323L329.671 87.4762L326.935 87.4817ZM304.422 62.7943L304.417 60.4183L312.481 60.4023L312.472 55.7583L315.208 55.7529L315.217 60.3969L323.209 60.381L323.214 62.757L304.422 62.7943ZM314.036 82.2153C312.788 82.2178 311.66 82.004 310.651 81.574C309.642 81.144 308.777 80.5457 308.055 79.7791C307.334 78.9886 306.768 78.0657 306.358 77.0105C305.972 75.9553 305.777 74.8037 305.775 73.5557C305.772 72.3077 305.962 71.1553 306.344 70.0985C306.75 69.0417 307.312 68.1286 308.031 67.3592C308.749 66.5657 309.612 65.952 310.619 65.518C311.626 65.084 312.754 64.8658 314.002 64.8633C315.25 64.8608 316.378 65.0746 317.387 65.5046C318.396 65.9346 319.261 66.5449 319.983 67.3354C320.704 68.102 321.258 69.0129 321.644 70.0681C322.054 71.1233 322.26 72.2749 322.263 73.5229C322.265 74.7709 322.064 75.9233 321.658 76.9801C321.276 78.0369 320.726 78.962 320.007 79.7554C319.289 80.5248 318.426 81.1266 317.419 81.5606C316.412 81.9946 315.284 82.2128 314.036 82.2153ZM314.006 67.1673C312.206 67.1709 310.839 67.7616 309.906 68.9395C308.972 70.1173 308.507 71.6542 308.511 73.5502C308.515 75.4462 308.986 76.9813 309.924 78.1554C310.862 79.3296 312.232 79.9149 314.032 79.9113C315.832 79.9077 317.198 79.317 318.132 78.1391C319.066 76.9613 319.531 75.4243 319.527 73.5283C319.523 71.6324 319.052 70.0973 318.114 68.9231C317.175 67.749 315.806 67.1637 314.006 67.1673ZM359.839 87.4163L359.776 55.3044L362.512 55.2989L362.575 87.4109L359.839 87.4163ZM338.035 57.1115L352.795 57.0822C352.801 60.0102 352.434 62.735 351.695 65.2564C350.956 67.7779 349.941 70.0959 348.649 72.2105C347.381 74.301 345.885 76.188 344.16 77.8714C342.436 79.5549 340.603 81.0225 338.661 82.2744L336.713 80.4062C338.631 79.2264 340.368 77.867 341.925 76.3279C343.506 74.7887 344.859 73.118 345.983 71.3158C347.108 69.5136 348.004 67.6158 348.672 65.6224C349.34 63.6291 349.732 61.5763 349.848 59.4641L338.04 59.4875L338.035 57.1115Z" fill="#FFB332"/>
</g>
<defs>
<filter id="filter0_d_1745_5436" x="-0.00690746" y="-0.00788403" width="565.838" height="144.433" filterUnits="userSpaceOnUse" color-interpolation-filters="sRGB">
<feFlood flood-opacity="0" result="BackgroundImageFix"/>
<feColorMatrix in="SourceAlpha" type="matrix" values="0 0 0 0 0 0 0 0 0 0 0 0 0 0 0 0 0 0 127 0" result="hardAlpha"/>
<feOffset/>
<feGaussianBlur stdDeviation="7.84281"/>
<feComposite in2="hardAlpha" operator="out"/>
<feColorMatrix type="matrix" values="0 0 0 0 1 0 0 0 0 0.701961 0 0 0 0 0.196078 0 0 0 1 0"/>
<feBlend mode="normal" in2="BackgroundImageFix" result="effect1_dropShadow_1745_5436"/>
<feBlend mode="normal" in="SourceGraphic" in2="effect1_dropShadow_1745_5436" result="shape"/>
</filter>
</defs>
</svg>
