<svg width="573" height="144" viewBox="0 0 573 144" fill="none" xmlns="http://www.w3.org/2000/svg">
<path d="M31 112.373C31 114.376 32.6237 116 34.6267 116H537.373C539.376 116 541 114.376 541 112.373V31.6267C541 29.6237 539.376 28 537.373 28H34.6267C32.6237 28 31 29.6237 31 31.6267V112.373Z" fill="#FFB332" fill-opacity="0.1"/>
<path d="M34.627 115H537.373C538.824 115 540 113.824 540 112.373V31.627C540 30.1762 538.824 29 537.373 29H34.627C33.1762 29 32 30.1762 32 31.627V112.373C32 113.733 33.0337 114.852 34.3584 114.986L34.627 115Z" stroke="#FFB332" stroke-opacity="0.3" stroke-width="2"/>
<path d="M224.192 66.404L228.512 66.3954L228.489 54.6954L231.225 54.69L231.289 86.7659L228.553 86.7713L228.517 68.8434L224.197 68.8519L224.231 85.9159L221.531 85.9213L221.47 55.0693L224.17 55.064L224.192 66.404ZM212.992 64.3382C212.995 65.6582 213.166 67.0139 213.504 68.4052C213.843 69.7725 214.302 71.1156 214.88 72.4345C215.483 73.7533 216.182 74.9999 216.976 76.1743C217.794 77.3247 218.672 78.3309 219.61 79.1931L217.921 80.8884C216.382 79.3795 215.095 77.774 214.06 76.0721C213.048 74.3701 212.241 72.5837 211.637 70.7129C211.089 72.658 210.229 74.5797 209.056 76.478C207.908 78.3523 206.472 80.1192 204.747 81.7786L202.8 80.0545C203.854 79.1404 204.824 78.0585 205.709 76.8087C206.619 75.5589 207.408 74.2373 208.077 72.844C208.746 71.4506 209.26 70.0216 209.617 68.5569C209.998 67.0922 210.187 65.6878 210.184 64.3438L210.168 56.3518L212.976 56.3462L212.992 64.3382ZM245.702 56.6412L257.546 56.6177C257.575 59.3536 257.317 61.9341 256.769 64.3592C256.222 66.7603 255.447 69.0059 254.443 71.0959C253.439 73.1859 252.243 75.1082 250.854 76.863C249.466 78.6178 247.945 80.1928 246.292 81.5881L244.236 79.9002C245.913 78.5288 247.386 77.0139 248.655 75.3554C249.924 73.6969 250.988 71.9667 251.849 70.165C252.733 68.3633 253.402 66.5139 253.854 64.617C254.33 62.7201 254.602 60.8475 254.671 58.9994L245.707 59.0172L245.702 56.6412ZM264.876 85.8352L262.176 85.8405L262.143 69.4246L257.391 69.434L257.387 66.986L262.139 66.9766L262.115 54.9886L264.815 54.9832L264.876 85.8352ZM268.594 54.6157L271.33 54.6103L271.394 86.6862L268.658 86.6917L268.594 54.6157ZM285.044 71.0711C283.82 71.0735 282.679 70.8838 281.622 70.5019C280.566 70.096 279.652 69.5338 278.883 68.8153C278.138 68.0968 277.548 67.246 277.114 66.2628C276.68 65.2797 276.462 64.2001 276.46 63.0241C276.457 61.8481 276.671 60.7677 277.101 59.7828C277.531 58.798 278.117 57.9448 278.86 57.2233C279.627 56.5018 280.538 55.948 281.593 55.5619C282.648 55.1518 283.788 54.9455 285.012 54.9431C286.236 54.9407 287.376 55.1424 288.433 55.5483C289.489 55.9302 290.391 56.4804 291.136 57.199C291.905 57.9174 292.507 58.7682 292.941 59.7514C293.375 60.7345 293.593 61.8141 293.596 62.9901C293.598 64.1661 293.384 65.2465 292.954 66.2314C292.524 67.2162 291.926 68.0694 291.159 68.7909C290.416 69.5124 289.518 70.0782 288.462 70.4883C287.407 70.8744 286.268 71.0687 285.044 71.0711ZM285.016 57.2831C284.104 57.2849 283.288 57.4305 282.569 57.72C281.85 58.0094 281.238 58.4186 280.735 58.9476C280.232 59.4526 279.85 60.0534 279.587 60.7499C279.324 61.4464 279.194 62.2027 279.196 63.0187C279.197 63.8347 279.331 64.5904 279.596 65.2859C279.861 65.9814 280.247 66.5926 280.752 67.1196C281.257 67.6226 281.869 68.0174 282.59 68.304C283.311 68.5905 284.127 68.7329 285.039 68.7311C285.951 68.7293 286.767 68.5837 287.486 68.2942C288.205 68.0048 288.817 67.6076 289.32 67.1026C289.823 66.5736 290.205 65.9608 290.468 65.2643C290.731 64.5678 290.861 63.8115 290.86 62.9955C290.858 62.1795 290.724 61.4238 290.459 60.7283C290.194 60.0328 289.808 59.4336 289.303 58.9306C288.798 58.4036 288.186 57.9968 287.465 57.7102C286.744 57.4237 285.928 57.2813 285.016 57.2831ZM299.518 72.3023L299.483 54.5544L302.219 54.5489L302.254 72.2969L299.518 72.3023ZM281.042 86.4871L281.018 74.2111L302.186 74.169L302.21 86.445L281.042 86.4871ZM283.773 84.1056L299.469 84.0745L299.454 76.5145L283.758 76.5456L283.773 84.1056ZM329.571 86.6067L329.508 54.4947L332.244 54.4893L332.27 67.8093L337.058 67.7998L337.063 70.2477L332.275 70.2573L332.307 86.6012L329.571 86.6067ZM307.058 61.9193L307.054 59.5433L315.118 59.5273L315.108 54.8833L317.844 54.8779L317.854 59.5219L325.846 59.506L325.85 61.882L307.058 61.9193ZM316.673 81.3403C315.425 81.3428 314.296 81.129 313.288 80.699C312.279 80.269 311.414 79.6707 310.692 78.9041C309.97 78.1136 309.405 77.1907 308.995 76.1355C308.608 75.0803 308.414 73.9287 308.412 72.6807C308.409 71.4327 308.599 70.2803 308.981 69.2235C309.387 68.1667 309.949 67.2536 310.667 66.4842C311.386 65.6907 312.249 65.077 313.256 64.643C314.263 64.209 315.39 63.9908 316.638 63.9883C317.886 63.9858 319.015 64.1996 320.024 64.6296C321.033 65.0596 321.898 65.6699 322.619 66.4604C323.341 67.227 323.895 68.1379 324.281 69.1931C324.691 70.2483 324.897 71.3999 324.9 72.6479C324.902 73.8959 324.7 75.0483 324.294 76.1051C323.913 77.1619 323.362 78.087 322.644 78.8804C321.926 79.6498 321.063 80.2516 320.056 80.6856C319.048 81.1196 317.921 81.3378 316.673 81.3403ZM316.643 66.2923C314.843 66.2959 313.476 66.8866 312.542 68.0645C311.609 69.2423 311.144 70.7792 311.148 72.6752C311.151 74.5712 311.622 76.1063 312.561 77.2804C313.499 78.4546 314.868 79.0399 316.668 79.0363C318.468 79.0327 319.835 78.442 320.769 77.2641C321.702 76.0863 322.167 74.5493 322.164 72.6533C322.16 70.7574 321.689 69.2223 320.75 68.0481C319.812 66.874 318.443 66.2887 316.643 66.2923ZM362.476 86.5413L362.412 54.4294L365.148 54.4239L365.212 86.5359L362.476 86.5413ZM340.672 56.2365L355.432 56.2072C355.438 59.1352 355.071 61.86 354.332 64.3814C353.593 66.9029 352.578 69.2209 351.286 71.3355C350.018 73.426 348.522 75.313 346.797 76.9964C345.072 78.6799 343.239 80.1475 341.298 81.3994L339.35 79.5312C341.268 78.3514 343.005 76.992 344.562 75.4529C346.143 73.9137 347.496 72.243 348.62 70.4408C349.745 68.6386 350.641 66.7408 351.309 64.7474C351.977 62.7541 352.369 60.7013 352.485 58.5891L340.677 58.6125L340.672 56.2365Z" fill="#FFB332"/>
<g filter="url(#filter0_d_2975_4453)">
<path d="M23.627 126H548.373C549.824 126 551 124.824 551 123.373V19.627C551 18.1762 549.824 17 548.373 17H23.627C22.1763 17 21 18.1762 21 19.627V123.373C21 124.824 22.1762 126 23.627 126Z" stroke="#FFB332" stroke-opacity="0.8" stroke-width="2" shape-rendering="crispEdges"/>
</g>
<defs>
<filter id="filter0_d_2975_4453" x="4.31438" y="0.314382" width="563.371" height="142.371" filterUnits="userSpaceOnUse" color-interpolation-filters="sRGB">
<feFlood flood-opacity="0" result="BackgroundImageFix"/>
<feColorMatrix in="SourceAlpha" type="matrix" values="0 0 0 0 0 0 0 0 0 0 0 0 0 0 0 0 0 0 127 0" result="hardAlpha"/>
<feOffset/>
<feGaussianBlur stdDeviation="7.84281"/>
<feComposite in2="hardAlpha" operator="out"/>
<feColorMatrix type="matrix" values="0 0 0 0 1 0 0 0 0 0.701961 0 0 0 0 0.196078 0 0 0 1 0"/>
<feBlend mode="normal" in2="BackgroundImageFix" result="effect1_dropShadow_2975_4453"/>
<feBlend mode="normal" in="SourceGraphic" in2="effect1_dropShadow_2975_4453" result="shape"/>
</filter>
</defs>
</svg>
