<svg width="332" height="133" viewBox="0 0 332 133" fill="none" xmlns="http://www.w3.org/2000/svg">
<path d="M8 0V8H0" stroke="#F5091E" stroke-opacity="0.5"/>
<path d="M9 1V9H1" stroke="white"/>
<path d="M10 2V10H2" stroke="#00C9D7" stroke-opacity="0.5"/>
<path d="M-3.49691e-07 125L8 125L8 133" stroke="#F5091E" stroke-opacity="0.5"/>
<path d="M1 124L9 124L9 132" stroke="white"/>
<path d="M2 123L10 123L10 131" stroke="#00C9D7" stroke-opacity="0.5"/>
<path d="M324 0V8H332" stroke="#F5091E" stroke-opacity="0.5"/>
<path d="M323 1V9H331" stroke="white"/>
<path d="M322 2V10H330" stroke="#00C9D7" stroke-opacity="0.5"/>
<path d="M332 125L324 125L324 133" stroke="#F5091E" stroke-opacity="0.5"/>
<path d="M331 124L323 124L323 132" stroke="white"/>
<path d="M330 123L322 123L322 131" stroke="#00C9D7" stroke-opacity="0.5"/>
<rect x="12" y="10.9883" width="311" height="113.026" stroke="#00C9D7" stroke-opacity="0.5" stroke-width="2"/>
<rect x="8" y="8" width="311" height="113.026" stroke="#F5091E" stroke-opacity="0.5" stroke-width="2"/>
<g filter="url(#filter0_d_2713_3374)">
<path d="M10 123.521C10 123.521 10 53.871 10 9.2422L320.5 9.2422" stroke="white" stroke-width="2"/>
</g>
<g filter="url(#filter1_d_2713_3374)">
<rect x="9" y="8" width="313" height="115.026" fill="white" fill-opacity="0.2" shape-rendering="crispEdges"/>
<rect x="10" y="9" width="311" height="113.026" stroke="white" stroke-width="2" shape-rendering="crispEdges"/>
</g>
<path d="M60.4953 44.2562L67.8885 52.0478C69.3081 53.5439 71.6919 53.5439 73.1115 52.0478L80.5047 44.2562C83.1651 41.4524 83.1651 36.9066 80.5047 34.1028C77.8443 31.2991 73.5309 31.2991 70.8705 34.1028C70.6691 34.3151 70.3309 34.3151 70.1295 34.1028C67.4691 31.2991 63.1557 31.2991 60.4953 34.1028C57.8349 36.9066 57.8349 41.4524 60.4953 44.2562Z" fill="#FF4E59" stroke="#FF4E59" stroke-width="1.8"/>
<path d="M100.85 48.302C100.014 47.466 99.2953 46.586 98.694 45.662C98.1073 44.738 97.6233 43.814 97.242 42.89C96.9047 43.8287 96.3987 44.8187 95.724 45.86C95.0493 46.9013 94.206 47.8767 93.194 48.786L91.61 47.4C92.27 46.8573 92.8713 46.234 93.414 45.53C93.9567 44.8113 94.4187 44.056 94.8 43.264C95.196 42.4573 95.504 41.636 95.724 40.8C95.944 39.964 96.054 39.1573 96.054 38.38V36.884H92.798V34.904H96.076V32.088H98.386V34.904H101.598V36.884H98.408V38.38C98.408 39.172 98.5033 39.964 98.694 40.756C98.8993 41.548 99.178 42.3107 99.53 43.044C99.882 43.7773 100.293 44.474 100.762 45.134C101.231 45.7793 101.737 46.3587 102.28 46.872L100.85 48.302ZM105.47 50.964H103.226V41.482H100.542V39.458H103.226V32.044H105.47V50.964ZM109.32 51.47H107.054V31.824H109.32V51.47ZM124.127 42.406C122.939 42.5967 121.707 42.7213 120.431 42.78C119.169 42.8387 117.915 42.868 116.669 42.868H112.445V36.62H119.331V34.31H112.445V32.352H121.641V38.512H114.755V40.932H116.669C117.93 40.932 119.169 40.91 120.387 40.866C121.604 40.822 122.851 40.712 124.127 40.536V42.406ZM127.977 43.66H125.667V39.414H122.675V37.5H125.667V35.74H122.675V33.804H125.667V31.824H127.977V43.66ZM127.933 51.602H125.623V46.674H114.315V44.694H127.933V51.602Z" fill="white"/>
<path d="M193.5 42.9032L201.764 30H211.682L205.483 38.871H211.682L193.5 55L199.285 42.9032H193.5Z" fill="#FFF603" stroke="#FFF603" stroke-linejoin="round"/>
<path d="M235.594 49.556C235.242 50.0987 234.751 50.546 234.12 50.898C233.489 51.2647 232.734 51.536 231.854 51.712C230.974 51.888 230.013 51.976 228.972 51.976C227.931 51.976 226.97 51.888 226.09 51.712C225.225 51.536 224.477 51.2647 223.846 50.898C223.215 50.546 222.724 50.0987 222.372 49.556C222.02 49.028 221.844 48.3973 221.844 47.664C221.844 46.9453 222.02 46.3147 222.372 45.772C222.724 45.2293 223.215 44.782 223.846 44.43C224.477 44.0633 225.225 43.792 226.09 43.616C226.97 43.44 227.931 43.352 228.972 43.352C230.013 43.352 230.974 43.44 231.854 43.616C232.734 43.792 233.489 44.0633 234.12 44.43C234.751 44.782 235.242 45.2293 235.594 45.772C235.946 46.3147 236.122 46.9453 236.122 47.664C236.122 48.3973 235.946 49.028 235.594 49.556ZM230.424 42.318C229.368 41.8047 228.415 41.174 227.564 40.426C226.713 39.678 226.031 38.864 225.518 37.984C225.049 38.8787 224.367 39.7733 223.472 40.668C222.577 41.548 221.507 42.318 220.26 42.978C220.025 42.714 219.791 42.4573 219.556 42.208C219.321 41.944 219.079 41.68 218.83 41.416C219.637 41.0053 220.37 40.536 221.03 40.008C221.705 39.4653 222.277 38.8933 222.746 38.292C223.23 37.6907 223.597 37.0747 223.846 36.444C224.11 35.7987 224.242 35.168 224.242 34.552V34.42H220.106V32.484H230.798V34.42H226.662V34.552C226.662 35.212 226.787 35.8427 227.036 36.444C227.3 37.0307 227.652 37.5807 228.092 38.094C228.547 38.6073 229.075 39.084 229.676 39.524C230.277 39.9493 230.923 40.3233 231.612 40.646L230.424 42.318ZM232.536 49.424C233.357 49.0427 233.768 48.456 233.768 47.664C233.768 46.872 233.357 46.2853 232.536 45.904C231.715 45.508 230.527 45.31 228.972 45.31C227.417 45.31 226.229 45.508 225.408 45.904C224.601 46.2853 224.198 46.872 224.198 47.664C224.198 48.456 224.601 49.0427 225.408 49.424C226.229 49.82 227.417 50.018 228.972 50.018C230.527 50.018 231.715 49.82 232.536 49.424ZM235.748 43.132H233.438V37.984H230.05V36.026H233.438V31.824H235.748V43.132ZM254.977 45.706H252.667V31.824H254.977V45.706ZM249.675 42.758C248.589 42.142 247.629 41.438 246.793 40.646C245.957 39.854 245.26 38.9813 244.703 38.028C244.189 38.996 243.493 39.942 242.613 40.866C241.747 41.7753 240.669 42.5967 239.379 43.33L237.949 41.768C238.77 41.328 239.518 40.8293 240.193 40.272C240.867 39.7 241.439 39.0987 241.909 38.468C242.393 37.8227 242.767 37.1627 243.031 36.488C243.295 35.7987 243.427 35.1167 243.427 34.442V32.264H245.847V34.442C245.847 35.1313 245.979 35.7987 246.243 36.444C246.521 37.0893 246.888 37.698 247.343 38.27C247.812 38.842 248.347 39.37 248.949 39.854C249.55 40.3233 250.188 40.734 250.863 41.086L249.675 42.758ZM255.417 51.272H241.755V44.364H244.065V49.292H255.417V51.272ZM270.355 42.406C269.167 42.5967 267.935 42.7213 266.659 42.78C265.398 42.8387 264.144 42.868 262.897 42.868H258.673V36.62H265.559V34.31H258.673V32.352H267.869V38.512H260.983V40.932H262.897C264.158 40.932 265.398 40.91 266.615 40.866C267.832 40.822 269.079 40.712 270.355 40.536V42.406ZM274.205 43.66H271.895V39.414H268.903V37.5H271.895V35.74H268.903V33.804H271.895V31.824H274.205V43.66ZM274.161 51.602H271.851V46.674H260.543V44.694H274.161V51.602Z" fill="white"/>
<path d="M22 69C26.8167 69.0333 31.6333 69.065 36.45 69.095C79.8 69.365 123.15 69.5 166.5 69.5C209.85 69.5 253.2 69.365 296.55 69.095C301.367 69.065 306.183 69.0334 311 69C306.183 68.9667 301.367 68.935 296.55 68.905C253.2 68.635 209.85 68.5 166.5 68.5C123.15 68.5 79.8 68.635 36.45 68.905C31.6333 68.935 26.8167 68.9667 22 69Z" fill="white"/>
<path d="M87.4589 102.248H84.9389V94.016H75.8189V102.248H73.2989V84.152H75.8189V91.856H84.9389V84.152H87.4589V102.248ZM94.1465 86.504C93.8265 86.84 93.4105 87.008 92.8985 87.008C92.3865 87.008 91.9705 86.84 91.6505 86.504C91.3305 86.152 91.1705 85.744 91.1705 85.28C91.1705 84.816 91.3305 84.416 91.6505 84.08C91.9705 83.728 92.3865 83.552 92.8985 83.552C93.4105 83.552 93.8265 83.728 94.1465 84.08C94.4665 84.416 94.6265 84.816 94.6265 85.28C94.6265 85.744 94.4665 86.152 94.1465 86.504ZM94.1465 102.248H91.6505V88.808H94.1465V102.248ZM108.65 101.792C108.65 102.688 108.522 103.488 108.266 104.192C108.01 104.912 107.642 105.52 107.162 106.016C106.698 106.528 106.122 106.912 105.434 107.168C104.762 107.44 103.994 107.576 103.13 107.576C102.698 107.576 102.226 107.52 101.714 107.408C101.202 107.312 100.69 107.152 100.178 106.928C99.6816 106.72 99.2016 106.44 98.7376 106.088C98.2736 105.736 97.8816 105.312 97.5616 104.816L99.0976 103.328C99.3856 103.728 99.6896 104.064 100.01 104.336C100.346 104.608 100.69 104.824 101.042 104.984C101.394 105.16 101.738 105.28 102.074 105.344C102.426 105.424 102.746 105.464 103.034 105.464C104.042 105.464 104.818 105.144 105.362 104.504C105.906 103.88 106.178 102.992 106.178 101.84V100.448H106.01C105.738 100.944 105.306 101.368 104.714 101.72C104.122 102.072 103.498 102.248 102.842 102.248C101.994 102.248 101.21 102.088 100.49 101.768C99.7856 101.464 99.1776 101.016 98.6656 100.424C98.1536 99.832 97.7536 99.112 97.4656 98.264C97.1776 97.416 97.0336 96.464 97.0336 95.408C97.0336 94.352 97.1776 93.4 97.4656 92.552C97.7536 91.704 98.1536 90.992 98.6656 90.416C99.1776 89.824 99.7856 89.368 100.49 89.048C101.21 88.728 101.994 88.568 102.842 88.568C103.562 88.568 104.21 88.736 104.786 89.072C105.362 89.408 105.786 89.808 106.058 90.272H106.226V88.808H108.65V101.792ZM104.066 99.896C104.466 99.72 104.818 99.44 105.122 99.056C105.442 98.672 105.69 98.176 105.866 97.568C106.058 96.96 106.154 96.224 106.154 95.36C106.154 94.464 106.058 93.72 105.866 93.128C105.69 92.52 105.45 92.04 105.146 91.688C104.842 91.32 104.49 91.064 104.09 90.92C103.69 90.776 103.274 90.704 102.842 90.704C102.282 90.704 101.794 90.824 101.378 91.064C100.978 91.288 100.634 91.616 100.346 92.048C100.074 92.464 99.8656 92.96 99.7216 93.536C99.5936 94.112 99.5296 94.736 99.5296 95.408C99.5296 96.096 99.5936 96.728 99.7216 97.304C99.8656 97.88 100.074 98.384 100.346 98.816C100.634 99.232 100.978 99.56 101.378 99.8C101.794 100.024 102.282 100.136 102.842 100.136C103.274 100.136 103.682 100.056 104.066 99.896ZM123.046 102.248H120.574V94.016C120.574 93.04 120.318 92.248 119.806 91.64C119.31 91.016 118.622 90.704 117.742 90.704C117.31 90.704 116.902 90.792 116.518 90.968C116.15 91.128 115.822 91.352 115.534 91.64C115.262 91.928 115.038 92.28 114.862 92.696C114.702 93.096 114.622 93.536 114.622 94.016V102.248H112.126V83.432H114.574V90.2H114.742C115.11 89.752 115.582 89.368 116.158 89.048C116.734 88.728 117.47 88.568 118.366 88.568C118.942 88.568 119.51 88.68 120.07 88.904C120.63 89.112 121.126 89.44 121.558 89.888C122.006 90.336 122.366 90.896 122.638 91.568C122.91 92.24 123.046 93.04 123.046 93.968V102.248Z" fill="white"/>
<path d="M231.344 102.248H220.088V84.152H222.608V100.088H231.344V102.248ZM243.802 100.592C243.242 101.2 242.57 101.664 241.786 101.984C241.018 102.32 240.17 102.488 239.242 102.488C238.314 102.488 237.458 102.32 236.674 101.984C235.906 101.664 235.242 101.2 234.682 100.592C234.122 99.984 233.682 99.256 233.362 98.408C233.058 97.544 232.906 96.584 232.906 95.528C232.906 94.472 233.058 93.52 233.362 92.672C233.682 91.808 234.122 91.072 234.682 90.464C235.242 89.856 235.906 89.392 236.674 89.072C237.458 88.736 238.314 88.568 239.242 88.568C240.17 88.568 241.018 88.736 241.786 89.072C242.57 89.392 243.242 89.856 243.802 90.464C244.378 91.072 244.818 91.808 245.122 92.672C245.442 93.52 245.602 94.472 245.602 95.528C245.602 96.584 245.442 97.544 245.122 98.408C244.818 99.256 244.378 99.984 243.802 100.592ZM240.874 100.016C241.354 99.76 241.754 99.416 242.074 98.984C242.41 98.552 242.666 98.04 242.842 97.448C243.018 96.856 243.106 96.216 243.106 95.528C243.106 94.856 243.018 94.224 242.842 93.632C242.666 93.04 242.41 92.528 242.074 92.096C241.754 91.664 241.354 91.328 240.874 91.088C240.394 90.832 239.85 90.704 239.242 90.704C238.634 90.704 238.09 90.832 237.61 91.088C237.146 91.328 236.746 91.664 236.41 92.096C236.09 92.528 235.842 93.04 235.666 93.632C235.49 94.224 235.402 94.856 235.402 95.528C235.402 96.216 235.49 96.856 235.666 97.448C235.842 98.04 236.09 98.552 236.41 98.984C236.746 99.416 237.146 99.76 237.61 100.016C238.09 100.256 238.634 100.376 239.242 100.376C239.85 100.376 240.394 100.256 240.874 100.016ZM261.593 102.248H259.337L256.697 93.536L256.505 92.6H256.337L256.121 93.536L253.505 102.248H251.249L247.265 88.808H249.833L252.161 97.448L252.377 98.528H252.545L252.761 97.448L255.305 88.808H257.513L260.057 97.448L260.297 98.528H260.465C260.465 98.496 260.473 98.432 260.489 98.336C260.521 98.224 260.545 98.112 260.561 98C260.593 97.872 260.617 97.76 260.633 97.664C260.665 97.552 260.681 97.48 260.681 97.448L262.985 88.808H265.553L261.593 102.248Z" fill="white"/>
<defs>
<filter id="filter0_d_2713_3374" x="9" y="8.24219" width="313.5" height="117.279" filterUnits="userSpaceOnUse" color-interpolation-filters="sRGB">
<feFlood flood-opacity="0" result="BackgroundImageFix"/>
<feColorMatrix in="SourceAlpha" type="matrix" values="0 0 0 0 0 0 0 0 0 0 0 0 0 0 0 0 0 0 127 0" result="hardAlpha"/>
<feOffset dx="1" dy="1"/>
<feGaussianBlur stdDeviation="0.5"/>
<feComposite in2="hardAlpha" operator="out"/>
<feColorMatrix type="matrix" values="0 0 0 0 0 0 0 0 0 0 0 0 0 0 0 0 0 0 0.25 0"/>
<feBlend mode="normal" in2="BackgroundImageFix" result="effect1_dropShadow_2713_3374"/>
<feBlend mode="normal" in="SourceGraphic" in2="effect1_dropShadow_2713_3374" result="shape"/>
</filter>
<filter id="filter1_d_2713_3374" x="9" y="8" width="315" height="117.026" filterUnits="userSpaceOnUse" color-interpolation-filters="sRGB">
<feFlood flood-opacity="0" result="BackgroundImageFix"/>
<feColorMatrix in="SourceAlpha" type="matrix" values="0 0 0 0 0 0 0 0 0 0 0 0 0 0 0 0 0 0 127 0" result="hardAlpha"/>
<feOffset dx="1" dy="1"/>
<feGaussianBlur stdDeviation="0.5"/>
<feComposite in2="hardAlpha" operator="out"/>
<feColorMatrix type="matrix" values="0 0 0 0 0 0 0 0 0 0 0 0 0 0 0 0 0 0 0.25 0"/>
<feBlend mode="normal" in2="BackgroundImageFix" result="effect1_dropShadow_2713_3374"/>
<feBlend mode="normal" in="SourceGraphic" in2="effect1_dropShadow_2713_3374" result="shape"/>
</filter>
</defs>
</svg>
