<svg width="332" height="133" viewBox="0 0 332 133" fill="none" xmlns="http://www.w3.org/2000/svg">
<path d="M8 0V8H0" stroke="#F5091E" stroke-opacity="0.5"/>
<path d="M9 1V9H1" stroke="white"/>
<path d="M10 2V10H2" stroke="#00C9D7" stroke-opacity="0.5"/>
<path d="M-3.49691e-07 125L8 125L8 133" stroke="#F5091E" stroke-opacity="0.5"/>
<path d="M1 124L9 124L9 132" stroke="white"/>
<path d="M2 123L10 123L10 131" stroke="#00C9D7" stroke-opacity="0.5"/>
<path d="M324 0V8H332" stroke="#F5091E" stroke-opacity="0.5"/>
<path d="M323 1V9H331" stroke="white"/>
<path d="M322 2V10H330" stroke="#00C9D7" stroke-opacity="0.5"/>
<path d="M332 125L324 125L324 133" stroke="#F5091E" stroke-opacity="0.5"/>
<path d="M331 124L323 124L323 132" stroke="white"/>
<path d="M330 123L322 123L322 131" stroke="#00C9D7" stroke-opacity="0.5"/>
<rect x="12" y="10.9883" width="311" height="113.026" stroke="#00C9D7" stroke-opacity="0.5" stroke-width="2"/>
<rect x="8" y="8" width="311" height="113.026" stroke="#F5091E" stroke-opacity="0.5" stroke-width="2"/>
<g filter="url(#filter0_d_2713_3375)">
<path d="M10 123.521C10 123.521 10 53.871 10 9.2422L320.5 9.2422" stroke="white" stroke-width="2"/>
</g>
<g filter="url(#filter1_d_2713_3375)">
<rect x="9" y="8" width="313" height="115.026" fill="white" fill-opacity="0.2" shape-rendering="crispEdges"/>
<rect x="10" y="9" width="311" height="113.026" stroke="white" stroke-width="2" shape-rendering="crispEdges"/>
</g>
<path d="M60.4953 44.2562L67.8885 52.0478C69.3081 53.5439 71.6919 53.5439 73.1115 52.0478L80.5047 44.2562C83.1651 41.4524 83.1651 36.9066 80.5047 34.1028C77.8443 31.2991 73.5309 31.2991 70.8705 34.1028C70.6691 34.3151 70.3309 34.3151 70.1295 34.1028C67.4691 31.2991 63.1557 31.2991 60.4953 34.1028C57.8349 36.9066 57.8349 41.4524 60.4953 44.2562Z" fill="#FF4E59" stroke="#FF4E59" stroke-width="1.8"/>
<path d="M100.85 48.302C100.014 47.466 99.2953 46.586 98.694 45.662C98.1073 44.738 97.6233 43.814 97.242 42.89C96.9047 43.8287 96.3987 44.8187 95.724 45.86C95.0493 46.9013 94.206 47.8767 93.194 48.786L91.61 47.4C92.27 46.8573 92.8713 46.234 93.414 45.53C93.9567 44.8113 94.4187 44.056 94.8 43.264C95.196 42.4573 95.504 41.636 95.724 40.8C95.944 39.964 96.054 39.1573 96.054 38.38V36.884H92.798V34.904H96.076V32.088H98.386V34.904H101.598V36.884H98.408V38.38C98.408 39.172 98.5033 39.964 98.694 40.756C98.8993 41.548 99.178 42.3107 99.53 43.044C99.882 43.7773 100.293 44.474 100.762 45.134C101.231 45.7793 101.737 46.3587 102.28 46.872L100.85 48.302ZM105.47 50.964H103.226V41.482H100.542V39.458H103.226V32.044H105.47V50.964ZM109.32 51.47H107.054V31.824H109.32V51.47ZM124.127 42.406C122.939 42.5967 121.707 42.7213 120.431 42.78C119.169 42.8387 117.915 42.868 116.669 42.868H112.445V36.62H119.331V34.31H112.445V32.352H121.641V38.512H114.755V40.932H116.669C117.93 40.932 119.169 40.91 120.387 40.866C121.604 40.822 122.851 40.712 124.127 40.536V42.406ZM127.977 43.66H125.667V39.414H122.675V37.5H125.667V35.74H122.675V33.804H125.667V31.824H127.977V43.66ZM127.933 51.602H125.623V46.674H114.315V44.694H127.933V51.602Z" fill="white"/>
<path d="M193.5 42.9032L201.764 30H211.682L205.483 38.871H211.682L193.5 55L199.285 42.9032H193.5Z" fill="#FFF603" stroke="#FFF603" stroke-linejoin="round"/>
<path d="M235.594 49.556C235.242 50.0987 234.751 50.546 234.12 50.898C233.489 51.2647 232.734 51.536 231.854 51.712C230.974 51.888 230.013 51.976 228.972 51.976C227.931 51.976 226.97 51.888 226.09 51.712C225.225 51.536 224.477 51.2647 223.846 50.898C223.215 50.546 222.724 50.0987 222.372 49.556C222.02 49.028 221.844 48.3973 221.844 47.664C221.844 46.9453 222.02 46.3147 222.372 45.772C222.724 45.2293 223.215 44.782 223.846 44.43C224.477 44.0633 225.225 43.792 226.09 43.616C226.97 43.44 227.931 43.352 228.972 43.352C230.013 43.352 230.974 43.44 231.854 43.616C232.734 43.792 233.489 44.0633 234.12 44.43C234.751 44.782 235.242 45.2293 235.594 45.772C235.946 46.3147 236.122 46.9453 236.122 47.664C236.122 48.3973 235.946 49.028 235.594 49.556ZM230.424 42.318C229.368 41.8047 228.415 41.174 227.564 40.426C226.713 39.678 226.031 38.864 225.518 37.984C225.049 38.8787 224.367 39.7733 223.472 40.668C222.577 41.548 221.507 42.318 220.26 42.978C220.025 42.714 219.791 42.4573 219.556 42.208C219.321 41.944 219.079 41.68 218.83 41.416C219.637 41.0053 220.37 40.536 221.03 40.008C221.705 39.4653 222.277 38.8933 222.746 38.292C223.23 37.6907 223.597 37.0747 223.846 36.444C224.11 35.7987 224.242 35.168 224.242 34.552V34.42H220.106V32.484H230.798V34.42H226.662V34.552C226.662 35.212 226.787 35.8427 227.036 36.444C227.3 37.0307 227.652 37.5807 228.092 38.094C228.547 38.6073 229.075 39.084 229.676 39.524C230.277 39.9493 230.923 40.3233 231.612 40.646L230.424 42.318ZM232.536 49.424C233.357 49.0427 233.768 48.456 233.768 47.664C233.768 46.872 233.357 46.2853 232.536 45.904C231.715 45.508 230.527 45.31 228.972 45.31C227.417 45.31 226.229 45.508 225.408 45.904C224.601 46.2853 224.198 46.872 224.198 47.664C224.198 48.456 224.601 49.0427 225.408 49.424C226.229 49.82 227.417 50.018 228.972 50.018C230.527 50.018 231.715 49.82 232.536 49.424ZM235.748 43.132H233.438V37.984H230.05V36.026H233.438V31.824H235.748V43.132ZM254.977 45.706H252.667V31.824H254.977V45.706ZM249.675 42.758C248.589 42.142 247.629 41.438 246.793 40.646C245.957 39.854 245.26 38.9813 244.703 38.028C244.189 38.996 243.493 39.942 242.613 40.866C241.747 41.7753 240.669 42.5967 239.379 43.33L237.949 41.768C238.77 41.328 239.518 40.8293 240.193 40.272C240.867 39.7 241.439 39.0987 241.909 38.468C242.393 37.8227 242.767 37.1627 243.031 36.488C243.295 35.7987 243.427 35.1167 243.427 34.442V32.264H245.847V34.442C245.847 35.1313 245.979 35.7987 246.243 36.444C246.521 37.0893 246.888 37.698 247.343 38.27C247.812 38.842 248.347 39.37 248.949 39.854C249.55 40.3233 250.188 40.734 250.863 41.086L249.675 42.758ZM255.417 51.272H241.755V44.364H244.065V49.292H255.417V51.272ZM270.355 42.406C269.167 42.5967 267.935 42.7213 266.659 42.78C265.398 42.8387 264.144 42.868 262.897 42.868H258.673V36.62H265.559V34.31H258.673V32.352H267.869V38.512H260.983V40.932H262.897C264.158 40.932 265.398 40.91 266.615 40.866C267.832 40.822 269.079 40.712 270.355 40.536V42.406ZM274.205 43.66H271.895V39.414H268.903V37.5H271.895V35.74H268.903V33.804H271.895V31.824H274.205V43.66ZM274.161 51.602H271.851V46.674H260.543V44.694H274.161V51.602Z" fill="white"/>
<path d="M22 69C26.8167 69.0333 31.6333 69.065 36.45 69.095C79.8 69.365 123.15 69.5 166.5 69.5C209.85 69.5 253.2 69.365 296.55 69.095C301.367 69.065 306.183 69.0334 311 69C306.183 68.9667 301.367 68.935 296.55 68.905C253.2 68.635 209.85 68.5 166.5 68.5C123.15 68.5 79.8 68.635 36.45 68.905C31.6333 68.935 26.8167 68.9667 22 69Z" fill="white"/>
<path d="M87.7268 102.248H76.4708V84.152H78.9908V100.088H87.7268V102.248ZM100.185 100.592C99.6253 101.2 98.9533 101.664 98.1693 101.984C97.4013 102.32 96.5533 102.488 95.6253 102.488C94.6973 102.488 93.8413 102.32 93.0573 101.984C92.2893 101.664 91.6253 101.2 91.0653 100.592C90.5053 99.984 90.0653 99.256 89.7453 98.408C89.4413 97.544 89.2893 96.584 89.2893 95.528C89.2893 94.472 89.4413 93.52 89.7453 92.672C90.0653 91.808 90.5053 91.072 91.0653 90.464C91.6253 89.856 92.2893 89.392 93.0573 89.072C93.8413 88.736 94.6973 88.568 95.6253 88.568C96.5533 88.568 97.4013 88.736 98.1693 89.072C98.9533 89.392 99.6253 89.856 100.185 90.464C100.761 91.072 101.201 91.808 101.505 92.672C101.825 93.52 101.985 94.472 101.985 95.528C101.985 96.584 101.825 97.544 101.505 98.408C101.201 99.256 100.761 99.984 100.185 100.592ZM97.2573 100.016C97.7373 99.76 98.1373 99.416 98.4573 98.984C98.7933 98.552 99.0493 98.04 99.2253 97.448C99.4013 96.856 99.4893 96.216 99.4893 95.528C99.4893 94.856 99.4013 94.224 99.2253 93.632C99.0493 93.04 98.7933 92.528 98.4573 92.096C98.1373 91.664 97.7373 91.328 97.2573 91.088C96.7773 90.832 96.2333 90.704 95.6253 90.704C95.0173 90.704 94.4733 90.832 93.9933 91.088C93.5293 91.328 93.1293 91.664 92.7933 92.096C92.4733 92.528 92.2253 93.04 92.0493 93.632C91.8733 94.224 91.7853 94.856 91.7853 95.528C91.7853 96.216 91.8733 96.856 92.0493 97.448C92.2253 98.04 92.4733 98.552 92.7933 98.984C93.1293 99.416 93.5293 99.76 93.9933 100.016C94.4733 100.256 95.0173 100.376 95.6253 100.376C96.2333 100.376 96.7773 100.256 97.2573 100.016ZM117.976 102.248H115.72L113.08 93.536L112.888 92.6H112.72L112.504 93.536L109.888 102.248H107.632L103.648 88.808H106.216L108.544 97.448L108.76 98.528H108.928L109.144 97.448L111.688 88.808H113.896L116.44 97.448L116.68 98.528H116.848C116.848 98.496 116.856 98.432 116.872 98.336C116.904 98.224 116.928 98.112 116.944 98C116.976 97.872 117 97.76 117.016 97.664C117.048 97.552 117.064 97.48 117.064 97.448L119.368 88.808H121.936L117.976 102.248Z" fill="white"/>
<path d="M229.727 102.248H218.471V84.152H220.991V100.088H229.727V102.248ZM242.185 100.592C241.625 101.2 240.953 101.664 240.169 101.984C239.401 102.32 238.553 102.488 237.625 102.488C236.697 102.488 235.841 102.32 235.057 101.984C234.289 101.664 233.625 101.2 233.065 100.592C232.505 99.984 232.065 99.256 231.745 98.408C231.441 97.544 231.289 96.584 231.289 95.528C231.289 94.472 231.441 93.52 231.745 92.672C232.065 91.808 232.505 91.072 233.065 90.464C233.625 89.856 234.289 89.392 235.057 89.072C235.841 88.736 236.697 88.568 237.625 88.568C238.553 88.568 239.401 88.736 240.169 89.072C240.953 89.392 241.625 89.856 242.185 90.464C242.761 91.072 243.201 91.808 243.505 92.672C243.825 93.52 243.985 94.472 243.985 95.528C243.985 96.584 243.825 97.544 243.505 98.408C243.201 99.256 242.761 99.984 242.185 100.592ZM239.257 100.016C239.737 99.76 240.137 99.416 240.457 98.984C240.793 98.552 241.049 98.04 241.225 97.448C241.401 96.856 241.489 96.216 241.489 95.528C241.489 94.856 241.401 94.224 241.225 93.632C241.049 93.04 240.793 92.528 240.457 92.096C240.137 91.664 239.737 91.328 239.257 91.088C238.777 90.832 238.233 90.704 237.625 90.704C237.017 90.704 236.473 90.832 235.993 91.088C235.529 91.328 235.129 91.664 234.793 92.096C234.473 92.528 234.225 93.04 234.049 93.632C233.873 94.224 233.785 94.856 233.785 95.528C233.785 96.216 233.873 96.856 234.049 97.448C234.225 98.04 234.473 98.552 234.793 98.984C235.129 99.416 235.529 99.76 235.993 100.016C236.473 100.256 237.017 100.376 237.625 100.376C238.233 100.376 238.777 100.256 239.257 100.016ZM259.976 102.248H257.72L255.08 93.536L254.888 92.6H254.72L254.504 93.536L251.888 102.248H249.632L245.648 88.808H248.216L250.544 97.448L250.76 98.528H250.928L251.144 97.448L253.688 88.808H255.896L258.44 97.448L258.68 98.528H258.848C258.848 98.496 258.856 98.432 258.872 98.336C258.904 98.224 258.928 98.112 258.944 98C258.976 97.872 259 97.76 259.016 97.664C259.048 97.552 259.064 97.48 259.064 97.448L261.368 88.808H263.936L259.976 102.248Z" fill="white"/>
<defs>
<filter id="filter0_d_2713_3375" x="9" y="8.24219" width="313.5" height="117.279" filterUnits="userSpaceOnUse" color-interpolation-filters="sRGB">
<feFlood flood-opacity="0" result="BackgroundImageFix"/>
<feColorMatrix in="SourceAlpha" type="matrix" values="0 0 0 0 0 0 0 0 0 0 0 0 0 0 0 0 0 0 127 0" result="hardAlpha"/>
<feOffset dx="1" dy="1"/>
<feGaussianBlur stdDeviation="0.5"/>
<feComposite in2="hardAlpha" operator="out"/>
<feColorMatrix type="matrix" values="0 0 0 0 0 0 0 0 0 0 0 0 0 0 0 0 0 0 0.25 0"/>
<feBlend mode="normal" in2="BackgroundImageFix" result="effect1_dropShadow_2713_3375"/>
<feBlend mode="normal" in="SourceGraphic" in2="effect1_dropShadow_2713_3375" result="shape"/>
</filter>
<filter id="filter1_d_2713_3375" x="9" y="8" width="315" height="117.026" filterUnits="userSpaceOnUse" color-interpolation-filters="sRGB">
<feFlood flood-opacity="0" result="BackgroundImageFix"/>
<feColorMatrix in="SourceAlpha" type="matrix" values="0 0 0 0 0 0 0 0 0 0 0 0 0 0 0 0 0 0 127 0" result="hardAlpha"/>
<feOffset dx="1" dy="1"/>
<feGaussianBlur stdDeviation="0.5"/>
<feComposite in2="hardAlpha" operator="out"/>
<feColorMatrix type="matrix" values="0 0 0 0 0 0 0 0 0 0 0 0 0 0 0 0 0 0 0.25 0"/>
<feBlend mode="normal" in2="BackgroundImageFix" result="effect1_dropShadow_2713_3375"/>
<feBlend mode="normal" in="SourceGraphic" in2="effect1_dropShadow_2713_3375" result="shape"/>
</filter>
</defs>
</svg>
