<svg width="1110" height="76" viewBox="0 0 1110 76" fill="none" xmlns="http://www.w3.org/2000/svg">
<path d="M0 0H1110V76H0V0Z" fill="url(#paint0_linear_1385_4544)"/>
<path d="M90.2336 53.86H86.5256V36.58H82.8536V53.032H79.1816V22.072H82.8536V33.196H86.5256V21.712H90.2336V53.86ZM62.4056 46.552C64.5416 44.968 66.3056 43.252 67.6976 41.404C69.0896 39.556 70.1816 37.636 70.9736 35.644C70.0136 35.764 69.0176 35.86 67.9856 35.932C66.9536 35.98 66.0176 36.004 65.1776 36.004H63.4856V32.836H65.1776C66.3296 32.836 67.5056 32.812 68.7056 32.764C69.9296 32.716 71.0456 32.596 72.0536 32.404C72.5096 30.628 72.7736 28.792 72.8456 26.896H64.3856V23.656H76.5896C76.6136 26.32 76.4096 28.816 75.9776 31.144C75.5696 33.472 74.8976 35.668 73.9616 37.732C73.0496 39.772 71.8616 41.716 70.3976 43.564C68.9576 45.388 67.2176 47.152 65.1776 48.856L62.4056 46.552ZM121.122 40.936H117.342V21.712H121.122V40.936ZM115.902 38.524C113.958 38.836 111.942 39.04 109.854 39.136C107.79 39.232 105.738 39.28 103.698 39.28H95.7064V29.308H107.946V25.78H95.7064V22.576H111.726V32.404H99.4864V36.112H103.698C105.762 36.112 107.79 36.076 109.782 36.004C111.774 35.932 113.814 35.752 115.902 35.464V38.524ZM121.05 54.076H117.27V45.868H98.5864V42.628H121.05V54.076ZM146.287 47.02C144.343 47.356 142.327 47.584 140.239 47.704C138.175 47.824 136.123 47.884 134.083 47.884H127.675V23.224H142.759V26.464H131.455V33.736H141.859V36.94H131.455V44.608H134.083C136.147 44.608 138.175 44.572 140.167 44.5C142.159 44.404 144.199 44.188 146.287 43.852V47.02ZM152.587 53.896H148.807V36.076H143.443V32.8H148.807V21.712H152.587V53.896ZM193.052 53.896H189.272V21.712H193.052V53.896ZM182.396 44.86C181.652 45.94 180.74 46.768 179.66 47.344C178.58 47.92 177.368 48.208 176.024 48.208C174.68 48.208 173.468 47.92 172.388 47.344C171.308 46.768 170.384 45.94 169.616 44.86C168.872 43.78 168.296 42.448 167.888 40.864C167.48 39.28 167.276 37.48 167.276 35.464C167.276 33.448 167.48 31.648 167.888 30.064C168.296 28.48 168.872 27.148 169.616 26.068C170.384 24.964 171.308 24.124 172.388 23.548C173.468 22.972 174.68 22.684 176.024 22.684C177.368 22.684 178.58 22.972 179.66 23.548C180.74 24.124 181.652 24.964 182.396 26.068C183.164 27.148 183.752 28.48 184.16 30.064C184.568 31.648 184.772 33.448 184.772 35.464C184.772 37.48 184.568 39.28 184.16 40.864C183.752 42.448 183.164 43.78 182.396 44.86ZM176.024 44.968C177.656 44.968 178.892 44.152 179.732 42.52C180.572 40.864 180.992 38.512 180.992 35.464C180.992 32.392 180.572 30.04 179.732 28.408C178.892 26.752 177.656 25.924 176.024 25.924C174.368 25.924 173.12 26.752 172.28 28.408C171.464 30.04 171.056 32.392 171.056 35.464C171.056 38.512 171.464 40.864 172.28 42.52C173.12 44.152 174.368 44.968 176.024 44.968ZM224.517 53.896H220.737V21.712H224.517V53.896ZM215.121 47.308H199.461V23.44H215.121V47.308ZM211.341 44.068V26.68H203.241V44.068H211.341ZM247.414 48.46C245.662 47.02 244.114 45.46 242.77 43.78C241.426 42.076 240.334 40.324 239.494 38.524C238.726 40.324 237.658 42.148 236.29 43.996C234.946 45.844 233.29 47.56 231.322 49.144L228.694 46.768C229.918 45.832 231.058 44.752 232.114 43.528C233.194 42.304 234.13 41.02 234.922 39.676C235.714 38.308 236.326 36.916 236.758 35.5C237.214 34.084 237.442 32.716 237.442 31.396V26.68H230.422V23.44H248.458V26.68H241.402V31.396C241.402 32.788 241.63 34.18 242.086 35.572C242.566 36.964 243.19 38.296 243.958 39.568C244.726 40.84 245.614 42.028 246.622 43.132C247.63 44.212 248.662 45.148 249.718 45.94L247.414 48.46ZM256.162 53.896H252.382V21.712H256.162V53.896ZM286.619 34.276H263.831V26.824H282.299V25.024H263.831V22.144H286.079V29.488H267.611V31.396H286.619V34.276ZM289.715 39.208H260.195V36.328H289.715V39.208ZM286.799 53.68H263.831V46.156H282.299V44.284H263.831V41.404H286.079V48.784H267.611V50.8H286.799V53.68ZM327.264 53.68H304.26V45.364H322.764V43.024H304.26V40.036H313.476V36.904H300.66V33.808H330.18V36.904H317.328V40.036H326.544V48.172H308.04V50.656H327.264V53.68ZM326.976 31.216H304.296V21.964H308.076V28.156H326.976V31.216ZM353.076 47.164C351.132 47.5 349.116 47.728 347.028 47.848C344.964 47.968 342.912 48.028 340.872 48.028H334.32V33.808H345.048V26.464H334.32V23.224H348.828V37.012H338.1V44.788H340.872C342.936 44.788 344.964 44.74 346.956 44.644C348.948 44.548 350.988 44.344 353.076 44.032V47.164ZM359.376 53.896H355.596V36.112H350.448V32.836H355.596V21.712H359.376V53.896ZM399.013 35.536H376.225V22.18H398.473V25.24H380.005V27.364H398.185V30.244H380.005V32.476H399.013V35.536ZM402.109 40.972H372.589V37.912H402.109V40.972ZM398.473 54.076H394.693V46.948H375.865V43.78H398.473V54.076ZM431.054 50.728C430.478 51.616 429.674 52.348 428.642 52.924C427.61 53.524 426.374 53.968 424.934 54.256C423.494 54.544 421.922 54.688 420.218 54.688C418.514 54.688 416.942 54.544 415.502 54.256C414.086 53.968 412.862 53.524 411.83 52.924C410.798 52.348 409.994 51.616 409.418 50.728C408.842 49.864 408.554 48.832 408.554 47.632C408.554 46.456 408.842 45.424 409.418 44.536C409.994 43.648 410.798 42.916 411.83 42.34C412.862 41.74 414.086 41.296 415.502 41.008C416.942 40.72 418.514 40.576 420.218 40.576C421.922 40.576 423.494 40.72 424.934 41.008C426.374 41.296 427.61 41.74 428.642 42.34C429.674 42.916 430.478 43.648 431.054 44.536C431.63 45.424 431.918 46.456 431.918 47.632C431.918 48.832 431.63 49.864 431.054 50.728ZM422.414 38.812C420.662 37.9 419.09 36.808 417.698 35.536C416.33 34.24 415.226 32.848 414.386 31.36C413.618 32.872 412.502 34.36 411.038 35.824C409.598 37.288 407.846 38.596 405.782 39.748C405.398 39.316 405.014 38.896 404.63 38.488C404.246 38.056 403.85 37.624 403.442 37.192C404.786 36.496 405.998 35.704 407.078 34.816C408.182 33.904 409.118 32.944 409.886 31.936C410.654 30.928 411.242 29.872 411.65 28.768C412.082 27.664 412.298 26.572 412.298 25.492V22.432H416.258V25.492C416.258 26.596 416.474 27.664 416.906 28.696C417.338 29.728 417.914 30.7 418.634 31.612C419.378 32.524 420.242 33.364 421.226 34.132C422.21 34.876 423.254 35.524 424.358 36.076L422.414 38.812ZM426.05 50.512C427.394 49.888 428.066 48.928 428.066 47.632C428.066 46.336 427.394 45.376 426.05 44.752C424.706 44.104 422.762 43.78 420.218 43.78C417.674 43.78 415.73 44.104 414.386 44.752C413.066 45.376 412.406 46.336 412.406 47.632C412.406 48.928 413.066 49.888 414.386 50.512C415.73 51.16 417.674 51.484 420.218 51.484C422.762 51.484 424.706 51.16 426.05 50.512ZM431.306 40.216H427.526V30.64H421.298V27.4H427.526V21.712H431.306V40.216ZM461.223 29.524C460.671 30.22 459.867 30.808 458.811 31.288C457.779 31.768 456.531 32.128 455.067 32.368C453.627 32.584 452.031 32.692 450.279 32.692C448.503 32.692 446.895 32.584 445.455 32.368C444.015 32.128 442.767 31.768 441.711 31.288C440.679 30.808 439.875 30.22 439.299 29.524C438.747 28.804 438.471 27.952 438.471 26.968C438.471 26.008 438.747 25.168 439.299 24.448C439.875 23.728 440.679 23.14 441.711 22.684C442.767 22.204 444.015 21.844 445.455 21.604C446.895 21.364 448.503 21.244 450.279 21.244C452.031 21.244 453.627 21.364 455.067 21.604C456.531 21.844 457.779 22.204 458.811 22.684C459.867 23.14 460.671 23.728 461.223 24.448C461.799 25.168 462.087 26.008 462.087 26.968C462.087 27.952 461.799 28.804 461.223 29.524ZM465.039 37.768H435.519V34.672H465.039V37.768ZM462.123 53.68H439.119V45.58H457.623V43.348H439.119V40.396H461.403V48.352H442.899V50.692H462.123V53.68ZM456.183 28.948C457.527 28.492 458.199 27.832 458.199 26.968C458.199 26.104 457.527 25.456 456.183 25.024C454.863 24.568 452.895 24.34 450.279 24.34C444.999 24.34 442.359 25.216 442.359 26.968C442.359 28.72 444.999 29.596 450.279 29.596C452.895 29.596 454.863 29.38 456.183 28.948ZM497.476 41.116C496.396 41.284 495.268 41.416 494.092 41.512C492.916 41.608 491.716 41.692 490.492 41.764C489.292 41.812 488.092 41.848 486.892 41.872C485.692 41.896 484.528 41.908 483.4 41.908H475.984V38.884H484.408V36.796C482.464 36.604 480.928 36.088 479.8 35.248C478.672 34.408 478.108 33.304 478.108 31.936C478.108 31.144 478.3 30.448 478.684 29.848C479.068 29.224 479.608 28.708 480.304 28.3C481.024 27.868 481.876 27.544 482.86 27.328C483.868 27.088 484.984 26.968 486.208 26.968C487.432 26.968 488.536 27.088 489.52 27.328C490.528 27.544 491.38 27.868 492.076 28.3C492.796 28.708 493.348 29.224 493.732 29.848C494.116 30.448 494.308 31.144 494.308 31.936C494.308 33.28 493.768 34.36 492.688 35.176C491.608 35.992 490.132 36.52 488.26 36.76V38.848C489.964 38.8 491.584 38.74 493.12 38.668C494.656 38.572 496.108 38.428 497.476 38.236V41.116ZM502.408 54.076H498.628V47.416H480.484V44.284H502.408V54.076ZM502.516 42.736H498.736V21.712H502.516V30.352H506.368V33.664H502.516V42.736ZM495.64 26.032H476.812V23.008H484.336V20.272H488.116V23.008H495.64V26.032ZM486.208 33.988C489.088 33.988 490.528 33.304 490.528 31.936C490.528 30.544 489.088 29.848 486.208 29.848C484.792 29.848 483.712 30.028 482.968 30.388C482.248 30.724 481.888 31.24 481.888 31.936C481.888 32.608 482.248 33.124 482.968 33.484C483.712 33.82 484.792 33.988 486.208 33.988ZM534.701 44.248H530.921V21.712H534.701V44.248ZM525.341 34.312C524.909 35.368 524.297 36.28 523.505 37.048C522.713 37.816 521.765 38.416 520.661 38.848C519.581 39.256 518.405 39.46 517.133 39.46C515.861 39.46 514.685 39.256 513.605 38.848C512.525 38.416 511.589 37.816 510.797 37.048C510.005 36.28 509.381 35.368 508.925 34.312C508.493 33.232 508.277 32.044 508.277 30.748C508.277 29.452 508.493 28.276 508.925 27.22C509.381 26.14 510.005 25.216 510.797 24.448C511.589 23.68 512.525 23.092 513.605 22.684C514.685 22.252 515.861 22.036 517.133 22.036C518.405 22.036 519.581 22.252 520.661 22.684C521.765 23.092 522.713 23.68 523.505 24.448C524.297 25.216 524.909 26.14 525.341 27.22C525.797 28.276 526.025 29.452 526.025 30.748C526.025 32.044 525.797 33.232 525.341 34.312ZM535.421 53.536H513.065V42.232H516.845V50.296H535.421V53.536ZM517.133 36.292C518.741 36.292 519.989 35.776 520.877 34.744C521.789 33.712 522.245 32.38 522.245 30.748C522.245 29.116 521.789 27.796 520.877 26.788C519.989 25.756 518.741 25.24 517.133 25.24C515.525 25.24 514.277 25.756 513.389 26.788C512.501 27.796 512.057 29.116 512.057 30.748C512.057 32.38 512.501 33.712 513.389 34.744C514.277 35.776 515.525 36.292 517.133 36.292ZM565.085 45.688H561.305V21.712H565.085V30.928H569.261V34.24H565.085V45.688ZM558.389 27.58H539.237V24.448H547.013V20.848H550.793V24.448H558.389V27.58ZM556.625 37.732C556.217 38.5 555.641 39.16 554.897 39.712C554.177 40.24 553.289 40.66 552.233 40.972C551.201 41.26 550.061 41.404 548.813 41.404C547.541 41.404 546.389 41.26 545.357 40.972C544.325 40.66 543.437 40.24 542.693 39.712C541.949 39.16 541.373 38.5 540.965 37.732C540.581 36.94 540.389 36.076 540.389 35.14C540.389 34.18 540.581 33.316 540.965 32.548C541.373 31.78 541.949 31.12 542.693 30.568C543.437 30.016 544.325 29.596 545.357 29.308C546.389 28.996 547.541 28.84 548.813 28.84C550.061 28.84 551.201 28.996 552.233 29.308C553.289 29.596 554.177 30.016 554.897 30.568C555.641 31.12 556.217 31.78 556.625 32.548C557.033 33.316 557.237 34.18 557.237 35.14C557.237 36.076 557.033 36.94 556.625 37.732ZM565.805 53.536H543.989V43.672H547.769V50.368H565.805V53.536ZM552.233 37.552C553.025 37 553.421 36.196 553.421 35.14C553.421 34.084 553.025 33.28 552.233 32.728C551.465 32.176 550.325 31.9 548.813 31.9C547.301 31.9 546.149 32.176 545.357 32.728C544.589 33.28 544.205 34.084 544.205 35.14C544.205 36.196 544.589 37 545.357 37.552C546.149 38.08 547.301 38.344 548.813 38.344C550.325 38.344 551.465 38.08 552.233 37.552ZM599.898 35.644H582.474V22.684H599.358V25.924H586.254V32.404H599.898V35.644ZM607.35 53.896H603.57V21.712H607.35V53.896ZM592.878 53.356H589.062V42.304H580.458V39.064H588.234C590.946 39.064 593.466 39.028 595.794 38.956C598.146 38.86 600.318 38.68 602.31 38.416V41.512C600.846 41.728 599.31 41.896 597.702 42.016C596.094 42.136 594.486 42.22 592.878 42.268V53.356ZM612.499 56.2C613.147 55.912 613.723 55.48 614.227 54.904C614.755 54.328 615.055 53.764 615.127 53.212C615.175 52.948 615.163 52.732 615.091 52.564C615.019 52.396 614.839 52.3 614.551 52.276C613.999 52.252 613.507 52.024 613.075 51.592C612.643 51.16 612.427 50.584 612.427 49.864C612.427 49.048 612.691 48.4 613.219 47.92C613.747 47.44 614.395 47.2 615.163 47.2C616.051 47.2 616.759 47.536 617.287 48.208C617.815 48.88 618.079 49.72 618.079 50.728C618.079 51.472 617.959 52.18 617.719 52.852C617.479 53.548 617.155 54.184 616.747 54.76C616.339 55.336 615.859 55.852 615.307 56.308C614.755 56.764 614.155 57.136 613.507 57.424L612.499 56.2ZM650.328 30.352C649.92 31.144 649.332 31.816 648.564 32.368C647.82 32.92 646.908 33.352 645.828 33.664C644.772 33.976 643.608 34.132 642.336 34.132C641.064 34.132 639.888 33.976 638.808 33.664C637.752 33.352 636.84 32.92 636.072 32.368C635.328 31.816 634.74 31.144 634.308 30.352C633.9 29.56 633.696 28.684 633.696 27.724C633.696 26.764 633.9 25.888 634.308 25.096C634.74 24.304 635.328 23.632 636.072 23.08C636.84 22.528 637.752 22.096 638.808 21.784C639.888 21.472 641.064 21.316 642.336 21.316C643.608 21.316 644.772 21.472 645.828 21.784C646.908 22.096 647.82 22.528 648.564 23.08C649.332 23.632 649.92 24.304 650.328 25.096C650.76 25.888 650.976 26.764 650.976 27.724C650.976 28.684 650.76 29.56 650.328 30.352ZM658.788 46.444H655.008V43.636H648.384V40.648H655.008V21.712H658.788V46.444ZM659.508 53.536H636.9V44.896H640.68V50.296H659.508V53.536ZM653.568 38.164C652.056 38.404 650.46 38.584 648.78 38.704C647.1 38.8 645.432 38.872 643.776 38.92V43.744H639.924V38.956H631.716V35.788H639.492C642.108 35.788 644.604 35.752 646.98 35.68C649.356 35.608 651.552 35.44 653.568 35.176V38.164ZM645.9 30.172C646.764 29.572 647.196 28.756 647.196 27.724C647.196 26.692 646.764 25.888 645.9 25.312C645.036 24.712 643.848 24.412 642.336 24.412C640.824 24.412 639.636 24.712 638.772 25.312C637.908 25.888 637.476 26.692 637.476 27.724C637.476 28.756 637.908 29.572 638.772 30.172C639.636 30.748 640.824 31.036 642.336 31.036C643.848 31.036 645.036 30.748 645.9 30.172ZM687.913 53.896H684.133V21.712H687.913V34.708H692.485V38.02H687.913V53.896ZM681.217 29.596H662.065V26.356H669.841V21.964H673.621V26.356H681.217V29.596ZM677.905 46.3C677.185 47.068 676.297 47.668 675.241 48.1C674.185 48.532 673.009 48.748 671.713 48.748C670.417 48.748 669.241 48.532 668.185 48.1C667.153 47.668 666.265 47.068 665.521 46.3C664.801 45.508 664.237 44.584 663.829 43.528C663.445 42.448 663.253 41.272 663.253 40C663.253 38.728 663.445 37.564 663.829 36.508C664.237 35.428 664.801 34.504 665.521 33.736C666.265 32.944 667.153 32.332 668.185 31.9C669.241 31.468 670.417 31.252 671.713 31.252C673.009 31.252 674.185 31.468 675.241 31.9C676.297 32.332 677.185 32.944 677.905 33.736C678.649 34.504 679.213 35.428 679.597 36.508C680.005 37.564 680.209 38.728 680.209 40C680.209 41.272 680.005 42.448 679.597 43.528C679.213 44.584 678.649 45.508 677.905 46.3ZM671.713 45.58C673.273 45.58 674.437 45.076 675.205 44.068C675.997 43.036 676.393 41.68 676.393 40C676.393 38.32 675.997 36.976 675.205 35.968C674.437 34.936 673.273 34.42 671.713 34.42C670.177 34.42 669.013 34.936 668.221 35.968C667.453 36.976 667.069 38.32 667.069 40C667.069 41.68 667.453 43.036 668.221 44.068C669.013 45.076 670.177 45.58 671.713 45.58ZM719.882 33.232H697.202V21.964H700.982V30.064H719.882V33.232ZM723.086 40.36H693.566V37.156H723.086V40.36ZM720.206 53.536H697.31V42.952H701.09V50.296H720.206V53.536ZM761.859 53.86H758.151V36.58H754.479V53.032H750.807V22.072H754.479V33.196H758.151V21.712H761.859V53.86ZM734.031 46.552C736.167 44.968 737.931 43.252 739.323 41.404C740.715 39.556 741.807 37.636 742.599 35.644C741.639 35.764 740.643 35.86 739.611 35.932C738.579 35.98 737.643 36.004 736.803 36.004H735.111V32.836H736.803C737.955 32.836 739.131 32.812 740.331 32.764C741.555 32.716 742.671 32.596 743.679 32.404C744.135 30.628 744.399 28.792 744.471 26.896H736.011V23.656H748.215C748.239 26.32 748.035 28.816 747.603 31.144C747.195 33.472 746.523 35.668 745.587 37.732C744.675 39.772 743.487 41.716 742.023 43.564C740.583 45.388 738.843 47.152 736.803 48.856L734.031 46.552ZM792.747 40.936H788.967V21.712H792.747V40.936ZM787.527 38.524C785.583 38.836 783.567 39.04 781.479 39.136C779.415 39.232 777.363 39.28 775.323 39.28H767.331V29.308H779.571V25.78H767.331V22.576H783.351V32.404H771.111V36.112H775.323C777.387 36.112 779.415 36.076 781.407 36.004C783.399 35.932 785.439 35.752 787.527 35.464V38.524ZM792.675 54.076H788.895V45.868H770.211V42.628H792.675V54.076ZM817.912 47.02C815.968 47.356 813.952 47.584 811.864 47.704C809.8 47.824 807.748 47.884 805.708 47.884H799.3V23.224H814.384V26.464H803.08V33.736H813.484V36.94H803.08V44.608H805.708C807.772 44.608 809.8 44.572 811.792 44.5C813.784 44.404 815.824 44.188 817.912 43.852V47.02ZM824.212 53.896H820.432V36.076H815.068V32.8H820.432V21.712H824.212V53.896ZM854.849 34.276H832.061V26.824H850.529V25.024H832.061V22.144H854.309V29.488H835.841V31.396H854.849V34.276ZM857.945 39.208H828.425V36.328H857.945V39.208ZM855.029 53.68H832.061V46.156H850.529V44.284H832.061V41.404H854.309V48.784H835.841V50.8H855.029V53.68ZM887.25 39.748C885.498 38.74 883.938 37.588 882.57 36.292C881.226 34.996 880.11 33.568 879.222 32.008C878.43 33.592 877.314 35.14 875.874 36.652C874.458 38.14 872.706 39.484 870.618 40.684C870.234 40.252 869.85 39.832 869.466 39.424C869.082 38.992 868.686 38.56 868.278 38.128C869.622 37.408 870.834 36.592 871.914 35.68C873.018 34.768 873.954 33.796 874.722 32.764C875.49 31.708 876.078 30.616 876.486 29.488C876.918 28.36 877.134 27.244 877.134 26.14V22.432H881.094V26.14C881.094 27.268 881.31 28.36 881.742 29.416C882.174 30.472 882.75 31.468 883.47 32.404C884.214 33.34 885.078 34.204 886.062 34.996C887.046 35.764 888.09 36.436 889.194 37.012L887.25 39.748ZM896.142 44.428H892.362V31.108H886.134V27.868H892.362V21.712H896.142V44.428ZM896.862 53.536H874.506V42.232H878.286V50.296H896.862V53.536ZM928.183 40.936H924.475V32.476H920.659V40.936H916.987V22.072H920.659V29.2H924.475V21.712H928.183V40.936ZM915.655 38.884C914.479 39.076 913.231 39.232 911.911 39.352C910.615 39.448 909.295 39.496 907.951 39.496H901.759V22.72H914.251V25.924H905.431V29.488H913.747V32.584H905.431V36.328H906.943C908.239 36.328 909.643 36.292 911.155 36.22C912.667 36.148 914.167 36.016 915.655 35.824V38.884ZM928.111 54.04H924.331V45.796H905.287V42.628H928.111V54.04ZM957.632 53.896H953.852V21.712H957.632V34.708H962.204V38.02H957.632V53.896ZM950.936 29.596H931.784V26.356H939.56V21.964H943.34V26.356H950.936V29.596ZM947.624 46.3C946.904 47.068 946.016 47.668 944.96 48.1C943.904 48.532 942.728 48.748 941.432 48.748C940.136 48.748 938.96 48.532 937.904 48.1C936.872 47.668 935.984 47.068 935.24 46.3C934.52 45.508 933.956 44.584 933.548 43.528C933.164 42.448 932.972 41.272 932.972 40C932.972 38.728 933.164 37.564 933.548 36.508C933.956 35.428 934.52 34.504 935.24 33.736C935.984 32.944 936.872 32.332 937.904 31.9C938.96 31.468 940.136 31.252 941.432 31.252C942.728 31.252 943.904 31.468 944.96 31.9C946.016 32.332 946.904 32.944 947.624 33.736C948.368 34.504 948.932 35.428 949.316 36.508C949.724 37.564 949.928 38.728 949.928 40C949.928 41.272 949.724 42.448 949.316 43.528C948.932 44.584 948.368 45.508 947.624 46.3ZM941.432 45.58C942.992 45.58 944.156 45.076 944.924 44.068C945.716 43.036 946.112 41.68 946.112 40C946.112 38.32 945.716 36.976 944.924 35.968C944.156 34.936 942.992 34.42 941.432 34.42C939.896 34.42 938.732 34.936 937.94 35.968C937.172 36.976 936.788 38.32 936.788 40C936.788 41.68 937.172 43.036 937.94 44.068C938.732 45.076 939.896 45.58 941.432 45.58ZM977.433 48.172C976.041 46.732 974.853 45.208 973.869 43.6C972.885 41.992 972.105 40.396 971.529 38.812C970.977 40.492 970.137 42.22 969.009 43.996C967.905 45.748 966.537 47.404 964.905 48.964L962.312 46.696C963.345 45.784 964.305 44.716 965.193 43.492C966.081 42.244 966.849 40.936 967.497 39.568C968.145 38.2 968.649 36.82 969.009 35.428C969.393 34.012 969.585 32.668 969.585 31.396V23.296H973.437V31.396C973.437 32.668 973.593 33.976 973.905 35.32C974.241 36.64 974.697 37.936 975.273 39.208C975.849 40.48 976.521 41.692 977.289 42.844C978.057 43.972 978.885 44.968 979.773 45.832L977.433 48.172ZM985.173 53.032H981.501V35.356H977.001V32.044H981.501V22.072H985.173V53.032ZM991.473 53.86H987.765V21.712H991.473V53.86ZM1020.42 34.564C1019.87 35.644 1019.07 36.58 1018.04 37.372C1017.01 38.164 1015.76 38.788 1014.3 39.244C1012.86 39.676 1011.26 39.892 1009.51 39.892C1007.76 39.892 1006.15 39.676 1004.69 39.244C1003.25 38.788 1002.01 38.164 1000.98 37.372C999.945 36.58 999.141 35.644 998.565 34.564C998.013 33.46 997.737 32.248 997.737 30.928C997.737 29.608 998.013 28.408 998.565 27.328C999.141 26.224 999.945 25.276 1000.98 24.484C1002.01 23.692 1003.25 23.08 1004.69 22.648C1006.15 22.192 1007.76 21.964 1009.51 21.964C1011.26 21.964 1012.86 22.192 1014.3 22.648C1015.74 23.08 1016.97 23.692 1018.01 24.484C1019.04 25.276 1019.84 26.224 1020.42 27.328C1020.99 28.408 1021.28 29.608 1021.28 30.928C1021.28 32.248 1020.99 33.46 1020.42 34.564ZM1015.31 35.14C1016.7 34.108 1017.41 32.704 1017.43 30.928C1017.43 29.152 1016.72 27.76 1015.31 26.752C1013.91 25.72 1011.98 25.204 1009.51 25.204C1007.04 25.204 1005.09 25.72 1003.68 26.752C1002.29 27.76 1001.59 29.152 1001.59 30.928C1001.59 32.704 1002.29 34.108 1003.68 35.14C1005.09 36.148 1007.04 36.652 1009.51 36.652C1011.98 36.652 1013.91 36.148 1015.31 35.14ZM1024.27 50.476H994.749V47.236H1001.19V40.792H1004.97V47.236H1014.01V40.792H1017.79V47.236H1024.27V50.476ZM1032.55 51.916C1032.05 52.468 1031.4 52.744 1030.61 52.744C1029.79 52.744 1029.12 52.468 1028.59 51.916C1028.09 51.388 1027.83 50.752 1027.83 50.008C1027.83 49.264 1028.09 48.628 1028.59 48.1C1029.12 47.548 1029.79 47.272 1030.61 47.272C1031.4 47.272 1032.05 47.548 1032.55 48.1C1033.08 48.628 1033.34 49.264 1033.34 50.008C1033.34 50.752 1033.08 51.388 1032.55 51.916Z" fill="white"/>
<defs>
<linearGradient id="paint0_linear_1385_4544" x1="0" y1="38" x2="1110" y2="38" gradientUnits="userSpaceOnUse">
<stop stop-opacity="0"/>
<stop offset="1" stop-opacity="0.8"/>
</linearGradient>
</defs>
</svg>
