<svg width="332" height="133" viewBox="0 0 332 133" fill="none" xmlns="http://www.w3.org/2000/svg">
<path d="M8 0V8H0" stroke="#F5091E" stroke-opacity="0.5"/>
<path d="M9 1V9H1" stroke="white"/>
<path d="M10 2V10H2" stroke="#00C9D7" stroke-opacity="0.5"/>
<path d="M-3.49691e-07 125L8 125L8 133" stroke="#F5091E" stroke-opacity="0.5"/>
<path d="M1 124L9 124L9 132" stroke="white"/>
<path d="M2 123L10 123L10 131" stroke="#00C9D7" stroke-opacity="0.5"/>
<path d="M324 0V8H332" stroke="#F5091E" stroke-opacity="0.5"/>
<path d="M323 1V9H331" stroke="white"/>
<path d="M322 2V10H330" stroke="#00C9D7" stroke-opacity="0.5"/>
<path d="M332 125L324 125L324 133" stroke="#F5091E" stroke-opacity="0.5"/>
<path d="M331 124L323 124L323 132" stroke="white"/>
<path d="M330 123L322 123L322 131" stroke="#00C9D7" stroke-opacity="0.5"/>
<rect x="12" y="10.9883" width="311" height="113.026" stroke="#00C9D7" stroke-opacity="0.5" stroke-width="2"/>
<rect x="8" y="8" width="311" height="113.026" stroke="#F5091E" stroke-opacity="0.5" stroke-width="2"/>
<g filter="url(#filter0_d_2713_3376)">
<path d="M10 123.521C10 123.521 10 53.871 10 9.2422L320.5 9.2422" stroke="white" stroke-width="2"/>
</g>
<g filter="url(#filter1_d_2713_3376)">
<rect x="9" y="8" width="313" height="115.026" fill="white" fill-opacity="0.2" shape-rendering="crispEdges"/>
<rect x="10" y="9" width="311" height="113.026" stroke="white" stroke-width="2" shape-rendering="crispEdges"/>
</g>
<path d="M60.4953 44.2562L67.8885 52.0478C69.3081 53.5439 71.6919 53.5439 73.1115 52.0478L80.5047 44.2562C83.1651 41.4524 83.1651 36.9066 80.5047 34.1028C77.8443 31.2991 73.5309 31.2991 70.8705 34.1028C70.6691 34.3151 70.3309 34.3151 70.1295 34.1028C67.4691 31.2991 63.1557 31.2991 60.4953 34.1028C57.8349 36.9066 57.8349 41.4524 60.4953 44.2562Z" fill="#FF4E59" stroke="#FF4E59" stroke-width="1.8"/>
<path d="M100.85 48.302C100.014 47.466 99.2953 46.586 98.694 45.662C98.1073 44.738 97.6233 43.814 97.242 42.89C96.9047 43.8287 96.3987 44.8187 95.724 45.86C95.0493 46.9013 94.206 47.8767 93.194 48.786L91.61 47.4C92.27 46.8573 92.8713 46.234 93.414 45.53C93.9567 44.8113 94.4187 44.056 94.8 43.264C95.196 42.4573 95.504 41.636 95.724 40.8C95.944 39.964 96.054 39.1573 96.054 38.38V36.884H92.798V34.904H96.076V32.088H98.386V34.904H101.598V36.884H98.408V38.38C98.408 39.172 98.5033 39.964 98.694 40.756C98.8993 41.548 99.178 42.3107 99.53 43.044C99.882 43.7773 100.293 44.474 100.762 45.134C101.231 45.7793 101.737 46.3587 102.28 46.872L100.85 48.302ZM105.47 50.964H103.226V41.482H100.542V39.458H103.226V32.044H105.47V50.964ZM109.32 51.47H107.054V31.824H109.32V51.47ZM124.127 42.406C122.939 42.5967 121.707 42.7213 120.431 42.78C119.169 42.8387 117.915 42.868 116.669 42.868H112.445V36.62H119.331V34.31H112.445V32.352H121.641V38.512H114.755V40.932H116.669C117.93 40.932 119.169 40.91 120.387 40.866C121.604 40.822 122.851 40.712 124.127 40.536V42.406ZM127.977 43.66H125.667V39.414H122.675V37.5H125.667V35.74H122.675V33.804H125.667V31.824H127.977V43.66ZM127.933 51.602H125.623V46.674H114.315V44.694H127.933V51.602Z" fill="white"/>
<path d="M193.5 42.9032L201.764 30H211.682L205.483 38.871H211.682L193.5 55L199.285 42.9032H193.5Z" fill="#FFF603" stroke="#FFF603" stroke-linejoin="round"/>
<path d="M235.594 49.556C235.242 50.0987 234.751 50.546 234.12 50.898C233.489 51.2647 232.734 51.536 231.854 51.712C230.974 51.888 230.013 51.976 228.972 51.976C227.931 51.976 226.97 51.888 226.09 51.712C225.225 51.536 224.477 51.2647 223.846 50.898C223.215 50.546 222.724 50.0987 222.372 49.556C222.02 49.028 221.844 48.3973 221.844 47.664C221.844 46.9453 222.02 46.3147 222.372 45.772C222.724 45.2293 223.215 44.782 223.846 44.43C224.477 44.0633 225.225 43.792 226.09 43.616C226.97 43.44 227.931 43.352 228.972 43.352C230.013 43.352 230.974 43.44 231.854 43.616C232.734 43.792 233.489 44.0633 234.12 44.43C234.751 44.782 235.242 45.2293 235.594 45.772C235.946 46.3147 236.122 46.9453 236.122 47.664C236.122 48.3973 235.946 49.028 235.594 49.556ZM230.424 42.318C229.368 41.8047 228.415 41.174 227.564 40.426C226.713 39.678 226.031 38.864 225.518 37.984C225.049 38.8787 224.367 39.7733 223.472 40.668C222.577 41.548 221.507 42.318 220.26 42.978C220.025 42.714 219.791 42.4573 219.556 42.208C219.321 41.944 219.079 41.68 218.83 41.416C219.637 41.0053 220.37 40.536 221.03 40.008C221.705 39.4653 222.277 38.8933 222.746 38.292C223.23 37.6907 223.597 37.0747 223.846 36.444C224.11 35.7987 224.242 35.168 224.242 34.552V34.42H220.106V32.484H230.798V34.42H226.662V34.552C226.662 35.212 226.787 35.8427 227.036 36.444C227.3 37.0307 227.652 37.5807 228.092 38.094C228.547 38.6073 229.075 39.084 229.676 39.524C230.277 39.9493 230.923 40.3233 231.612 40.646L230.424 42.318ZM232.536 49.424C233.357 49.0427 233.768 48.456 233.768 47.664C233.768 46.872 233.357 46.2853 232.536 45.904C231.715 45.508 230.527 45.31 228.972 45.31C227.417 45.31 226.229 45.508 225.408 45.904C224.601 46.2853 224.198 46.872 224.198 47.664C224.198 48.456 224.601 49.0427 225.408 49.424C226.229 49.82 227.417 50.018 228.972 50.018C230.527 50.018 231.715 49.82 232.536 49.424ZM235.748 43.132H233.438V37.984H230.05V36.026H233.438V31.824H235.748V43.132ZM254.977 45.706H252.667V31.824H254.977V45.706ZM249.675 42.758C248.589 42.142 247.629 41.438 246.793 40.646C245.957 39.854 245.26 38.9813 244.703 38.028C244.189 38.996 243.493 39.942 242.613 40.866C241.747 41.7753 240.669 42.5967 239.379 43.33L237.949 41.768C238.77 41.328 239.518 40.8293 240.193 40.272C240.867 39.7 241.439 39.0987 241.909 38.468C242.393 37.8227 242.767 37.1627 243.031 36.488C243.295 35.7987 243.427 35.1167 243.427 34.442V32.264H245.847V34.442C245.847 35.1313 245.979 35.7987 246.243 36.444C246.521 37.0893 246.888 37.698 247.343 38.27C247.812 38.842 248.347 39.37 248.949 39.854C249.55 40.3233 250.188 40.734 250.863 41.086L249.675 42.758ZM255.417 51.272H241.755V44.364H244.065V49.292H255.417V51.272ZM270.355 42.406C269.167 42.5967 267.935 42.7213 266.659 42.78C265.398 42.8387 264.144 42.868 262.897 42.868H258.673V36.62H265.559V34.31H258.673V32.352H267.869V38.512H260.983V40.932H262.897C264.158 40.932 265.398 40.91 266.615 40.866C267.832 40.822 269.079 40.712 270.355 40.536V42.406ZM274.205 43.66H271.895V39.414H268.903V37.5H271.895V35.74H268.903V33.804H271.895V31.824H274.205V43.66ZM274.161 51.602H271.851V46.674H260.543V44.694H274.161V51.602Z" fill="white"/>
<path d="M22 69C26.8167 69.0333 31.6333 69.065 36.45 69.095C79.8 69.365 123.15 69.5 166.5 69.5C209.85 69.5 253.2 69.365 296.55 69.095C301.367 69.065 306.183 69.0334 311 69C306.183 68.9667 301.367 68.935 296.55 68.905C253.2 68.635 209.85 68.5 166.5 68.5C123.15 68.5 79.8 68.635 36.45 68.905C31.6333 68.935 26.8167 68.9667 22 69Z" fill="white"/>
<path d="M87.7268 102.248H76.4708V84.152H78.9908V100.088H87.7268V102.248ZM100.185 100.592C99.6253 101.2 98.9533 101.664 98.1693 101.984C97.4013 102.32 96.5533 102.488 95.6253 102.488C94.6973 102.488 93.8413 102.32 93.0573 101.984C92.2893 101.664 91.6253 101.2 91.0653 100.592C90.5053 99.984 90.0653 99.256 89.7453 98.408C89.4413 97.544 89.2893 96.584 89.2893 95.528C89.2893 94.472 89.4413 93.52 89.7453 92.672C90.0653 91.808 90.5053 91.072 91.0653 90.464C91.6253 89.856 92.2893 89.392 93.0573 89.072C93.8413 88.736 94.6973 88.568 95.6253 88.568C96.5533 88.568 97.4013 88.736 98.1693 89.072C98.9533 89.392 99.6253 89.856 100.185 90.464C100.761 91.072 101.201 91.808 101.505 92.672C101.825 93.52 101.985 94.472 101.985 95.528C101.985 96.584 101.825 97.544 101.505 98.408C101.201 99.256 100.761 99.984 100.185 100.592ZM97.2573 100.016C97.7373 99.76 98.1373 99.416 98.4573 98.984C98.7933 98.552 99.0493 98.04 99.2253 97.448C99.4013 96.856 99.4893 96.216 99.4893 95.528C99.4893 94.856 99.4013 94.224 99.2253 93.632C99.0493 93.04 98.7933 92.528 98.4573 92.096C98.1373 91.664 97.7373 91.328 97.2573 91.088C96.7773 90.832 96.2333 90.704 95.6253 90.704C95.0173 90.704 94.4733 90.832 93.9933 91.088C93.5293 91.328 93.1293 91.664 92.7933 92.096C92.4733 92.528 92.2253 93.04 92.0493 93.632C91.8733 94.224 91.7853 94.856 91.7853 95.528C91.7853 96.216 91.8733 96.856 92.0493 97.448C92.2253 98.04 92.4733 98.552 92.7933 98.984C93.1293 99.416 93.5293 99.76 93.9933 100.016C94.4733 100.256 95.0173 100.376 95.6253 100.376C96.2333 100.376 96.7773 100.256 97.2573 100.016ZM117.976 102.248H115.72L113.08 93.536L112.888 92.6H112.72L112.504 93.536L109.888 102.248H107.632L103.648 88.808H106.216L108.544 97.448L108.76 98.528H108.928L109.144 97.448L111.688 88.808H113.896L116.44 97.448L116.68 98.528H116.848C116.848 98.496 116.856 98.432 116.872 98.336C116.904 98.224 116.928 98.112 116.944 98C116.976 97.872 117 97.76 117.016 97.664C117.048 97.552 117.064 97.48 117.064 97.448L119.368 88.808H121.936L117.976 102.248Z" fill="white"/>
<path d="M193.342 102.248H191.206L184.366 84.152H187.054L191.758 97.064L192.19 98.576H192.358L192.79 97.064L197.566 84.152H200.254L193.342 102.248ZM213.035 99.848C212.475 100.664 211.731 101.304 210.803 101.768C209.875 102.248 208.883 102.488 207.827 102.488C206.835 102.488 205.947 102.32 205.163 101.984C204.379 101.664 203.715 101.208 203.171 100.616C202.643 100.008 202.235 99.28 201.947 98.432C201.675 97.568 201.539 96.6 201.539 95.528C201.539 94.488 201.683 93.544 201.971 92.696C202.259 91.832 202.667 91.096 203.195 90.488C203.723 89.88 204.355 89.408 205.091 89.072C205.843 88.736 206.675 88.568 207.587 88.568C208.515 88.568 209.331 88.736 210.035 89.072C210.755 89.408 211.355 89.88 211.835 90.488C212.331 91.096 212.707 91.832 212.963 92.696C213.219 93.544 213.347 94.488 213.347 95.528V96.056H204.059C204.075 96.68 204.171 97.256 204.347 97.784C204.523 98.312 204.763 98.768 205.067 99.152C205.387 99.536 205.771 99.84 206.219 100.064C206.683 100.272 207.219 100.376 207.827 100.376C208.547 100.376 209.203 100.216 209.795 99.896C210.403 99.576 210.875 99.112 211.211 98.504L213.035 99.848ZM210.851 93.992C210.755 93 210.419 92.208 209.843 91.616C209.267 91.008 208.515 90.704 207.587 90.704C206.659 90.704 205.899 91.008 205.307 91.616C204.731 92.208 204.379 93 204.251 93.992H210.851ZM218.349 102.248H215.853V88.808H217.989L218.253 90.128H218.421C218.725 89.728 219.149 89.368 219.693 89.048C220.237 88.728 220.829 88.568 221.469 88.568C221.693 88.568 221.957 88.6 222.261 88.664C222.565 88.728 222.845 88.824 223.101 88.952L222.837 90.968C222.565 90.888 222.309 90.84 222.069 90.824C221.829 90.792 221.613 90.776 221.421 90.776C220.653 90.776 219.997 91.016 219.453 91.496C218.925 91.96 218.557 92.528 218.349 93.2V102.248ZM230.152 104.192C229.96 104.688 229.744 105.144 229.504 105.56C229.28 105.976 229.024 106.336 228.736 106.64C228.448 106.944 228.12 107.176 227.752 107.336C227.4 107.512 227 107.6 226.552 107.6C226.264 107.6 225.976 107.576 225.688 107.528C225.416 107.496 225.168 107.432 224.944 107.336L225.208 105.248C225.4 105.344 225.6 105.408 225.808 105.44C226.016 105.472 226.184 105.488 226.312 105.488C226.776 105.488 227.136 105.312 227.392 104.96C227.664 104.624 227.912 104.128 228.136 103.472L228.736 101.816L223.624 88.808H226.36L229.864 98.648L233.392 88.808H236.056L230.152 104.192ZM258.592 102.248H256.072V94.016H246.952V102.248H244.432V84.152H246.952V91.856H256.072V84.152H258.592V102.248ZM265.279 86.504C264.959 86.84 264.543 87.008 264.031 87.008C263.519 87.008 263.103 86.84 262.783 86.504C262.463 86.152 262.303 85.744 262.303 85.28C262.303 84.816 262.463 84.416 262.783 84.08C263.103 83.728 263.519 83.552 264.031 83.552C264.543 83.552 264.959 83.728 265.279 84.08C265.599 84.416 265.759 84.816 265.759 85.28C265.759 85.744 265.599 86.152 265.279 86.504ZM265.279 102.248H262.783V88.808H265.279V102.248ZM279.782 101.792C279.782 102.688 279.654 103.488 279.398 104.192C279.142 104.912 278.774 105.52 278.294 106.016C277.83 106.528 277.254 106.912 276.566 107.168C275.894 107.44 275.126 107.576 274.262 107.576C273.83 107.576 273.358 107.52 272.846 107.408C272.334 107.312 271.822 107.152 271.31 106.928C270.814 106.72 270.334 106.44 269.87 106.088C269.406 105.736 269.014 105.312 268.694 104.816L270.23 103.328C270.518 103.728 270.822 104.064 271.142 104.336C271.478 104.608 271.822 104.824 272.174 104.984C272.526 105.16 272.87 105.28 273.206 105.344C273.558 105.424 273.878 105.464 274.166 105.464C275.174 105.464 275.95 105.144 276.494 104.504C277.038 103.88 277.31 102.992 277.31 101.84V100.448H277.142C276.87 100.944 276.438 101.368 275.846 101.72C275.254 102.072 274.63 102.248 273.974 102.248C273.126 102.248 272.342 102.088 271.622 101.768C270.918 101.464 270.31 101.016 269.798 100.424C269.286 99.832 268.886 99.112 268.598 98.264C268.31 97.416 268.166 96.464 268.166 95.408C268.166 94.352 268.31 93.4 268.598 92.552C268.886 91.704 269.286 90.992 269.798 90.416C270.31 89.824 270.918 89.368 271.622 89.048C272.342 88.728 273.126 88.568 273.974 88.568C274.694 88.568 275.342 88.736 275.918 89.072C276.494 89.408 276.918 89.808 277.19 90.272H277.358V88.808H279.782V101.792ZM275.198 99.896C275.598 99.72 275.95 99.44 276.254 99.056C276.574 98.672 276.822 98.176 276.998 97.568C277.19 96.96 277.286 96.224 277.286 95.36C277.286 94.464 277.19 93.72 276.998 93.128C276.822 92.52 276.582 92.04 276.278 91.688C275.974 91.32 275.622 91.064 275.222 90.92C274.822 90.776 274.406 90.704 273.974 90.704C273.414 90.704 272.926 90.824 272.51 91.064C272.11 91.288 271.766 91.616 271.478 92.048C271.206 92.464 270.998 92.96 270.854 93.536C270.726 94.112 270.662 94.736 270.662 95.408C270.662 96.096 270.726 96.728 270.854 97.304C270.998 97.88 271.206 98.384 271.478 98.816C271.766 99.232 272.11 99.56 272.51 99.8C272.926 100.024 273.414 100.136 273.974 100.136C274.406 100.136 274.814 100.056 275.198 99.896ZM294.179 102.248H291.707V94.016C291.707 93.04 291.451 92.248 290.939 91.64C290.443 91.016 289.755 90.704 288.875 90.704C288.443 90.704 288.035 90.792 287.651 90.968C287.283 91.128 286.955 91.352 286.667 91.64C286.395 91.928 286.171 92.28 285.995 92.696C285.835 93.096 285.755 93.536 285.755 94.016V102.248H283.259V83.432H285.707V90.2H285.875C286.243 89.752 286.715 89.368 287.291 89.048C287.867 88.728 288.603 88.568 289.499 88.568C290.075 88.568 290.643 88.68 291.203 88.904C291.763 89.112 292.259 89.44 292.691 89.888C293.139 90.336 293.499 90.896 293.771 91.568C294.043 92.24 294.179 93.04 294.179 93.968V102.248Z" fill="white"/>
<defs>
<filter id="filter0_d_2713_3376" x="9" y="8.24219" width="313.5" height="117.279" filterUnits="userSpaceOnUse" color-interpolation-filters="sRGB">
<feFlood flood-opacity="0" result="BackgroundImageFix"/>
<feColorMatrix in="SourceAlpha" type="matrix" values="0 0 0 0 0 0 0 0 0 0 0 0 0 0 0 0 0 0 127 0" result="hardAlpha"/>
<feOffset dx="1" dy="1"/>
<feGaussianBlur stdDeviation="0.5"/>
<feComposite in2="hardAlpha" operator="out"/>
<feColorMatrix type="matrix" values="0 0 0 0 0 0 0 0 0 0 0 0 0 0 0 0 0 0 0.25 0"/>
<feBlend mode="normal" in2="BackgroundImageFix" result="effect1_dropShadow_2713_3376"/>
<feBlend mode="normal" in="SourceGraphic" in2="effect1_dropShadow_2713_3376" result="shape"/>
</filter>
<filter id="filter1_d_2713_3376" x="9" y="8" width="315" height="117.026" filterUnits="userSpaceOnUse" color-interpolation-filters="sRGB">
<feFlood flood-opacity="0" result="BackgroundImageFix"/>
<feColorMatrix in="SourceAlpha" type="matrix" values="0 0 0 0 0 0 0 0 0 0 0 0 0 0 0 0 0 0 127 0" result="hardAlpha"/>
<feOffset dx="1" dy="1"/>
<feGaussianBlur stdDeviation="0.5"/>
<feComposite in2="hardAlpha" operator="out"/>
<feColorMatrix type="matrix" values="0 0 0 0 0 0 0 0 0 0 0 0 0 0 0 0 0 0 0.25 0"/>
<feBlend mode="normal" in2="BackgroundImageFix" result="effect1_dropShadow_2713_3376"/>
<feBlend mode="normal" in="SourceGraphic" in2="effect1_dropShadow_2713_3376" result="shape"/>
</filter>
</defs>
</svg>
