<svg width="332" height="133" viewBox="0 0 332 133" fill="none" xmlns="http://www.w3.org/2000/svg">
<path d="M8 0V8H0" stroke="#F5091E" stroke-opacity="0.5"/>
<path d="M9 1V9H1" stroke="white"/>
<path d="M10 2V10H2" stroke="#00C9D7" stroke-opacity="0.5"/>
<path d="M-3.49691e-07 125L8 125L8 133" stroke="#F5091E" stroke-opacity="0.5"/>
<path d="M1 124L9 124L9 132" stroke="white"/>
<path d="M2 123L10 123L10 131" stroke="#00C9D7" stroke-opacity="0.5"/>
<path d="M324 0V8H332" stroke="#F5091E" stroke-opacity="0.5"/>
<path d="M323 1V9H331" stroke="white"/>
<path d="M322 2V10H330" stroke="#00C9D7" stroke-opacity="0.5"/>
<path d="M332 125L324 125L324 133" stroke="#F5091E" stroke-opacity="0.5"/>
<path d="M331 124L323 124L323 132" stroke="white"/>
<path d="M330 123L322 123L322 131" stroke="#00C9D7" stroke-opacity="0.5"/>
<rect x="12" y="10.9883" width="311" height="113.026" stroke="#00C9D7" stroke-opacity="0.5" stroke-width="2"/>
<rect x="8" y="8" width="311" height="113.026" stroke="#F5091E" stroke-opacity="0.5" stroke-width="2"/>
<g filter="url(#filter0_d_2713_3379)">
<path d="M10 123.521C10 123.521 10 53.871 10 9.2422L320.5 9.2422" stroke="white" stroke-width="2"/>
</g>
<g filter="url(#filter1_d_2713_3379)">
<rect x="9" y="8" width="313" height="115.026" fill="white" fill-opacity="0.2" shape-rendering="crispEdges"/>
<rect x="10" y="9" width="311" height="113.026" stroke="white" stroke-width="2" shape-rendering="crispEdges"/>
</g>
<path d="M60.4953 44.2562L67.8885 52.0478C69.3081 53.5439 71.6919 53.5439 73.1115 52.0478L80.5047 44.2562C83.1651 41.4524 83.1651 36.9066 80.5047 34.1028C77.8443 31.2991 73.5309 31.2991 70.8705 34.1028C70.6691 34.3151 70.3309 34.3151 70.1295 34.1028C67.4691 31.2991 63.1557 31.2991 60.4953 34.1028C57.8349 36.9066 57.8349 41.4524 60.4953 44.2562Z" fill="#FF4E59" stroke="#FF4E59" stroke-width="1.8"/>
<path d="M100.85 48.302C100.014 47.466 99.2953 46.586 98.694 45.662C98.1073 44.738 97.6233 43.814 97.242 42.89C96.9047 43.8287 96.3987 44.8187 95.724 45.86C95.0493 46.9013 94.206 47.8767 93.194 48.786L91.61 47.4C92.27 46.8573 92.8713 46.234 93.414 45.53C93.9567 44.8113 94.4187 44.056 94.8 43.264C95.196 42.4573 95.504 41.636 95.724 40.8C95.944 39.964 96.054 39.1573 96.054 38.38V36.884H92.798V34.904H96.076V32.088H98.386V34.904H101.598V36.884H98.408V38.38C98.408 39.172 98.5033 39.964 98.694 40.756C98.8993 41.548 99.178 42.3107 99.53 43.044C99.882 43.7773 100.293 44.474 100.762 45.134C101.231 45.7793 101.737 46.3587 102.28 46.872L100.85 48.302ZM105.47 50.964H103.226V41.482H100.542V39.458H103.226V32.044H105.47V50.964ZM109.32 51.47H107.054V31.824H109.32V51.47ZM124.127 42.406C122.939 42.5967 121.707 42.7213 120.431 42.78C119.169 42.8387 117.915 42.868 116.669 42.868H112.445V36.62H119.331V34.31H112.445V32.352H121.641V38.512H114.755V40.932H116.669C117.93 40.932 119.169 40.91 120.387 40.866C121.604 40.822 122.851 40.712 124.127 40.536V42.406ZM127.977 43.66H125.667V39.414H122.675V37.5H125.667V35.74H122.675V33.804H125.667V31.824H127.977V43.66ZM127.933 51.602H125.623V46.674H114.315V44.694H127.933V51.602Z" fill="white"/>
<path d="M193.5 42.9032L201.764 30H211.682L205.483 38.871H211.682L193.5 55L199.285 42.9032H193.5Z" fill="#FFF603" stroke="#FFF603" stroke-linejoin="round"/>
<path d="M235.594 49.556C235.242 50.0987 234.751 50.546 234.12 50.898C233.489 51.2647 232.734 51.536 231.854 51.712C230.974 51.888 230.013 51.976 228.972 51.976C227.931 51.976 226.97 51.888 226.09 51.712C225.225 51.536 224.477 51.2647 223.846 50.898C223.215 50.546 222.724 50.0987 222.372 49.556C222.02 49.028 221.844 48.3973 221.844 47.664C221.844 46.9453 222.02 46.3147 222.372 45.772C222.724 45.2293 223.215 44.782 223.846 44.43C224.477 44.0633 225.225 43.792 226.09 43.616C226.97 43.44 227.931 43.352 228.972 43.352C230.013 43.352 230.974 43.44 231.854 43.616C232.734 43.792 233.489 44.0633 234.12 44.43C234.751 44.782 235.242 45.2293 235.594 45.772C235.946 46.3147 236.122 46.9453 236.122 47.664C236.122 48.3973 235.946 49.028 235.594 49.556ZM230.424 42.318C229.368 41.8047 228.415 41.174 227.564 40.426C226.713 39.678 226.031 38.864 225.518 37.984C225.049 38.8787 224.367 39.7733 223.472 40.668C222.577 41.548 221.507 42.318 220.26 42.978C220.025 42.714 219.791 42.4573 219.556 42.208C219.321 41.944 219.079 41.68 218.83 41.416C219.637 41.0053 220.37 40.536 221.03 40.008C221.705 39.4653 222.277 38.8933 222.746 38.292C223.23 37.6907 223.597 37.0747 223.846 36.444C224.11 35.7987 224.242 35.168 224.242 34.552V34.42H220.106V32.484H230.798V34.42H226.662V34.552C226.662 35.212 226.787 35.8427 227.036 36.444C227.3 37.0307 227.652 37.5807 228.092 38.094C228.547 38.6073 229.075 39.084 229.676 39.524C230.277 39.9493 230.923 40.3233 231.612 40.646L230.424 42.318ZM232.536 49.424C233.357 49.0427 233.768 48.456 233.768 47.664C233.768 46.872 233.357 46.2853 232.536 45.904C231.715 45.508 230.527 45.31 228.972 45.31C227.417 45.31 226.229 45.508 225.408 45.904C224.601 46.2853 224.198 46.872 224.198 47.664C224.198 48.456 224.601 49.0427 225.408 49.424C226.229 49.82 227.417 50.018 228.972 50.018C230.527 50.018 231.715 49.82 232.536 49.424ZM235.748 43.132H233.438V37.984H230.05V36.026H233.438V31.824H235.748V43.132ZM254.977 45.706H252.667V31.824H254.977V45.706ZM249.675 42.758C248.589 42.142 247.629 41.438 246.793 40.646C245.957 39.854 245.26 38.9813 244.703 38.028C244.189 38.996 243.493 39.942 242.613 40.866C241.747 41.7753 240.669 42.5967 239.379 43.33L237.949 41.768C238.77 41.328 239.518 40.8293 240.193 40.272C240.867 39.7 241.439 39.0987 241.909 38.468C242.393 37.8227 242.767 37.1627 243.031 36.488C243.295 35.7987 243.427 35.1167 243.427 34.442V32.264H245.847V34.442C245.847 35.1313 245.979 35.7987 246.243 36.444C246.521 37.0893 246.888 37.698 247.343 38.27C247.812 38.842 248.347 39.37 248.949 39.854C249.55 40.3233 250.188 40.734 250.863 41.086L249.675 42.758ZM255.417 51.272H241.755V44.364H244.065V49.292H255.417V51.272ZM270.355 42.406C269.167 42.5967 267.935 42.7213 266.659 42.78C265.398 42.8387 264.144 42.868 262.897 42.868H258.673V36.62H265.559V34.31H258.673V32.352H267.869V38.512H260.983V40.932H262.897C264.158 40.932 265.398 40.91 266.615 40.866C267.832 40.822 269.079 40.712 270.355 40.536V42.406ZM274.205 43.66H271.895V39.414H268.903V37.5H271.895V35.74H268.903V33.804H271.895V31.824H274.205V43.66ZM274.161 51.602H271.851V46.674H260.543V44.694H274.161V51.602Z" fill="white"/>
<path d="M22 69C26.8167 69.0333 31.6333 69.065 36.45 69.095C79.8 69.365 123.15 69.5 166.5 69.5C209.85 69.5 253.2 69.365 296.55 69.095C301.367 69.065 306.183 69.0334 311 69C306.183 68.9667 301.367 68.935 296.55 68.905C253.2 68.635 209.85 68.5 166.5 68.5C123.15 68.5 79.8 68.635 36.45 68.905C31.6333 68.935 26.8167 68.9667 22 69Z" fill="white"/>
<path d="M72.4562 102.248H69.7442L60.8642 88.232H60.6962L60.7922 90.392V102.248H58.2482V84.152H60.9842L69.8642 98.192H70.0322L69.9362 96.032V84.152H72.4562V102.248ZM86.4626 100.592C85.9026 101.2 85.2306 101.664 84.4466 101.984C83.6786 102.32 82.8306 102.488 81.9026 102.488C80.9746 102.488 80.1186 102.32 79.3346 101.984C78.5666 101.664 77.9026 101.2 77.3426 100.592C76.7826 99.984 76.3426 99.256 76.0226 98.408C75.7186 97.544 75.5666 96.584 75.5666 95.528C75.5666 94.472 75.7186 93.52 76.0226 92.672C76.3426 91.808 76.7826 91.072 77.3426 90.464C77.9026 89.856 78.5666 89.392 79.3346 89.072C80.1186 88.736 80.9746 88.568 81.9026 88.568C82.8306 88.568 83.6786 88.736 84.4466 89.072C85.2306 89.392 85.9026 89.856 86.4626 90.464C87.0386 91.072 87.4786 91.808 87.7826 92.672C88.1026 93.52 88.2626 94.472 88.2626 95.528C88.2626 96.584 88.1026 97.544 87.7826 98.408C87.4786 99.256 87.0386 99.984 86.4626 100.592ZM83.5346 100.016C84.0146 99.76 84.4146 99.416 84.7346 98.984C85.0706 98.552 85.3266 98.04 85.5026 97.448C85.6786 96.856 85.7666 96.216 85.7666 95.528C85.7666 94.856 85.6786 94.224 85.5026 93.632C85.3266 93.04 85.0706 92.528 84.7346 92.096C84.4146 91.664 84.0146 91.328 83.5346 91.088C83.0546 90.832 82.5106 90.704 81.9026 90.704C81.2946 90.704 80.7506 90.832 80.2706 91.088C79.8066 91.328 79.4066 91.664 79.0706 92.096C78.7506 92.528 78.5026 93.04 78.3266 93.632C78.1506 94.224 78.0626 94.856 78.0626 95.528C78.0626 96.216 78.1506 96.856 78.3266 97.448C78.5026 98.04 78.7506 98.552 79.0706 98.984C79.4066 99.416 79.8066 99.76 80.2706 100.016C80.7506 100.256 81.2946 100.376 81.9026 100.376C82.5106 100.376 83.0546 100.256 83.5346 100.016ZM93.5013 102.248H91.0053V88.808H93.1413L93.4053 90.128H93.5733C93.8773 89.728 94.3013 89.368 94.8453 89.048C95.3893 88.728 95.9813 88.568 96.6213 88.568C96.8453 88.568 97.1093 88.6 97.4133 88.664C97.7173 88.728 97.9973 88.824 98.2533 88.952L97.9893 90.968C97.7173 90.888 97.4613 90.84 97.2213 90.824C96.9813 90.792 96.7653 90.776 96.5733 90.776C95.8053 90.776 95.1493 91.016 94.6053 91.496C94.0773 91.96 93.7093 92.528 93.5013 93.2V102.248ZM118.696 102.248H116.2V94.016C116.2 93.04 115.984 92.248 115.552 91.64C115.136 91.016 114.496 90.704 113.632 90.704C113.216 90.704 112.832 90.784 112.48 90.944C112.144 91.088 111.848 91.304 111.592 91.592C111.336 91.864 111.128 92.192 110.968 92.576C110.808 92.944 110.72 93.352 110.704 93.8V102.248H108.208V94.016C108.208 93.04 107.992 92.248 107.56 91.64C107.144 91.016 106.504 90.704 105.64 90.704C105.208 90.704 104.816 90.792 104.464 90.968C104.112 91.128 103.8 91.352 103.528 91.64C103.272 91.928 103.072 92.28 102.928 92.696C102.784 93.096 102.712 93.536 102.712 94.016V102.248H100.216V88.808H102.664V90.2H102.832C103.152 89.8 103.576 89.432 104.104 89.096C104.648 88.744 105.368 88.568 106.264 88.568C107 88.568 107.688 88.752 108.328 89.12C108.984 89.472 109.512 90.016 109.912 90.752C110.328 90.08 110.904 89.552 111.64 89.168C112.376 88.768 113.24 88.568 114.232 88.568C114.808 88.568 115.368 88.68 115.912 88.904C116.456 89.112 116.928 89.44 117.328 89.888C117.744 90.336 118.072 90.896 118.312 91.568C118.568 92.24 118.696 93.04 118.696 93.968V102.248ZM132.57 102.248H130.122V100.88H129.954C129.602 101.328 129.074 101.704 128.37 102.008C127.682 102.328 126.954 102.488 126.186 102.488C125.466 102.488 124.81 102.384 124.218 102.176C123.642 101.984 123.146 101.712 122.73 101.36C122.314 101.008 121.994 100.584 121.77 100.088C121.546 99.592 121.434 99.056 121.434 98.48C121.434 97.776 121.586 97.152 121.89 96.608C122.21 96.048 122.666 95.576 123.258 95.192C123.85 94.808 124.554 94.512 125.37 94.304C126.202 94.096 127.138 93.992 128.178 93.992H130.098V93.176C130.098 92.392 129.85 91.784 129.354 91.352C128.874 90.92 128.17 90.704 127.242 90.704C126.314 90.704 125.578 90.912 125.034 91.328C124.506 91.744 124.242 92.296 124.242 92.984H121.794C121.794 92.392 121.922 91.832 122.178 91.304C122.434 90.76 122.794 90.288 123.258 89.888C123.738 89.488 124.314 89.168 124.986 88.928C125.674 88.688 126.442 88.568 127.29 88.568C128.058 88.568 128.762 88.664 129.402 88.856C130.058 89.048 130.618 89.336 131.082 89.72C131.562 90.104 131.93 90.584 132.186 91.16C132.442 91.736 132.57 92.416 132.57 93.2V102.248ZM130.098 95.936H128.37C126.994 95.936 125.906 96.152 125.106 96.584C124.322 97 123.93 97.592 123.93 98.36C123.93 98.92 124.138 99.4 124.554 99.8C124.986 100.184 125.578 100.376 126.33 100.376C126.762 100.376 127.162 100.32 127.53 100.208C127.914 100.08 128.266 99.92 128.586 99.728C128.922 99.52 129.21 99.288 129.45 99.032C129.706 98.76 129.922 98.488 130.098 98.216V95.936ZM138.721 102.248H136.225V83.432H138.721V102.248Z" fill="white"/>
<path d="M214.456 102.248H211.744L202.864 88.232H202.696L202.792 90.392V102.248H200.248V84.152H202.984L211.864 98.192H212.032L211.936 96.032V84.152H214.456V102.248ZM228.463 100.592C227.903 101.2 227.231 101.664 226.447 101.984C225.679 102.32 224.831 102.488 223.903 102.488C222.975 102.488 222.119 102.32 221.335 101.984C220.567 101.664 219.903 101.2 219.343 100.592C218.783 99.984 218.343 99.256 218.023 98.408C217.719 97.544 217.567 96.584 217.567 95.528C217.567 94.472 217.719 93.52 218.023 92.672C218.343 91.808 218.783 91.072 219.343 90.464C219.903 89.856 220.567 89.392 221.335 89.072C222.119 88.736 222.975 88.568 223.903 88.568C224.831 88.568 225.679 88.736 226.447 89.072C227.231 89.392 227.903 89.856 228.463 90.464C229.039 91.072 229.479 91.808 229.783 92.672C230.103 93.52 230.263 94.472 230.263 95.528C230.263 96.584 230.103 97.544 229.783 98.408C229.479 99.256 229.039 99.984 228.463 100.592ZM225.535 100.016C226.015 99.76 226.415 99.416 226.735 98.984C227.071 98.552 227.327 98.04 227.503 97.448C227.679 96.856 227.767 96.216 227.767 95.528C227.767 94.856 227.679 94.224 227.503 93.632C227.327 93.04 227.071 92.528 226.735 92.096C226.415 91.664 226.015 91.328 225.535 91.088C225.055 90.832 224.511 90.704 223.903 90.704C223.295 90.704 222.751 90.832 222.271 91.088C221.807 91.328 221.407 91.664 221.071 92.096C220.751 92.528 220.503 93.04 220.327 93.632C220.151 94.224 220.063 94.856 220.063 95.528C220.063 96.216 220.151 96.856 220.327 97.448C220.503 98.04 220.751 98.552 221.071 98.984C221.407 99.416 221.807 99.76 222.271 100.016C222.751 100.256 223.295 100.376 223.903 100.376C224.511 100.376 225.055 100.256 225.535 100.016ZM235.501 102.248H233.005V88.808H235.141L235.405 90.128H235.573C235.877 89.728 236.301 89.368 236.845 89.048C237.389 88.728 237.981 88.568 238.621 88.568C238.845 88.568 239.109 88.6 239.413 88.664C239.717 88.728 239.997 88.824 240.253 88.952L239.989 90.968C239.717 90.888 239.461 90.84 239.221 90.824C238.981 90.792 238.765 90.776 238.573 90.776C237.805 90.776 237.149 91.016 236.605 91.496C236.077 91.96 235.709 92.528 235.501 93.2V102.248ZM260.696 102.248H258.2V94.016C258.2 93.04 257.984 92.248 257.552 91.64C257.136 91.016 256.496 90.704 255.632 90.704C255.216 90.704 254.832 90.784 254.48 90.944C254.144 91.088 253.848 91.304 253.592 91.592C253.336 91.864 253.128 92.192 252.968 92.576C252.808 92.944 252.72 93.352 252.704 93.8V102.248H250.208V94.016C250.208 93.04 249.992 92.248 249.56 91.64C249.144 91.016 248.504 90.704 247.64 90.704C247.208 90.704 246.816 90.792 246.464 90.968C246.112 91.128 245.8 91.352 245.528 91.64C245.272 91.928 245.072 92.28 244.928 92.696C244.784 93.096 244.712 93.536 244.712 94.016V102.248H242.216V88.808H244.664V90.2H244.832C245.152 89.8 245.576 89.432 246.104 89.096C246.648 88.744 247.368 88.568 248.264 88.568C249 88.568 249.688 88.752 250.328 89.12C250.984 89.472 251.512 90.016 251.912 90.752C252.328 90.08 252.904 89.552 253.64 89.168C254.376 88.768 255.24 88.568 256.232 88.568C256.808 88.568 257.368 88.68 257.912 88.904C258.456 89.112 258.928 89.44 259.328 89.888C259.744 90.336 260.072 90.896 260.312 91.568C260.568 92.24 260.696 93.04 260.696 93.968V102.248ZM274.57 102.248H272.122V100.88H271.954C271.602 101.328 271.074 101.704 270.37 102.008C269.682 102.328 268.954 102.488 268.186 102.488C267.466 102.488 266.81 102.384 266.218 102.176C265.642 101.984 265.146 101.712 264.73 101.36C264.314 101.008 263.994 100.584 263.77 100.088C263.546 99.592 263.434 99.056 263.434 98.48C263.434 97.776 263.586 97.152 263.89 96.608C264.21 96.048 264.666 95.576 265.258 95.192C265.85 94.808 266.554 94.512 267.37 94.304C268.202 94.096 269.138 93.992 270.178 93.992H272.098V93.176C272.098 92.392 271.85 91.784 271.354 91.352C270.874 90.92 270.17 90.704 269.242 90.704C268.314 90.704 267.578 90.912 267.034 91.328C266.506 91.744 266.242 92.296 266.242 92.984H263.794C263.794 92.392 263.922 91.832 264.178 91.304C264.434 90.76 264.794 90.288 265.258 89.888C265.738 89.488 266.314 89.168 266.986 88.928C267.674 88.688 268.442 88.568 269.29 88.568C270.058 88.568 270.762 88.664 271.402 88.856C272.058 89.048 272.618 89.336 273.082 89.72C273.562 90.104 273.93 90.584 274.186 91.16C274.442 91.736 274.57 92.416 274.57 93.2V102.248ZM272.098 95.936H270.37C268.994 95.936 267.906 96.152 267.106 96.584C266.322 97 265.93 97.592 265.93 98.36C265.93 98.92 266.138 99.4 266.554 99.8C266.986 100.184 267.578 100.376 268.33 100.376C268.762 100.376 269.162 100.32 269.53 100.208C269.914 100.08 270.266 99.92 270.586 99.728C270.922 99.52 271.21 99.288 271.45 99.032C271.706 98.76 271.922 98.488 272.098 98.216V95.936ZM280.721 102.248H278.225V83.432H280.721V102.248Z" fill="white"/>
<defs>
<filter id="filter0_d_2713_3379" x="9" y="8.24219" width="313.5" height="117.279" filterUnits="userSpaceOnUse" color-interpolation-filters="sRGB">
<feFlood flood-opacity="0" result="BackgroundImageFix"/>
<feColorMatrix in="SourceAlpha" type="matrix" values="0 0 0 0 0 0 0 0 0 0 0 0 0 0 0 0 0 0 127 0" result="hardAlpha"/>
<feOffset dx="1" dy="1"/>
<feGaussianBlur stdDeviation="0.5"/>
<feComposite in2="hardAlpha" operator="out"/>
<feColorMatrix type="matrix" values="0 0 0 0 0 0 0 0 0 0 0 0 0 0 0 0 0 0 0.25 0"/>
<feBlend mode="normal" in2="BackgroundImageFix" result="effect1_dropShadow_2713_3379"/>
<feBlend mode="normal" in="SourceGraphic" in2="effect1_dropShadow_2713_3379" result="shape"/>
</filter>
<filter id="filter1_d_2713_3379" x="9" y="8" width="315" height="117.026" filterUnits="userSpaceOnUse" color-interpolation-filters="sRGB">
<feFlood flood-opacity="0" result="BackgroundImageFix"/>
<feColorMatrix in="SourceAlpha" type="matrix" values="0 0 0 0 0 0 0 0 0 0 0 0 0 0 0 0 0 0 127 0" result="hardAlpha"/>
<feOffset dx="1" dy="1"/>
<feGaussianBlur stdDeviation="0.5"/>
<feComposite in2="hardAlpha" operator="out"/>
<feColorMatrix type="matrix" values="0 0 0 0 0 0 0 0 0 0 0 0 0 0 0 0 0 0 0.25 0"/>
<feBlend mode="normal" in2="BackgroundImageFix" result="effect1_dropShadow_2713_3379"/>
<feBlend mode="normal" in="SourceGraphic" in2="effect1_dropShadow_2713_3379" result="shape"/>
</filter>
</defs>
</svg>
