<svg width="332" height="133" viewBox="0 0 332 133" fill="none" xmlns="http://www.w3.org/2000/svg">
<path d="M8 0V8H0" stroke="#F5091E" stroke-opacity="0.5"/>
<path d="M9 1V9H1" stroke="white"/>
<path d="M10 2V10H2" stroke="#00C9D7" stroke-opacity="0.5"/>
<path d="M-3.49691e-07 125L8 125L8 133" stroke="#F5091E" stroke-opacity="0.5"/>
<path d="M1 124L9 124L9 132" stroke="white"/>
<path d="M2 123L10 123L10 131" stroke="#00C9D7" stroke-opacity="0.5"/>
<path d="M324 0V8H332" stroke="#F5091E" stroke-opacity="0.5"/>
<path d="M323 1V9H331" stroke="white"/>
<path d="M322 2V10H330" stroke="#00C9D7" stroke-opacity="0.5"/>
<path d="M332 125L324 125L324 133" stroke="#F5091E" stroke-opacity="0.5"/>
<path d="M331 124L323 124L323 132" stroke="white"/>
<path d="M330 123L322 123L322 131" stroke="#00C9D7" stroke-opacity="0.5"/>
<rect x="12" y="10.9883" width="311" height="113.026" stroke="#00C9D7" stroke-opacity="0.5" stroke-width="2"/>
<rect x="8" y="8" width="311" height="113.026" stroke="#F5091E" stroke-opacity="0.5" stroke-width="2"/>
<g filter="url(#filter0_d_1393_6879)">
<path d="M10 123.521C10 123.521 10 53.871 10 9.2422L320.5 9.2422" stroke="white" stroke-width="2"/>
</g>
<g filter="url(#filter1_d_1393_6879)">
<rect x="9" y="8" width="313" height="115.026" fill="white" fill-opacity="0.2" shape-rendering="crispEdges"/>
<rect x="10" y="9" width="311" height="113.026" stroke="white" stroke-width="2" shape-rendering="crispEdges"/>
</g>
<path d="M60.4953 42.2562L67.8885 50.0478C69.3081 51.5439 71.6919 51.5439 73.1115 50.0478L80.5047 42.2562C83.1651 39.4524 83.1651 34.9066 80.5047 32.1028C77.8443 29.2991 73.5309 29.2991 70.8705 32.1028C70.6691 32.3151 70.3309 32.3151 70.1295 32.1028C67.4691 29.2991 63.1557 29.2991 60.4953 32.1028C57.8349 34.9066 57.8349 39.4524 60.4953 42.2562Z" fill="#FF4E59" stroke="#FF4E59" stroke-width="1.8"/>
<path d="M100.85 46.302C100.014 45.466 99.2953 44.586 98.694 43.662C98.1073 42.738 97.6233 41.814 97.242 40.89C96.9047 41.8287 96.3987 42.8187 95.724 43.86C95.0493 44.9013 94.206 45.8767 93.194 46.786L91.61 45.4C92.27 44.8573 92.8713 44.234 93.414 43.53C93.9567 42.8113 94.4187 42.056 94.8 41.264C95.196 40.4573 95.504 39.636 95.724 38.8C95.944 37.964 96.054 37.1573 96.054 36.38V34.884H92.798V32.904H96.076V30.088H98.386V32.904H101.598V34.884H98.408V36.38C98.408 37.172 98.5033 37.964 98.694 38.756C98.8993 39.548 99.178 40.3107 99.53 41.044C99.882 41.7773 100.293 42.474 100.762 43.134C101.231 43.7793 101.737 44.3587 102.28 44.872L100.85 46.302ZM105.47 48.964H103.226V39.482H100.542V37.458H103.226V30.044H105.47V48.964ZM109.32 49.47H107.054V29.824H109.32V49.47ZM124.127 40.406C122.939 40.5967 121.707 40.7213 120.431 40.78C119.169 40.8387 117.915 40.868 116.669 40.868H112.445V34.62H119.331V32.31H112.445V30.352H121.641V36.512H114.755V38.932H116.669C117.93 38.932 119.169 38.91 120.387 38.866C121.604 38.822 122.851 38.712 124.127 38.536V40.406ZM127.977 41.66H125.667V37.414H122.675V35.5H125.667V33.74H122.675V31.804H125.667V29.824H127.977V41.66ZM127.933 49.602H125.623V44.674H114.315V42.694H127.933V49.602Z" fill="white"/>
<path d="M193.5 40.9032L201.764 28H211.682L205.483 36.871H211.682L193.5 53L199.285 40.9032H193.5Z" fill="#FFF603" stroke="#FFF603" stroke-linejoin="round"/>
<path d="M235.594 47.556C235.242 48.0987 234.751 48.546 234.12 48.898C233.489 49.2647 232.734 49.536 231.854 49.712C230.974 49.888 230.013 49.976 228.972 49.976C227.931 49.976 226.97 49.888 226.09 49.712C225.225 49.536 224.477 49.2647 223.846 48.898C223.215 48.546 222.724 48.0987 222.372 47.556C222.02 47.028 221.844 46.3973 221.844 45.664C221.844 44.9453 222.02 44.3147 222.372 43.772C222.724 43.2293 223.215 42.782 223.846 42.43C224.477 42.0633 225.225 41.792 226.09 41.616C226.97 41.44 227.931 41.352 228.972 41.352C230.013 41.352 230.974 41.44 231.854 41.616C232.734 41.792 233.489 42.0633 234.12 42.43C234.751 42.782 235.242 43.2293 235.594 43.772C235.946 44.3147 236.122 44.9453 236.122 45.664C236.122 46.3973 235.946 47.028 235.594 47.556ZM230.424 40.318C229.368 39.8047 228.415 39.174 227.564 38.426C226.713 37.678 226.031 36.864 225.518 35.984C225.049 36.8787 224.367 37.7733 223.472 38.668C222.577 39.548 221.507 40.318 220.26 40.978C220.025 40.714 219.791 40.4573 219.556 40.208C219.321 39.944 219.079 39.68 218.83 39.416C219.637 39.0053 220.37 38.536 221.03 38.008C221.705 37.4653 222.277 36.8933 222.746 36.292C223.23 35.6907 223.597 35.0747 223.846 34.444C224.11 33.7987 224.242 33.168 224.242 32.552V32.42H220.106V30.484H230.798V32.42H226.662V32.552C226.662 33.212 226.787 33.8427 227.036 34.444C227.3 35.0307 227.652 35.5807 228.092 36.094C228.547 36.6073 229.075 37.084 229.676 37.524C230.277 37.9493 230.923 38.3233 231.612 38.646L230.424 40.318ZM232.536 47.424C233.357 47.0427 233.768 46.456 233.768 45.664C233.768 44.872 233.357 44.2853 232.536 43.904C231.715 43.508 230.527 43.31 228.972 43.31C227.417 43.31 226.229 43.508 225.408 43.904C224.601 44.2853 224.198 44.872 224.198 45.664C224.198 46.456 224.601 47.0427 225.408 47.424C226.229 47.82 227.417 48.018 228.972 48.018C230.527 48.018 231.715 47.82 232.536 47.424ZM235.748 41.132H233.438V35.984H230.05V34.026H233.438V29.824H235.748V41.132ZM254.977 43.706H252.667V29.824H254.977V43.706ZM249.675 40.758C248.589 40.142 247.629 39.438 246.793 38.646C245.957 37.854 245.26 36.9813 244.703 36.028C244.189 36.996 243.493 37.942 242.613 38.866C241.747 39.7753 240.669 40.5967 239.379 41.33L237.949 39.768C238.77 39.328 239.518 38.8293 240.193 38.272C240.867 37.7 241.439 37.0987 241.909 36.468C242.393 35.8227 242.767 35.1627 243.031 34.488C243.295 33.7987 243.427 33.1167 243.427 32.442V30.264H245.847V32.442C245.847 33.1313 245.979 33.7987 246.243 34.444C246.521 35.0893 246.888 35.698 247.343 36.27C247.812 36.842 248.347 37.37 248.949 37.854C249.55 38.3233 250.188 38.734 250.863 39.086L249.675 40.758ZM255.417 49.272H241.755V42.364H244.065V47.292H255.417V49.272ZM270.355 40.406C269.167 40.5967 267.935 40.7213 266.659 40.78C265.398 40.8387 264.144 40.868 262.897 40.868H258.673V34.62H265.559V32.31H258.673V30.352H267.869V36.512H260.983V38.932H262.897C264.158 38.932 265.398 38.91 266.615 38.866C267.832 38.822 269.079 38.712 270.355 38.536V40.406ZM274.205 41.66H271.895V37.414H268.903V35.5H271.895V33.74H268.903V31.804H271.895V29.824H274.205V41.66ZM274.161 49.602H271.851V44.674H260.543V42.694H274.161V49.602Z" fill="white"/>
<path d="M22 67C26.8167 67.0333 31.6333 67.065 36.45 67.095C79.8 67.365 123.15 67.5 166.5 67.5C209.85 67.5 253.2 67.365 296.55 67.095C301.367 67.065 306.183 67.0334 311 67C306.183 66.9667 301.367 66.935 296.55 66.905C253.2 66.635 209.85 66.5 166.5 66.5C123.15 66.5 79.8 66.635 36.45 66.905C31.6333 66.935 26.8167 66.9667 22 67Z" fill="white"/>
<path d="M86.344 100.248H75.088V82.152H77.608V98.088H86.344V100.248ZM98.8024 98.592C98.2424 99.2 97.5704 99.664 96.7864 99.984C96.0184 100.32 95.1704 100.488 94.2424 100.488C93.3144 100.488 92.4584 100.32 91.6744 99.984C90.9064 99.664 90.2424 99.2 89.6824 98.592C89.1224 97.984 88.6824 97.256 88.3624 96.408C88.0584 95.544 87.9064 94.584 87.9064 93.528C87.9064 92.472 88.0584 91.52 88.3624 90.672C88.6824 89.808 89.1224 89.072 89.6824 88.464C90.2424 87.856 90.9064 87.392 91.6744 87.072C92.4584 86.736 93.3144 86.568 94.2424 86.568C95.1704 86.568 96.0184 86.736 96.7864 87.072C97.5704 87.392 98.2424 87.856 98.8024 88.464C99.3784 89.072 99.8184 89.808 100.122 90.672C100.442 91.52 100.602 92.472 100.602 93.528C100.602 94.584 100.442 95.544 100.122 96.408C99.8184 97.256 99.3784 97.984 98.8024 98.592ZM95.8744 98.016C96.3544 97.76 96.7544 97.416 97.0744 96.984C97.4104 96.552 97.6664 96.04 97.8424 95.448C98.0184 94.856 98.1064 94.216 98.1064 93.528C98.1064 92.856 98.0184 92.224 97.8424 91.632C97.6664 91.04 97.4104 90.528 97.0744 90.096C96.7544 89.664 96.3544 89.328 95.8744 89.088C95.3944 88.832 94.8504 88.704 94.2424 88.704C93.6344 88.704 93.0904 88.832 92.6104 89.088C92.1464 89.328 91.7464 89.664 91.4104 90.096C91.0904 90.528 90.8424 91.04 90.6664 91.632C90.4904 92.224 90.4024 92.856 90.4024 93.528C90.4024 94.216 90.4904 94.856 90.6664 95.448C90.8424 96.04 91.0904 96.552 91.4104 96.984C91.7464 97.416 92.1464 97.76 92.6104 98.016C93.0904 98.256 93.6344 98.376 94.2424 98.376C94.8504 98.376 95.3944 98.256 95.8744 98.016ZM116.593 100.248H114.337L111.697 91.536L111.505 90.6H111.337L111.121 91.536L108.505 100.248H106.249L102.265 86.808H104.833L107.161 95.448L107.377 96.528H107.545L107.761 95.448L110.305 86.808H112.513L115.057 95.448L115.297 96.528H115.465C115.465 96.496 115.473 96.432 115.489 96.336C115.521 96.224 115.545 96.112 115.561 96C115.593 95.872 115.617 95.76 115.633 95.664C115.665 95.552 115.681 95.48 115.681 95.448L117.985 86.808H120.553L116.593 100.248Z" fill="white"/>
<path d="M229.459 100.248H226.939V92.016H217.819V100.248H215.299V82.152H217.819V89.856H226.939V82.152H229.459V100.248ZM236.147 84.504C235.827 84.84 235.411 85.008 234.899 85.008C234.387 85.008 233.971 84.84 233.651 84.504C233.331 84.152 233.171 83.744 233.171 83.28C233.171 82.816 233.331 82.416 233.651 82.08C233.971 81.728 234.387 81.552 234.899 81.552C235.411 81.552 235.827 81.728 236.147 82.08C236.467 82.416 236.627 82.816 236.627 83.28C236.627 83.744 236.467 84.152 236.147 84.504ZM236.147 100.248H233.651V86.808H236.147V100.248ZM250.65 99.792C250.65 100.688 250.522 101.488 250.266 102.192C250.01 102.912 249.642 103.52 249.162 104.016C248.698 104.528 248.122 104.912 247.434 105.168C246.762 105.44 245.994 105.576 245.13 105.576C244.698 105.576 244.226 105.52 243.714 105.408C243.202 105.312 242.69 105.152 242.178 104.928C241.682 104.72 241.202 104.44 240.738 104.088C240.274 103.736 239.882 103.312 239.562 102.816L241.098 101.328C241.386 101.728 241.69 102.064 242.01 102.336C242.346 102.608 242.69 102.824 243.042 102.984C243.394 103.16 243.738 103.28 244.074 103.344C244.426 103.424 244.746 103.464 245.034 103.464C246.042 103.464 246.818 103.144 247.362 102.504C247.906 101.88 248.178 100.992 248.178 99.84V98.448H248.01C247.738 98.944 247.306 99.368 246.714 99.72C246.122 100.072 245.498 100.248 244.842 100.248C243.994 100.248 243.21 100.088 242.49 99.768C241.786 99.464 241.178 99.016 240.666 98.424C240.154 97.832 239.754 97.112 239.466 96.264C239.178 95.416 239.034 94.464 239.034 93.408C239.034 92.352 239.178 91.4 239.466 90.552C239.754 89.704 240.154 88.992 240.666 88.416C241.178 87.824 241.786 87.368 242.49 87.048C243.21 86.728 243.994 86.568 244.842 86.568C245.562 86.568 246.21 86.736 246.786 87.072C247.362 87.408 247.786 87.808 248.058 88.272H248.226V86.808H250.65V99.792ZM246.066 97.896C246.466 97.72 246.818 97.44 247.122 97.056C247.442 96.672 247.69 96.176 247.866 95.568C248.058 94.96 248.154 94.224 248.154 93.36C248.154 92.464 248.058 91.72 247.866 91.128C247.69 90.52 247.45 90.04 247.146 89.688C246.842 89.32 246.49 89.064 246.09 88.92C245.69 88.776 245.274 88.704 244.842 88.704C244.282 88.704 243.794 88.824 243.378 89.064C242.978 89.288 242.634 89.616 242.346 90.048C242.074 90.464 241.866 90.96 241.722 91.536C241.594 92.112 241.53 92.736 241.53 93.408C241.53 94.096 241.594 94.728 241.722 95.304C241.866 95.88 242.074 96.384 242.346 96.816C242.634 97.232 242.978 97.56 243.378 97.8C243.794 98.024 244.282 98.136 244.842 98.136C245.274 98.136 245.682 98.056 246.066 97.896ZM265.046 100.248H262.574V92.016C262.574 91.04 262.318 90.248 261.806 89.64C261.31 89.016 260.622 88.704 259.742 88.704C259.31 88.704 258.902 88.792 258.518 88.968C258.15 89.128 257.822 89.352 257.534 89.64C257.262 89.928 257.038 90.28 256.862 90.696C256.702 91.096 256.622 91.536 256.622 92.016V100.248H254.126V81.432H256.574V88.2H256.742C257.11 87.752 257.582 87.368 258.158 87.048C258.734 86.728 259.47 86.568 260.366 86.568C260.942 86.568 261.51 86.68 262.07 86.904C262.63 87.112 263.126 87.44 263.558 87.888C264.006 88.336 264.366 88.896 264.638 89.568C264.91 90.24 265.046 91.04 265.046 91.968V100.248Z" fill="white"/>
<defs>
<filter id="filter0_d_1393_6879" x="9" y="8.24219" width="313.5" height="117.279" filterUnits="userSpaceOnUse" color-interpolation-filters="sRGB">
<feFlood flood-opacity="0" result="BackgroundImageFix"/>
<feColorMatrix in="SourceAlpha" type="matrix" values="0 0 0 0 0 0 0 0 0 0 0 0 0 0 0 0 0 0 127 0" result="hardAlpha"/>
<feOffset dx="1" dy="1"/>
<feGaussianBlur stdDeviation="0.5"/>
<feComposite in2="hardAlpha" operator="out"/>
<feColorMatrix type="matrix" values="0 0 0 0 0 0 0 0 0 0 0 0 0 0 0 0 0 0 0.25 0"/>
<feBlend mode="normal" in2="BackgroundImageFix" result="effect1_dropShadow_1393_6879"/>
<feBlend mode="normal" in="SourceGraphic" in2="effect1_dropShadow_1393_6879" result="shape"/>
</filter>
<filter id="filter1_d_1393_6879" x="9" y="8" width="315" height="117.026" filterUnits="userSpaceOnUse" color-interpolation-filters="sRGB">
<feFlood flood-opacity="0" result="BackgroundImageFix"/>
<feColorMatrix in="SourceAlpha" type="matrix" values="0 0 0 0 0 0 0 0 0 0 0 0 0 0 0 0 0 0 127 0" result="hardAlpha"/>
<feOffset dx="1" dy="1"/>
<feGaussianBlur stdDeviation="0.5"/>
<feComposite in2="hardAlpha" operator="out"/>
<feColorMatrix type="matrix" values="0 0 0 0 0 0 0 0 0 0 0 0 0 0 0 0 0 0 0.25 0"/>
<feBlend mode="normal" in2="BackgroundImageFix" result="effect1_dropShadow_1393_6879"/>
<feBlend mode="normal" in="SourceGraphic" in2="effect1_dropShadow_1393_6879" result="shape"/>
</filter>
</defs>
</svg>
