<svg width="128" height="128" viewBox="0 0 128 128" fill="none" xmlns="http://www.w3.org/2000/svg">
<g clip-path="url(#clip0_1586_971)">
<g clip-path="url(#clip1_1586_971)">
<path d="M81.9167 117.75H46.0833C43.1335 117.738 40.2695 116.756 37.9333 114.955C35.5971 113.153 33.9185 110.634 33.1565 107.784C34.4392 100.536 38.2335 93.971 43.8736 89.2413C49.5137 84.5117 56.6393 81.9195 64 81.9195C71.3607 81.9195 78.4863 84.5117 84.1264 89.2413C89.7665 93.971 93.5609 100.536 94.8436 107.784C94.0815 110.634 92.4029 113.153 90.0667 114.955C87.7305 116.756 84.8666 117.738 81.9167 117.75ZM23.6875 104.313V70.3783C19.6982 72.1194 16.3027 74.9853 13.9162 78.6255C11.5297 82.2656 10.2557 86.5223 10.25 90.875L10.25 95.3542C10.257 100.451 12.0025 105.394 15.1982 109.365C18.3939 113.336 22.8485 116.098 27.8263 117.195C25.1389 113.436 23.692 108.933 23.6875 104.313ZM104.313 70.3783V104.313C104.308 108.933 102.861 113.436 100.174 117.195C105.152 116.098 109.606 113.336 112.802 109.365C115.998 105.394 117.743 100.451 117.75 95.3542V90.875C117.744 86.5223 116.47 82.2656 114.084 78.6255C111.697 74.9853 108.302 72.1194 104.313 70.3783ZM95.3542 59.5208V87.9904C91.5859 83.2983 86.8125 79.5117 81.3859 76.9099C75.9594 74.3081 70.0181 72.9574 64 72.9574C57.982 72.9574 52.0407 74.3081 46.6141 76.9099C41.1876 79.5117 36.4142 83.2983 32.6458 87.9904V59.5208C32.649 54.4724 33.8726 49.4995 36.2123 45.0259C38.552 40.5523 41.9386 36.7107 46.0833 33.8283V28.1667C46.0833 23.4149 47.971 18.8577 51.331 15.4977C54.691 12.1376 59.2482 10.25 64 10.25C68.7518 10.25 73.309 12.1376 76.669 15.4977C80.029 18.8577 81.9167 23.4149 81.9167 28.1667V33.8283C86.0615 36.7107 89.448 40.5523 91.7877 45.0259C94.1274 49.4995 95.351 54.4724 95.3542 59.5208ZM55.0417 29.5104C60.884 27.7486 67.1161 27.7486 72.9584 29.5104V28.1667C72.9584 25.7908 72.0145 23.5122 70.3345 21.8322C68.6545 20.1522 66.3759 19.2083 64 19.2083C61.6241 19.2083 59.3455 20.1522 57.6655 21.8322C55.9855 23.5122 55.0417 25.7908 55.0417 28.1667V29.5104ZM77.4375 55.0417C77.4375 53.8537 76.9656 52.7144 76.1256 51.8744C75.2856 51.0344 74.1463 50.5625 72.9584 50.5625H55.0417C53.8537 50.5625 52.7144 51.0344 51.8744 51.8744C51.0344 52.7144 50.5625 53.8537 50.5625 55.0417C50.5625 56.2296 51.0344 57.3689 51.8744 58.2089C52.7144 59.0489 53.8537 59.5208 55.0417 59.5208H72.9584C74.1463 59.5208 75.2856 59.0489 76.1256 58.2089C76.9656 57.3689 77.4375 56.2296 77.4375 55.0417Z" fill="#FFB332"/>
</g>
</g>
<defs>
<clipPath id="clip0_1586_971">
<rect width="128" height="128" fill="white"/>
</clipPath>
<clipPath id="clip1_1586_971">
<rect width="107.5" height="107.5" fill="white" transform="translate(10.25 10.25)"/>
</clipPath>
</defs>
</svg>
