<svg width="541" height="45" viewBox="0 0 541 45" fill="none" xmlns="http://www.w3.org/2000/svg">
<g opacity="0.8">
<path d="M0 0.372V14.832H1.704V0L0 0.372ZM2.316 9.552L6.804 15.084L8.124 14.052L4.32 9.456L7.608 5.304L6.276 4.332L2.316 9.552Z" fill="white"/>
<path d="M12.8407 13.608C13.0807 13.608 13.3207 13.572 13.5727 13.512C13.8247 13.452 14.0767 13.368 14.3287 13.272C14.5807 13.176 14.8207 13.044 15.0367 12.912C15.2647 12.768 15.4567 12.612 15.6247 12.456V10.068H13.8487C12.9487 10.068 12.2887 10.224 11.8807 10.536C11.4727 10.848 11.2567 11.34 11.2567 12.012C11.2567 13.08 11.7847 13.62 12.8287 13.62M9.63672 12.084C9.63672 11.052 9.98472 10.26 10.6687 9.72002C11.3527 9.18002 12.3487 8.90402 13.6687 8.90402H15.6367V8.24402C15.6367 6.66002 14.9407 5.86802 13.5607 5.86802C13.1167 5.86802 12.6487 5.92802 12.1567 6.06002C11.6647 6.18002 11.2207 6.33602 10.8127 6.52802L10.3087 5.31602C10.8127 5.02802 11.3647 4.81202 11.9527 4.65602C12.5407 4.50002 13.1167 4.41602 13.6687 4.41602C16.0687 4.41602 17.2687 5.71202 17.2687 8.29202V14.832H16.0087L15.8047 13.704C15.3007 14.112 14.7607 14.436 14.1847 14.664C13.6087 14.892 13.0687 15 12.5407 15C11.6407 15 10.9327 14.736 10.4167 14.22C9.90072 13.704 9.64872 12.984 9.64872 12.084" fill="white"/>
<path d="M26.5677 4.344L27.8997 5.316L24.6117 9.468L28.4157 14.064L27.0957 15.096L22.6077 9.564L26.5557 4.344H26.5677ZM22.0077 14.832H20.3037V0.372L22.0077 0V14.832Z" fill="white"/>
<path d="M33.1444 13.608C33.3724 13.608 33.6244 13.572 33.8764 13.512C34.1284 13.452 34.3804 13.368 34.6324 13.272C34.8844 13.176 35.1244 13.044 35.3404 12.912C35.5564 12.768 35.7604 12.612 35.9284 12.456V10.068H34.1524C33.2524 10.068 32.5924 10.224 32.1844 10.536C31.7764 10.848 31.5604 11.34 31.5604 12.012C31.5604 13.08 32.0884 13.62 33.1324 13.62M29.9404 12.084C29.9404 11.052 30.2884 10.26 30.9724 9.72002C31.6564 9.18002 32.6524 8.90402 33.9724 8.90402H35.9404V8.24402C35.9404 6.66002 35.2444 5.86802 33.8644 5.86802C33.4204 5.86802 32.9524 5.92802 32.4604 6.06002C31.9684 6.18002 31.5244 6.33602 31.1164 6.52802L30.6124 5.31602C31.1164 5.02802 31.6684 4.81202 32.2564 4.65602C32.8444 4.50002 33.4204 4.41602 33.9724 4.41602C36.3724 4.41602 37.5724 5.71202 37.5724 8.29202V14.832H36.3124L36.1084 13.704C35.6044 14.112 35.0644 14.436 34.4884 14.664C33.9124 14.892 33.3604 15 32.8444 15C31.9444 15 31.2364 14.736 30.7204 14.22C30.2044 13.704 29.9524 12.984 29.9524 12.084" fill="white"/>
<path d="M44.4364 5.81973C43.5484 5.81973 42.8644 6.15573 42.3844 6.82773C41.9044 7.49973 41.6644 8.48373 41.6644 9.77973C41.6644 11.0757 41.9044 12.0357 42.3844 12.6837C42.8644 13.3437 43.5484 13.6677 44.4364 13.6677C45.3244 13.6677 46.0324 13.3437 46.5004 12.6837C46.9804 12.0237 47.2204 11.0637 47.2204 9.77973C47.2204 8.49573 46.9804 7.49973 46.5004 6.82773C46.0204 6.15573 45.3364 5.81973 44.4364 5.81973ZM44.4364 4.42773C45.8404 4.42773 46.9564 4.88373 47.7604 5.80773C48.5644 6.73173 48.9724 8.05173 48.9724 9.76774C48.9724 11.4837 48.5764 12.7677 47.7724 13.6797C46.9804 14.5917 45.8644 15.0477 44.4364 15.0477C43.0084 15.0477 41.9164 14.5917 41.1124 13.6797C40.3084 12.7677 39.9004 11.4717 39.9004 9.76774C39.9004 8.06374 40.3084 6.73173 41.1124 5.80773C41.9284 4.88373 43.0324 4.42773 44.4244 4.42773" fill="white"/>
<path d="M64.3321 0.37207H63.3721V14.7241H64.3321V0.37207Z" fill="white"/>
<path d="M88.3564 3.47981H84.8284V14.0878H82.2484V3.47981H78.7324V1.00781H88.3564V3.47981Z" fill="white"/>
<path d="M97.8839 11.6278V14.0998H89.7959V1.00781H97.7879V3.47981H92.3639V6.26381H97.3199V8.68781H92.3639V11.6158H97.8719L97.8839 11.6278Z" fill="white"/>
<path d="M99 7.54814C99 3.72014 101.844 0.744141 105.804 0.744141C108.192 0.744141 110.304 1.95614 111.432 3.82814L109.212 5.11214C108.576 3.94814 107.304 3.24014 105.816 3.24014C103.26 3.24014 101.58 5.01614 101.58 7.53614C101.58 10.0561 103.26 11.8201 105.816 11.8201C107.316 11.8201 108.6 11.1121 109.212 9.97214L111.432 11.2561C110.328 13.1281 108.216 14.3401 105.804 14.3401C101.844 14.3401 99 11.3521 99 7.53614V7.54814Z" fill="white"/>
<path d="M123.013 1.00781V14.0878H120.457V8.66381H115.597V14.0878H113.017V1.00781H115.597V6.20381H120.457V1.00781H123.013Z" fill="white"/>
<path d="M132.697 3.47981V6.57581H137.785V9.04781H132.697V14.0878H130.117V1.00781H137.929V3.47981H132.697Z" fill="white"/>
<path d="M139.213 7.54814C139.213 3.72014 142.225 0.744141 145.993 0.744141C149.761 0.744141 152.797 3.72014 152.797 7.54814C152.797 11.3761 149.773 14.3521 145.993 14.3521C142.213 14.3521 139.213 11.3641 139.213 7.54814ZM150.217 7.54814C150.217 5.02814 148.369 3.25214 145.993 3.25214C143.617 3.25214 141.769 5.02814 141.769 7.54814C141.769 10.0681 143.617 11.8321 145.993 11.8321C148.369 11.8321 150.217 10.0561 150.217 7.54814Z" fill="white"/>
<path d="M159.157 9.55181H157.189V14.0878H154.609V1.00781H159.841C162.253 1.00781 164.197 2.95181 164.197 5.33981C164.197 6.98381 163.165 8.45981 161.677 9.15581L164.569 14.0878H161.785L159.145 9.55181H159.157ZM157.189 7.28381H159.841C160.813 7.28381 161.617 6.41981 161.617 5.33981C161.617 4.25981 160.813 3.41981 159.841 3.41981H157.189V7.28381Z" fill="white"/>
<path d="M188.569 14.0878H186.013V5.60381L182.329 11.6758H182.029L178.345 5.61581V14.0758H175.765V1.00781H178.417L182.173 7.18781L185.905 1.00781H188.557V14.0878H188.569Z" fill="white"/>
<path d="M200.328 5.39981C200.328 7.84781 198.384 9.79181 195.864 9.79181H193.56V14.0878H190.98V1.00781H195.852C198.372 1.00781 200.316 2.95181 200.316 5.39981H200.328ZM197.772 5.39981C197.772 4.25981 196.968 3.41981 195.864 3.41981H193.56V7.37981H195.864C196.968 7.37981 197.772 6.51581 197.772 5.39981Z" fill="white"/>
<path d="M208.308 11.7358H203.1L202.32 14.0878H199.536L204.108 1.00781H207.3L211.896 14.0878H209.088L208.308 11.7358ZM207.504 9.32381L205.716 3.98381L203.928 9.32381H207.516H207.504Z" fill="white"/>
<path d="M212.1 7.54814C212.1 3.72014 214.944 0.744141 218.904 0.744141C221.292 0.744141 223.404 1.95614 224.532 3.82814L222.312 5.11214C221.676 3.94814 220.404 3.24014 218.916 3.24014C216.36 3.24014 214.68 5.01614 214.68 7.53614C214.68 10.0561 216.36 11.8201 218.916 11.8201C220.416 11.8201 221.7 11.1121 222.312 9.97214L224.532 11.2561C223.428 13.1281 221.316 14.3401 218.904 14.3401C214.944 14.3401 212.1 11.3521 212.1 7.53614V7.54814Z" fill="white"/>
<path d="M234.72 3.47981H231.192V14.0878H228.612V3.47981H225.096V1.00781H234.72V3.47981Z" fill="white"/>
<path d="M172.032 14.2566C172.973 14.2566 173.736 13.4937 173.736 12.5526C173.736 11.6115 172.973 10.8486 172.032 10.8486C171.091 10.8486 170.328 11.6115 170.328 12.5526C170.328 13.4937 171.091 14.2566 172.032 14.2566Z" fill="white"/>
<path d="M172.032 9.14414C172.416 9.14414 172.776 9.20414 173.112 9.32414L174 0.912141C173.364 0.804141 172.704 0.744141 172.032 0.744141C171.36 0.744141 170.7 0.804141 170.064 0.912141L170.952 9.32414C171.288 9.20414 171.66 9.14414 172.032 9.14414Z" fill="white"/>
</g>
<path opacity="0.8" d="M2.2752 29.7053H3.456V31.3325H9.7632V29.7053H10.944V34.9181H2.2752V29.7053ZM3.456 32.2829V33.9533H9.7632V32.2829H3.456ZM0.72 36.3005H12.4848V37.2797H0.72V36.3005ZM6.0048 34.3421H7.2V36.7325H6.0048V34.3421ZM2.232 40.9517H11.1744V41.9309H2.232V40.9517ZM2.232 38.3165H3.4272V41.2829H2.232V38.3165ZM24.5257 33.6077H28.1401V34.5869H24.5257V33.6077ZM21.3721 30.3101H22.3513V32.6429C22.3513 33.3629 22.2601 34.0733 22.0777 34.7741C21.9049 35.4749 21.6553 36.1277 21.3289 36.7325C21.0025 37.3373 20.6185 37.8749 20.1769 38.3453C19.7449 38.8157 19.2697 39.1901 18.7513 39.4685L18.0025 38.5037C18.4825 38.2733 18.9241 37.9517 19.3273 37.5389C19.7401 37.1261 20.1001 36.6557 20.4073 36.1277C20.7145 35.5901 20.9497 35.0285 21.1129 34.4429C21.2857 33.8477 21.3721 33.2477 21.3721 32.6429V30.3101ZM21.6169 30.3101H22.5817V32.6429C22.5817 33.2285 22.6633 33.8093 22.8265 34.3853C22.9993 34.9613 23.2393 35.5037 23.5465 36.0125C23.8537 36.5117 24.2089 36.9581 24.6121 37.3517C25.0249 37.7453 25.4665 38.0525 25.9369 38.2733L25.2169 39.2381C24.6985 38.9693 24.2185 38.6093 23.7769 38.1581C23.3353 37.7069 22.9513 37.1885 22.6249 36.6029C22.3081 36.0173 22.0585 35.3885 21.8761 34.7165C21.7033 34.0445 21.6169 33.3533 21.6169 32.6429V30.3101ZM27.5497 29.1869H28.7305V42.2333H27.5497V29.1869ZM40.7246 29.1869H41.9198V42.2333H40.7246V29.1869ZM31.9982 30.2957H33.1934V33.7229H36.9518V30.2957H38.1326V39.0941H31.9982V30.2957ZM33.1934 34.6733V38.1005H36.9518V34.6733H33.1934ZM49.7234 30.0797H50.7746V31.0877C50.7746 31.6541 50.6738 32.1917 50.4722 32.7005C50.2802 33.2093 50.0114 33.6845 49.6658 34.1261C49.3298 34.5581 48.9362 34.9469 48.485 35.2925C48.0434 35.6381 47.5682 35.9309 47.0594 36.1709C46.5602 36.4109 46.0514 36.5933 45.533 36.7181L45.0002 35.7245C45.4514 35.6285 45.9026 35.4797 46.3538 35.2781C46.8146 35.0765 47.2466 34.8317 47.6498 34.5437C48.053 34.2461 48.4082 33.9149 48.7154 33.5501C49.0322 33.1853 49.277 32.7965 49.4498 32.3837C49.6322 31.9613 49.7234 31.5293 49.7234 31.0877V30.0797ZM49.9538 30.0797H50.9762V31.0877C50.9762 31.5293 51.0674 31.9613 51.2498 32.3837C51.4322 32.7965 51.677 33.1853 51.9842 33.5501C52.301 33.9149 52.661 34.2461 53.0642 34.5437C53.4674 34.8317 53.8946 35.0813 54.3458 35.2925C54.8066 35.4941 55.2674 35.6381 55.7282 35.7245L55.181 36.7181C54.6626 36.5933 54.1538 36.4109 53.6546 36.1709C53.1554 35.9309 52.6802 35.6381 52.229 35.2925C51.7874 34.9469 51.3938 34.5581 51.0482 34.1261C50.7026 33.6845 50.4338 33.2093 50.2418 32.7005C50.0498 32.1917 49.9538 31.6541 49.9538 31.0877V30.0797ZM44.5106 39.4685H56.3186V40.4621H44.5106V39.4685ZM59.3415 33.1037H68.1975V34.0685H59.3415V33.1037ZM57.7431 35.8109H69.5511V36.7901H57.7431V35.8109ZM59.3415 29.6621H60.5223V33.5933H59.3415V29.6621ZM59.2551 40.9229H68.2695V41.9021H59.2551V40.9229ZM59.2551 38.1005H60.4503V41.1821H59.2551V38.1005ZM80.584 30.5405H81.7504C81.7504 31.4813 81.6592 32.4029 81.4768 33.3053C81.2944 34.1981 80.9824 35.0525 80.5408 35.8685C80.0992 36.6749 79.4944 37.4333 78.7264 38.1437C77.9584 38.8541 76.9936 39.4973 75.832 40.0733L75.1696 39.1517C76.2064 38.6429 77.0704 38.0813 77.7616 37.4669C78.4528 36.8525 79.0048 36.1901 79.4176 35.4797C79.8304 34.7693 80.128 34.0109 80.3104 33.2045C80.4928 32.3981 80.584 31.5533 80.584 30.6701V30.5405ZM75.8896 30.5405H81.304V31.5197H75.8896V30.5405ZM80.4112 33.7661V34.7021L75.4144 35.1773L75.2272 34.1261L80.4112 33.7661ZM83.8672 29.1869H85.0624V42.2045H83.8672V29.1869ZM84.7456 34.4717H87.136V35.4653H84.7456V34.4717ZM93.8309 30.5405H94.9973C94.9973 31.4813 94.9061 32.4029 94.7237 33.3053C94.5413 34.1981 94.2293 35.0525 93.7877 35.8685C93.3461 36.6749 92.7413 37.4333 91.9733 38.1437C91.2053 38.8541 90.2405 39.4973 89.0789 40.0733L88.4165 39.1517C89.4533 38.6429 90.3173 38.0813 91.0085 37.4669C91.6997 36.8525 92.2517 36.1901 92.6645 35.4797C93.0773 34.7693 93.3749 34.0109 93.5573 33.2045C93.7397 32.3981 93.8309 31.5533 93.8309 30.6701V30.5405ZM89.1365 30.5405H94.5509V31.5197H89.1365V30.5405ZM93.6581 33.7661V34.7021L88.6613 35.1773L88.4741 34.1261L93.6581 33.7661ZM97.1141 29.1869H98.3093V42.2045H97.1141V29.1869ZM97.9925 34.4717H100.383V35.4653H97.9925V34.4717ZM106.833 36.5453H108.014V39.7853H106.833V36.5453ZM107.423 30.0365C108.345 30.0365 109.161 30.1805 109.871 30.4685C110.582 30.7469 111.139 31.1405 111.542 31.6493C111.955 32.1581 112.161 32.7581 112.161 33.4493C112.161 34.1405 111.955 34.7453 111.542 35.2637C111.139 35.7725 110.582 36.1661 109.871 36.4445C109.161 36.7229 108.345 36.8621 107.423 36.8621C106.511 36.8621 105.695 36.7229 104.975 36.4445C104.265 36.1661 103.708 35.7725 103.305 35.2637C102.902 34.7453 102.7 34.1405 102.7 33.4493C102.7 32.7581 102.902 32.1581 103.305 31.6493C103.708 31.1405 104.265 30.7469 104.975 30.4685C105.695 30.1805 106.511 30.0365 107.423 30.0365ZM107.423 31.0013C106.732 31.0013 106.118 31.1021 105.58 31.3037C105.043 31.5053 104.62 31.7933 104.313 32.1677C104.006 32.5325 103.852 32.9597 103.852 33.4493C103.852 33.9389 104.006 34.3709 104.313 34.7453C104.62 35.1197 105.043 35.4077 105.58 35.6093C106.118 35.8109 106.732 35.9117 107.423 35.9117C108.115 35.9117 108.729 35.8109 109.267 35.6093C109.804 35.4077 110.227 35.1197 110.534 34.7453C110.851 34.3709 111.009 33.9389 111.009 33.4493C111.009 32.9597 110.851 32.5325 110.534 32.1677C110.227 31.7933 109.804 31.5053 109.267 31.3037C108.729 31.1021 108.115 31.0013 107.423 31.0013ZM101.548 39.5549H113.356V40.5485H101.548V39.5549ZM124.27 29.2013H125.465V36.6317H124.27V29.2013ZM117.056 37.3373H125.465V42.0461H117.056V37.3373ZM124.299 38.3021H118.222V41.0669H124.299V38.3021ZM118.481 29.8781C119.144 29.8781 119.729 30.0077 120.238 30.2669C120.747 30.5261 121.145 30.8861 121.433 31.3469C121.731 31.7981 121.88 32.3261 121.88 32.9309C121.88 33.5261 121.731 34.0541 121.433 34.5149C121.145 34.9661 120.747 35.3213 120.238 35.5805C119.729 35.8397 119.144 35.9693 118.481 35.9693C117.829 35.9693 117.243 35.8397 116.725 35.5805C116.216 35.3213 115.813 34.9661 115.515 34.5149C115.227 34.0541 115.083 33.5261 115.083 32.9309C115.083 32.3261 115.227 31.7981 115.515 31.3469C115.813 30.8861 116.216 30.5261 116.725 30.2669C117.243 30.0077 117.829 29.8781 118.481 29.8781ZM118.481 30.8861C118.059 30.8861 117.68 30.9725 117.344 31.1453C117.008 31.3181 116.739 31.5581 116.537 31.8653C116.345 32.1629 116.249 32.5181 116.249 32.9309C116.249 33.3245 116.345 33.6749 116.537 33.9821C116.739 34.2893 117.008 34.5293 117.344 34.7021C117.68 34.8749 118.059 34.9613 118.481 34.9613C118.913 34.9613 119.297 34.8749 119.633 34.7021C119.969 34.5293 120.233 34.2893 120.425 33.9821C120.617 33.6749 120.713 33.3245 120.713 32.9309C120.713 32.5181 120.617 32.1629 120.425 31.8653C120.233 31.5581 119.969 31.3181 119.633 31.1453C119.297 30.9725 118.913 30.8861 118.481 30.8861ZM137.877 29.2013H139.029V37.0925H137.877V29.2013ZM135.818 32.5997H138.28V33.5933H135.818V32.5997ZM135.141 29.4029H136.279V37.0205H135.141V29.4029ZM130.159 37.7405H139.029V42.2189H137.834V38.7197H130.159V37.7405ZM128.215 30.3245H134.277V31.3181H128.215V30.3245ZM128.114 36.3725L127.984 35.3789C128.416 35.3789 128.901 35.3789 129.439 35.3789C129.986 35.3693 130.557 35.3549 131.152 35.3357C131.747 35.3165 132.333 35.2877 132.909 35.2493C133.485 35.2013 134.027 35.1437 134.536 35.0765L134.594 35.9693C133.912 36.0845 133.178 36.1757 132.391 36.2429C131.603 36.3005 130.835 36.3389 130.087 36.3581C129.347 36.3677 128.69 36.3725 128.114 36.3725ZM129.309 30.9725H130.418V35.5517H129.309V30.9725ZM132.074 30.9725H133.168V35.5517H132.074V30.9725ZM142.801 36.2141H151.743V37.1789H142.801V36.2141ZM141.289 39.5405H153.097V40.5341H141.289V39.5405ZM142.801 30.3101H151.614V31.2893H144.01V36.5021H142.801V30.3101ZM143.636 33.2045H151.326V34.1693H143.636V33.2045ZM168.536 29.1869H169.688V42.2189H168.536V29.1869ZM166.477 34.4429H168.982V35.4509H166.477V34.4429ZM165.699 29.4605H166.837V41.5565H165.699V29.4605ZM161.278 31.2029H162.2V32.7149C162.2 33.4829 162.138 34.2173 162.013 34.9181C161.888 35.6189 161.696 36.2621 161.437 36.8477C161.187 37.4333 160.875 37.9565 160.501 38.4173C160.126 38.8685 159.69 39.2429 159.19 39.5405L158.442 38.6189C159.075 38.2733 159.598 37.8077 160.011 37.2221C160.424 36.6269 160.736 35.9453 160.947 35.1773C161.168 34.4093 161.278 33.5885 161.278 32.7149V31.2029ZM161.494 31.2029H162.43V32.7149C162.43 33.5021 162.536 34.2509 162.747 34.9613C162.958 35.6717 163.27 36.3053 163.683 36.8621C164.096 37.4093 164.61 37.8413 165.224 38.1581L164.518 39.0797C163.856 38.7053 163.299 38.2013 162.848 37.5677C162.397 36.9341 162.056 36.2045 161.826 35.3789C161.605 34.5533 161.494 33.6653 161.494 32.7149V31.2029ZM158.758 30.7277H164.792V31.7069H158.758V30.7277ZM180.746 29.1869H181.941V38.6189H180.746V29.1869ZM181.567 33.0461H183.871V34.0397H181.567V33.0461ZM172.437 35.3213H173.445C174.338 35.3213 175.121 35.3117 175.793 35.2925C176.465 35.2733 177.084 35.2301 177.65 35.1629C178.217 35.0957 178.788 35.0045 179.364 34.8893L179.508 35.8685C178.903 35.9837 178.308 36.0749 177.722 36.1421C177.146 36.2093 176.517 36.2573 175.836 36.2861C175.154 36.3053 174.357 36.3149 173.445 36.3149H172.437V35.3213ZM172.437 30.3101H178.183V31.2893H173.618V35.8541H172.437V30.3101ZM173.834 40.9517H182.517V41.9309H173.834V40.9517ZM173.834 37.6685H175.015V41.3981H173.834V37.6685ZM189.299 30.1373C189.98 30.1373 190.58 30.2669 191.099 30.5261C191.627 30.7757 192.039 31.1309 192.337 31.5917C192.635 32.0525 192.783 32.5901 192.783 33.2045C192.783 33.8093 192.635 34.3469 192.337 34.8173C192.039 35.2781 191.627 35.6381 191.099 35.8973C190.58 36.1469 189.98 36.2717 189.299 36.2717C188.627 36.2717 188.027 36.1469 187.499 35.8973C186.971 35.6381 186.553 35.2781 186.246 34.8173C185.948 34.3469 185.799 33.8093 185.799 33.2045C185.799 32.5901 185.948 32.0525 186.246 31.5917C186.553 31.1309 186.971 30.7757 187.499 30.5261C188.027 30.2669 188.627 30.1373 189.299 30.1373ZM189.299 31.1741C188.857 31.1741 188.459 31.2605 188.103 31.4333C187.758 31.5965 187.484 31.8317 187.283 32.1389C187.081 32.4461 186.98 32.8013 186.98 33.2045C186.98 33.6077 187.081 33.9629 187.283 34.2701C187.484 34.5773 187.758 34.8173 188.103 34.9901C188.459 35.1533 188.857 35.2349 189.299 35.2349C189.75 35.2349 190.148 35.1533 190.494 34.9901C190.839 34.8173 191.113 34.5773 191.315 34.2701C191.516 33.9629 191.617 33.6077 191.617 33.2045C191.617 32.8013 191.516 32.4461 191.315 32.1389C191.113 31.8317 190.839 31.5965 190.494 31.4333C190.148 31.2605 189.75 31.1741 189.299 31.1741ZM194.497 29.1869H195.692V42.2333H194.497V29.1869ZM185.31 39.3821L185.151 38.3741C185.948 38.3741 186.822 38.3693 187.772 38.3597C188.723 38.3405 189.702 38.3021 190.71 38.2445C191.727 38.1773 192.707 38.0717 193.647 37.9277L193.748 38.8061C192.769 38.9885 191.775 39.1229 190.767 39.2093C189.769 39.2861 188.804 39.3341 187.873 39.3533C186.942 39.3725 186.087 39.3821 185.31 39.3821ZM205.818 31.0589H206.797V33.1613C206.797 33.8525 206.701 34.5341 206.509 35.2061C206.317 35.8685 206.048 36.4973 205.703 37.0925C205.367 37.6781 204.973 38.1965 204.522 38.6477C204.071 39.0989 203.586 39.4541 203.067 39.7133L202.376 38.7629C202.847 38.5325 203.288 38.2205 203.701 37.8269C204.123 37.4333 204.493 36.9821 204.81 36.4733C205.127 35.9645 205.371 35.4269 205.544 34.8605C205.727 34.2941 205.818 33.7277 205.818 33.1613V31.0589ZM206.063 31.0589H207.027V33.1613C207.027 33.7085 207.114 34.2557 207.287 34.8029C207.469 35.3405 207.719 35.8493 208.035 36.3293C208.362 36.7997 208.731 37.2173 209.144 37.5821C209.567 37.9469 210.018 38.2349 210.498 38.4461L209.835 39.3965C209.307 39.1469 208.813 38.8109 208.352 38.3885C207.891 37.9661 207.488 37.4813 207.143 36.9341C206.807 36.3773 206.543 35.7821 206.351 35.1485C206.159 34.5053 206.063 33.8429 206.063 33.1613V31.0589ZM202.794 30.5261H210.066V31.5197H202.794V30.5261ZM211.837 29.1869H213.032V42.2189H211.837V29.1869ZM219.31 35.7533H220.505V38.6477H219.31V35.7533ZM225.084 29.2013H226.279V39.0941H225.084V29.2013ZM217.394 40.9517H226.596V41.9309H217.394V40.9517ZM217.394 38.1293H218.59V41.2109H217.394V38.1293ZM215.71 36.1997L215.551 35.2061C216.358 35.2061 217.231 35.2013 218.172 35.1917C219.122 35.1725 220.092 35.1389 221.081 35.0909C222.07 35.0333 223.025 34.9469 223.946 34.8317L224.033 35.6957C223.102 35.8493 222.142 35.9645 221.153 36.0413C220.174 36.1085 219.218 36.1517 218.287 36.1709C217.356 36.1901 216.497 36.1997 215.71 36.1997ZM222.434 36.8909H225.401V37.7549H222.434V36.8909ZM219.785 29.7197C220.428 29.7197 220.99 29.8157 221.47 30.0077C221.95 30.1901 222.319 30.4541 222.578 30.7997C222.847 31.1357 222.982 31.5341 222.982 31.9949C222.982 32.4461 222.847 32.8445 222.578 33.1901C222.319 33.5357 221.95 33.7997 221.47 33.9821C220.99 34.1645 220.428 34.2557 219.785 34.2557C219.151 34.2557 218.59 34.1645 218.1 33.9821C217.62 33.7997 217.246 33.5357 216.977 33.1901C216.718 32.8445 216.588 32.4461 216.588 31.9949C216.588 31.5341 216.718 31.1357 216.977 30.7997C217.246 30.4541 217.62 30.1901 218.1 30.0077C218.59 29.8157 219.151 29.7197 219.785 29.7197ZM219.785 30.6125C219.17 30.6125 218.671 30.7373 218.287 30.9869C217.903 31.2365 217.711 31.5725 217.711 31.9949C217.711 32.4077 217.903 32.7389 218.287 32.9885C218.671 33.2381 219.17 33.3629 219.785 33.3629C220.39 33.3629 220.884 33.2381 221.268 32.9885C221.652 32.7389 221.844 32.4077 221.844 31.9949C221.844 31.7069 221.758 31.4621 221.585 31.2605C221.412 31.0589 221.172 30.9005 220.865 30.7853C220.558 30.6701 220.198 30.6125 219.785 30.6125ZM229.46 30.6125H235.336V31.5917H229.46V30.6125ZM231.491 34.3421H232.672V38.7485H231.491V34.3421ZM234.846 30.6125H236.027V31.3181C236.027 31.8461 236.008 32.5373 235.969 33.3917C235.94 34.2461 235.835 35.2781 235.652 36.4877L234.472 36.3869C234.664 35.2061 234.774 34.1981 234.803 33.3629C234.832 32.5277 234.846 31.8461 234.846 31.3181V30.6125ZM237.654 29.1869H238.849V42.2189H237.654V29.1869ZM238.518 34.6301H240.923V35.6525H238.518V34.6301ZM228.884 39.3677L228.74 38.3741C229.518 38.3645 230.368 38.3549 231.289 38.3453C232.22 38.3261 233.161 38.2877 234.112 38.2301C235.072 38.1725 235.988 38.0909 236.862 37.9853L236.934 38.8781C236.032 39.0221 235.105 39.1277 234.155 39.1949C233.214 39.2621 232.292 39.3101 231.39 39.3389C230.488 39.3581 229.652 39.3677 228.884 39.3677ZM251.581 34.1261H254.029V35.1053H251.581V34.1261ZM246.656 38.1149H247.477C248.149 38.1149 248.744 38.1053 249.263 38.0861C249.781 38.0669 250.266 38.0333 250.717 37.9853C251.178 37.9373 251.644 37.8653 252.114 37.7693L252.229 38.7485C251.74 38.8445 251.26 38.9165 250.789 38.9645C250.319 39.0125 249.82 39.0461 249.292 39.0653C248.764 39.0845 248.159 39.0941 247.477 39.0941H246.656V38.1149ZM246.656 30.7565H251.48V31.7213H247.794V38.4461H246.656V30.7565ZM247.448 34.2845H250.876V35.2205H247.448V34.2845ZM256.074 29.1869H257.226V42.2189H256.074V29.1869ZM253.453 29.4893H254.576V41.5421H253.453V29.4893ZM260.825 30.5117H269.076V31.4909H260.825V30.5117ZM259.414 39.4109H271.179V40.4045H259.414V39.4109ZM268.572 30.5117H269.739V32.1101C269.739 32.7437 269.729 33.3821 269.71 34.0253C269.7 34.6589 269.657 35.3357 269.58 36.0557C269.503 36.7661 269.374 37.5677 269.191 38.4605L267.996 38.3453C268.188 37.5101 268.323 36.7421 268.399 36.0413C268.486 35.3309 268.534 34.6541 268.543 34.0109C268.563 33.3677 268.572 32.7341 268.572 32.1101V30.5117ZM268.86 34.1117V35.0189L260.638 35.4509L260.465 34.4717L268.86 34.1117ZM272.661 39.5981H284.469V40.6061H272.661V39.5981ZM277.931 36.2285H279.112V40.0445H277.931V36.2285ZM273.697 30.4397H283.36V31.4189H273.697V30.4397ZM273.726 35.6813H283.331V36.6317H273.726V35.6813ZM275.713 31.2173H276.909V35.8397H275.713V31.2173ZM280.149 31.2173H281.329V35.8397H280.149V31.2173ZM295.383 29.2013H296.578V36.6317H295.383V29.2013ZM288.168 37.3373H296.578V42.0461H288.168V37.3373ZM295.412 38.3021H289.335V41.0669H295.412V38.3021ZM289.594 29.8781C290.256 29.8781 290.842 30.0077 291.351 30.2669C291.86 30.5261 292.258 30.8861 292.546 31.3469C292.844 31.7981 292.992 32.3261 292.992 32.9309C292.992 33.5261 292.844 34.0541 292.546 34.5149C292.258 34.9661 291.86 35.3213 291.351 35.5805C290.842 35.8397 290.256 35.9693 289.594 35.9693C288.941 35.9693 288.356 35.8397 287.837 35.5805C287.328 35.3213 286.925 34.9661 286.628 34.5149C286.34 34.0541 286.196 33.5261 286.196 32.9309C286.196 32.3261 286.34 31.7981 286.628 31.3469C286.925 30.8861 287.328 30.5261 287.837 30.2669C288.356 30.0077 288.941 29.8781 289.594 29.8781ZM289.594 30.8861C289.172 30.8861 288.792 30.9725 288.456 31.1453C288.12 31.3181 287.852 31.5581 287.65 31.8653C287.458 32.1629 287.362 32.5181 287.362 32.9309C287.362 33.3245 287.458 33.6749 287.65 33.9821C287.852 34.2893 288.12 34.5293 288.456 34.7021C288.792 34.8749 289.172 34.9613 289.594 34.9613C290.026 34.9613 290.41 34.8749 290.746 34.7021C291.082 34.5293 291.346 34.2893 291.538 33.9821C291.73 33.6749 291.826 33.3245 291.826 32.9309C291.826 32.5181 291.73 32.1629 291.538 31.8653C291.346 31.5581 291.082 31.3181 290.746 31.1453C290.41 30.9725 290.026 30.8861 289.594 30.8861ZM308.99 29.2013H310.142V37.0925H308.99V29.2013ZM306.93 32.5997H309.393V33.5933H306.93V32.5997ZM306.254 29.4029H307.391V37.0205H306.254V29.4029ZM301.271 37.7405H310.142V42.2189H308.946V38.7197H301.271V37.7405ZM299.327 30.3245H305.39V31.3181H299.327V30.3245ZM299.226 36.3725L299.097 35.3789C299.529 35.3789 300.014 35.3789 300.551 35.3789C301.098 35.3693 301.67 35.3549 302.265 35.3357C302.86 35.3165 303.446 35.2877 304.022 35.2493C304.598 35.2013 305.14 35.1437 305.649 35.0765L305.706 35.9693C305.025 36.0845 304.29 36.1757 303.503 36.2429C302.716 36.3005 301.948 36.3389 301.199 36.3581C300.46 36.3677 299.802 36.3725 299.226 36.3725ZM300.422 30.9725H301.53V35.5517H300.422V30.9725ZM303.186 30.9725H304.281V35.5517H303.186V30.9725ZM313.913 36.2141H322.856V37.1789H313.913V36.2141ZM312.401 39.5405H324.209V40.5341H312.401V39.5405ZM313.913 30.3101H322.726V31.2893H315.123V36.5021H313.913V30.3101ZM314.748 33.2045H322.438V34.1693H314.748V33.2045ZM335.113 30.5405H336.265C336.265 31.4813 336.169 32.3981 335.977 33.2909C335.794 34.1837 335.477 35.0381 335.026 35.8541C334.585 36.6701 333.985 37.4333 333.226 38.1437C332.477 38.8541 331.527 39.4973 330.375 40.0733L329.713 39.1517C330.711 38.6429 331.556 38.0813 332.247 37.4669C332.938 36.8525 333.495 36.1901 333.917 35.4797C334.34 34.7693 334.642 34.0157 334.825 33.2189C335.017 32.4125 335.113 31.5629 335.113 30.6701V30.5405ZM330.404 30.5405H335.833V31.5197H330.404V30.5405ZM335.041 33.7661V34.6877L329.957 35.1629L329.741 34.1261L335.041 33.7661ZM339.217 29.1869H340.397V42.2189H339.217V29.1869ZM336.221 34.4141H339.793V35.4077H336.221V34.4141ZM345.94 37.0493H347.135V42.3053H345.94V37.0493ZM350.563 37.0493H351.758V42.3053H350.563V37.0493ZM342.931 36.7181H354.739V37.6973H342.931V36.7181ZM344.443 29.8925H353.227V34.9757H344.443V29.8925ZM352.046 30.8573H345.609V34.0109H352.046V30.8573ZM365.667 29.1869H366.848V42.2189H365.667V29.1869ZM357.013 30.4685H358.193V38.5325H357.013V30.4685ZM357.013 37.8269H358.078C359.077 37.8269 360.089 37.7837 361.117 37.6973C362.153 37.6013 363.219 37.4429 364.313 37.2221L364.472 38.2301C363.339 38.4701 362.249 38.6381 361.203 38.7341C360.157 38.8205 359.115 38.8637 358.078 38.8637H357.013V37.8269ZM370.26 38.0861H371.296C372.112 38.0861 372.856 38.0765 373.528 38.0573C374.21 38.0381 374.863 37.9997 375.487 37.9421C376.12 37.8845 376.768 37.7981 377.431 37.6829L377.56 38.6621C376.879 38.7773 376.216 38.8685 375.573 38.9357C374.93 38.9933 374.263 39.0317 373.572 39.0509C372.89 39.0701 372.132 39.0797 371.296 39.0797H370.26V38.0861ZM370.26 30.3677H376.567V31.3613H371.44V38.4317H370.26V30.3677ZM371.152 34.0253H376.092V34.9901H371.152V34.0253ZM378.928 29.1869H380.124V42.2189H378.928V29.1869ZM386.905 30.1373C387.586 30.1373 388.186 30.2669 388.705 30.5261C389.233 30.7757 389.646 31.1309 389.943 31.5917C390.241 32.0525 390.39 32.5901 390.39 33.2045C390.39 33.8093 390.241 34.3469 389.943 34.8173C389.646 35.2781 389.233 35.6381 388.705 35.8973C388.186 36.1469 387.586 36.2717 386.905 36.2717C386.233 36.2717 385.633 36.1469 385.105 35.8973C384.577 35.6381 384.159 35.2781 383.852 34.8173C383.554 34.3469 383.406 33.8093 383.406 33.2045C383.406 32.5901 383.554 32.0525 383.852 31.5917C384.159 31.1309 384.577 30.7757 385.105 30.5261C385.633 30.2669 386.233 30.1373 386.905 30.1373ZM386.905 31.1741C386.463 31.1741 386.065 31.2605 385.71 31.4333C385.364 31.5965 385.09 31.8317 384.889 32.1389C384.687 32.4461 384.586 32.8013 384.586 33.2045C384.586 33.6077 384.687 33.9629 384.889 34.2701C385.09 34.5773 385.364 34.8173 385.71 34.9901C386.065 35.1533 386.463 35.2349 386.905 35.2349C387.356 35.2349 387.754 35.1533 388.1 34.9901C388.446 34.8173 388.719 34.5773 388.921 34.2701C389.122 33.9629 389.223 33.6077 389.223 33.2045C389.223 32.8013 389.122 32.4461 388.921 32.1389C388.719 31.8317 388.446 31.5965 388.1 31.4333C387.754 31.2605 387.356 31.1741 386.905 31.1741ZM392.103 29.1869H393.298V42.2333H392.103V29.1869ZM382.916 39.3821L382.758 38.3741C383.554 38.3741 384.428 38.3693 385.378 38.3597C386.329 38.3405 387.308 38.3021 388.316 38.2445C389.334 38.1773 390.313 38.0717 391.254 37.9277L391.354 38.8061C390.375 38.9885 389.382 39.1229 388.374 39.2093C387.375 39.2861 386.41 39.3341 385.479 39.3533C384.548 39.3725 383.694 39.3821 382.916 39.3821ZM409.472 29.1869H410.667V42.2189H409.472V29.1869ZM405.656 30.5981H406.837C406.837 31.5389 406.722 32.4461 406.491 33.3197C406.271 34.1933 405.92 35.0237 405.44 35.8109C404.96 36.5885 404.336 37.3133 403.568 37.9853C402.8 38.6573 401.869 39.2573 400.775 39.7853L400.141 38.8205C401.399 38.2157 402.435 37.5101 403.251 36.7037C404.067 35.8973 404.672 34.9997 405.066 34.0109C405.459 33.0125 405.656 31.9373 405.656 30.7853V30.5981ZM400.746 30.5981H406.16V31.5629H400.746V30.5981ZM419.09 32.0957H423.036V33.0749H419.09V32.0957ZM419.09 36.2141H423.036V37.1933H419.09V36.2141ZM416.7 30.1949C417.333 30.1949 417.895 30.3821 418.385 30.7565C418.874 31.1213 419.253 31.6445 419.522 32.3261C419.801 33.0077 419.94 33.8093 419.94 34.7309C419.94 35.6525 419.801 36.4541 419.522 37.1357C419.253 37.8173 418.874 38.3453 418.385 38.7197C417.895 39.0941 417.333 39.2813 416.7 39.2813C416.076 39.2813 415.514 39.0941 415.015 38.7197C414.525 38.3453 414.141 37.8173 413.863 37.1357C413.594 36.4541 413.46 35.6525 413.46 34.7309C413.46 33.8093 413.594 33.0077 413.863 32.3261C414.141 31.6445 414.525 31.1213 415.015 30.7565C415.514 30.3821 416.076 30.1949 416.7 30.1949ZM416.7 31.2605C416.287 31.2605 415.922 31.4045 415.605 31.6925C415.289 31.9709 415.039 32.3741 414.857 32.9021C414.684 33.4205 414.597 34.0301 414.597 34.7309C414.597 35.4317 414.684 36.0461 414.857 36.5741C415.039 37.0925 415.289 37.4957 415.605 37.7837C415.922 38.0717 416.287 38.2157 416.7 38.2157C417.122 38.2157 417.492 38.0717 417.809 37.7837C418.125 37.4957 418.37 37.0925 418.543 36.5741C418.725 36.0461 418.817 35.4317 418.817 34.7309C418.817 34.0301 418.725 33.4205 418.543 32.9021C418.37 32.3741 418.125 31.9709 417.809 31.6925C417.492 31.4045 417.122 31.2605 416.7 31.2605ZM422.762 29.1869H423.943V42.2333H422.762V29.1869ZM426.476 39.6125H438.284V40.6061H426.476V39.6125ZM431.761 36.8333H432.942V40.0301H431.761V36.8333ZM427.916 30.1517H436.815V34.0973H429.126V36.7037H427.945V33.1469H435.635V31.1309H427.916V30.1517ZM427.945 36.1997H437.118V37.1789H427.945V36.1997ZM453.652 29.1869H454.804V42.2189H453.652V29.1869ZM451.549 34.4285H454.055V35.4077H451.549V34.4285ZM448.194 30.8717H449.332C449.332 31.7069 449.25 32.5229 449.087 33.3197C448.924 34.1165 448.655 34.8845 448.28 35.6237C447.916 36.3533 447.421 37.0397 446.797 37.6829C446.173 38.3165 445.396 38.8973 444.464 39.4253L443.773 38.5757C444.868 37.9613 445.736 37.2653 446.38 36.4877C447.023 35.7101 447.484 34.8701 447.762 33.9677C448.05 33.0557 448.194 32.0957 448.194 31.0877V30.8717ZM444.277 30.8717H448.583V31.8509H444.277V30.8717ZM450.772 29.5325H451.895V41.5709H450.772V29.5325ZM457.553 29.7341H458.734V31.5917H462.406V29.7341H463.586V35.4077H457.553V29.7341ZM458.734 32.5277V34.4429H462.406V32.5277H458.734ZM465.934 29.1869H467.129V35.9117H465.934V29.1869ZM466.596 31.9949H469.044V32.9741H466.596V31.9949ZM458.849 36.5309H467.129V39.6989H460.058V41.6429H458.892V38.8061H465.948V37.4813H458.849V36.5309ZM458.892 41.1101H467.59V42.0749H458.892V41.1101ZM471.304 34.8029H477.957V35.7821H471.304V34.8029ZM473.968 35.5805H475.163V38.5757H473.968V35.5805ZM471.304 30.4253H477.899V31.3901H472.485V35.1485H471.304V30.4253ZM479.685 29.1869H480.88V42.2333H479.685V29.1869ZM470.497 39.4109L470.339 38.4029C471.193 38.4029 472.101 38.3981 473.061 38.3885C474.021 38.3693 474.995 38.3357 475.984 38.2877C476.973 38.2301 477.923 38.1485 478.835 38.0429L478.936 38.9213C477.985 39.0653 477.016 39.1757 476.027 39.2525C475.048 39.3197 474.088 39.3629 473.147 39.3821C472.216 39.4013 471.333 39.4109 470.497 39.4109ZM486.84 37.1213H487.776V37.8845C487.776 38.4509 487.661 39.0125 487.431 39.5693C487.2 40.1165 486.864 40.6061 486.423 41.0381C485.991 41.4701 485.458 41.8061 484.824 42.0461L484.234 41.1533C484.781 40.9517 485.247 40.6781 485.631 40.3325C486.024 39.9773 486.322 39.5885 486.523 39.1661C486.735 38.7341 486.84 38.3069 486.84 37.8845V37.1213ZM487.099 37.1213H487.992V37.8845C487.992 38.3261 488.079 38.7677 488.251 39.2093C488.424 39.6413 488.683 40.0397 489.029 40.4045C489.375 40.7597 489.811 41.0477 490.339 41.2685L489.821 42.1613C489.197 41.9117 488.683 41.5613 488.28 41.1101C487.877 40.6589 487.579 40.1549 487.387 39.5981C487.195 39.0317 487.099 38.4605 487.099 37.8845V37.1213ZM491.65 37.1213H492.543V37.8845C492.543 38.3933 492.447 38.9309 492.255 39.4973C492.063 40.0541 491.765 40.5725 491.362 41.0525C490.959 41.5325 490.445 41.9021 489.821 42.1613L489.317 41.2685C489.835 41.0189 490.267 40.7021 490.613 40.3181C490.959 39.9341 491.218 39.5261 491.391 39.0941C491.563 38.6621 491.65 38.2589 491.65 37.8845V37.1213ZM491.895 37.1213H492.816V37.8845C492.816 38.3357 492.917 38.7773 493.119 39.2093C493.33 39.6413 493.627 40.0253 494.011 40.3613C494.405 40.6973 494.88 40.9613 495.437 41.1533L494.832 42.0461C494.199 41.8157 493.661 41.4893 493.219 41.0669C492.787 40.6445 492.456 40.1597 492.226 39.6125C492.005 39.0653 491.895 38.4893 491.895 37.8845V37.1213ZM489.922 32.4557H493.363V33.4349H489.922V32.4557ZM487.071 29.9213C487.704 29.9213 488.271 30.0509 488.77 30.3101C489.279 30.5693 489.677 30.9293 489.965 31.3901C490.253 31.8509 490.397 32.3789 490.397 32.9741C490.397 33.5789 490.253 34.1117 489.965 34.5725C489.677 35.0237 489.279 35.3789 488.77 35.6381C488.271 35.8973 487.704 36.0269 487.071 36.0269C486.427 36.0269 485.851 35.8973 485.343 35.6381C484.843 35.3789 484.45 35.0237 484.162 34.5725C483.874 34.1117 483.73 33.5789 483.73 32.9741C483.73 32.3789 483.874 31.8509 484.162 31.3901C484.45 30.9293 484.843 30.5693 485.343 30.3101C485.851 30.0509 486.427 29.9213 487.071 29.9213ZM487.071 30.9293C486.648 30.9293 486.269 31.0157 485.933 31.1885C485.607 31.3613 485.347 31.6061 485.155 31.9229C484.963 32.2301 484.867 32.5805 484.867 32.9741C484.867 33.3773 484.963 33.7325 485.155 34.0397C485.347 34.3469 485.607 34.5917 485.933 34.7741C486.269 34.9469 486.648 35.0333 487.071 35.0333C487.483 35.0333 487.853 34.9469 488.179 34.7741C488.515 34.5917 488.779 34.3469 488.971 34.0397C489.163 33.7325 489.259 33.3773 489.259 32.9741C489.259 32.5805 489.163 32.2301 488.971 31.9229C488.779 31.6061 488.515 31.3613 488.179 31.1885C487.853 31.0157 487.483 30.9293 487.071 30.9293ZM493.032 29.1869H494.227V36.6173H493.032V29.1869ZM498.244 37.0061H499.425V38.5037H505.804V37.0061H506.985V42.0461H498.244V37.0061ZM499.425 39.4397V41.0813H505.804V39.4397H499.425ZM496.761 35.1197H508.525V36.0989H496.761V35.1197ZM502.031 29.3309H503.068V29.9213C503.068 30.3725 502.972 30.7997 502.78 31.2029C502.588 31.5965 502.324 31.9613 501.988 32.2973C501.661 32.6237 501.277 32.9165 500.836 33.1757C500.404 33.4349 499.933 33.6509 499.425 33.8237C498.925 33.9965 498.407 34.1261 497.869 34.2125L497.423 33.2621C497.893 33.1949 498.349 33.0893 498.791 32.9453C499.242 32.8013 499.665 32.6285 500.058 32.4269C500.452 32.2157 500.797 31.9805 501.095 31.7213C501.393 31.4525 501.623 31.1693 501.786 30.8717C501.949 30.5645 502.031 30.2477 502.031 29.9213V29.3309ZM502.233 29.3309H503.255V29.9213C503.255 30.2381 503.337 30.5501 503.5 30.8573C503.673 31.1549 503.908 31.4381 504.205 31.7069C504.503 31.9661 504.844 32.2013 505.228 32.4125C505.621 32.6237 506.039 32.8061 506.481 32.9597C506.932 33.1037 507.388 33.2045 507.849 33.2621L507.417 34.2125C506.879 34.1261 506.356 33.9965 505.847 33.8237C505.348 33.6509 504.877 33.4349 504.436 33.1757C504.004 32.9069 503.62 32.6045 503.284 32.2685C502.957 31.9325 502.698 31.5677 502.506 31.1741C502.324 30.7805 502.233 30.3629 502.233 29.9213V29.3309ZM519.483 29.1869H520.664V42.2189H519.483V29.1869ZM510.828 30.4685H512.009V38.5325H510.828V30.4685ZM510.828 37.8269H511.894C512.892 37.8269 513.905 37.7837 514.932 37.6973C515.969 37.6013 517.035 37.4429 518.129 37.2221L518.288 38.2301C517.155 38.4701 516.065 38.6381 515.019 38.7341C513.972 38.8205 512.931 38.8637 511.894 38.8637H510.828V37.8269ZM532.067 29.1869H533.262V42.2333H532.067V29.1869ZM532.989 34.3277H535.394V35.3213H532.989V34.3277ZM523.816 37.9709H524.838C525.635 37.9709 526.365 37.9613 527.027 37.9421C527.699 37.9133 528.342 37.8653 528.957 37.7981C529.581 37.7309 530.214 37.6397 530.858 37.5245L531.002 38.5469C530.33 38.6621 529.677 38.7533 529.043 38.8205C528.419 38.8877 527.766 38.9309 527.085 38.9501C526.403 38.9693 525.654 38.9789 524.838 38.9789H523.816V37.9709ZM523.816 30.4541H529.85V31.4333H524.997V38.4317H523.816V30.4541ZM537.919 41.166C537.42 41.166 537.005 40.7512 537.005 40.252C537.005 39.7457 537.42 39.3379 537.919 39.3379C538.425 39.3379 538.833 39.7457 538.833 40.252C538.833 40.7512 538.425 41.166 537.919 41.166Z" fill="white"/>
</svg>
